<svg
    xmlns="http://www.w3.org/2000/svg"
    xml:space="preserve"
    viewBox="0 0 400 400"
>
  <path
        fill="none"
        stroke="#000"
        stroke-miterlimit="10"
        stroke-width="4"
        d="M286.266 27.018c-2.736-14.605-16.868-24.279-31.473-21.542L103.43 33.826C88.821 36.562 79.147 50.695 81.883 65.3l57.636 307.714c2.727 14.546 16.858 24.223 31.466 21.484l151.421-28.362c8.416-1.575 23.259-11.776 19.751-30.5-3.207-17.112-55.891-308.618-55.891-308.618z"
    />
  <path
        fill="currentColor"
        stroke="#000"
        stroke-miterlimit="10"
        stroke-width="4"
        d="m94.483 66.133 180.336-33.778 57.077 304.721-180.338 33.779L94.483 66.133z"
    />
  <path
        d="M159.137 120.55c-.33-2.164-.654-4.351-.97-6.56-.317-2.21-.609-4.385-.886-6.53a616.085 616.085 0 0 1-.776-6.27c-.24-2.035-.443-3.963-.608-5.782l2.354-.441a69.383 69.383 0 0 1 2.302 3.433 172.553 172.553 0 0 1 2.561 4.185 222.002 222.002 0 0 1 2.544 4.387c.832 1.466 1.588 2.806 2.272 4.02.201-1.379.42-2.902.665-4.569.244-1.674.505-3.344.781-5.01.269-1.615.56-3.223.873-4.83.261-1.352.563-2.699.904-4.032l2.354-.442a605.851 605.851 0 0 1 6.078 24.611l-2.636.494a832.491 832.491 0 0 0-2.197-9.905 320.439 320.439 0 0 0-2.214-9.084 61.51 61.51 0 0 0-.401 1.898c-.163.822-.33 1.752-.499 2.788l-.543 3.303c-.187 1.13-.361 2.26-.524 3.392-.161 1.096-.313 2.112-.453 3.052-.14.939-.249 1.711-.319 2.32l-2.164.404a82.594 82.594 0 0 0-1.141-2.046c-.51-.893-1.018-1.787-1.524-2.681a199.273 199.273 0 0 0-1.718-2.973l-1.704-2.882c-.477-.813-.967-1.621-1.466-2.42a39.74 39.74 0 0 0-1.065-1.623 264.9 264.9 0 0 0 1.216 9.271c.49 3.314 1.007 6.655 1.543 10.027l-2.639.495zm36.964-14.483a474.061 474.061 0 0 0-3.093-6.018 281.486 281.486 0 0 0-2.918-5.412 177.16 177.16 0 0 0-2.935-5.085l-2.461.461a154.846 154.846 0 0 0-.896 5.793 299.688 299.688 0 0 0-.763 6.11 476.492 476.492 0 0 0-.706 6.73 996.954 996.954 0 0 0-.715 7.693l2.804-.526.556-6.673 8.695-1.629c.499 1.021.983 2.025 1.451 3.013.473.989.965 1.991 1.483 3.008l2.935-.549a673.51 673.51 0 0 0-3.437-6.916zm-10.884.053c.171-2.128.367-4.256.593-6.379.207-1.996.473-3.984.794-5.965.99 1.742 1.944 3.506 2.857 5.289a612.868 612.868 0 0 1 2.899 5.717l-7.143 1.338zm28.519-14.507c-.814-1.492-1.788-2.673-2.927-3.543a8.99 8.99 0 0 0-3.82-1.706c-1.405-.27-2.896-.257-4.466.037-.772.145-1.62.351-2.539.612a12.77 12.77 0 0 0-2.444.957l4.521 24.124c.802.1 1.677.107 2.625.014.867-.081 1.731-.2 2.586-.356 1.571-.293 2.964-.821 4.178-1.579a9.038 9.038 0 0 0 2.945-2.967c.745-1.216 1.23-2.669 1.445-4.362.215-1.692.119-3.612-.282-5.762-.404-2.151-1.011-3.973-1.822-5.469zm-1.583 13.444c-.938 1.925-2.687 3.125-5.234 3.602-.759.143-1.346.24-1.768.296-.418.055-.71.085-.877.092l-3.565-19.022c.16-.054.442-.136.852-.241a27.17 27.17 0 0 1 1.753-.374c2.553-.478 4.612.011 6.181 1.463 1.57 1.456 2.641 3.7 3.208 6.74.569 3.039.386 5.519-.55 7.444zm9.73 3.739-4.662-24.876 11.713-2.193.551 2.945-9.019 1.69 1.395 7.451 8.034-1.506.539 2.875-8.034 1.506 1.621 8.661 9.723-1.821.554 2.943zm-57.903 16.795 2.854-.534 1.94 5.53c.647 1.84 1.275 3.63 1.884 5.37a127.71 127.71 0 0 0 1.805 4.834l1.647 4.152c.295-2.905.564-5.811.809-8.718.275-3.243.472-6.493.589-9.746l2.331-.438a179.442 179.442 0 0 0 4.111 8.871 904.907 904.907 0 0 0 3.943 7.831l.033-4.246c.013-1.536-.015-3.243-.079-5.122l-.207-5.834-.209-5.97 2.771-.519c.207 4.374.268 8.752.18 13.13-.083 4.386-.162 8.597-.24 12.629l-2.692.506a301.354 301.354 0 0 1-3.872-7.532 240.23 240.23 0 0 1-3.998-8.47 209.463 209.463 0 0 1-.683 9.347c-.282 2.882-.577 5.69-.888 8.421l-2.69.504-4.608-11.152c-1.6-3.87-3.175-8.149-4.731-12.844zm30.035-5.621 4.66 24.875-2.69.504-4.66-24.875zm3.377 2.52-.573-3.05 14.757-2.765.572 3.051-6.034 1.13 4.088 21.825-2.69.506-4.09-21.827-6.03 1.13zm21.67 18.531-4.66-24.875 2.693-.504 1.938 10.343 9.387-1.759-1.939-10.342 2.691-.505 4.66 24.877-2.692.504-2.15-11.483-9.386 1.758 2.149 11.484zm-78.123 33.429c-.389-2.08-.493-3.972-.31-5.675.188-1.705.592-3.187 1.22-4.448.627-1.261 1.439-2.28 2.436-3.061a7.715 7.715 0 0 1 3.391-1.523 9.819 9.819 0 0 1 2.187-.183c.66.028 1.245.091 1.751.188.501.101.923.218 1.257.355.332.138.56.243.688.315l-.232 3.02a4.055 4.055 0 0 0-.804-.331 13.67 13.67 0 0 0-1.163-.308 7.664 7.664 0 0 0-1.383-.168 6.719 6.719 0 0 0-1.458.11c-1.02.191-1.889.59-2.615 1.199-.727.608-1.295 1.395-1.707 2.36-.413.967-.653 2.095-.725 3.384-.07 1.291.036 2.699.322 4.232.279 1.483.666 2.812 1.161 3.983.493 1.172 1.09 2.146 1.792 2.922.699.776 1.495 1.329 2.39 1.657.892.329 1.876.394 2.949.192 1.232-.232 2.227-.592 2.975-1.084.747-.491 1.301-.904 1.656-1.236l1.242 2.743c-.102.14-.309.332-.611.579a8.38 8.38 0 0 1-1.155.75c-.537.288-1.095.543-1.663.755-.646.248-1.355.445-2.13.591-1.352.251-2.637.194-3.85-.18-1.214-.37-2.316-1.031-3.317-1.979-1-.954-1.865-2.191-2.603-3.725-.736-1.528-1.298-3.341-1.691-5.434zm33.057 3.628c-.64-.915-1.3-1.812-1.977-2.699a47.513 47.513 0 0 0-1.888-2.324 107.729 107.729 0 0 0-1.487-1.672c1.207-.819 2.043-1.879 2.502-3.181.464-1.301.539-2.776.23-4.425-.489-2.604-1.564-4.437-3.228-5.491-1.663-1.056-3.846-1.332-6.553-.824-.854.164-1.702.369-2.535.612-.919.262-1.733.582-2.448.956l4.596 24.526 2.689-.504-1.823-9.729 3.173-.595c.247-.046.493-.102.731-.172a83.077 83.077 0 0 1 1.533 1.717 54.067 54.067 0 0 1 1.771 2.137 64.542 64.542 0 0 1 1.813 2.427c.598.834 1.17 1.683 1.726 2.544l2.937-.549a35.236 35.236 0 0 0-1.762-2.754zm-6.35-9.663c-.445.435-1.028.78-1.744 1.035a16.53 16.53 0 0 1-2.455.641l-1.908.358-1.755-9.362c.589-.194 1.458-.4 2.603-.615a9.45 9.45 0 0 1 2.084-.164c.667.028 1.271.174 1.805.443.537.271.999.69 1.392 1.263.393.575.675 1.33.85 2.264.19 1.006.203 1.837.044 2.496-.166.659-.469 1.206-.916 1.641zm10.983 11.878-4.658-24.876 11.714-2.194.548 2.944-9.02 1.69 1.394 7.453 8.037-1.506.536 2.876-8.034 1.504 1.624 8.661 9.725-1.822.551 2.945-12.417 2.326zm28.133-12.826a448.463 448.463 0 0 0-3.093-6.017 269.894 269.894 0 0 0-2.921-5.415c-.95-1.715-1.93-3.41-2.932-5.085l-2.461.46a155.54 155.54 0 0 0-.896 5.794 279.98 279.98 0 0 0-.76 6.111 426.117 426.117 0 0 0-.708 6.728c-.23 2.361-.468 4.924-.715 7.693v.002l2.801-.525.554-6.674 8.697-1.629c.491 1.002.976 2.006 1.454 3.012.479 1.011.974 2.014 1.481 3.01l2.935-.551a683.55 683.55 0 0 0-3.436-6.914zm-10.882.051c.175-2.199.374-4.326.589-6.38.217-2.055.482-4.042.796-5.964.99 1.743 1.942 3.506 2.857 5.289a600.876 600.876 0 0 1 2.899 5.718l-7.141 1.337zm10.892-15.087-.572-3.051 14.759-2.766.572 3.051-6.036 1.131 4.09 21.825-2.692.505-4.088-21.827zm19.715-6.846 4.66 24.874-2.695.504-4.659-24.874zm2.626-.498 2.975-.557c1.711 3.599 3.371 7.053 4.979 10.361a189.549 189.549 0 0 0 4.805 9.272c.446-3.23.822-6.685 1.121-10.372.299-3.686.587-7.508.863-11.467l2.882-.54a537.755 537.755 0 0 1-.644 7.679 360.264 360.264 0 0 1-.672 6.721c-.222 2.035-.466 4.07-.731 6.1a298.464 298.464 0 0 1-.829 5.788l-2.517.472a296.286 296.286 0 0 1-5.769-10.514 448.4 448.4 0 0 1-3.096-6.016 279.327 279.327 0 0 1-3.367-6.927zm24.936 21.079-4.66-24.875 11.714-2.194.549 2.945-9.019 1.69 1.395 7.451 8.032-1.504.539 2.875-8.032 1.504 1.621 8.659 9.725-1.82.552 2.945-12.416 2.326zm-112.955 39.953c-.389-2.08-.488-3.974-.307-5.677.186-1.705.591-3.187 1.218-4.446.629-1.263 1.441-2.28 2.439-3.061a7.73 7.73 0 0 1 3.388-1.523c.794-.149 1.522-.212 2.185-.183.662.026 1.245.089 1.751.188.505.099.923.218 1.257.353.335.14.562.246.689.316l-.231 3.02a4.175 4.175 0 0 0-.805-.331c-.347-.11-.734-.212-1.165-.307a7.478 7.478 0 0 0-1.381-.168 6.653 6.653 0 0 0-1.456.11c-1.019.19-1.893.592-2.619 1.199-.725.607-1.295 1.395-1.704 2.361-.414.966-.656 2.093-.728 3.382-.07 1.289.038 2.703.324 4.232.277 1.484.666 2.813 1.159 3.984.495 1.172 1.091 2.145 1.797 2.921.697.776 1.493 1.329 2.385 1.657.895.329 1.878.395 2.949.193 1.236-.232 2.229-.596 2.975-1.087.748-.49 1.304-.901 1.66-1.234l1.241 2.743c-.104.141-.308.334-.612.576a8.083 8.083 0 0 1-1.155.752c-.536.289-1.092.543-1.664.756a12.28 12.28 0 0 1-2.131.59c-1.35.252-2.636.193-3.848-.178-1.213-.371-2.318-1.031-3.316-1.983-1.001-.951-1.867-2.188-2.603-3.722s-1.3-3.341-1.692-5.433zm33.729-12.142c-.794-1.534-1.711-2.766-2.745-3.706-1.031-.936-2.149-1.576-3.354-1.92a7.825 7.825 0 0 0-3.651-.166 8.106 8.106 0 0 0-3.412 1.489c-1.018.76-1.847 1.766-2.486 3.015-.641 1.252-1.053 2.734-1.236 4.45-.184 1.716-.077 3.637.321 5.763.399 2.13.995 3.962 1.788 5.501.794 1.54 1.717 2.776 2.766 3.709 1.049.935 2.185 1.57 3.409 1.911a8.123 8.123 0 0 0 3.718.154 7.855 7.855 0 0 0 3.346-1.479c.999-.756 1.808-1.756 2.432-3.005.627-1.246 1.03-2.731 1.216-4.454.188-1.723.079-3.646-.317-5.774-.404-2.127-.999-3.956-1.795-5.488zm-.739 10.216c-.065 1.29-.289 2.42-.673 3.383-.385.969-.915 1.758-1.601 2.371-.681.611-1.514 1.009-2.496 1.192-.981.185-1.906.117-2.779-.204-.869-.322-1.659-.863-2.367-1.627-.708-.76-1.322-1.733-1.844-2.911-.524-1.179-.928-2.519-1.212-4.028-.282-1.508-.393-2.906-.33-4.193.062-1.288.286-2.413.669-3.374.384-.962.927-1.75 1.62-2.363.698-.613 1.536-1.012 2.52-1.197.969-.183 1.888-.113 2.751.209.862.325 1.646.866 2.354 1.62.704.757 1.32 1.726 1.849 2.902.528 1.176.934 2.52 1.216 4.028.281 1.51.389 2.903.323 4.192zm8.3 7.093c-.334-2.164-.655-4.351-.971-6.559s-.612-4.383-.888-6.529a629.86 629.86 0 0 1-.775-6.27c-.24-2.036-.442-3.962-.605-5.785l2.354-.44a75.008 75.008 0 0 1 2.302 3.435 183.909 183.909 0 0 1 2.561 4.184 227.97 227.97 0 0 1 2.542 4.386c.831 1.466 1.59 2.806 2.274 4.021.196-1.381.422-2.904.664-4.57.242-1.673.502-3.342.781-5.01.268-1.614.56-3.222.873-4.828.264-1.354.562-2.699.904-4.034l2.353-.441a603.695 603.695 0 0 1 6.08 24.609l-2.636.494a906.076 906.076 0 0 0-2.197-9.903 309.01 309.01 0 0 0-2.215-9.085 63.916 63.916 0 0 0-.4 1.898c-.163.823-.33 1.752-.499 2.787l-.544 3.306a203.984 203.984 0 0 0-.528 3.39c-.146 1.02-.296 2.035-.446 3.053a78.266 78.266 0 0 0-.324 2.318l-2.162.406a73.28 73.28 0 0 0-1.143-2.045 710.178 710.178 0 0 1-1.522-2.683 175.876 175.876 0 0 0-1.719-2.97l-1.702-2.883c-.477-.813-.97-1.622-1.469-2.421a35.713 35.713 0 0 0-1.067-1.623c.354 3.098.759 6.189 1.22 9.271a838.48 838.48 0 0 0 1.542 10.026l-2.638.495zm24.117-4.516a561.967 561.967 0 0 1-.97-6.559 463.105 463.105 0 0 1-.89-6.53 625.676 625.676 0 0 1-.774-6.27 207.44 207.44 0 0 1-.608-5.784l2.356-.442a69.941 69.941 0 0 1 2.302 3.436 174.24 174.24 0 0 1 2.561 4.184 223.007 223.007 0 0 1 2.544 4.387c.832 1.465 1.588 2.804 2.273 4.021.196-1.381.417-2.904.662-4.57.244-1.674.505-3.344.783-5.01.267-1.612.56-3.223.873-4.828.259-1.354.563-2.697.904-4.035l2.354-.44a617.225 617.225 0 0 1 6.078 24.61l-2.638.494a760.215 760.215 0 0 0-2.199-9.903 312.216 312.216 0 0 0-2.21-9.086c-.146.632-.28 1.264-.403 1.899a89.471 89.471 0 0 0-.499 2.789c-.169 1.036-.351 2.137-.543 3.304a184.946 184.946 0 0 0-.526 3.39c-.146 1.02-.299 2.036-.451 3.053-.117.77-.226 1.543-.322 2.318l-2.163.404a90.703 90.703 0 0 0-1.141-2.044 543.96 543.96 0 0 1-1.523-2.682 158.924 158.924 0 0 0-1.719-2.969l-1.7-2.885c-.48-.813-.969-1.622-1.471-2.42a37.463 37.463 0 0 0-1.064-1.624 272.64 272.64 0 0 0 1.215 9.272 936.638 936.638 0 0 0 1.546 10.026l-2.637.494zm38.099-25.864c-.798-1.533-1.709-2.766-2.74-3.704-1.036-.937-2.153-1.577-3.354-1.922a7.878 7.878 0 0 0-3.657-.167 8.156 8.156 0 0 0-3.411 1.49c-1.018.761-1.847 1.765-2.485 3.015-.64 1.253-1.053 2.734-1.237 4.451-.182 1.715-.075 3.637.322 5.765.398 2.128.994 3.96 1.788 5.499.793 1.54 1.717 2.776 2.766 3.71 1.048.934 2.185 1.569 3.408 1.911a8.13 8.13 0 0 0 3.718.154 7.903 7.903 0 0 0 3.351-1.478c.994-.757 1.805-1.757 2.432-3.006.622-1.248 1.025-2.732 1.211-4.455.188-1.722.08-3.646-.317-5.774-.402-2.126-.998-3.957-1.795-5.489zm-.74 10.218c-.062 1.29-.288 2.421-.673 3.384-.384.969-.915 1.757-1.596 2.371-.683.611-1.517 1.009-2.498 1.192-.984.184-1.909.116-2.778-.206-.873-.321-1.662-.861-2.368-1.627-.708-.759-1.322-1.733-1.847-2.911-.524-1.177-.928-2.519-1.209-4.028-.282-1.507-.396-2.906-.333-4.193.063-1.287.284-2.412.669-3.373.384-.963.925-1.75 1.621-2.363.697-.614 1.537-1.014 2.515-1.197.976-.183 1.895-.112 2.755.21.86.324 1.646.864 2.352 1.62.709.756 1.325 1.724 1.854 2.901.526 1.176.932 2.52 1.215 4.028.279 1.508.388 2.904.321 4.192zm8.829 6.994-4.66-24.876 2.137-.401a67.796 67.796 0 0 1 3.563 3.663 173.276 173.276 0 0 1 3.855 4.367 150.946 150.946 0 0 1 3.679 4.456 98.774 98.774 0 0 1 2.982 3.932l-3.448-18.407 2.638-.494 4.658 24.875-2.243.42a163.005 163.005 0 0 0-4.303-5.824 241.782 241.782 0 0 0-2.573-3.257 149.971 149.971 0 0 0-5.101-6.02 72.338 72.338 0 0 0-2.186-2.35l3.639 19.423-2.637.493zm18.458-4.75.264-3.014c.48.235 1.192.462 2.135.674.939.218 2.038.209 3.291-.026 2.804-.525 3.974-2.03 3.51-4.509-.145-.77-.389-1.397-.742-1.886a4.494 4.494 0 0 0-1.268-1.209 6.837 6.837 0 0 0-1.644-.75 39.83 39.83 0 0 0-1.898-.523 16.16 16.16 0 0 1-2.193-.69 7.336 7.336 0 0 1-1.893-1.093c-.56-.449-1.045-1.016-1.454-1.706s-.71-1.558-.906-2.606c-.409-2.182-.154-3.993.761-5.432.914-1.438 2.381-2.348 4.402-2.727 1.168-.218 2.261-.253 3.275-.108 1.016.147 1.779.374 2.298.68l-.341 3.017c-.444-.24-1.084-.439-1.907-.592-.822-.153-1.741-.133-2.753.056a4.729 4.729 0 0 0-1.399.487 3.5 3.5 0 0 0-1.05.866 3.043 3.043 0 0 0-.585 1.241c-.111.479-.111 1.014 0 1.609.123.662.33 1.203.616 1.62.292.416.651.76 1.084 1.035.434.277.925.51 1.47.702.546.194 1.139.381 1.778.561a38.6 38.6 0 0 1 2.535.865c.759.29 1.469.692 2.105 1.196.623.499 1.149 1.132 1.579 1.903.431.77.756 1.741.976 2.918.407 2.179.108 3.976-.902 5.384-1.011 1.409-2.638 2.322-4.884 2.743-.758.142-1.468.203-2.128.189a13.156 13.156 0 0 1-1.792-.161 8.849 8.849 0 0 1-1.399-.334 7.174 7.174 0 0 1-.941-.38z"
    />
  <path
        fill="none"
        stroke="#000"
        stroke-miterlimit="10"
        stroke-width="4"
        d="M219.647 235.801c8.323-1.559 16.321.2 23.189 4.898 6.746 4.621 11.195 11.559 12.735 19.779 1.558 8.323-.015 16.178-4.652 22.825-4.886 7.005-12.008 11.596-19.922 13.08-8.017 1.502-16.119-.241-22.984-4.937-6.868-4.702-11.541-11.703-13.026-19.621-1.499-8.018.322-16.234 5.005-23.205 4.598-6.85 11.336-11.261 19.655-12.819z"
    />
  <path
        d="M207.44 268.838c-.342-1.828-.367-3.502-.079-5.025.29-1.522.819-2.855 1.588-4.004a9.68 9.68 0 0 1 2.898-2.834c1.162-.736 2.465-1.241 3.902-1.512a14.377 14.377 0 0 1 2.478-.264 16.37 16.37 0 0 1 1.97.084 8.82 8.82 0 0 1 1.405.258c.367.105.627.186.765.248l-.405 2.691a5.2 5.2 0 0 0-.895-.258c-.43-.087-.864-.159-1.299-.217a10.249 10.249 0 0 0-1.554-.084 9.532 9.532 0 0 0-1.654.166c-1.161.218-2.164.613-3.017 1.184a6.668 6.668 0 0 0-2.038 2.176c-.512.881-.838 1.893-.979 3.04-.143 1.149-.086 2.396.167 3.741.244 1.305.62 2.466 1.123 3.482.504 1.018 1.135 1.854 1.891 2.51a6.193 6.193 0 0 0 2.621 1.355c.994.253 2.1.262 3.323.031 1.408-.262 2.547-.629 3.413-1.098.871-.472 1.515-.865 1.935-1.179l1.274 2.377c-.126.13-.364.311-.719.544-.355.23-.803.473-1.341.723-.539.247-1.179.496-1.918.748-.739.248-1.55.459-2.434.623-1.541.29-2.988.296-4.342.021a9.15 9.15 0 0 1-3.658-1.6c-1.084-.799-2.007-1.859-2.765-3.186-.757-1.318-1.309-2.901-1.656-4.741zm19.556-3.662c-.343-1.828-.37-3.503-.08-5.025.288-1.521.814-2.855 1.584-4.004a9.734 9.734 0 0 1 2.9-2.834c1.164-.737 2.465-1.242 3.902-1.512a14.339 14.339 0 0 1 2.479-.264c.752-.01 1.403.02 1.972.082a8.893 8.893 0 0 1 1.401.26c.372.104.624.186.767.248l-.405 2.689a5.258 5.258 0 0 0-.894-.256c-.431-.088-.865-.16-1.3-.217a10.405 10.405 0 0 0-3.208.081c-1.161.218-2.166.613-3.017 1.185a6.648 6.648 0 0 0-2.038 2.176c-.51.88-.84 1.893-.978 3.039-.143 1.148-.086 2.396.167 3.742.242 1.303.616 2.464 1.119 3.481.506 1.017 1.137 1.853 1.891 2.51a6.264 6.264 0 0 0 2.621 1.356c.994.253 2.104.261 3.325.031 1.408-.264 2.547-.631 3.415-1.1.867-.471 1.513-.863 1.933-1.178l1.274 2.377c-.126.131-.363.311-.719.544a10.77 10.77 0 0 1-1.341.722c-.539.248-1.179.497-1.918.748s-1.55.46-2.436.625c-1.541.288-2.986.295-4.34.021a9.193 9.193 0 0 1-3.657-1.601c-1.089-.799-2.008-1.858-2.766-3.187-.757-1.317-1.311-2.9-1.653-4.739z"
    />
</svg>
