<svg xmlns="http://www.w3.org/2000/svg" fill="none" viewBox="0 0 24 24">
  <path
        stroke="currentColor"
        stroke-linecap="round"
        stroke-linejoin="round"
        stroke-width="1"
        d="M9.009 6.811c-.422-1.166.68-2.28 1.67-2.713a3.56 3.56 0 0 1 2.971.052M9.01 6.811C8.424 5.721 6.93 5.328 5.863 5.49a3.56 3.56 0 0 0-2.486 1.627m5.632-.306a4.791 4.791 0 0 0-3.082 2.55M9.01 6.81a4.791 4.791 0 0 1 3.943.668M9.009 6.81C8.402 4.816 7.822 3.24 6.66 2.743m2.349 4.068c1.181 2.733 1.886 4.854 1.267 9.665m1.724-.14c-3.198 0-6.063 1.42-8 3.664h16a10.542 10.542 0 0 0-8-3.664Zm4-6.085a2 2 0 1 0 4 0 2 2 0 0 0-4 0Z"
    />
</svg>
