<svg xmlns:dc="http://purl.org/dc/elements/1.1/" xmlns:cc="http://creativecommons.org/ns#" xmlns:rdf="http://www.w3.org/1999/02/22-rdf-syntax-ns#" xmlns:svg="http://www.w3.org/2000/svg" xmlns="http://www.w3.org/2000/svg" xmlns:sodipodi="http://sodipodi.sourceforge.net/DTD/sodipodi-0.dtd" xmlns:inkscape="http://www.inkscape.org/namespaces/inkscape" version="1.1" x="0px" y="0px" viewBox="0 0 128 160" enable-background="new 0 0 128 128" xml:space="preserve"><path style="" d="M 66.599609 24.300781 C 56.618958 24.300781 48.32603 32.013937 47.390625 41.763672 C 44.928174 37.508037 40.359529 34.699219 35.199219 34.699219 C 27.399219 34.699219 21.099609 41.000781 21.099609 48.800781 C 21.099609 51.200781 21.700781 53.499609 22.800781 55.599609 C 23.000781 55.899609 23.299219 56.099609 23.699219 56.099609 C 23.899219 56.099609 24.099219 56.1 24.199219 56 C 24.699219 55.7 24.899609 55.099609 24.599609 54.599609 C 23.599609 52.799609 23.099609 50.800781 23.099609 48.800781 C 23.099609 42.100781 28.499219 36.699219 35.199219 36.699219 C 41.299219 36.699219 46.499219 41.200781 47.199219 47.300781 C 47.299219 47.900781 47.800781 48.299219 48.300781 48.199219 C 48.900781 48.199219 49.300781 47.799219 49.300781 47.199219 L 49.300781 44.900391 L 49.300781 43.599609 C 49.300781 33.999609 57.099609 26.300781 66.599609 26.300781 C 76.099609 26.300781 83.900391 34.099609 83.900391 43.599609 C 83.900391 47.499609 82.599219 51.200781 80.199219 54.300781 C 80.13401 54.387726 80.096798 54.491505 80.068359 54.599609 L 40.5 54.599609 C 28.1 54.599609 18 64.699609 18 77.099609 L 18 81.199219 C 18 93.599219 28.1 103.69922 40.5 103.69922 L 86.400391 103.69922 C 87.000391 103.69922 87.400391 103.29922 87.400391 102.69922 L 87.400391 87.84375 L 108.59961 98.300781 C 108.69961 98.400781 108.8 98.400391 109 98.400391 C 109.2 98.400391 109.39961 98.299609 109.59961 98.099609 C 109.89961 97.999609 110.09961 97.600781 110.09961 97.300781 L 110.09961 60.900391 C 110.09961 60.600391 109.89961 60.299609 109.59961 60.099609 C 109.29961 59.999609 108.89961 59.899609 108.59961 60.099609 L 87.400391 70.556641 L 87.400391 55.599609 C 87.400391 54.999609 87.000391 54.599609 86.400391 54.599609 L 82.457031 54.599609 C 84.718944 51.385065 85.900391 47.620449 85.900391 43.599609 C 85.900391 32.999609 77.199609 24.300781 66.599609 24.300781 z M 40.5 56.599609 L 85.400391 56.599609 L 85.400391 101.69922 L 40.5 101.69922 C 29.2 101.69922 20 92.499219 20 81.199219 L 20 77.099609 C 20 65.799609 29.2 56.599609 40.5 56.599609 z M 108 62.599609 L 108 95.699219 L 87.400391 85.646484 L 87.400391 72.751953 L 108 62.599609 z M 47.800781 64.599609 C 47.625781 64.574609 47.450781 64.599219 47.300781 64.699219 C 47.000781 64.899219 46.800781 65.199609 46.800781 65.599609 L 46.800781 91.699219 C 46.800781 92.099219 47.000781 92.399609 47.300781 92.599609 C 47.500781 92.699609 47.600781 92.699219 47.800781 92.699219 C 48.000781 92.699219 48.200781 92.7 48.300781 92.5 L 66 79.5 C 66.2 79.3 66.400391 78.999219 66.400391 78.699219 C 66.400391 78.399219 66.3 78.100391 66 77.900391 L 48.300781 64.800781 C 48.150781 64.700781 47.975781 64.624609 47.800781 64.599609 z M 48.800781 67.5 L 63.800781 78.599609 L 48.800781 89.699219 L 48.800781 67.5 z " fill="#000000"/><text x="0" y="143" fill="#000000" font-size="5px" font-weight="bold" font-family="'Helvetica Neue', Helvetica, Arial-Unicode, Arial, Sans-serif">Created by Kokota</text><text x="0" y="148" fill="#000000" font-size="5px" font-weight="bold" font-family="'Helvetica Neue', Helvetica, Arial-Unicode, Arial, Sans-serif">from the Noun Project</text></svg>