<svg xmlns="http://www.w3.org/2000/svg" xmlns:xlink="http://www.w3.org/1999/xlink" version="1.1" x="0px" y="0px" viewBox="0 0 128 160" style="enable-background:new 0 0 128 128;" xml:space="preserve"><g><path d="M50.3,2.8c-2.4-1.9-4.4-1.9-5.7-1.6c-3.7,0.9-4.8,5.3-5.9,10c-0.4,1.7-1.1,4.6-1.7,5.4L3,28.4c-0.8,0.3-1.4,0.9-1.8,1.7   c-0.3,0.8-0.3,1.7,0,2.4C1.5,33,6.8,44.4,13.2,48.9c3,2.2,7.1,1.8,11,1.4c3-0.3,6.2-0.6,7.7,0.5c0.9,2.3,1.8,13.5,1,32.5   c-0.7,16.1-2.3,30.4-4.3,37.7h-6c-1.7,0-3,1.3-3,3s1.3,3,3,3h8.2c1.3,0,2.4-0.8,2.8-2c3-8.7,4.6-27.9,5.2-43   c1.2-32-1.9-34.7-2.9-35.6c-3.4-3-8.2-2.5-12.5-2.1c-2.7,0.3-5.7,0.6-6.9-0.3c-3.2-2.3-6.5-7.4-8.4-11.1l31-10.9   c3.1-1.2,4.2-5.2,5.2-9.5c0.4-1.7,1.1-4.4,1.7-5.4c1.2,0.8,4.3,4.2,8.4,13.9c3.5,8.4,5.3,15.8,5.3,17.8c-0.3,0.9-2.8,3.7-8.9,5.8   c-1.6,0.5-2.4,2.3-1.8,3.8c0.5,1.6,2.3,2.4,3.8,1.8c7.7-2.7,12.8-7.1,12.9-11.1C66,32.9,57.6,8.7,50.3,2.8z"/><path d="M56,124c0,1.7,1.3,3,3,3h27c0,0,0.1,0,0.1,0c7.9-0.1,15.2-5.6,17.6-13.6c0.4-1.5,0.8-3,1-4.5c2.8-18.9-27.5-51.8-33.6-58.2   c-1.1-1.2-3-1.2-4.2-0.1c-1.2,1.1-1.2,3-0.1,4.2c11.9,12.5,34,39.7,32,53.1c-0.2,1.2-0.5,2.5-0.8,3.7c-1.8,6.2-7.8,10.1-13.8,9.2   c-1.5-0.2-2.9-0.7-4.1-1.4c-2.7-1.6-3.6-4.7-3.9-6.4c-0.6-3.1,0-6.5,1.4-8.3c1-1.3,0.8-3.2-0.5-4.2c-1.3-1-3.2-0.8-4.2,0.5   c-2.5,3.2-3.5,8.2-2.6,13.1c0.5,2.7,1.5,5,2.9,6.9H59C57.3,121,56,122.3,56,124z"/><path d="M104.6,125c0.4,1.2,1.6,2,2.8,2c0.3,0,0.7-0.1,1-0.2c6.6-2.4,11.9-7.4,14.6-13.7c0.7-1.5-0.1-3.3-1.6-3.9   c-1.5-0.7-3.3,0.1-3.9,1.6c-2.1,4.8-6.1,8.6-11.1,10.5C104.8,121.8,104,123.5,104.6,125z"/></g><text x="0" y="143" fill="#000000" font-size="5px" font-weight="bold" font-family="'Helvetica Neue', Helvetica, Arial-Unicode, Arial, Sans-serif">Created by Kokota</text><text x="0" y="148" fill="#000000" font-size="5px" font-weight="bold" font-family="'Helvetica Neue', Helvetica, Arial-Unicode, Arial, Sans-serif">from the Noun Project</text></svg>