<svg xmlns:dc="http://purl.org/dc/elements/1.1/" xmlns:cc="http://creativecommons.org/ns#" xmlns:rdf="http://www.w3.org/1999/02/22-rdf-syntax-ns#" xmlns:svg="http://www.w3.org/2000/svg" xmlns="http://www.w3.org/2000/svg" xmlns:sodipodi="http://sodipodi.sourceforge.net/DTD/sodipodi-0.dtd" xmlns:inkscape="http://www.inkscape.org/namespaces/inkscape" version="1.1" x="0px" y="0px" viewBox="0 0 128 160" enable-background="new 0 0 128 128" xml:space="preserve"><path style="" d="M 20.800781 28.800781 C 19.500781 28.800781 18.400391 29.899219 18.400391 31.199219 L 18.400391 90 C 18.400391 91.3 19.500781 92.400391 20.800781 92.400391 L 57.099609 92.400391 C 60.299609 92.400391 62.900391 94.999219 62.900391 98.199219 C 62.900391 98.799219 63.300391 99.199219 63.900391 99.199219 C 64.025391 99.199219 64.151953 99.169531 64.267578 99.113281 C 64.619141 98.949219 64.900391 98.574219 64.900391 98.199219 C 64.900391 94.999219 67.499219 92.400391 70.699219 92.400391 L 106.90039 92.400391 C 108.20039 92.400391 109.30078 91.3 109.30078 90 L 109.30078 31.199219 C 109.30078 29.899219 108.20039 28.800781 106.90039 28.800781 L 70.699219 28.800781 C 67.747998 28.800781 65.176206 30.448599 63.851562 32.873047 C 62.527063 30.44811 59.951584 28.800781 57 28.800781 L 20.800781 28.800781 z M 20.800781 30.800781 L 20.800781 30.900391 L 57 30.900391 C 60.2 30.900391 62.800781 33.499219 62.800781 36.699219 L 62.800781 93 C 61.400781 91.4 59.3 90.400391 57 90.400391 L 20.800781 90.400391 C 20.600781 90.400391 20.400391 90.2 20.400391 90 L 20.400391 31.199219 C 20.400391 30.999219 20.600781 30.800781 20.800781 30.800781 z M 70.699219 30.800781 L 106.90039 30.800781 C 107.10039 30.800781 107.30078 30.999219 107.30078 31.199219 L 107.30078 90 C 107.30078 90.2 107.10039 90.400391 106.90039 90.400391 L 70.699219 90.400391 C 68.342945 90.400391 66.232362 91.455636 64.800781 93.113281 L 64.800781 37.052734 C 64.86073 36.919174 64.900391 36.770017 64.900391 36.599609 C 64.900391 33.399609 67.499219 30.800781 70.699219 30.800781 z M 15.400391 34.900391 C 14.100391 34.900391 13 36.000781 13 37.300781 L 13 96.099609 C 13 97.399609 14.100391 98.5 15.400391 98.5 L 59.199219 98.5 C 59.699219 98.5 60.199219 98.1 60.199219 97.5 C 60.199219 96.9 59.799219 96.5 59.199219 96.5 L 15.400391 96.5 C 15.200391 96.5 15 96.299609 15 96.099609 L 15 37.300781 C 15 37.100781 15.200391 36.900391 15.400391 36.900391 C 16.000391 36.900391 16.400391 36.500391 16.400391 35.900391 C 16.400391 35.300391 16.000391 34.900391 15.400391 34.900391 z M 112.59961 34.900391 C 111.99961 34.900391 111.59961 35.300391 111.59961 35.900391 C 111.59961 36.500391 111.99961 36.900391 112.59961 36.900391 C 112.79961 36.900391 113 37.100781 113 37.300781 L 113 96.099609 C 113 96.299609 112.79961 96.5 112.59961 96.5 L 68.800781 96.5 C 68.200781 96.5 67.800781 96.9 67.800781 97.5 C 67.800781 98.1 68.200781 98.5 68.800781 98.5 L 112.59961 98.5 C 113.89961 98.5 115 97.399609 115 96.099609 L 115 37.300781 C 115 36.000781 113.89961 34.900391 112.59961 34.900391 z " fill="#000000"/><text x="0" y="143" fill="#000000" font-size="5px" font-weight="bold" font-family="'Helvetica Neue', Helvetica, Arial-Unicode, Arial, Sans-serif">Created by Kokota</text><text x="0" y="148" fill="#000000" font-size="5px" font-weight="bold" font-family="'Helvetica Neue', Helvetica, Arial-Unicode, Arial, Sans-serif">from the Noun Project</text></svg>