<svg xmlns="http://www.w3.org/2000/svg" viewBox="0 0 50.4 63">
  <path
        d="M8.927 28.417a.832.832 0 0 1-.834-.833.834.834 0 1 1 1.669 0 .831.831 0 0 1-.835.833zm-2.697 0a.832.832 0 0 1-.835-.833c0-.465.373-.837.835-.837s.835.372.835.837a.832.832 0 0 1-.835.833zm-2.697 0a.832.832 0 0 1-.835-.833c0-.465.372-.837.835-.837.462 0 .835.372.835.837a.832.832 0 0 1-.835.833zm-2.698 0A.832.832 0 0 1 0 27.584c0-.465.373-.837.835-.837s.835.372.835.837a.832.832 0 0 1-.835.833zm8.092-2.557a.834.834 0 0 1-.834-.835c0-.449.373-.835.834-.835.464 0 .835.386.835.835a.833.833 0 0 1-.835.835zm-2.697 0a.834.834 0 1 1-.002-1.668.834.834 0 0 1 .002 1.668zm-2.697 0a.833.833 0 0 1-.835-.835c0-.449.372-.835.835-.835a.834.834 0 1 1 0 1.67z"
    />
  <path
        d="M50.014 25.938c-.858-.814-4.389-3.542-13.725-4.47-.547-.055-1.084-.083-1.625-.118l-.487-3.374c-.244-.682-.854-1.36-1.476-1.528l-5.828-1.622a2.965 2.965 0 0 0-1.563-.02c-.909.242-1.521.799-1.829 1.67a2.705 2.705 0 0 0-.047 1.575c.061.232.156.456.273.675l.19.305a13.476 13.476 0 0 0-1.163-.594c-2.696-1.214-7.077-1.469-10.275-1.469-2.086 0-3.581.106-3.643.11l-.183.014-.149.109c-.2.146-.389.424-.326.769.033.18.162.503.661.644l.568.158c1.813.504 5.584 1.553 6.906 2.36a14.45 14.45 0 0 1 2.08 1.554h-.017l-.213.006c-.961.046-1.662.627-2.067 1.083-.512-.318-1.33-.775-2.155-1.019-.981-.29-1.95-.333-2.441-.333l-.848.035.001 8.021.841.032c.491 0 1.463-.042 2.444-.333.838-.246 1.664-.711 2.174-1.029.403.422 1.09.949 2.036.993l.216.008c.033 0 .065-.003.095-.003-.597.54-1.317 1.11-2.145 1.614-1.327.812-5.111 1.861-6.929 2.366l-.546.153c-.5.143-.628.464-.66.645-.062.346.128.622.326.768l.149.11.183.013c.062.005 1.556.11 3.641.11 3.2 0 7.581-.253 10.278-1.47 2.366-1.067 3.555-2.304 4.128-3.119 2.897.416 6.097.461 9.426.13 9.346-.929 12.871-3.658 13.729-4.475 0 0 .218-.193.238-.535.015-.261-.243-.519-.243-.519zm-17.924-5.12l.087.443a38.946 38.946 0 0 0-3.043.081l-.955-1.628 3.911 1.104zm4.074 9.373c-3.382.333-6.618.271-9.517-.187l-.437-.07-.221.385c-.295.512-1.254 1.826-3.783 2.965-2.547 1.15-6.868 1.348-9.963 1.358 1.796-.537 3.749-1.19 4.72-1.785 1.989-1.216 3.407-2.759 4.076-3.569l.416-.67-1.12-.585-.345.302c-.024.02-.622.531-1.647.531l-.153-.005c-.869-.043-1.415-.898-1.417-.905l-.363-.596-.563.409c-.013.008-1.182.851-2.292 1.177a7.465 7.465 0 0 1-1.64.269v-5.494a7.44 7.44 0 0 1 1.641.269c1.109.327 2.278 1.168 2.291 1.176l.574.412.357-.61c.006-.01.568-.951 1.426-.994l.151-.003c1.051 0 1.752.562 1.756.564l.305.38.408-.306.75-.35-.524-.64c-.67-.814-2.092-2.363-4.087-3.584-.971-.592-2.923-1.246-4.72-1.783 3.059.001 7.416.208 9.963 1.355 2.548 1.148 3.5 2.469 3.792 2.984l.164.286-3.649 2.338c-.536.33-.75.847-.648 1.546.128.946.74 1.328 1.838 1.162.123-.01.281-.082.472-.221L29.3 24.37c.491-.337.709-.72.66-1.143-.043-.357-.079-.546-.106-.625a38.514 38.514 0 0 1 2.582-.052l.23 1.159c.217.504.54.813.967.927l4.146 1.474c.184.06.35.066.506.025.292-.079.505-.245.646-.5.141-.253.171-.521.099-.788-.104-.39-.354-.636-.756-.737l-3.387-1.221-.035-.237c.438.03.868.049 1.312.092 7.692.766 11.216 2.783 12.478 3.723-1.263.943-4.785 2.959-12.478 3.724z"
    />
  <path
        d="M35.777 19.124a1.943 1.943 0 0 1-.955-1.226 1.94 1.94 0 0 1 .215-1.538c.288-.48.695-.794 1.217-.932a1.967 1.967 0 0 1 1.53.194c.482.28.796.69.938 1.234.146.54.079 1.053-.196 1.533-.279.476-.686.79-1.231.935-.524.141-1.028.071-1.518-.2z"
    />
</svg>
