<svg xmlns="http://www.w3.org/2000/svg" xml:space="preserve" viewBox="0 0 594.4 629.4" fill="currentColor" >
  <path d="M106.2 263.1c-33.4 42.5-62 78.9-93.1 118.5C8.4 346.9 4.2 316.4 0 286l4.8-2.1c5.7 12.3 11.3 24.5 19.2 41.8 31.1-34.1 59.8-65.4 91.6-100.2 13 39.8 24.7 76.5 36.9 113.1 25.2 75.8 50.9 151.5 75.7 227.4 5.7 17.4 12 22.9 31.6 15.8 77.5-28.1 155.8-54.1 233.8-80.8 3.1-1.1 6.3-1.7 11.2 1.9-98.1 41.7-196.2 83.4-297.7 126.5-33.3-121.2-66.1-240.2-100.9-366.3zM565.3 141.6c-7.4-35-12.7-65.6-21-95.4-1.9-7-12.9-13.4-21-16.3-25.9-9.2-52.4-16.7-77.6-30 36.2 6.7 72.4 13.3 108.4 20.5 3.2.6 6.8 5.7 7.8 9.3 10.7 42.7 21 85.5 32.5 132.9-47.4-2.3-90.9-4.4-139.2-6.7 20.3 76.2 39.3 147.7 58.4 219.2-1.4.4-2.8.9-4.2 1.3-27.2-79.7-54.4-159.3-83.5-244.6 48.2 3.5 92.1 6.5 139.4 9.8zM7.1 194.6c15.9-29.5 31.1-59.3 48.1-88.1 3.8-6.5 13.5-10 21.1-13.7 17.9-8.8 36.4-16.4 54.2-25.3 16.4-8.2 28.2-11.1 43.8 6.4 19.7 22.1 47.5 16.9 72.4 4.8 9.2-4.4 17.2-11.1 26.4-17.1-9.4 39.6-76.6 59.4-110.4 31.4-14.3-11.8-24-8.9-39.3-4.2-42.7 13.2-70.4 41.6-91 79.4-5.7 10.4-13.5 19.7-20.3 29.5-1.7-1.1-3.3-2.1-5-3.1z"/>
</svg>
