<svg xmlns="http://www.w3.org/2000/svg" width="1289" height="245" fill="none">
  <path
        fill="url(#paint0_linear)"
        d="M221.494 101.381c11.78-.566 22.207 8.572 23.224 20.362 4.406 57.037-47.793 120.931-121.352 122.974C61.377 246.247.068 196.619.068 121.58c0-11.826 9.773-21.413 21.566-21.413s21.353 9.587 21.353 21.413c0 49.359 39.688 81.303 79.329 80.325 48.799-1.356 80.523-43.61 78.873-78.11-.566-11.812 8.526-21.847 20.305-22.414z"
    />
  <path
        fill="#b3b3b3"
        d="M168.15 123.24c0-12.107 9.876-21.922 22.058-21.922h32.146c12.183 0 22.364 9.815 22.364 21.922 0 12.108-10.181 21.923-22.364 21.923h-32.146c-12.182 0-22.058-9.815-22.058-21.923zM100.7 123.272c0-12.125 9.813-21.954 21.904-21.954 12.092 0 21.905 9.829 21.905 21.954s-9.813 21.955-21.905 21.955c-12.091 0-21.904-9.83-21.904-21.955z"
    />
  <path
        fill="#ccc"
        fill-rule="evenodd"
        d="M143.902 20.696c.49 11.816-8.666 21.792-20.449 22.283-50.865 2.118-81.918 42.097-80.407 80.057.47 11.816-8.51 21.778-20.293 22.25-11.784.472-22.147-9.065-22.617-20.881C-2.327 62.545 49.18 1.391 121.68.19c11.783-.49 21.732 8.69 22.221 20.506z"
        clip-rule="evenodd"
    />
  <g fill="#545454" clip-path="url(#clip0)">
    <path
            d="M408.102 137.495h41.203c-2.086 7.726-5.376 14.729-9.869 21.007-4.333 6.116-10.031 11.026-17.092 14.729-7.061 3.702-15.647 5.553-25.757 5.553-11.074 0-21.104-2.575-30.091-7.727-8.826-5.151-15.808-12.314-20.943-21.489-5.135-9.337-7.703-20.122-7.703-32.356 0-12.395 2.568-23.1 7.703-32.114 5.296-9.176 12.357-16.258 21.184-21.249 8.987-4.99 18.937-7.485 29.85-7.485 11.715 0 21.665 2.415 29.85 7.244 8.345 4.829 14.844 11.268 19.498 19.317l23.11-15.695c-7.382-11.751-17.252-20.927-29.609-27.527-12.197-6.6-26.48-9.9-42.849-9.9-12.678 0-24.474 2.174-35.387 6.52-10.752 4.185-20.14 10.141-28.165 17.868-7.863 7.727-14.042 16.983-18.535 27.768-4.333 10.624-6.5 22.375-6.5 35.253s2.167 24.709 6.5 35.494c4.333 10.786 10.431 20.122 18.295 28.01 8.024 7.888 17.412 14.004 28.164 18.351 10.753 4.185 22.468 6.278 35.146 6.278 13.481 0 25.437-2.415 35.868-7.244 10.432-4.99 19.178-11.751 26.239-20.283 7.061-8.531 12.357-18.27 15.888-29.216 3.531-11.107 5.135-22.859 4.814-35.253h-67.375l-3.437 24.146zM557.159 118.661l12.759-22.215c-2.568-2.897-5.617-4.99-9.148-6.278-3.53-1.287-7.302-1.931-11.314-1.931-4.654 0-9.228 1.449-13.721 4.346-4.494 2.737-8.345 6.6-11.555 11.59V90.651h-25.757v111.072h25.757v-62.538c0-8.049 1.444-14.488 4.333-19.317 2.889-4.829 7.543-7.244 13.962-7.244 3.21 0 5.858.564 7.944 1.69 2.086.966 4.333 2.415 6.74 4.347zM582.945 90.651v111.072h25.517V90.651h-25.517zm-3.611-40.74c0 4.507 1.605 8.29 4.815 11.348 3.209 3.059 7.061 4.588 11.555 4.588 4.654 0 8.585-1.53 11.795-4.588 3.21-3.058 4.815-6.841 4.815-11.349 0-4.507-1.605-8.29-4.815-11.348-3.21-3.059-7.141-4.588-11.795-4.588-4.494 0-8.346 1.53-11.555 4.588-3.21 3.058-4.815 6.841-4.815 11.349zM652.116 146.187c0-11.107 3.29-19.719 9.87-25.836 6.58-6.278 14.363-9.417 23.35-9.417 4.975 0 9.87 1.368 14.685 4.105 4.814 2.736 8.826 6.761 12.036 12.073 3.209 5.151 4.814 11.509 4.814 19.075 0 7.566-1.605 14.005-4.814 19.317-3.21 5.151-7.222 9.095-12.036 11.831-4.815 2.737-9.71 4.105-14.685 4.105-8.987 0-16.77-3.058-23.35-9.175-6.58-6.278-9.87-14.971-9.87-26.078zm-26.961 0c0 12.234 2.488 22.697 7.463 31.39 4.975 8.531 11.554 15.131 19.739 19.8 8.185 4.507 17.092 6.76 26.721 6.76 8.024 0 15.245-1.77 21.665-5.312 6.58-3.702 11.956-8.853 16.128-15.453v18.351h26.239V21.311h-26.239v87.691c-4.172-6.6-9.548-11.67-16.128-15.212-6.42-3.702-13.641-5.553-21.665-5.553-9.629 0-18.536 2.334-26.721 7.002-8.185 4.507-14.764 11.107-19.739 19.8-4.975 8.531-7.463 18.914-7.463 31.148zM772.658 161.641l-15.165 14.729c5.135 8.209 11.956 15.051 20.461 20.524 8.666 5.473 18.376 8.209 29.128 8.209 11.715 0 21.264-2.817 28.646-8.451 7.543-5.795 11.314-14.568 11.314-26.319 0-6.6-1.444-11.992-4.333-16.178-2.888-4.185-6.66-7.646-11.314-10.383-4.654-2.897-9.629-5.392-14.925-7.485a173.715 173.715 0 00-12.758-4.829c-4.173-1.449-7.623-3.139-10.351-5.071-2.729-1.931-4.093-4.426-4.093-7.485 0-3.38 1.284-5.795 3.852-7.244 2.728-1.609 6.339-2.414 10.833-2.414 4.493 0 9.147 1.288 13.962 3.863 4.975 2.576 9.308 5.876 12.999 9.9l14.443-14.971c-4.172-5.634-10.11-10.302-17.813-14.004-7.543-3.864-15.808-5.795-24.795-5.795-6.58 0-12.758 1.207-18.536 3.622-5.777 2.414-10.431 5.875-13.962 10.382-3.53 4.508-5.296 9.981-5.296 16.42 0 6.922 1.525 12.556 4.574 16.902 3.21 4.185 7.222 7.566 12.036 10.141 4.815 2.576 9.79 4.91 14.925 7.002 6.419 2.415 12.036 4.991 16.851 7.727 4.975 2.737 7.462 6.52 7.462 11.349 0 3.702-1.364 6.519-4.092 8.451-2.568 1.771-6.179 2.656-10.833 2.656-4.814 0-10.271-1.932-16.369-5.795-5.938-4.024-11.555-9.176-16.851-15.453zM884.632 146.187c0-10.463 3.13-18.914 9.389-25.353 6.419-6.439 14.283-9.659 23.591-9.659 9.468 0 17.332 3.22 23.591 9.659s9.388 14.89 9.388 25.353c0 10.302-3.129 18.753-9.388 25.353-6.259 6.439-14.123 9.659-23.591 9.659-9.308 0-17.172-3.22-23.591-9.659-6.259-6.6-9.389-15.051-9.389-25.353zm-26.72 0c0 11.429 2.568 21.49 7.703 30.183 5.296 8.692 12.438 15.533 21.425 20.524 9.147 4.829 19.338 7.243 30.572 7.243 11.394 0 21.585-2.414 30.572-7.243 8.987-4.991 16.048-11.832 21.183-20.524 5.296-8.693 7.944-18.754 7.944-30.183 0-11.429-2.648-21.49-7.944-30.182-5.135-8.693-12.196-15.454-21.183-20.283-8.987-4.99-19.178-7.485-30.572-7.485-11.234 0-21.425 2.495-30.572 7.485-8.987 4.829-16.129 11.59-21.425 20.283-5.135 8.692-7.703 18.753-7.703 30.182zM1150.99 131.217c0-14.005-2.89-24.629-8.67-31.873-5.77-7.405-14.68-11.107-26.72-11.107-7.38 0-14.12 1.77-20.22 5.312-6.1 3.38-10.99 8.129-14.68 14.246-4.98-13.039-15.57-19.558-31.78-19.558-7.22 0-13.48 1.69-18.77 5.07-5.14 3.38-9.23 7.888-12.28 13.522V90.651h-25.518v111.072h25.518v-67.609c0-7.405 1.84-13.361 5.54-17.868 3.85-4.668 9.3-7.002 16.36-7.002 6.75 0 11.48 2.173 14.21 6.519 2.73 4.185 4.09 10.302 4.09 18.351v67.609h26.24v-67.609c0-7.405 1.84-13.361 5.54-17.868 3.85-4.668 9.3-7.002 16.36-7.002 6.75 0 11.48 2.173 14.21 6.519 2.89 4.185 4.33 10.302 4.33 18.351v67.609h26.24v-70.506zM1193.64 152.224h88.35c.16-1.288.24-2.576.24-3.864.16-1.288.24-2.414.24-3.38 0-17.546-7.38-31.39-17.33-41.531-9.79-10.142-23.27-15.212-40.44-15.212-15.89 0-28.81 4.266-38.76 12.797-9.79 8.532-15.81 19.639-18.05 33.322a67.402 67.402 0 00-.73 5.795 73.142 73.142 0 00-.24 6.036c0 11.107 2.33 21.088 6.98 29.941 4.66 8.693 11.24 15.534 19.74 20.524 8.51 4.99 18.46 7.485 29.85 7.485 13.8 0 25.12-2.736 33.94-8.209 8.99-5.473 18.62-12.717 24.08-21.732l-25.04-9.175c-3.21 5.473-7.46 9.819-12.76 13.039-5.13 3.058-11.47 4.587-19.01 4.587-8.51 0-15.57-2.495-21.19-7.485-5.61-5.151-8.9-12.797-9.87-22.938zm.48-18.11c1.13-8.21 4.5-14.568 10.11-19.075 5.62-4.668 12.36-7.003 20.23-7.003 8.34 0 14.76 2.335 19.25 7.003 4.5 4.668 7.23 11.026 8.19 19.075h-57.78z"
        />
  </g>
  <defs>
    <linearGradient
            id="paint0_linear"
            x1="122.523"
            x2="122.523"
            y1="100.167"
            y2="244.752"
            gradientUnits="userSpaceOnUse"
        >
      <stop stop-color="#545454" />
      <stop offset="1" stop-color="#ccc" />
    </linearGradient>
    <clipPath id="clip0">
      <path fill="#fff" d="M0 0h981v183H0z" transform="translate(308 22)" />
    </clipPath>
  </defs>
</svg>
