<svg
    viewBox="0 0 512 209"
    xmlns="http://www.w3.org/2000/svg"
    preserveAspectRatio="xMidYMid"
>
  <defs>
    <linearGradient x1="23.962%" y1="46.043%" x2="68.784%" y2="55.602%" id="a">
      <stop stop-color="#a9a9a9" offset="0%" />
      <stop stop-color="#e6e6e6" offset="100%" />
    </linearGradient>
    <linearGradient x1="26.427%" y1="42.381%" x2="67.132%" y2="51.906%" id="b">
      <stop stop-color="#e6e6e6" offset="0%" />
      <stop stop-color="#a9a9a9" offset="100%" />
    </linearGradient>
    <linearGradient x1="50%" y1="99.822%" x2="50%" y2="-.044%" id="c">
      <stop stop-color="#a9a9a9" offset="0%" />
      <stop stop-color="#a9a9a9" offset="40.26%" />
      <stop stop-color="#a9a9a9" offset="100%" />
    </linearGradient>
  </defs>
  <path
        d="M459.303 4.292c-.1.4-.1.798 0 1.197 0 0 1.297 8.48-.2 12.27l-61.48 159.99c-4.39 11.77 1.497 24.85 13.274 29.34 11.777 4.49 24.852-1.3 29.543-12.98l61.48-159.99c1.197-3.1 8.084-9.18 8.084-9.18.3-.3.6-.6.798-.9v-.1c0-.1.1-.1.1-.2 1.597-4.09-8.683-11.88-22.855-17.37C473.874.89 461-.2 459.403 3.99c0 0-.1.1-.1.3z"
        opacity=".1"
    />
  <path
        d="M63.276 2.894c-.1.4-.1.8 0 1.198 0 0 1.298 8.483-.2 12.276L1.596 176.356c-4.39 11.777 1.5 24.85 13.276 29.342 11.778 4.49 24.852-1.297 29.543-12.974l61.48-159.988c1.198-3.094 8.084-9.182 8.084-9.182.3-.3.6-.6.8-.898v-.1c0-.1.1-.1.1-.2 1.59-4.092-8.69-11.876-22.86-17.366S64.97-1.597 63.37 2.595c0 .1 0 .2-.1.3z"
        fill="url(#a)"
        transform="translate(394.23)"
    />
  <path
        d="M82.64 75.253L38.224 190.628c-3.293 8.284-12.775 12.575-21.258 9.282-8.484-3.294-12.975-12.975-9.88-21.26l28.344-73.755s3.494-5.69 10.48-9.78c6.987-4.093 12.676-3.195 20.36-6.588 7.785-3.393 16.37-13.274 16.37-13.274z"
        fill="url(#b)"
        transform="translate(394.23)"
    />
  <path
        d="M498.406 19.02c.885-2.31-5.483-6.917-14.222-10.29-8.74-3.375-16.542-4.24-17.426-1.93-.885 2.308 5.483 6.914 14.222 10.29 8.74 3.373 16.542 4.237 17.426 1.93z"
        fill="#a9a9a9"
    />
  <path
        d="M457.093 4.08s1.29 8.46-.2 12.242L395.817 175.86c-4.362 11.742 1.488 24.78 13.188 29.26 1.983.795 4.065 1.292 6.147 1.392a23.037 23.037 0 0 1-7.634-26.274l59.89-156.352s-8.23-7.664-10.313-19.806z"
        opacity=".3"
        fill="#e6e6e6"
    />
  <g transform="translate(420.01 104.5)" fill="#e6e6e6" opacity=".5">
    <ellipse cx="17.451" cy="2.488" rx="1.785" ry="1.791" />
    <ellipse cx="29.052" cy="15.327" rx="2.677" ry="2.687" />
    <ellipse cx="11.303" cy="30.653" rx="5.057" ry="5.076" />
    <ellipse cx="3.173" cy="40.009" rx="2.677" ry="2.687" />
    <ellipse cx="13.782" cy="59.913" rx="1.785" ry="1.791" />
  </g>
  <path
        d="M120.465 97.135c2.694 2.19 7.585.896 10.878-2.687 3.494-3.782 3.993-8.658 1.298-10.848-2.69-2.19-7.58-.896-10.87 2.886-3.49 3.782-4.09 8.56-1.29 10.65zm-8.084 7.066c-.69 0-1.99 1.3-.89 1.8 1.5.5 2.2 1.79 2.2 3.59-1.29 7.47-10.58 15.93-14.17 18.81-.9.9.4 2.89 1.3 2.19 2-1.59 6.19-4.87 9.58-9.25-5.58 12.44-16.56 28.57-20.75 34.24-16.37 22.59-41.22 43.39-58.28 43.39-13.67 0-25.25-9.25-27.74-22.79-.2-1.49-2.19-1.79-1.8.2 3.1 18.61 17.47 25.88 34.83 25.88 19.07 0 41.42-13.73 53.8-27.86 19.96-22.79 32.84-49.06 29.45-63.89-1.4-5.47-5.29-6.36-7.48-6.27zm122.66 49.67c5.29-1.29 9.59-4.18 9.59-8.76 0-.5-.9-.5-.9 0 0 2.69-3.09 4.98-6.58 5.48-8.18 1.3-24.35-8.26-31.94-18.11 8.19 3.09 24.85-1.39 32.74-7.06 7.29-5.27 10.18-11.04 10.68-15.72.9-7.76-7.58-12.34-19.46-7.76-7.58 3.09-16.66 9.75-26.15 22.29 9.98-16.42 29.65-43.29 48.91-60.41 23.45-20.8 37.02-16.82 15.96 5.27-8.68 9.06-25.05 20.8-36.33 25.88-3.49 1.5-1.8 3.49.7 2.39 11.98-5.27 27.95-16.12 37.63-25.18 28.55-27.37 4.69-47.97-26.85-19.01-21.45 19.71-35.43 40.31-47.6 67.08-4.19 5.08-7.28 9.26-11.08 12.44-.5.4-.79.8-1.09 1.2-10.48 8.95-26.94 21.1-37.22 21.2-7.28.2-10.38-5.28-9.08-12.34 2-11.05 13.47-24.09 23.26-28.57 12.67-5.77 20.16 5.47 3.49 14.43-6.39 3.28-13.97 5.08-17.07 5.08-3.59 0-3.29 1.5-.2 1.6 5.09.2 13.27-1.99 18.66-4.48 17.07-8.16 18.17-23.39-.4-23.88-20.16-.7-44.31 16.42-44.11 38.02.2 9.76 7.99 15.03 18.66 15.03 17.87-.2 33.74-13.73 46.81-25.67 1.9-1.59 3.69-3.28 5.49-5.07-4.59 11.54-6.88 22.29-5.79 30.25.7 5.78 4 8.46 6.59 10.65.5.4 1.6 0 .9-1.09-3.79-4.48-2.69-17.91 2.5-30.95 4.39 8.76 21.46 19.8 39.32 15.82zm-21.45-37.72c20.86-18.61 29.05-1.99 15.77 8.16-6.89 5.28-20.56 9.26-24.85 6.67l-.9-.5c-.5-.89-1.1-1.79-1.49-2.68 3.5-4.28 7.49-8.06 11.48-11.64zm115.97-21.2c8.39.9 4.89-9.25-3.59-6.67-3.79 1.1-7.48 8.36-10.18 14.63-8.38 12.44-22.35 29.46-32.13 38.42-8.68 7.47-16.67 9.46-6.89-4.48 4-5.57 9.09-11.54 11.98-17.51 6.89-15.03-7.78-21.69-19.66-12.64-6.88 5.28-16.16 16.13-23.45 22.1-1.99 1.59-1.49 3.98.5 2.39 5.79-4.67 15.97-15.42 24.75-21.69 7.29-5.57 10.18-1.99 5.99 2.69-5.79 6.67-15.97 18.32-18.56 25.68-3.59 11.05.7 15.93 7.99 15.93 9.98 0 24.85-15.52 34.83-27.86 3.29-4.18 6.89-9.05 9.98-13.73-8.68 16.82-17.76 33.84-29.04 49.27-15.97 21.69-35.93 38.02-54.89 38.02-13.67 0-25.45-9.26-27.94-22.79-.2-1.49-1.99-1.79-1.79.2 3.1 18.61 17.47 25.88 34.83 25.88 19.07 0 37.43-11.04 50.3-24.58 25.95-27.37 29.05-58.12 37.03-75.34 3.79-7.86 7.19-8.16 9.98-7.86zm105.59-26.28c3.8-6.46 3.6-11.54-5.29-11.54-6.68.2-18.86 4.88-24.55 9.26-1.29 1.3-.7 1.99.9 1.3 1.1-.4 2.4-1.09 3.59-1.59 6.39-3.48 3.8 3.79 2.4 6.47-7.58 13.24-21.06 31.85-28.14 41.11-3.39 4.58-7.18 9.06-10.88 12.94-6.78 6.47-20.26 17.92-30.54 21.7-33.03 12.34 9.09-43.79 12.58-48.36 7.79-9.75 25.25-26.77 30.54-35.33 3.8-6.47 3.6-11.55-5.29-11.55-6.68.2-18.86 4.88-24.55 9.26-1.3 1.3-.7 1.99.9 1.3 1.1-.4 2.4-1.09 3.6-1.59 6.39-3.48 3.79 3.79 2.4 6.47-7.58 13.24-21.05 31.85-28.14 41.11-5.79 7.76-12.87 15.53-18.36 19.91-2.19 1.8-.9 3.49 1.3 1.99 2-1.29 4.89-4.18 8.19-7.56-5.99 11.94-10.88 28.76 4.89 30.75 13.48 1.79 29.44-11.84 39.82-21.99l3.7-3.68.9-.89c-5.99 11.94-10.88 28.76 4.89 30.75 17.27 2.39 38.73-20.8 47.01-29.36 1.6-1.59 1.1-4.38-1.6-1.59-4.89 5.08-21.46 20.1-33.43 24.58-33.04 12.34 9.08-43.79 12.57-48.37 7.88-9.95 25.35-26.97 30.64-35.43z"
        opacity=".1"
    />
  <path
        d="M118.668 95.443c2.695 2.19 7.585.896 10.88-2.687 3.492-3.782 3.99-8.658 1.296-10.848-2.694-2.19-7.585-.896-10.878 2.886-3.493 3.782-3.993 8.46-1.298 10.65zm-7.984 7.067c-.7 0-1.996 1.293-.898 1.79 1.497.5 2.195 1.792 2.195 3.584-1.29 7.464-10.57 15.924-14.17 18.81-.9.896.4 2.886 1.3 2.19 2-1.593 6.19-4.877 9.58-9.256-5.59 12.44-16.57 28.563-20.76 34.236-16.37 22.592-41.22 43.392-58.28 43.392-13.67 0-25.25-9.256-27.74-22.79-.2-1.494-2.19-1.792-1.79.198 3.1 18.61 17.47 25.876 34.83 25.876 19.07 0 41.42-13.734 53.8-27.866 19.96-22.79 32.84-49.065 29.44-63.894-1.49-5.574-5.29-6.47-7.48-6.27zm122.56 49.662c5.29-1.294 9.582-4.18 9.582-8.758 0-.498-.9-.498-.9 0 0 2.687-3.092 4.976-6.586 5.474-8.184 1.293-24.352-8.26-31.937-18.114 8.184 3.086 24.85-1.393 32.736-7.066 7.28-5.275 10.18-11.047 10.67-15.725.9-7.763-7.59-12.34-19.46-7.763-7.59 3.086-16.67 9.754-26.15 22.294 9.98-16.422 29.64-43.293 48.9-60.41 23.45-20.802 37.02-16.82 15.97 5.274-8.69 9.056-25.05 20.8-36.33 25.876-3.5 1.493-1.8 3.483.7 2.388 11.97-5.274 27.94-16.122 37.62-25.18 28.54-27.368 4.69-47.97-26.85-19.008-21.46 19.606-35.43 40.307-47.61 67.08-4.2 5.075-7.29 9.255-11.08 12.44-.5.397-.8.796-1.1 1.194-10.48 8.957-26.95 21.1-37.23 21.198-7.29.2-10.38-5.275-9.08-12.34 1.99-11.048 13.47-24.086 23.25-28.564 12.67-5.772 20.16 5.474 3.49 14.43-6.39 3.285-13.98 5.077-17.07 5.077-3.6 0-3.3 1.49-.2 1.59 5.09.2 13.27-1.99 18.66-4.48 17.07-8.16 18.16-23.39-.4-23.89-20.16-.7-44.31 16.42-44.11 38.02.2 9.75 7.98 15.03 18.66 15.03 17.86-.2 33.73-13.74 46.81-25.68 1.89-1.6 3.69-3.29 5.49-5.08-4.6 11.54-6.89 22.29-5.79 30.25.7 5.77 3.99 8.46 6.58 10.65.5.4 1.59 0 .9-1.1-3.8-4.48-2.7-17.92 2.49-30.96 4.49 8.76 21.56 19.8 39.32 15.82zm-21.458-37.82c20.86-18.61 29.044-1.99 15.77 8.162-6.887 5.275-20.56 9.256-24.852 6.668l-.898-.498c-.5-.895-1.098-1.79-1.497-2.687 3.49-4.18 7.48-8.06 11.47-11.644zM327.76 93.255c8.383.896 4.89-9.256-3.593-6.668-3.793 1.094-7.486 8.36-10.18 14.63-8.384 12.44-22.357 29.46-32.137 38.416-8.684 7.464-16.668 9.455-6.887-4.48 3.992-5.572 9.082-11.543 11.977-17.515 6.886-15.028-7.785-21.696-19.662-12.64-6.887 5.275-16.168 16.123-23.454 22.095-1.996 1.592-1.497 3.98.5 2.388 5.788-4.67 15.968-15.42 24.75-21.69 7.286-5.57 10.18-1.99 5.99 2.69-5.79 6.67-15.97 18.32-18.565 25.68-3.6 11.05.69 15.92 7.98 15.92 9.98 0 24.85-15.52 34.83-27.86 3.29-4.18 6.88-9.05 9.98-13.73-8.68 16.82-17.77 33.84-29.04 49.27-15.97 21.7-35.93 38.02-54.9 38.02-13.68 0-25.45-9.25-27.95-22.79-.2-1.49-2-1.79-1.8.2 3.09 18.61 17.46 25.88 34.83 25.88 19.06 0 37.42-11.04 50.3-24.58 25.95-27.37 29.04-58.12 37.02-75.34 3.79-7.86 7.28-8.26 9.98-7.86zM433.354 66.88c3.792-6.47 3.593-11.545-5.29-11.545-6.687.2-18.863 4.877-24.552 9.256-1.298 1.3-.7 1.99.898 1.3 1.098-.4 2.395-1.09 3.593-1.59 6.388-3.48 3.793 3.78 2.395 6.47-7.585 13.24-21.058 31.85-28.145 41.11a140.323 140.323 0 0 1-10.878 12.94c-6.787 6.47-20.26 17.92-30.54 21.7-33.036 12.34 9.082-43.79 12.575-48.37 7.785-9.75 25.25-26.77 30.54-35.33 3.793-6.47 3.593-11.54-5.29-11.54-6.687.2-18.863 4.88-24.552 9.26-1.297 1.3-.698 1.99.9 1.3 1.096-.4 2.394-1.09 3.592-1.59 6.387-3.48 3.792 3.79 2.395 6.47-7.585 13.24-21.06 31.85-28.145 41.11-5.79 7.76-12.875 15.53-18.364 19.9-2.196 1.79-.898 3.48 1.297 1.99 1.996-1.29 4.89-4.18 8.184-7.56-5.988 11.94-10.88 28.76 4.89 30.75 13.474 1.79 29.443-11.84 39.823-21.99l3.693-3.68.898-.89c-5.98 11.95-10.87 28.77 4.89 30.76 17.27 2.39 38.73-20.8 47.01-29.36 1.6-1.59 1.1-4.38-1.59-1.59-4.89 5.08-21.46 20.1-33.43 24.58-33.03 12.34 9.08-43.79 12.58-48.37 7.99-9.95 25.35-26.97 30.64-35.43z"
        fill="url(#c)"
    />
</svg>
