<?xml version="1.0" encoding="utf-8" ?>
<!-- Generator: Adobe Illustrator 15.0.0, SVG Export Plug-In . SVG Version: 6.00 Build 0)  -->
<!DOCTYPE svg PUBLIC "-//W3C//DTD SVG 1.1//EN"
    "http://www.w3.org/Graphics/SVG/1.1/DTD/svg11.dtd">
<svg
    version="1.1"
    id="Layer_1"
    xmlns="http://www.w3.org/2000/svg"
    xmlns:xlink="http://www.w3.org/1999/xlink"
    x="0px"
    y="0px"
    width="230.1px"
    height="235px"
    viewBox="0 0 230.1 235"
    enable-background="new 0 0 230.1 235"
    xml:space="preserve"
>
<g>
	<defs>
		<path
                id="SVGID_1_"
                d="M387.401-281.3v-0.2l5.699-28.2c0,0-12.5-29-54.5-25.4c-42,3.3-47.3,13-54.2,24.6l4,18.5l-7.699,5
			c0,0-3-8.3-7.301-8.6c0,0,6.601-9.4,2-16c-4.8-6.6-30-6-39.6,27.2c0,0-1.2-10-5.3-10c-4.101,0-19,5.3-15,21
			c4,15.7,18,20.4,22.8,22.3c0,0,2.2,2.7,1.3,6.5c-0.5,2-12,37-2.399,69.6c7.199,24.4,30,45.4,30,45.4c16.8,16.6,40.3,26.6,66,26.6
			c53.399,0,96.7-43.6,96.7-97.4c0-33.7-17-63.3-42.601-81L387.401-281.3z"
            />
	</defs>
	<clipPath id="SVGID_2_">
		<use xlink:href="#SVGID_1_" overflow="visible" />
	</clipPath>
	<g clip-path="url(#SVGID_2_)">
		<ellipse display="none" fill="#D1D1D1" cx="339" cy="33.1" rx="89.3" ry="7.4" />
		<g display="none">
			<path
                    display="inline"
                    fill="#9A9A9A"
                    d="M258.5-76.5L335,22.2c0,0,3,1,4.3-0.4v-98.3H258.5z"
                />
			<path
                    display="inline"
                    fill="#9A9A9A"
                    d="M335,22.2l-15.3,10v2.2h19.8l-0.2-12.6c0,0-2-2.4-4.2,0.4H335z"
                />
		</g>
		<g display="none">
			<path
                    display="inline"
                    fill="#9A9A9A"
                    d="M419.6-76.5L343,22.2c0,0-3,1-4.3-0.4v-98.3h81H419.6z"
                />
			<path
                    display="inline"
                    fill="#9A9A9A"
                    d="M343,22.2l15.4,10v2.2h-20l0.3-12.6C338.7,21.8,340.901,19.4,343,22.2L343,22.2z"
                />
		</g>
		<path
                fill="#191919"
                d="M339,21.5c0.5-5.4,0.7-12.2,0.7-19.7s-0.2-14.3-0.7-19.7c-0.4,5.5-0.7,12.3-0.7,19.8s0.3,14.3,0.7,19.7
			V21.5z"
            />
	</g>
</g>
<path
        fill="#9A9A9A"
        d="M118.6,35c-54.6,0-99,44.8-99,100c0,55,44.4,100,99,100c54.7,0,99.2-45,99.2-100
	C217.8,79.8,173.3,35,118.6,35z M118.6,230c-52,0-94-42.6-94-95c0-52.4,42-95,94-95s94.2,42.6,94.2,95
	C212.8,187.4,170.6,230,118.6,230z"
    />
<g>
	<defs>
		<path
                id="SVGID_3_"
                d="M172.8,54l5.6-28.3c0,0-12.399-29-54.399-25.4C82,3.7,76.4,13.5,69.5,25l4,18.5l-7.7,5c0,0-3-8.4-7.3-8.7
			c0,0,6.6-9.4,2-16c-4.8-6.6-30-6-39.601,27.3c0,0-1.199-10-5.3-10c-4,0-19,5.4-15,21s18.2,20.4,23,22.3c0,0,2,2.8,1,6.6
			c-0.399,1.8-11.7,37-2.2,69.5c7,24.3,29.7,45.4,29.7,45.4c17.4,16.399,40.7,26.5,66.4,26.5c53.399,0,96.7-43.601,96.7-97.5
			c0-33.7-16.801-63.3-42.5-81L172.8,54z"
            />
	</defs>
	<clipPath id="SVGID_4_">
		<use xlink:href="#SVGID_3_" overflow="visible" />
	</clipPath>
	<g clip-path="url(#SVGID_4_)">
		<path
                fill="#9A9A9A"
                d="M152.7,170.5c0,0,70.3,11.3,78,109.6c0,0-13,8.4-26.7,9c0,0,1.2-75.6-51.3-118.5V170.5z"
            />
		<path
                fill="#474747"
                d="M193.8,232l1.6,4.7c4.601-0.4,15-2,24-6c-0.5-1.601-1.199-3-1.8-4.5C214.2,227.7,206.6,230.5,193.8,232z"
            />
		<circle fill="#D3D3D3" cx="80.3" cy="96.1" r="15.1" />
		<circle fill="#D3D3D3" cx="80.3" cy="96.1" r="15.1" />
		<path
                fill="#D3D3D3"
                d="M65.2,96v1.5c1-0.5,2.3-1,3.5-1.8c7-4.6,7.3-10,5.699-13.5C69,84.5,65.2,89.8,65.2,96.2V96z"
            />
		<circle fill="#D3D3D3" cx="72.5" cy="96.1" r="7.3" />
		<path
                fill="#B4B4B4"
                d="M72.5,88.8h-1c3,0.5,5,3.6,5,7.3c0,3.7-2,7-5,7.3h1c4,0,7.3-3.2,7.3-7.2S76.5,89,72.5,89V88.8z"
            />
		<path
                fill="#D3D3D3"
                d="M71.6,89c-0.2-0.2-0.5-0.2-0.7-0.2c-3.3,0-5.8,3.3-5.8,7.3c0-3.6,2.8-6.7,6.4-7L71.6,89z M65.2,96
			c0,4,2.5,7.4,5.699,7.4H71.5c-3.601-0.5-6.4-3.6-6.4-7.3L65.2,96z"
            />
		<circle fill="#D3D3D3" cx="168.5" cy="96.1" r="15.1" />
		<circle fill="#D3D3D3" cx="168.5" cy="96.1" r="15.1" />
		<circle fill="#D3D3D3" cx="176.3" cy="96.1" r="7.3" />
		<path
                fill="#B4B4B4"
                d="M172,96c0-3.6,2.3-6.7,5-7c-0.2-0.2-0.5-0.2-0.7-0.2c-4,0-7.3,3.3-7.3,7.3s3.2,7.4,7.3,7.4h0.8
			c-2.7-0.5-5-3.6-5-7.3L172,96z"
            />
		<path
                fill="#D3D3D3"
                d="M183.5,96c0-4-2.5-7.2-5.7-7.2h-0.7c3.7,0.5,6.5,3.6,6.5,7.3L183.5,96z M177.1,103.3h0.8
			c3.2,0,5.7-3.2,5.7-7.2c0,3.8-2.8,7-6.399,7.3L177.1,103.3z"
            />
		<g>
			<path
                    fill="#D3D3D3"
                    d="M38.2,105.7c0,0,14.3,2,12.5-12.5c0,0,5,8,16.199,0.7c11.2-7.3,5.2-16.7,2-17c-3-0.3-7.399-3.8-18.3,7.5
				L44.4,70l7.2-9.3c0,0,1,13.6,11.4,9.8c10.5-3.8,2.7-27-6.7-27s-17,9.7-17,9.7s3.2-8.7,17-16c0,0,5.3-3,2.2-10.8
				c-3.2-7.8-32.8-2.2-37.5,36c0,0-5.3-5-4-13C18,41.8,1.5,44,4.6,60.8C7.7,77.7,24,81,24,81s5.6,9,1.7,19
				C25.7,100,31.9,108,38.2,105.7z"
                />
			<path
                    fill="#D3D3D3"
                    d="M67,94c11-7.4,5-16.8,2-17c-1.8-0.2-4.2-1.6-8.3,0l3.699,7.6c0,0-0.8,10.8-13,8c0,0,0,0.5-0.399,1
				c1.399,1.8,6.5,6.3,16,0.3V94z M50.8,94.3c-2,3.4-8.4,9.8-24,1.8l-1,4c0,0,6,8,12.4,5.7c0,0,13.6,1.8,12.6-11.4V94.3z M51.6,60.7
				c0,0,1,13.6,11.4,9.8C67.3,69,68.5,64,67.8,59c-2.6,2.7-10.6,9.6-13.8-5L39.6,70.8l-11.3,6.6l14-3.5l8.4,10.7L44.4,70L51.6,60.7z
				"
                />
			<path
                    fill="#D3D3D3"
                    d="M41.8,49.2c2.3-3.2,6.7-7.8,14.5-12c0,0,5.3-3,2.2-10.8L58.3,26c-0.8,2.3-2.2,5.2-5,7
				c-5.8,4.2-26.5,18.5-20,40.2C33.3,73.2,30.7,59.8,41.8,49.2z M20.8,62c-1.2-1.2-5-5.8-4-12.5c0.6-3-1.7-4.6-4.4-4.3
				c-0.5,8.4,0.601,25.4,17,30.3c0,0-6-3-8.699-13.5H20.8z"
                />
		</g>
		<path
                fill="#9A9A9A"
                d="M25.7,100l12.5,5.7c0,0-11.2,62,47.5,64.3c0,0,0.399,40-36,39.3c0,0-47.801-38-24-109.2V100z"
            />
		<path
                fill="#CCCCCC"
                d="M40.6,139.4l-0.5-1.7c-2.7,1.399-10.2,4.6-21,4.5l0.3,4c5.4,0,14.301-0.601,22-4.8l-0.6-1.801V139.4H40.6z
			 M44.6,148.4l-1-1.7c-3,1.5-12,5-23.7,5.2c0,1.399,0.4,3,0.601,4.399c6.399,0,15.8-1,25-6.5l-1-1.6L44.6,148.4z M25.6,100.1
			c-3.3,9.4-4.8,18-6,26c6,1,12,1.2,18-2.6c-0.8-10,0.601-17.7,0.601-17.7L25.7,100L25.6,100.1z"
            />
		<path
                fill="#9A9A9A"
                d="M159.6,168.5H89c-75,33-57.5,157.3-57.5,157.3h93.3v-57l5.2,57h87.2C217.2,325.8,234.6,201.5,159.6,168.5z
			"
            />
		<path
                fill="#CCCCCC"
                d="M222.8,284.2c-1-26.7-6.4-61-24.4-86.8c-21.5-23-45.699-27-45.699-27C205.2,213.5,204,289,204,289
			C211,288.7,217.8,286.4,222.8,284.2z"
            />
		<path
                fill="#CCCCCC"
                d="M34.6,246l-0.7,3.4C54.5,241.8,87.3,236.8,124.3,236.8s69.7,5,90.4,12.601L214,246
			c-20.601-7.5-53-12.3-89.601-12.3C87.8,233.7,55.4,238.5,34.6,246L34.6,246z M38.6,230.3c-0.2,1-0.6,2-1,3
			c21-6.8,52-11.2,86.8-11.2c34.801,0,65.7,4.5,86.601,11.4l-1-3c-20.8-6.8-51.4-11-85.601-11c-34.199,0-65,4.2-85.699,11
			L38.6,230.3z"
            />
		<path
                fill="#CCCCCC"
                d="M68,182.2c-16.2,20.7-14.5,46-14.5,46l4.399-2c-1.5-22,8.5-39.5,15-48c-2,1.2-3.5,2.6-5,4H68z M176,178.2
			c6.2,8.5,16.2,26,14.8,48l4.4,2c0,0,1.699-25.3-14.301-46l-5-4H176z"
            />
		<path
                fill="#D3D3D3"
                d="M163.3,166c0,0-15,13.6-39.6,13.6C94.4,179.6,85.4,166,85.4,166L80.2,70.5h88.3L163.3,166L163.3,166z"
            />
		<path
                fill="#D3D3D3"
                d="M163.3,166c0,0-15,13.6-39.6,13.6C94.4,179.6,85.4,166,85.4,166L80.2,70.5h88.3L163.3,166L163.3,166z"
            />
		<path
                fill="#D3D3D3"
                d="M163.3,166c0,0-15,13.6-39.6,13.6C94.4,179.6,85.4,166,85.4,166L80.2,70.5h88.3L163.3,166L163.3,166z"
            />
		<path
                fill="#9A9A9A"
                d="M135.6,86.8l2.2-2.8c0,0,8-0.4,20,6c0,0-8.7-10.8-22-7l0.4-2.5l-3.801,6.2c0,0,1.4,8.2,0,14.2h-16
			c-1.5-6,0-14.3,0-14.3l-4-6.2l0.5,2.4C99.5,79,90.7,89.8,90.7,89.8c12.199-6.4,20.199-6,20.199-6l2,2.8c-4,8.5-14,9.2-14,9.2
			c10.4,1,14.2-5.5,14.2-5.5c-0.6,5.2,0.5,12,0.5,12l10.601,7.4l10.699-7.5c0,0,1-6.8,0.5-12c0,0,3.801,6.6,14.4,5.5
			c0,0-10.2-0.7-14.4-9.2L135.6,86.8z"
            />
		<ellipse fill="#9A9A9A" cx="124.4" cy="117.7" rx="14.5" ry="8.7" />
		<path
                fill="#e6e6e6"
                d="M124.4,126.8c3.2,0,6.301-1,8.7-2.2c-1.6-1.8-5-3-8.6-3c-3.8,0-7,1.2-8.8,3c2.5,1,5.5,2.2,8.8,2.2H124.4z"
            />
		<path
                fill="#e6e6e6"
                d="M124.4,109c-8,0-14.5,4-14.5,8.7v0.7H138.7v-0.7c0-4.8-6.4-8.7-14.4-8.7H124.4z"
            />
		<path
                fill="#9A9A9A"
                d="M124.4,132c-3,0-5.699-0.5-8-1.4c1.801,2.4,4.7,4,8,4c3.301,0,6-1.6,8-4C130,131.6,127.4,132,124.4,132z
			 M124.4,157.8c-5,0-9.699-1-13.6-2.399c3,4,8,6.699,13.6,6.699c5.5,0,10.4-2.5,13.601-6.6c-4,1.6-8.601,2.5-13.601,2.5V157.8z"
            />
		<path fill="#A7A7A7" d="M167.7,86.2l0.8-15.7H80.2L81,86.2" />
		<path
                fill="#B3B3B3"
                d="M168.7,70.5l7.8-44.8c0,0-11.7-23-52-23c-48.7,0-52.3,23-52.3,23L80,70.5H168.7z"
            />
		<path fill="#9A9A9A" d="M80,70.5h88.7l3.399-19.2H76.8" />
		<path fill="#B3B3B3" d="M66.6,81.2L63,70.5h122.7L182,81.2" />
		<circle fill="#B3B3B3" cx="124.4" cy="57.4" r="14.3" />
		<path
                fill="#9A9A9A"
                d="M124.4,70c-7,0-12.6-5.7-12.6-12.6c0-7,5.6-12.5,12.6-12.5S137,50.4,137,57.3c0,7-5.7,12.5-12.601,12.5V70
			z M124.4,46.5c-6,0-11,5-11,11s5,10.8,11,10.8s11-5,11-11S130.4,46.5,124.4,46.5z"
            />
		<path
                fill="#9A9A9A"
                d="M124.4,66.5c-5,0-9-4-9-9s4-9,9-9s9,4,9,9S129.4,66.5,124.4,66.5z M124.4,49.5c-4.399,0-8,3.6-8,8
			c0,4.2,3.601,7.8,8,7.8c4.4,0,7.801-3.6,7.801-8C132.2,53.1,128.7,49.5,124.4,49.5z"
            />
		<path
                fill="#9A9A9A"
                d="M130.7,51.3l-3,4l4.8-1.3l-4.3,2.6l5,0.6l-5,0.8l4.5,2.4l-5-1l3.399,3.8l-4.2-2.7l1.7,4.7l-3-4v5l-1.399-5
			L122.4,66l0.5-5l-3.5,3.6l2.4-4.5l-4.6,2.3L121,59l-5,0.3l4.7-1.8l-5-1.5h5.199l-4-3l4.7,2l-2.6-4.5l3.7,3.5l-0.801-5l2.2,4.5l1-5
			l0.3,5l2.801-4l-1.4,4.7"
            />
		<path
                fill="#9A9A9A"
                d="M127,57.4c0,1.5-1,2.7-2.601,2.7c-1.5,0-2.699-1-2.699-2.6c0-1.5,1.199-2.7,2.699-2.7s2.7,1.2,2.7,2.7
			L127,57.4z"
            />
		<path
                fill="#9C9C9C"
                d="M123.7,179.6C94.4,179.6,85.4,166,85.4,166l1,19.3c0,0,8.801,13.3,37.301,13.3c24,0,38.6-13.3,38.6-13.3
			l1-19.3C163.3,166,148.3,179.6,123.7,179.6z"
            />
		<path
                fill="#9A9A9A"
                d="M124.4,198.4c0.7-2.601,1-5.801,1-9.301s-0.3-6.699-1-9.199c-0.8,2.5-1.199,5.699-1.199,9.3
			c0,3.6,0.399,6.8,1.199,9.399V198.4z"
            />
		<circle fill="#9A9A9A" cx="131.3" cy="189.7" r="2.7" />
		<circle fill="#e6e6e6" cx="130.7" cy="189.1" r="2.7" />
		<path
                fill="#B4B4B4"
                d="M133.8,215.8h-19c-3,0-5.4,2.4-5.4,5.4v13.5c0,3,2.5,5.5,5.5,5.5H133.7c3,0,5.5-2.5,5.5-5.5v-13.5
			c0-3-2.4-5.4-5.5-5.4H133.8z M132.4,223.3v9.3c0,0.5-0.5,1-1,1h-14c-0.6,0-1-0.5-1-1v-9.3c0-0.5,0.4-1,1-1h14
			C131.9,222.3,132.4,222.8,132.4,223.3z"
            />
		<path fill="#939393" d="M124.3,110l10.6-7.5H113.7" />
		<g>
			<path
                    fill="#9A9A9A"
                    d="M124.4,108.3c0,0-9-10.5-29.6-5.4c-20.8,5-31.4,30.8-31.4,30.8s11.301,8.399,29,6.2
				c17.7-2.301,32-21.2,32-31.7V108.3z"
                />
			<path
                    fill="#9A9A9A"
                    d="M124.4,108.3c0,0,8.801-10.5,29.5-5.4c20.7,5,31.301,30.8,31.301,30.8s-11.301,8.399-29,6.2
				c-17.601-2.301-32-21.2-32-31.7L124.4,108.3z"
                />
		</g>
		<path
                fill="#e6e6e6"
                d="M169.2,198.5l-3.2,4l-3.3-4h2v-1.8h-7v1.8h2.699l4.601,5.7v3.6h-2.7v1.8h7.3v-1.8H167v-3.6l4.6-5.7h2.7
			v-1.8h-7v1.8"
            />
	</g>
</g>
</svg>
