<?xml version="1.0" encoding="utf-8"?>
<svg
    xmlns="http://www.w3.org/2000/svg"
    xmlns:xlink="http://www.w3.org/1999/xlink"
	viewBox="0 0 24 24"
	style="enable-background:new 0 0 24 24;">

<style>
    :root {
        --brand: #0069cc;
    }
    .brand {
        fill: none;
        stroke: var(--brand);
        stroke-width: 0.33;
        stroke-linejoin: round;
    }
    .white {
        fill: white;
    }
    .brandfill {
        fill: var(--brand);
    }
</style>

<line class="brand " x1="16" y1="12" x2="16" y2="12"/>
<line class="brand white" x1="19" y1="12" x2="19" y2="12"/>
<line class="brand" x1="22" y1="12" x2="22" y2="12"/>
<path class="brand white" d="M2,12c0,5.5,4.5,10,10,10c3.1,0,6.1-1.5,8-4l-8-6l8-6c-1.9-2.5-4.9-4-8-4C6.5,2,2,6.5,2,12"/>
<polygon class=" brandfill" points="19.2,10.9 19.5,11.6 20.2,11.7 19.7,12.2 19.9,12.9 19.2,12.5 18.6,12.9 18.7,12.2 18.2,11.7 18.9,11.6 "/>
<polygon class=" brandfill" points="22.3,10.9 22.6,11.6 23.3,11.7 22.8,12.2 22.9,12.9 22.3,12.5 21.7,12.9 21.8,12.2 21.3,11.7 22,11.6 "/>
<polygon class=" brandfill" points="16.2,10.9 16.5,11.6 17.2,11.7 16.7,12.2 16.8,12.9 16.2,12.5 15.5,12.9 15.7,12.2 15.1,11.7 15.8,11.6 "/>
</svg>
