<svg xmlns="http://www.w3.org/2000/svg" viewBox="0 0 602 190">
  <path fill="#a9a9a9" d="M584.6 24h-.8v-4.2h-.2l-1.5 3h-.5l-1.6-3h-.2V24h-1v-4.8h1.7l1.3 2.6 1.3-2.6h1.6m-7 .8h-1.4v4h-1v-4H574v-.8h4m-8.8-.6l-24 108.7c-1 3.5-4.5 6.4-8 6.4h-15.2c-3.6 0-6-3-5-6.4L539.2 25c.8-3.5 4.4-6.4 8-6.4H569zM505.5 49c-6.4-3.5-16.4-5.3-30-5.3-7 0-13.7.5-20.5 1.6-7 1-12 2-15.2 2.8L437 62.7c-.7 3.5-.2 6.4 1.3 6.4 2.7-1 7-2.3 12.5-3.8 5.5-1.6 10.6-2.4 15.2-2.4 6.8 0 12 .7 15.3 2.2 3.4 1.5 5 4 5 7.6 0 1 0 1.7-.2 2.4l-.2 1.5c-9.7.6-18.6 1.5-27 2.7-8.3 1.2-15.4 3-21.4 5.8-6.4 3-11.2 6.7-14.5 11.5-3.3 4.8-5 10.7-5 17.6 0 6.7 2.3 12 7 16 4.5 4.2 10.4 6.2 17.7 6.2 4.5 0 8-.3 10.6-1 2.5-.6 5.2-1.5 8-2.7 2.2-1 4.5-2.3 7-4 2.5-1.5 4.6-3 6.4-4l-2.2 9.2h21.2c3.7 0 7.3-3 8-6.4l12.4-53c.4-1.4.7-2.8.8-4.5l.3-4c0-7.6-3-13-9.5-16.7zm-27.7 62c-2.7 2-5.7 3.5-8.8 4.8-3 1.3-6 2-8.8 2-4.2 0-7.4-.7-9.6-2-2.2-1-3.3-3.2-3.3-6.3 0-3.4.8-6 2.5-8.2 1.7-2 4-3.7 7.2-4.8 3-1 6.8-2 11-2.5 4.4-.6 9-1 14-1.5L478 111zm-51.5-76.4c-2-4-5.2-7.4-9.3-10-4-2.5-9-4.3-14.6-5.3-5.7-1-12.3-1.6-20-1.6h-35c-3.7 0-7.3 3-8.2 6.4l-23.8 103.3c-.8 3.5 1.5 6.4 5 6.4h17c3.7 0 7.3-3 8-6.4l6-25c.7-3.5 4.3-6.4 8-6.4h4.8c20.6 0 36.6-4.4 48-12.8 11.6-8.5 17.3-19.6 17.3-33.4 0-6-1-11.2-3.2-15.2zM390 68.3c-5.2 3.7-12.3 5.5-21.4 5.5h-4.2c-3.6 0-6-2.8-5-6.4l5-22c.8-3.4 4.4-6.3 8-6.3h5.6c6.4 0 11.3 1.2 14.6 3.4 3.3 2.2 5 5.5 5 10 0 7-2.6 12.2-7.7 16z"/>
  <path fill="#c9c9c9" d="M303.4 43.8c-3.7 0-8.4 3-10.6 6.4l-29.8 51-8.2-51c-.8-3.5-4.5-6.3-8-6.3h-15c-3.8 0-6 2.7-5.3 6.3l13 84.3.8 4.6-16.2 27.2c-2 3.5-1 6.4 2.7 6.4h17.5c3.6 0 8.3-3 10.5-6.4l72.7-122.6h-24zM208 49.3c-6.5-3.6-16.5-5.4-30.2-5.4-6.8 0-13.6.4-20.4 1.5-6.8 1-12 2-15 2.8l-3 14.5c-.7 3.5 0 6.4 1.3 6.4l12.5-4C158.8 64 164 63 168.4 63c6.8 0 12 .7 15.3 2.2 3.4 1.4 5 4 5 7.6v2.4l-.5 1.5c-9.6.6-18.6 1.5-27 2.7-8.2 1.2-15.4 3-21.4 5.8-6.4 3-11.2 6.7-14.4 11.5-3.3 4.8-5 10.7-5 17.6 0 6.6 2.4 12 7 16 4.5 4 10.5 6 17.7 6 4.6 0 8.2-.2 10.7-1 2.5-.5 5.3-1.4 8.2-2.7 2-1 4.3-2.2 6.8-3.8l6.3-4.2-2 9.3h21.2c3.6 0 7.2-3 8-6.5l12.3-53c.4-1.4.6-3 .8-4.5.2-1.7.2-3 .2-4 0-7.6-3.2-13.2-9.6-16.7zM180.2 111c-2.8 2-5.7 3.7-8.8 5-3.2 1.2-6 2-8.8 2-4.2 0-7.4-.7-9.6-2-2-1.2-3.2-3.3-3.2-6.3 0-3.4.8-6 2.5-8.2 1.6-2 4-3.7 7.2-4.8 3-1 6.7-2 11-2.5 4.4-.6 9-1 14-1.5l-4.2 18.4zM128.8 35c-2.2-4-5.3-7.4-9.3-10-4.2-2.5-9-4.3-14.7-5.3-5.6-1-12.2-1.6-20-1.6H50c-3.7 0-7.3 2.8-8 6.3l-24 103.2c-.7 3.5 1.6 6.4 5.2 6.4h17c3.5 0 7-3 8-6.5l5.7-25c1-3.6 4.5-6.5 8-6.5h5c20.5 0 36.6-4.2 48-12.6C126.2 75 132 63.8 132 50c0-6-1-11.2-3.2-15.2zM92.3 68.5c-5 3.7-12 5.5-21.2 5.5h-4c-3.8 0-6-3-5.2-6.4l5-22c.8-3.4 4.5-6.3 8-6.3h5.6c6.5 0 11.4 1 14.6 3.3 3.3 2.2 5 5.5 5 10 0 7-2.6 12.2-7.7 16z"/>
</svg>
