<?xml version="1.0" standalone="no"?>
<!DOCTYPE svg PUBLIC "-//W3C//DTD SVG 20010904//EN"
 "http://www.w3.org/TR/2001/REC-SVG-20010904/DTD/svg10.dtd">
<svg version="1.0" xmlns="http://www.w3.org/2000/svg"
 width="730.000000pt" height="730.000000pt" viewBox="0 0 730.000000 730.000000"
 preserveAspectRatio="xMidYMid meet">
<metadata>
Created by potrace 1.11, written by Peter Selinger 2001-2013
</metadata>
<g transform="translate(0.000000,730.000000) scale(0.100000,-0.100000)"
fill="#000000" stroke="none">
<path d="M5303 7139 c-183 -28 -397 -104 -550 -195 -121 -72 -214 -148 -344
-280 -254 -259 -3782 -4030 -3827 -4090 -168 -224 -268 -489 -294 -776 -27
-294 47 -623 197 -877 331 -560 967 -845 1600 -716 250 51 509 181 689 346 57
53 983 1037 3709 3944 103 110 217 241 252 290 115 160 205 369 252 585 14 66
18 129 18 285 0 173 -3 214 -23 304 -69 306 -193 532 -412 752 -219 220 -448
345 -760 414 -89 20 -412 29 -507 14z m78 -475 c78 -23 136 -59 167 -106 59
-90 24 -225 -88 -340 -66 -68 -92 -73 -178 -33 -58 27 -123 32 -159 12 -12 -7
-99 -93 -194 -192 -265 -278 -843 -850 -954 -946 -239 -206 -394 -288 -486
-258 -54 18 -69 37 -69 84 0 57 20 102 95 215 125 188 438 529 1026 1121 386
389 399 399 551 439 91 23 216 25 289 4z m-4116 -4231 c139 -48 240 -168 265
-315 29 -168 -62 -344 -219 -421 -62 -30 -72 -32 -176 -32 -101 0 -115 2 -170
29 -77 38 -153 114 -191 191 -27 55 -29 69 -29 170 0 100 2 115 28 167 92 188
301 278 492 211z"/>
</g>
</svg>
