<?xml version="1.0" standalone="no"?>
<!DOCTYPE svg PUBLIC "-//W3C//DTD SVG 20010904//EN"
 "http://www.w3.org/TR/2001/REC-SVG-20010904/DTD/svg10.dtd">
<svg version="1.0" xmlns="http://www.w3.org/2000/svg"
 width="399.000000pt" height="399.000000pt" viewBox="0 0 399.000000 399.000000"
 preserveAspectRatio="xMidYMid meet">
<metadata>
Created by potrace 1.14, written by Peter Selinger 2001-2017
</metadata>
<g transform="translate(0.000000,399.000000) scale(0.100000,-0.100000)"
fill="#000000" stroke="none">
<path d="M2130 3478 c-46 -15 -98 -28 -115 -28 -43 0 -93 -16 -131 -42 -51
-35 -70 -127 -38 -193 17 -37 54 -58 129 -75 78 -17 81 -18 109 -59 26 -37 61
-123 70 -173 2 -14 23 -75 45 -136 46 -125 77 -241 86 -322 10 -96 26 -184 41
-235 9 -27 25 -79 35 -115 11 -36 22 -92 25 -125 2 -33 9 -82 14 -110 5 -27
12 -64 15 -82 3 -18 9 -43 14 -57 6 -13 13 -55 16 -93 3 -37 8 -81 10 -98 2
-16 6 -61 10 -100 9 -98 10 -99 48 -205 32 -89 59 -184 72 -255 5 -28 8 -53
20 -172 9 -89 45 -175 96 -231 71 -78 234 -115 318 -73 49 25 49 25 128 251
83 236 90 260 98 350 9 99 15 154 20 185 7 50 94 396 115 455 17 51 23 74 34
140 28 165 53 276 132 600 31 124 58 235 60 246 17 92 78 323 90 342 8 12 21
22 29 22 8 0 50 11 93 25 56 18 92 37 123 63 41 37 43 42 47 104 l4 66 -43 32
c-61 44 -114 70 -183 90 -57 16 -61 16 -175 -11 -78 -18 -123 -24 -139 -18
-24 9 -56 16 -112 25 -39 6 -180 -42 -223 -76 -37 -30 -57 -80 -50 -125 9 -55
84 -130 133 -133 19 -1 52 -7 73 -13 l39 -10 -6 -52 c-3 -29 -8 -77 -11 -107
-7 -80 -15 -151 -20 -180 -2 -14 -7 -54 -10 -90 -8 -78 -24 -145 -65 -265 -17
-49 -33 -108 -36 -130 -3 -22 -9 -65 -14 -95 -5 -30 -12 -72 -14 -92 -11 -83
-21 -116 -63 -207 -38 -82 -53 -130 -78 -254 -11 -52 -46 -168 -64 -209 -14
-33 -26 -48 -39 -48 -16 0 -25 20 -52 117 -17 65 -34 124 -36 133 -2 8 -8 34
-14 58 -5 23 -13 59 -16 80 -3 20 -8 40 -9 43 -2 3 -7 27 -11 54 -3 26 -17 78
-31 114 -14 36 -33 111 -42 166 -10 55 -28 123 -40 150 -14 31 -24 79 -27 125
-5 71 -14 121 -49 286 -38 181 -48 378 -21 419 7 11 60 43 117 71 l104 51 27
82 26 81 -81 40 c-45 21 -103 45 -129 51 -42 12 -51 11 -105 -13 -90 -40 -93
-40 -195 -10 l-95 28 -83 -28z"/>
<path d="M275 3465 c-83 -18 -144 -47 -182 -85 -18 -18 -33 -35 -34 -39 -10
-62 -6 -88 22 -125 30 -42 96 -88 139 -99 14 -3 52 -9 85 -12 48 -5 74 -16
128 -51 37 -24 67 -47 68 -52 0 -4 2 -16 5 -27 13 -65 19 -169 18 -310 -1 -88
-2 -216 -2 -285 1 -539 -2 -658 -16 -740 -7 -36 -9 -87 -6 -115 8 -65 5 -418
-4 -470 -4 -22 -16 -58 -27 -80 -16 -34 -28 -43 -80 -63 -33 -13 -77 -31 -97
-40 -21 -9 -67 -16 -107 -16 -82 -1 -122 -21 -161 -78 -34 -49 -27 -89 26
-157 30 -38 57 -58 112 -84 121 -57 216 -70 320 -42 49 13 242 14 255 2 2 -3
18 -1 34 3 30 9 122 23 149 23 8 0 42 -3 75 -8 71 -10 176 -11 226 -2 20 4 68
9 105 13 38 3 86 7 106 9 37 3 156 62 233 115 57 40 226 217 257 270 14 25 43
70 62 100 57 86 92 192 120 356 29 168 33 190 45 254 5 25 6 77 2 115 -9 76
-7 123 5 200 11 71 6 211 -11 305 -3 14 -7 43 -10 65 -7 58 -21 132 -45 227
-27 107 -28 110 -107 248 -24 41 -48 93 -53 115 -17 71 -81 181 -140 242 -145
151 -411 288 -620 319 -25 3 -51 7 -59 8 -8 2 -55 -4 -105 -13 -93 -17 -113
-15 -266 14 -10 2 -58 -7 -107 -19 l-89 -23 -95 23 c-109 27 -97 26 -174 9z
m850 -359 c125 -19 198 -55 307 -149 111 -95 134 -124 199 -252 34 -66 65
-125 71 -131 5 -7 11 -20 13 -30 2 -11 16 -62 29 -114 14 -52 28 -115 32 -140
3 -25 7 -56 9 -70 15 -101 20 -189 20 -350 0 -154 -3 -190 -17 -215 -9 -17
-19 -49 -22 -70 -18 -121 -105 -337 -169 -423 -131 -175 -187 -223 -307 -261
-87 -28 -113 -32 -193 -36 -97 -5 -123 6 -141 63 -49 148 -65 255 -70 462 -3
113 -8 219 -10 235 -3 17 -7 53 -10 80 -3 28 -10 65 -15 84 -7 22 -7 61 0 115
15 115 13 195 -8 311 -11 61 -3 219 12 245 13 22 22 290 11 340 -15 67 -17
146 -6 200 12 55 14 59 59 80 40 18 145 41 161 34 3 -1 23 -5 45 -8z"/>
</g>
</svg>
