<svg xmlns="http://www.w3.org/2000/svg" viewBox="0 0 700 400">
  <path d="M0-.05h700v400H0v-400z"></path>
  <path fill="#95C93D" d="M46.1 152.75l80-3.4 17.5 250.6H58.1l-12-247.2zm-7.4-60.3v49.9h92.1l3.9-49.9h-96z"></path>
  <path fill="#00C0F3" d="M106.9 116.45h89.3l15.2 283.5h-84.233L106.9 116.45z"></path>
  <path fill="#25408F" d="M151.6 122.95h51.5v68.7l-49-4.1-2.5-64.6z"></path>
  <path fill="#EC008C" d="M85.9 261.65h107.7l-5.7 138.3H82.5l3.4-138.3z"></path>
  <path fill="#640C66" d="M545.5 97.65l113.2 5.5-29.9 296.8h-55l-28.3-302.3z"></path>
  <path fill="#FFF200" d="M213.2 73.45h123.3l-.5 326.5H219.5l-6.3-326.5zm17.4-39.9l1.7 33.2 117.5-1.3 1.4-34.3-120.6 2.4z"></path>
  <path fill="#009BDF" d="M255.3 53.05c0 1.3-.3 2.4-1 3.1-.7.7-1.6 1.1-2.9 1.1-1.2 0-2.3-.2-3.2-.7v-2.6c1.1.7 2 1 2.9 1 .5 0 .9-.1 1.1-.4.2-.3.4-.7.4-1.1 0-.5-.2-.9-.5-1.3s-.8-.8-1.5-1.3c-.6-.4-1.1-.8-1.4-1.2-.3-.4-.6-.8-.7-1.3s-.3-1-.3-1.7c0-1.2.3-2.2 1-2.9.7-.7 1.6-1.1 2.7-1.1s2.1.3 3.2.9l-.9 2.1c-.3-.2-.6-.3-1-.5s-.7-.2-1.1-.2-.8.1-1 .4c-.2.3-.3.7-.3 1.2s.1.9.4 1.3c.3.4.8.8 1.5 1.2.9.6 1.6 1.3 1.9 1.9.3.6.7 1.3.7 2.1zm8.5-5.9c0 1.5-.4 2.7-1.1 3.5-.7.8-1.9 1.2-3.3 1.2h-.7v5.1H256v-14.2h3.6c2.8 0 4.2 1.4 4.2 4.4zm-5.1 2.4h.5c.7 0 1.1-.2 1.5-.5.4-.3.5-.9.5-1.8 0-.7-.1-1.3-.4-1.7-.3-.4-.7-.5-1.4-.5h-.6v4.5h-.1zm11.9 7.4h-6.4v-14.2h6.4v2.3h-3.8v3.4h3.5v2.3h-3.5v4h3.8v2.2zm11.1 0h-3.2l-4.4-10.3h-.1c.2.8.2 1.6.2 2.5v7.8h-2.5v-14.2h3.3l4.4 10.2h.1c-.1-.7-.2-1.5-.2-2.4v-7.8h2.4v14.2zm10.6-7.2c0 2.4-.5 4.2-1.4 5.4-.9 1.2-2.3 1.9-4.1 1.9h-3.5v-14.3h3.8c1.7 0 3 .6 3.9 1.8.9 1.2 1.3 3 1.3 5.2zm-2.7 0c0-3.2-.9-4.8-2.6-4.8h-1.1v9.7h.9c1 0 1.7-.4 2.1-1.2s.7-2 .7-3.7zm12.1 7.2l-2.7-12.1h-.1c.1.9.2 1.8.2 2.6v9.5h-2.5v-14.2h4.1l2.4 11.2h.1l2.4-11.2h4.1v14.2h-2.5v-9.7c0-.8 0-1.6.1-2.5h-.1l-2.6 12.2h-2.9zm19.4-7.1c0 2.4-.4 4.2-1.3 5.4-.9 1.2-2.2 1.9-3.8 1.9-1.7 0-2.9-.6-3.8-1.9-.9-1.3-1.3-3.1-1.3-5.5s.4-4.2 1.3-5.4c.9-1.2 2.2-1.9 3.8-1.9s2.9.6 3.8 1.9c.9 1.3 1.3 3.1 1.3 5.5zm-7.5 0c0 1.6.2 2.9.6 3.7.4.8 1 1.3 1.8 1.3 1.6 0 2.4-1.7 2.4-5s-.8-5-2.4-5c-.8 0-1.4.4-1.8 1.3-.4.9-.6 2.1-.6 3.7zm10.9 1.6v5.5h-2.7v-14.2h3.5c1.5 0 2.6.3 3.3 1 .7.7 1 1.8 1 3.2 0 1.8-.6 3.1-1.8 3.8l2.7 6.3h-2.8l-2.3-5.6h-.9zm0-2.3h.7c.6 0 1.1-.2 1.3-.5.2-.3.4-.9.4-1.6 0-.7-.1-1.2-.4-1.6s-.7-.5-1.3-.5h-.7v4.2zm12.6 7.8h-6.4v-14.2h6.4v2.3h-3.8v3.4h3.5v2.3h-3.5v4h3.8v2.2zm.7-1.3c0-.5.1-.9.4-1.2.3-.3.7-.4 1.2-.4s.9.1 1.2.4c.3.3.4.7.4 1.2s-.1.9-.4 1.2c-.3.3-.7.4-1.2.4s-.9-.1-1.2-.4c-.3-.3-.4-.7-.4-1.2zm2.7-3.3h-2.1l-.5-9.7h3.1l-.5 9.7z"></path>
  <path opacity=".4" fill="#FFF200" d="M96.7 316.55l60.8-10.699-10.7-60.801-60.8 10.7 10.7 60.8zm18-243.8l-57.2 10.1 10.2 57.9 32.4 95.7 27.1-4.8-2.3-101-10.2-57.9z"></path>
  <path fill="#EC008C" d="M277.5 126.45l-4.4 27.5 151 4.1v-31.7l-146.6.1zm16.8 32h142.6l7.8 240.7-130.367.8-20.033-241.5z"></path>
  <path opacity=".8" fill="#2D7BE6" d="M530.5 60.95L359.4 74.416l38.725 325.534H563l-32.5-339z"></path>
  <path opacity=".8" fill="#5FE146" d="M327.2 188.45h170.4v211.5h-163l-7.4-211.5z"></path>
  <path opacity=".7" fill="#640C66" d="M151.7 290.25h244.8l5.625 109.7H175.8l-24.1-109.7z"></path>
  <path fill="#FFF" d="M168.5 168.35l1.5 1.6c.8-.9 1.4-1.5 1.7-1.8.3-.3.5-.5.5-.6-.1 1.1-.1 2.2-.1 3.1v8.4h2.6v-14.2h-2.4l-3.8 3.5zm7.8 0l1.5 1.6c.8-.9 1.4-1.5 1.7-1.8.3-.3.5-.5.5-.6-.1 1.1-.1 2.2-.1 3.1v8.4h2.6v-14.2h-2.4l-3.8 3.5zm-6.3-20.8c-1.6 0-2.9.7-3.8 1.9-.9 1.2-1.3 3-1.3 5.4s.4 4.2 1.3 5.5c.9 1.3 2.1 1.9 3.8 1.9 1.6 0 2.9-.7 3.8-1.9.9-1.2 1.3-3 1.3-5.4s-.4-4.2-1.3-5.5c-.9-1.3-2.2-1.9-3.8-1.9zm-.1 12.4c-.8 0-1.4-.5-1.8-1.3-.4-.8-.6-2.1-.6-3.7 0-1.7.2-2.8.6-3.7.4-.9 1-1.3 1.8-1.3 1.6 0 2.4 1.7 2.4 5s-.8 5-2.4 5zm-72.5-42.9h2.6v-11.9h2.8v-2.3h-8.1v2.3h2.7v11.9zm66.3 47.6c-1.2 0-2.2.4-2.8 1.3s-1 2.1-1 3.6c0 1.4.2 2.5.8 3.3.6.8 1.3 1.2 2.3 1.2.6 0 1-.1 1.4-.4.4-.3.7-.7.9-1.2h.1c0 1.7-.3 2.9-.9 3.6-.6.7-1.4 1.1-2.5 1.1-.3 0-.8-.1-1.2-.2v2.2c.4.1.9.2 1.5.2 3.7 0 5.5-2.8 5.5-8.3 0-2.1-.6-3.5-1.2-4.7-.6-1.2-1.6-1.7-2.9-1.7zm1.1 6.6c-.3.4-.6.6-1 .6s-.7-.1-.9-.6c-.2-.5-.3-1.1-.3-1.8 0-.9.1-1.6.3-2 .2-.4.5-.6.9-.6s.7.2 1 .8c.3.6.4 1.3.4 2.1 0 .6-.1 1.1-.4 1.5zm-71.1-68.5h-2.5v14.3h2.5v-14.3zm70.6 58.7v-7.3H160v2.4h1.8v3.3c-.4.1-.9.2-1.3.2-.9 0-1.5-.4-1.9-1.3-.4-.9-.6-2.1-.6-3.7s.3-2.8.9-3.7 1.4-1.4 2.4-1.4c.7 0 1.5.2 2.3.7l.8-2.2c-1.1-.6-2.2-.9-3.3-.9-1.8 0-3.3.6-4.3 1.9s-1.5 3.1-1.5 5.4c0 2.4.4 4.2 1.3 5.5.9 1.3 2.1 1.9 3.8 1.9 1.3 0 2.7-.3 3.9-.8zm-112.6-51.9v-.1c.7-.1 1.2-.4 1.5-1 .3-.6.5-1.3.5-2.1 0-1.2-.4-2.1-1-2.7-.6-.6-1.7-.9-3.2-.9h-3.7v14.2h4.3c1.2 0 2.1-.4 2.8-1.1.7-.7 1-1.7 1-3 0-.9-.2-1.7-.5-2.2-.3-.5-.9-.9-1.7-1.1zm-3.3-4.4h1.1c.5 0 .9.1 1.2.4.3.3.4.7.4 1.3s-.1 1-.3 1.3c-.2.3-.6.4-1.2.4h-1.2v-3.4zm2.5 9.1c-.2.3-.6.5-1.2.5h-1.3v-4h1.2c1.1 0 1.7.6 1.7 1.9 0 .7-.2 1.3-.4 1.6zm15.5-11.7c-1.6 0-2.9.7-3.8 1.9s-1.3 3-1.3 5.4.4 4.2 1.3 5.5c.9 1.3 2.1 1.9 3.8 1.9 1.6 0 2.9-.7 3.8-1.9.9-1.2 1.3-3 1.3-5.4s-.4-4.2-1.3-5.5c-.9-1.3-2.2-1.9-3.8-1.9zm-.1 12.4c-.8 0-1.4-.5-1.8-1.3-.4-.8-.6-2.1-.6-3.7 0-1.7.2-2.8.6-3.7.4-.9 1-1.3 1.8-1.3 1.6 0 2.4 1.7 2.4 5s-.8 5-2.4 5zm16.8-4.1c-.1.6-.3 1.9-.5 3.8-.1-1.3-.3-2.6-.5-3.8l-1.5-8.1h-2.8l-1.5 8.1c-.2.7-.3 2-.5 3.7-.2-1.7-.4-3-.5-3.8l-1.3-8.1h-2.6l2.6 14.3h3.3l1.4-7.4.4-2.9.1-.7c.1 1.4.3 2.6.5 3.6l1.4 7.5h3.3l2.6-14.3h-2.7l-1.2 8.1zm81.2 32.3c.9-1.2 1.4-3 1.4-5.4 0-2.2-.4-4-1.3-5.2-.9-1.2-2.2-1.8-3.9-1.8h-3.8v14.3h3.5c1.8 0 3.2-.7 4.1-1.9zm-5-10.1h1.1c1.7 0 2.6 1.6 2.6 4.8 0 1.6-.3 2.9-.7 3.7-.4.8-1.1 1.2-2.1 1.2h-.9v-9.7zm20.5 14.7H176v14.3h3.5c1.8 0 3.2-.7 4.1-1.9.9-1.2 1.4-3 1.4-5.4 0-2.2-.4-4-1.3-5.2-.9-1.2-2.2-1.8-3.9-1.8zm1.8 10.8c-.4.8-1.1 1.2-2.1 1.2h-.9v-9.7h1.1c1.7 0 2.6 1.6 2.6 4.8 0 1.6-.3 2.9-.7 3.7zm-7.9-17.1h3.7l.8 3.6h2.6l-3.5-14.3h-3.6l-3.5 14.3h2.7l.8-3.6zm1.4-6.8c.1-.7.2-1.3.3-1.9 0 .2.1.8.3 1.6.2.8.3 1.3.3 1.5l.8 3.3v.1h-2.7c.5-2.4.9-3.9 1-4.6zm8.5-3.9h-2.7v14.3h6.4v-2.3h-3.7v-12zm-14 0h-2.5v14.3h2.5v-14.3zm-112.1-28h-2.7v14.3h6.4v-2.3h-3.7v-12zm304.2 115.3h-3.4v-5.5h-2.6v13.801h2.6v-6.101h3.4v6.101h2.6V212.55h-2.6v5.5zm-2.2 10.9h-3.7v13.8h3.4c1.7 0 3.1-.6 4-1.8.899-1.2 1.399-2.9 1.399-5.2 0-2.2-.5-3.8-1.3-5-.899-1.2-2.199-1.8-3.799-1.8zm1.7 10.5c-.5.8-1.2 1.2-2.101 1.2h-.8v-9.4h1c1.7 0 2.601 1.5 2.601 4.601 0 1.5-.2 2.699-.7 3.599zm-5.2 74.1c.7-.899 1.1-2.199 1.1-3.8v-9h-2.4v9.2c0 .8-.1 1.4-.399 1.9s-.8.699-1.3.699c-1.2 0-1.8-.8-1.8-2.6v-9.1h-2.6v8.899c0 1.7.4 2.9 1.1 3.8.7.9 1.7 1.301 3.1 1.301 1.399.002 2.499-.399 3.199-1.299zm-.4-170h1l2.301 5.6h2.8l-2.7-6.3c1.2-.7 1.8-2 1.8-3.8 0-1.4-.399-2.5-1.1-3.2-.7-.7-1.8-1-3.3-1h-3.5v14.3h2.699v-5.6zm0-6.5h.7c.601 0 1 .2 1.3.5.301.4.4.9.4 1.6 0 .7-.2 1.3-.4 1.6-.199.3-.699.5-1.3.5h-.7v-4.2zm2.099 194.301c1.4 0 2.5-.4 3.201-1.301.699-.899 1.1-2.199 1.1-3.8v-9h-2.4v9.2c0 .8-.1 1.4-.4 1.9-.299.5-.799.699-1.299.699-1.201 0-1.801-.8-1.801-2.6v-9.1h-2.6v8.899c0 1.7.4 2.9 1.1 3.8.7.902 1.7 1.303 3.099 1.303zM355.7 245.45v13.8h2.6v-6.1h3.4v6.1h2.6v-13.8h-2.6v5.5h-3.4v-5.5h-2.6zm28-136.8h3.5v6.3h5.3l.8-3.6h3.7l.8 3.6h2.601l-3.5-14.3H393.3l-3.399 13.889V100.65h-2.7v5.7h-3.5v-5.7H381v14.3h2.7v-6.3zm11.1-4.2c.101-.7.2-1.3.3-1.9 0 .2.101.8.301 1.6.199.8.3 1.3.3 1.5l.8 3.3v.1h-2.7c.499-2.4.899-3.9.999-4.6zm-19.6 10.5h2.7v-12h2.699v-2.3h-8.1v2.3h2.7v12zm28.7-14.3h-3.3v14.3h2.5v-7.8c0-.9 0-1.7-.199-2.5h.1l4.4 10.3h3.199v-14.3h-2.4v7.8c0 .9.1 1.7.2 2.4h-.1l-4.4-10.2zm-57 205.6c.3-.5.5-1.2.5-2 0-1.3-.3-2.1-1-2.7-.6-.5-1.7-.8-3.1-.8h-3.6v13.9h4.2c1.2 0 2.1-.4 2.8-1.101.7-.8 1-1.699 1-3 0-.899-.2-1.6-.5-2.1-.4-.5-.9-.9-1.7-1.1v-.101c.6-.098 1.1-.498 1.4-.998zm-4.8-3.2h1.1c.5 0 .9.2 1.2.4.3.2.4.6.4 1.2s-.1 1-.3 1.3-.6.4-1.1.4h-1.3v-3.3zm2.6 8.9c-.3.3-.7.5-1.2.5h-1.3v-3.9h1.3c1.1 0 1.6.7 1.6 1.9 0 .7-.1 1.2-.4 1.5zm46.3-97.2h2.6v-2.3h-7.9v2.3h2.7v11.601h2.6V214.75zm11.8-116.6c1.101 0 2-.2 2.7-.7v-2.4c-.9.5-1.6.7-2.4.7-1.699 0-2.6-1.7-2.6-5 0-1.6.3-2.8.7-3.7.399-.9 1-1.3 1.8-1.3.4 0 .7.2 1 .4l.9.6.899-2.2c-.5-.4-1-.7-1.5-.8-.5-.1-1-.2-1.5-.2-1.6 0-2.8.6-3.7 1.9-.899 1.3-1.3 3.1-1.3 5.4 0 2.3.4 4.1 1.3 5.4.901 1.3 2.101 1.9 3.701 1.9zm187.7 43.1l.8-3.6h3.7l.8 3.6h2.601l-3.5-14.3H591.3l-3.5 14.3h2.7zm2.3-10.5c.101-.7.2-1.3.3-1.9 0 .2.101.8.301 1.6.199.8.3 1.3.3 1.5l.8 3.3v.1h-2.7c.499-2.4.899-3.9.999-4.6zm-144.9-35.1h-3.8v-4h3.5v-2.3h-3.5v-3.4h3.801v-2.3h-6.4v14.3h6.4v-2.3zm-24.7-1.3h3.7l.8 3.6h4.8v-7.8c0-.9 0-1.7-.2-2.5h.101l4.399 10.3h3.2v-14.3h-2.4v7.8c0 .9.101 1.7.2 2.4h-.1l-4.4-10.2H430v13.075l-3.2-13.075h-3.6l-3.4 13.893V95.65H416v-4h3.5v-2.3H416v-3.4h3.8v-2.3h-6.4v14.3h9l.8-3.6zm1.4-6.9c.101-.7.2-1.3.301-1.9 0 .2.1.8.3 1.6.2.8.3 1.3.3 1.5l.8 3.3v.1h-2.7c.499-2.4.899-3.9.999-4.6zm-11.9 8.2H409v-12h-2.7v14.3h6.4v-2.3zm-4.3 130.701v-5.601l3.3-8.3H409l-1.8 5.5-1.9-5.4h-5.2v5.5h-3.4v-5.5h-2.6v13.801h2.601v-6.101h3.399v6.101h2.601v-13.545l3.2 8.145v5.4h2.499zm-19.3 4.799v-2.2h-6.2v13.9h6.199v-2.4H385.4v-3.8h3.399v-2.2H385.4v-3.3h3.7zm-8.8 26.3c.9-1.2 1.4-2.9 1.4-5.2 0-2.2-.4-3.8-1.3-5-.9-1.2-2.2-1.8-3.801-1.8H372.9v13.8h3.399c1.701 0 3.101-.6 4.001-1.8zm-4.8-9.7h1c1.7 0 2.6 1.5 2.6 4.601 0 1.5-.3 2.699-.699 3.6-.5.8-1.2 1.2-2.101 1.2h-.8v-9.401zm-5.4-4.8c1.601 0 2.801-.6 3.7-1.8.9-1.2 1.3-3 1.3-5.3 0-2.301-.399-4-1.3-5.301-.899-1.199-2.1-1.8-3.7-1.8s-2.8.5-3.699 1.8c-.9 1.301-1.301 3-1.301 5.301 0 2.3.4 4.1 1.301 5.3.899 1.201 2.099 1.8 3.699 1.8zm-1.7-10.7c.399-.8 1-1.2 1.8-1.2 1.5 0 2.3 1.601 2.3 4.801 0 3.199-.7 4.8-2.3 4.8-.8 0-1.4-.4-1.8-1.2-.4-.8-.601-2-.601-3.6.001-1.601.201-2.801.601-3.601zm-10 68.5v13.9h4.199c1.2 0 2.101-.4 2.801-1.101.699-.8 1-1.699 1-3 0-.899-.2-1.6-.5-2.1-.4-.5-.9-.9-1.7-1.1v-.101c.6-.1 1.1-.5 1.399-1 .301-.5.5-1.2.5-2 0-1.3-.3-2.1-1-2.7-.6-.5-1.699-.8-3.1-.8H358.4zm5 11.2c-.301.3-.7.5-1.2.5h-1.3v-3.9h1.3c1.1 0 1.6.7 1.6 1.9 0 .7-.1 1.2-.4 1.5zm.1-7.3c0 .6-.1 1-.3 1.3s-.601.4-1.101.4h-1.3v-3.301h1.101c.5 0 .899.2 1.199.4.301.201.401.601.401 1.201zm-14.1 14.8c.7 0 1.4.2 2.2.7l.801-2.101c-1-.6-2.101-.899-3.2-.899-1.8 0-3.2.6-4.2 1.899-1 1.2-1.5 3-1.5 5.2 0 2.3.4 4.101 1.3 5.3.9 1.2 2.1 1.801 3.7 1.801 1.3 0 2.6-.301 3.8-.801v-7.1h-4.1v2.3h1.7v3.2c-.5.1-.9.2-1.3.2-.8 0-1.4-.4-1.8-1.2-.4-.9-.6-2-.6-3.6 0-1.5.3-2.7.9-3.601.499-.897 1.299-1.298 2.299-1.298zm24.4-5.9c.7-.8 1-1.699 1-3 0-.899-.2-1.6-.5-2.1-.399-.5-.899-.9-1.7-1.1v-.101c.601-.1 1.101-.5 1.4-1s.5-1.2.5-2c0-1.3-.3-2.1-1-2.7-.6-.5-1.7-.8-3.1-.8h-3.5l-.101.001v13.899h4.2c1.201.001 2.101-.399 2.801-1.099zm-4.6-10.5h1.1c.5 0 .9.2 1.2.4s.4.6.4 1.2-.101 1-.301 1.3c-.199.3-.6.4-1.1.4h-1.3v-3.3zm.1 9.4v-3.9h1.3c1.101 0 1.601.7 1.601 1.9 0 .7-.101 1.2-.4 1.5s-.7.5-1.2.5H369.3zm7.899 4.901v13.8h2.601v-5h.601c1.399 0 2.5-.4 3.199-1.2.7-.8 1.1-1.9 1.1-3.4 0-2.8-1.399-4.3-4-4.199h-3.501zm4.901 4.299c0 .8-.199 1.399-.5 1.7-.3.3-.8.5-1.4.5h-.4v-4.301h.601c.6 0 1 .2 1.299.5.3.302.4.901.4 1.601zm-2.8-90.6c.4 0 .8.101 1.101.2.399.2.699.3 1 .5l.899-2.1c-1-.601-2-.9-3.1-.9-1.2 0-2 .3-2.7 1s-1 1.601-1 2.8c0 .601.1 1.101.3 1.601s.4.899.7 1.3.7.8 1.3 1.2c.7.5 1.2.899 1.5 1.3s.4.8.4 1.3-.2.8-.4 1.101c-.2.3-.6.399-1.1.399-.9 0-1.9-.3-2.9-1v2.5c.9.5 1.9.7 3.101.7 1.199 0 2.1-.3 2.8-1s1-1.7 1-3c0-.8-.2-1.5-.5-2.1-.4-.7-1-1.301-1.9-1.9-.7-.5-1.1-.9-1.399-1.2-.301-.3-.4-.7-.4-1.2s.1-.8.3-1.1c.298-.301.598-.401.998-.401zm-7.4 16.6v-2.2h-6.2v13.8h6.2v-2.3h-3.7v-3.8h3.399v-2.2H368.2v-3.3h3.7zm5.8 53.101l-3.4 13.899h2.601l.8-3.5h3.6l.8 3.5h2.5l-3.399-13.899H377.7zm.5 8.1c.5-2.4.899-3.801 1-4.5.1-.7.2-1.301.3-1.801.1.301.1.801.3 1.601s.3 1.3.3 1.5l.7 3.2h-2.6zm-4.4 22.299h2.399v-13.8h-4l-2.299 10.9h-.1l-2.399-10.899h-4v13.8h2.399v-9.3c0-.801-.101-1.601-.2-2.5h.1l2.601 11.8h2.899l2.601-11.8h.101c-.101.8-.101 1.6-.101 2.399v9.4zm1.3-108.299h3.601l.8 3.5h2.4v.1h6.199v-2.3h-3.6V212.55h-2.6v13.394l-3.3-13.494h-3.5l-3.199 13.082v-1.482h-3.7v-3.8h3.399v-2.2h-3.4v-3.3h3.7v-2.2h-6.2v13.801h8.6l.8-3.5zm1.5-6.801c.101-.699.2-1.3.301-1.8.1.3.1.8.3 1.601.2.8.3 1.3.3 1.5l.7 3.199H375.6c.5-2.4.9-3.8 1-4.5zm45.2 40.301h-.1l-2.4-10.9h-4v13.8h2.4v-9.3c0-.8-.101-1.6-.2-2.5h.1l2.601 11.8v.101h2.899l2.601-11.801h.1c-.1.801-.1 1.601-.1 2.4v9.3h2.399v-13.8h-4l-2.3 10.9zM456.5 87.85c0-1.4-.4-2.5-1.1-3.2-.7-.7-1.801-1-3.301-1h-3.5v14.3h2.7v-5.6h1l2.3 5.6h2.801l-2.7-6.3c1.2-.7 1.8-2 1.8-3.8zm-3.2 1.7c-.2.3-.7.5-1.3.5h-.7v-4.2h.7c.6 0 1 .2 1.3.5.3.4.4.9.4 1.6s-.2 1.3-.4 1.6zm-41.5 158c.4 0 .8.101 1.101.2.399.2.699.3 1 .5l.899-2.1c-1-.601-2-.9-3.1-.9-1.2 0-2 .3-2.7 1s-1 1.601-1 2.8c0 .601.1 1.101.3 1.601s.4.899.7 1.3.7.8 1.3 1.2c.7.5 1.2.899 1.5 1.3s.4.8.4 1.3-.2.8-.4 1.101c-.2.3-.6.399-1.1.399-.9 0-1.9-.3-2.9-1v2.5c.9.5 1.9.7 3.101.7 1.199 0 2.1-.3 2.8-1s1-1.7 1-3c0-.8-.101-1.5-.5-2.1-.4-.7-1-1.301-1.9-1.9-.7-.5-1.1-.9-1.399-1.2-.301-.3-.4-.7-.4-1.2s.1-.8.3-1.1c.298-.301.598-.401.998-.401zm43.2-139.1c0 .9.1 1.7.2 2.4h-.1l-4.399-10.2h-3.3v13.486L444.1 100.65h-3.6l-3.3 13.482v-1.482h-3.8v-4h3.5v-2.3h-3.5v-3.4h3.8v-2.3h-6.4v14.3h8.9l.8-3.6h3.7l.8 3.6h4.9v-7.8c0-.9 0-1.7-.2-2.5h.1l4.4 10.3h3.2v-14.3H455v7.8zm-11.3.6H441c.5-2.4.9-3.9 1-4.6s.2-1.3.3-1.9c0 .2.101.8.3 1.6.2.8.301 1.3.301 1.5l.8 3.3v.1zm-17.3-8.4h-2.7v14.3h6.399v-2.3H426.4v-12zm-22 158.6h2.399v-13.8H404.4v13.8zm15.8-144.1c1.1 0 2-.2 2.7-.7v-2.4c-.9.5-1.601.7-2.4.7-1.7 0-2.6-1.7-2.6-5 0-1.6.3-2.8.699-3.7.4-.9 1-1.3 1.801-1.3.399 0 .699.2 1 .4l.899.6.9-2.2c-.5-.4-1-.7-1.5-.8-.5-.1-1-.2-1.5-.2-1.601 0-2.8.6-3.7 1.9s-1.3 3.1-1.3 5.4c0 2.3.399 4.1 1.3 5.4.901 1.3 2.101 1.9 3.701 1.9zm-41.7 232.5h6.2v-2.3H381v-3.801h3.4v-2.199H381v-3.301h3.7v-2.199h-6.2v13.8zm8.8-102.4c-1.6 0-2.8.601-3.7 1.8-.899 1.301-1.3 3-1.3 5.301 0 2.3.4 4.1 1.3 5.3.9 1.2 2.101 1.8 3.7 1.8 1.601 0 2.8-.6 3.7-1.8s1.3-3 1.3-5.3c0-2.301-.5-4.101-1.3-5.301-.9-1.199-2.1-1.8-3.7-1.8zm0 11.9c-.8 0-1.399-.4-1.8-1.2s-.6-2-.6-3.6c0-1.601.199-2.801.6-3.601s1-1.2 1.8-1.2c1.5 0 2.3 1.601 2.3 4.801s-.7 4.8-2.3 4.8zm19.1-20h3.399v-2.2H406.4v-3.8h3.6v-2.2h-6.2v13.9h2.601v-5.7zm-8.4-8.4c-1.6 0-2.8.601-3.7 1.8-.899 1.301-1.3 3-1.3 5.301 0 2.3.4 4.1 1.3 5.3.9 1.2 2.101 1.8 3.7 1.8s2.8-.6 3.7-1.8c.899-1.2 1.3-3 1.3-5.3 0-2.301-.4-4-1.3-5.301-.9-1.199-2.1-1.8-3.7-1.8zm.1 11.9c-.8 0-1.399-.4-1.8-1.2-.399-.8-.6-2-.6-3.6 0-1.601.2-2.801.6-3.601.4-.8 1-1.2 1.8-1.2 1.5 0 2.301 1.601 2.301 4.801-.001 3.2-.701 4.8-2.301 4.8zm2 12.4c0 .9.101 1.7.2 2.4h-.1l-4.2-9.9h-3.2v13.801h2.4v-7.601c0-.899 0-1.7-.2-2.5h.1l4.301 10h3.1v-13.8h-2.4v7.6zm214.7-101c-.1.6-.3 1.9-.5 3.8-.1-1.3-.3-2.6-.5-3.8l-1.5-8.1h-2.8l-1.5 8.1c-.2.7-.3 2-.5 3.7-.2-1.7-.4-3-.5-3.8l-1.3-8.1h-2.6l2.601 14.3h3.3l1.4-7.4.399-2.9.101-.7c.1 1.4.3 2.6.5 3.6l1.399 7.5h3.3l2.5-14.3H616l-1.2 8.1zm12.7-10.8h2.5v-14.3h-2.5v14.3zm-6.8-14.3h-3.8v13.486l-3.3-13.486H610l-3.173 12.963-2.127-4.963c1.2-.7 1.8-2 1.8-3.8 0-1.4-.3-2.5-1-3.2s-1.8-1-3.3-1h-3.5v14.3h2.7v-5.6h.899l2.3 5.6h4.601l.8-3.6h3.7l.8 3.6h5.9c1.8 0 3.1-.7 4.1-1.9.9-1.2 1.4-3 1.4-5.4 0-2.2-.4-3.9-1.301-5.2-.899-1.2-2.199-1.8-3.899-1.8zm-17.3 5.9c-.2.3-.7.5-1.301.5h-.699v-4.2h.699c.601 0 1 .1 1.301.5.3.4.399.9.399 1.6.001.7-.199 1.3-.399 1.6zm9.8 2.5h-2.7c.5-2.4.9-3.9 1-4.6.1-.7.2-1.3.3-1.9 0 .2.101.8.3 1.6.2.8.301 1.3.301 1.5l.8 3.3v.1zm9.3 2.4c-.4.8-1.1 1.2-2.1 1.2h-.9v-9.7h1.1c1.7 0 2.601 1.6 2.601 4.8-.001 1.6-.201 2.8-.701 3.7zm-3.2 15.9h2.101l.5-9.7H618.8l.5 9.7zm25.8-24.4v-2.3h-6.4v14.3h6.399v-2.3h-3.8v-4h3.5v-2.3h-3.5v-3.4h3.801zm-60.3 6.8h.7c1.4 0 2.6-.4 3.3-1.2.7-.8 1.101-2 1.101-3.5 0-2.9-1.301-4.4-4.2-4.4H582.1v14.3h2.7v-5.2zm.1-6.8h.6c.7 0 1.1.1 1.4.5.3.4.399 1 .399 1.7 0 .9-.1 1.5-.5 1.8-.399.3-.8.5-1.5.5h-.399v-4.5zm52.4 6c-.3-.6-1-1.3-1.899-1.9-.601-.4-1.101-.8-1.4-1.2-.3-.4-.4-.8-.4-1.3s.101-.9.301-1.2c.199-.3.6-.4 1-.4.399 0 .699 0 1.1.2s.7.3 1 .5l.9-2.1c-1.101-.6-2.101-.9-3.2-.9-1.101 0-2 .4-2.7 1.1-.7.7-1 1.7-1 2.9 0 .7.1 1.2.3 1.7.101.5.4.9.7 1.3s.8.8 1.4 1.2c.699.5 1.199.9 1.5 1.3.3.4.5.8.5 1.3 0 .4-.101.8-.4 1.1-.2.3-.6.4-1.1.4-.9 0-1.801-.3-2.9-1v2.6c.9.5 2 .7 3.2.7 1.3 0 2.2-.4 2.899-1.1.7-.7 1-1.8 1-3.1-.001-.9-.101-1.6-.801-2.1zm-47.5 16.5c0 .9.101 1.7.2 2.4h-.1l-4.4-10.2h-3.3v14.3h2.5v-7.8c0-.9 0-1.7-.2-2.5h.1l4.4 10.3h3.2v-14.3h-2.4v7.8zm8.6-8.1c-1.601 0-2.9.7-3.801 1.9-.899 1.2-1.3 3-1.3 5.4s.4 4.2 1.3 5.5c.9 1.3 2.101 1.9 3.801 1.9 1.6 0 2.899-.7 3.8-1.9.899-1.2 1.3-3 1.3-5.4 0-2.3-.4-4.2-1.3-5.5-.9-1.3-2.2-1.9-3.8-1.9zm-.1 12.4c-.8 0-1.399-.5-1.8-1.3-.4-.8-.6-2.1-.6-3.7s.199-2.8.6-3.7 1-1.3 1.8-1.3c1.601 0 2.4 1.7 2.4 5s-.8 5-2.4 5zm22-.8c-.5 0-.899.1-1.2.4-.3.3-.399.7-.399 1.2 0 .6.1.9.399 1.2.301.3.7.4 1.2.4s.9-.1 1.2-.4c.3-.3.4-.7.4-1.2s-.101-.9-.4-1.2c-.3-.3-.7-.4-1.2-.4zM375.4 335.851c.3 0 .699.1 1.1.199.3.101.6.301.9.5l.899-2.1c-.5-.3-1-.6-1.5-.7-.5-.1-1-.2-1.5-.2-1.5 0-2.7.601-3.6 1.9-.9 1.3-1.3 3.1-1.3 5.3s.5 4 1.3 5.2c.8 1.3 2 1.9 3.6 1.9 1.101 0 1.9-.301 2.601-.7v-2.3c-.801.5-1.601.699-2.301.699-1.699 0-2.5-1.6-2.5-4.8 0-1.5.2-2.7.601-3.6.4-.899 1-1.298 1.7-1.298zM124 279.95c1.1 0 2-.2 2.7-.7v-2.399c-.9.5-1.6.699-2.4.699-1.7 0-2.6-1.699-2.6-5 0-1.6.3-2.8.7-3.699.4-.9 1-1.301 1.8-1.301.4 0 .7.2 1 .4l.9.6.9-2.199c-.5-.4-1-.7-1.5-.801-.5-.1-1-.199-1.5-.199-1.6 0-2.8.6-3.7 1.899-.9 1.3-1.3 3.101-1.3 5.4s.4 4.1 1.3 5.399c.9 1.302 2.1 1.901 3.7 1.901zm-15.2 10.3c0 .9.1 1.7.2 2.4h-.1l-4.4-10.2h-3.3v14.3h2.5v-7.8c0-.9 0-1.7-.2-2.5h.1l4.4 10.3h3.2v-14.3h-2.4v7.8zm30-24.8h-2.7v.1h-2.4l-2.4 4.9-.9 2.1v-7.1h-2.7v14.3h2.7v-5l1.1-1.1 2.3 6.1h8.7v-2.3h-3.7v-12zm-2.7 13.123l-2.9-6.823 2.9-5.449v12.272zm-13.5 18.177h6.4v-2.3h-3.8v-4h3.5v-2.3h-3.5v-3.4h3.8v-2.3h-6.4v14.3zm-27.5-14.5c-1.6 0-2.9.7-3.8 1.9-.9 1.2-1.3 3-1.3 5.399 0 2.4.5 4.101 1.4 5.4s2.1 1.9 3.8 1.9c1.6 0 2.9-.7 3.8-1.9s1.3-3 1.3-5.4c0-2.3-.5-4.1-1.4-5.399s-2.2-1.9-3.8-1.9zm0 12.3c-.8 0-1.4-.5-1.8-1.3-.4-.8-.6-2.1-.6-3.7s.2-2.8.6-3.699c.4-.9 1-1.301 1.8-1.301 1.6 0 2.4 1.7 2.4 5 0 3.301-.8 5-2.4 5zm42.2-7.9c0-1.4-.3-2.5-1-3.2-.7-.7-1.8-1-3.3-1h-3.5v14.3h2.7v-5.6h.9l2.3 5.6h2.8l-2.7-6.3c1.2-.7 1.8-2 1.8-3.8zm-3.1 1.701c-.2.3-.7.5-1.3.5h-.7v-4.2h.7c.6 0 1 .1 1.3.5.3.399.4.899.4 1.6s-.2 1.299-.4 1.6zm-15.8-3.701c.7 0 1.5.2 2.3.7l.8-2.2c-1.1-.601-2.2-.9-3.3-.9-1.8 0-3.3.601-4.3 1.9s-1.5 3.1-1.5 5.399c0 2.4.4 4.2 1.3 5.5.9 1.301 2.1 1.9 3.8 1.9 1.3 0 2.7-.3 3.9-.8v-7.3H117v2.399h1.9v3.3c-.4.101-.9.2-1.3.2-.9 0-1.5-.399-1.9-1.3-.4-.9-.6-2.1-.6-3.7s.3-2.8.9-3.7c.6-.898 1.4-1.398 2.4-1.398zm224-135.5l3.3-13.881v13.781h6.399v-2.3h-3.8v-4h3.5v-2.3h-3.5v-3.4h3.8v-2.3H345.7v.1h-2.6l-1.8 8.7c-.2 1-.4 2-.5 3.2-.2-1.4-.3-2.5-.5-3.2l-1.9-8.7h-2.7l3.3 14.3h3.4zM93.2 274.55h.7c1.4 0 2.6-.399 3.3-1.199.7-.801 1.1-2 1.1-3.5 0-2.9-1.4-4.4-4.2-4.4h-3.6v14.3h2.7v-5.201zm0-6.8h.6c.7 0 1.1.101 1.4.5.3.4.4 1 .4 1.7 0 .9-.1 1.5-.5 1.8s-.8.5-1.5.5h-.4v-4.5zm225.9-118.5c1.4 0 2.5-.4 3.3-1.3.8-.9 1.2-2.2 1.2-3.9v-9.3H321v9.5c0 .9-.2 1.5-.5 2s-.7.7-1.3.7c-1.2 0-1.8-.9-1.8-2.7v-9.4h-2.6v9.2c0 1.7.4 3 1.1 3.9.7.9 1.8 1.3 3.2 1.3zm-217.6 116.2h-2.7v14.3h2.7v-6.3h3.5v6.3h2.7v-14.3H105v5.7h-3.5v-5.7zm12 14.401c1.4 0 2.5-.4 3.3-1.301.8-.899 1.2-2.199 1.2-3.899v-9.3h-2.6v9.5c0 .899-.2 1.5-.5 2s-.7.699-1.3.699c-1.2 0-1.8-.899-1.8-2.699v-9.4h-2.6v9.2c0 1.7.4 3 1.1 3.899.7.9 1.8 1.301 3.2 1.301zM299.6 134.75h-2.8l-1.6 4.7-1.9-4.7h-9v14.3h8.8l1.9-5.1 2 5.1h2.8l-3.2-7.3 3-7zm-8.9 13.402v-1.402h-3.8v-4h3.5v-2.3h-3.5v-3.4h3.8v-2.07l2.9 6.67-2.9 6.502zm44.2-13.402h-2.5v14.3h2.5v-14.3zm-4.5 13.5c.7-.7 1-1.8 1-3.1 0-.8-.2-1.6-.7-2.2-.3-.6-1-1.3-1.9-1.9-.7-.4-1.2-.8-1.5-1.2-.3-.4-.4-.8-.4-1.3s.1-.9.3-1.2c.2-.3.6-.4 1-.4s.7 0 1.1.2c.4.2.7.3 1 .5l.9-2.1c-1.1-.6-2.1-.9-3.2-.9s-2 .4-2.7 1.1c-.7.7-1 1.7-1 2.9 0 .7.2 1.2.3 1.7s.4.9.7 1.3c.3.4.8.8 1.4 1.2.7.5 1.2.9 1.5 1.3.3.4.5.8.5 1.3 0 .4-.2.8-.4 1.1-.2.3-.6.4-1.1.4-.9 0-1.8-.3-2.9-1v2.7c.9.5 2 .7 3.2.7 1.3 0 2.2-.4 2.9-1.1zm-1.4 187.7c.4 0 .8.1 1.1.2.4.2.7.3 1 .5l.9-2.101c-1-.6-2-.899-3.1-.899-1.2 0-2 .3-2.7 1-.7.7-1 1.6-1 2.8 0 .6.1 1.1.3 1.6.2.5.4.9.7 1.301.3.399.7.8 1.3 1.199.7.5 1.2.9 1.5 1.301.3.399.4.8.4 1.3s-.2.8-.4 1.1c-.2.3-.6.4-1.1.4-.9 0-1.9-.3-2.9-1v2.5c.9.5 1.9.7 3.1.7 1.2 0 2.1-.301 2.8-1 .7-.7 1-1.7 1-3 0-.9-.2-1.601-.5-2.101-.4-.7-1-1.3-1.9-1.899-.7-.5-1.1-.9-1.4-1.2-.3-.3-.4-.7-.4-1.2s0-.8.3-1.1c.3-.301.6-.401 1-.401zm23.7-2.2l-3.024 12.364-1.976-4.464c1.2-.7 1.8-2 1.8-3.7 0-1.4-.3-2.4-1-3.1-.7-.7-1.8-1-3.2-1h-3.4v13.8h2.6v-5.3h.9l2.2 5.399h2.8l-.044-.1h1.544l.8-3.5h3.6l.8 3.5h2.5l-3.399-13.9H352.7zm-6.2 5.8c-.3.301-.7.5-1.3.5h-.6v-4h.6c.6 0 1 .2 1.3.5.3.301.4.801.4 1.5 0 .6-.1 1.2-.4 1.5zm6.8 2.301c.5-2.4.9-3.801 1-4.5.101-.7.2-1.301.3-1.801.101.301.101.801.301 1.601.199.8.3 1.3.3 1.5l.7 3.2H353.3zm-14.6 1.099c0 .8-.1 1.4-.4 1.9s-.8.699-1.3.699c-1.2 0-1.8-.8-1.8-2.6v-9.1h-2.6v8.899c0 1.7.4 2.9 1.1 3.8.7.9 1.7 1.301 3.1 1.301s2.5-.4 3.2-1.301c.7-.899 1.1-2.199 1.1-3.8v-9h-2.4v9.202zm-28.6 4.7h2.4v-13.8h-2.4v13.8zm-5.5-210.7c.4 0 .7.2 1 .4l.9.6.9-2.2c-.5-.4-1-.7-1.5-.8s-1-.2-1.5-.2c-1.6 0-2.8.6-3.7 1.9-.9 1.3-1.3 3.1-1.3 5.4 0 2.3.4 4.1 1.3 5.4.9 1.3 2.1 1.9 3.7 1.9 1.1 0 2-.2 2.7-.7v-2.4c-.9.5-1.6.7-2.4.7-1.7 0-2.6-1.7-2.6-5 0-1.6.3-2.8.7-3.7.4-.9 1-1.3 1.8-1.3zm17.1 204.5c0 .9.1 1.7.2 2.4h-.1l-4.2-9.9h-3.2v13.8h2.4v-7.6c0-.9 0-1.7-.2-2.5h.1l4.3 10h3.1v-13.8h-2.4v7.6zm-7.3-194.7h-3.7v-12H308v14.3h6.4v-2.3zm52.5 194.7c0 .9.1 1.7.199 2.4H367l-4.2-9.9h-3.2V347.75h2.4v-7.6c0-.9 0-1.7-.2-2.5h.101l4.3 10h3.1v-13.8H366.9v7.6z"></path>
  <path opacity=".4" fill="#EC008C" d="M477.8 325.05l85.2 6.7 7.5-76.1-85.3-6.7-7.4 76.1zm111.6-285.7l-80.2-6.3-7.101 72.4 9 124.8 38 3 33.2-121.5 7.101-72.4z"></path>
  <path opacity=".4" fill="#FF9066" d="M262.2 365.25l64.7-2-2-64.7-64.7 2 2 64.7zm55.4-250.4l-60.9 1.9 1.9 61.6 19.2 104.3 28.9-.9 12.8-105.2-1.9-61.7z"></path>
</svg>
