<svg xmlns="http://www.w3.org/2000/svg" viewBox="0 0 700 400" class="i02">
  <g>
    <path d="M0-1h700v400H0z"></path>
    <path fill="#FFF200"
      d="M571.049 244.442l20 5.5-4.199 13.9-15.801-2.4v-17zm-.6 24.801l18.201 5.5-7.9 15.2-14.2-1.8 3.899-18.9zm-7.899 27.9l13.899 9.101-8.5 14.5-11.5-8.5 6.101-15.101zm-10.001 21.2l10.001 12.501-15.8 14.799-4.2-14.799 9.999-12.501zm-14.6 35.099l-15.8 1.801v-14.4l15.8-5v17.599zm-24.5-17.5l-2.1 19.4-22.8-6.699 8.499-12.701h16.401zm-20.599-6.699l-14.5 11.699-10.9-14.7 10.9-5.499 14.5 8.5zm-15.201-65.4H463.75l7.9-16.399h12.398l-6.399 16.399zm7.9-24.8h-10.3l3.001-14 14.5 2.399-7.201 11.601zm-26.1 46.6l4.2-13.3h11.5v13.3h-15.7zm0 11.5h14.4l4.4 14.501-14.501 3.6-4.299-18.101zm135.201-55.6l-27.9-9.7s-1.601 114.8-60 96.8c-58.7-18.1 4-112.699 4-112.699h-35s-73.5 120.3 26.399 145.399c92.701 23.2 92.5-119.8 92.501-119.8">
    </path>
    <path opacity=".7" fill="#7F0"
      d="M142.951 22.442c32.7-6.399 21.2 37.901 21.2 37.901s46.6-7.301 51.7 18.699c5.1 26-91 26.101-91 26.101s-14.601-76.3 18.1-82.701">
    </path>
    <path opacity=".7" fill="#7F0"
      d="M124.55 103.644s-7-69.601-31.8-64.701c-24.8 4.901-7.5 47.301-7.5 47.301s-40.5 13.899-36.899 32.399c3.699 18.5 76.199-14.999 76.199-14.999">
    </path>
    <path opacity=".7" fill="#7F0"
      d="M124.851 105.144s24.9 88.199-9.5 85.8c-34.4-2.4-24.1-37.602-24.1-37.602s-36.9 14.701-47.899-7.599c-11.001-22.4 81.499-40.599 81.499-40.599">
    </path>
    <path opacity=".7" fill="#7F0"
      d="M213.65 115.943c3.9 21.1-34.6 20.5-34.6 20.5s36.2 29.799-1.2 37.1c-37.299 7.399-53.1-68.399-53.1-68.399s83.3-20.201 88.9 10.799">
    </path>
    <path opacity=".7" fill="#7F0" d="M172.051 224.543L123.85 105.942l33.9 124.601 14.301-6z"></path>
    <path fill="#EC008C"
      d="M623.549 155.643l-55.199 22.4s28.699 24.7 35.1 48.601c6.4 23.898-11.9 45.699-11.9 73.899s32 57.899 32 57.899-1.6-62.899 5.801-75.399c7.299-12.5 20.199-41.2 13.8-69.7-6.602-28.5-19.602-57.7-19.602-57.7">
    </path>
    <path fill="#BFD730" d="M544.449 163.343l20.801 27.801 66.1-27.801-5.801-35.601-81.1 35.601z"></path>
    <path fill="#640C66" d="M236.251 88.343l-4.601 37.3h63.7l-51.1 132.4h39l59-169.7H236.251z"></path>
    <path fill="none" stroke="#EC008C" stroke-width="34.872"
      d="M139.95 370.543s-8.1-63.5 28.5-99.1c36.6-35.601 86.1-59.101 86.1-59.101"></path>
    <path fill="none" stroke="#BFD730" stroke-width="34.872"
      d="M116.551 371.442s-1.5-72.6 27.9-104.199c29.399-31.7 104.3-61.101 104.3-61.101"></path>
    <path fill="none" stroke="#640C66" stroke-width="34.872" d="M94.55 368.343s-8.3-56.8 25-97.1 119.6-73.9 119.6-73.9">
    </path>
    <path fill="#00C0F3"
      d="M54.05 360.543l34.9.8-17.4-.399 17.4.399c0-.6 2-58.9 36.2-94.4 36.6-37.899 109.4-67.199 110.1-67.499l-12.9-32.301c-3.3 1.3-80.5 32.4-122.3 75.6-43.8 45.5-45.9 114.9-46 117.8z">
    </path>
    <path fill="#FFF200"
      d="M185.75 179.442l2.5-19.499-10.6 12.799-13.2-4.1 7.101 11.4-7.2 8.601 12-3.4 7.1 13.3 1.5-12.699 8.8.398-8.001-6.8zm82 35.101l-8.1-6.7 2.5-19.5-10.6 12.8-13.2-4.099 7.1 11.398-7.2 8.601 12-3.4 7.099 13.301 1.5-12.7 8.901.299zm-44.199-37.801l3.6-27.6-15 18.1-18.6-5.799 10.1 16.1-10.2 12.2 17-4.801 10.1 18.801 2.1-17.899 12.4.499-11.5-9.601z">
    </path>
    <path fill="#640C66"
      d="M265.35 304.243s31.9 6.499 59.101 4c27.2-2.5 54.399-11.301 54.399-11.301s17.5 8.101 20.801 40.901c3.3 32.9-30.7 43.399-61.701 43.699-31.1.299-81.699-7.6-81.9-31.101-.1-23.398 9.3-46.198 9.3-46.198">
    </path>
    <path fill="none" d="M388.806 341.615l-124.382 1.244-.933-93.287 124.382-1.244z"></path>
    <path fill="#FFF200"
      d="M377.25 271.443c1.5-7.301 3-14.9 3-16.501 0-1.899-9.699 1.9-17.3 5.3-10.399-5.7-23.3-8.999-37.3-8.899-11.1.101-21.4 2.399-30.3 6.3l-22.5-7 .199 23.7c-5.2 6.7-8.1 14.399-8.1 22.6.2 24.8 27.799 44.601 61.6 44.3 33.8-.3 60.9-20.699 60.7-45.5-.099-9.001-3.799-17.3-9.999-24.3">
    </path>
    <path fill="#009BDF"
      d="M302.05 286.943c3.3 0 6-2.7 5.899-6.101 0-3.299-2.7-5.999-6.1-5.899-3.4.1-6 2.7-5.9 6.1.101 3.301 2.801 6 6.101 5.9m41.4-.401c3.3 0 6-2.699 5.9-6.099 0-3.3-2.701-6-6.1-5.9-3.3 0-6 2.7-5.9 6.1 0 3.3 2.7 6.001 6.1 5.899m-54.8 12.601l-1.6 3.6 24.899 6.201-26.799.299.1 3.301 24.7-.3-22.799 4.5.899 3.2 30.6-7.4-.099-3.301-29.901-10.1zm70.4-.701l2.1 3.9-26 6.7 29.4-.3.101 4-29.501.2 21.2 3.699-4.1 4.701-23.3-7.601v-5.601l30.1-9.698z">
    </path>
    <path fill="#FFF200"
      d="M432.95 277.544l11.499-47.602-48.299-12.1-5.2 49.9 42 9.802zm-42.8-2.401l-7 67.7 31 12.899 17.1-71.1-41.1-9.499z">
    </path>
    <path fill="#009BDF"
      d="M403.55 254.942c3.8.601 7.601-3 8.5-8.2.9-5.199-1.5-9.9-5.3-10.6-3.8-.6-7.6 3.001-8.5 8.2-.9 5.201 1.5 10.001 5.3 10.6">
    </path>
    <path fill="#009BDF"
      d="M417.25 247.644c3.8.6 7.6-3.001 8.5-8.2.9-5.2-1.5-9.9-5.3-10.601-3.8-.6-7.6 3-8.5 8.2-.9 5.199 1.5 9.899 5.3 10.601m10.9 11.999c3.8.6 7.6-3 8.5-8.199.9-5.2-1.5-9.9-5.301-10.602-3.799-.599-7.6 3-8.5 8.201-.9 5.2 1.501 10 5.301 10.6">
    </path>
    <path fill="#BFD730"
      d="M388.65 143.443c6.799-.4 7.1-7.4 6.799-14.9-6.6-.801-10.699-3.7-14.799-6.601.7 7.5-3.1 22.101 8 21.501m-8 45.201c7.199 1 16.199 0 25.1 0 8.699 0 18.1.8 25.5 0 11.199-1.3 20.199-9.301 21.3-18.901.7-6.8 0-13.999 0-20.6 0-6.799.8-14.1 0-20.6-.7-5.9-4.5-10.8-8.399-13.6-12.601-9.001-38.4-4-61.9-5.301-.5-.099-1.301 1-.4 1 2.101 6.5 7.101 11.399 15.6 12.301 6.301.699 29.701-2.5 29.602 3-.102 5.899-18 1.699-24.701 2.999-.4 5.001.5 9.101-1.1 12.9-3.5 8.2-17 9.9-23.9 3.6-3.1 3.7-12.1 5.301-17.5 2.301-1.801 21.8.298 37.901 20.798 40.901m0-85c2.699.2 12.3 0 14.799 0 4.6-15.201-19.299-15.301-14.799 0m-20.9 14.298c0 9.401-3.2 25.601 7.2 25.501 10-.101 7.2-14.001 7.2-24.201 0-12.1 3.199-28.999-8.4-27.499-9.2 1.2-6 14.401-6 26.199m43-13.898c1.2-.2 6.101-.701 9.1 0-1.9-4.801-6.399-10.301-9.5-15.301.201 5-.5 10.8.4 15.301m.699-51.401c-2.299-3.499-8.499-15.6-12.499-17.199-4.899-2.001-10.601.899-10.601 5.6 0 2.3 2.5 5.699 4.201 8.301 11.799 18.599 24.199 36.899 36.1 54.399 6.9-.3 13.499.899 18.6 1.7-11.5-16.501-23.9-35.202-35.801-52.801m12.901-26.201c-1.3-5.3-11-6.399-13.699-1.3-1.7 3.1-.2 9-.801 13.301 4.9 6.999 9.4 14.399 14.4 21.2-1.4-8.9 2.2-24.701.1-33.201m-39.1 63.301c3.5-3.5 12.6-5.5 18.199-2.3 1.4-8.701-1.899-12.501-5.699-18.2-2-3.001-3.9-6.3-5.7-9-4-6.2-10.399-12.399-10.601-18.9-.299-9.301 11.701-16 22-10.6-2.1-8 6.701-18.6 19.4-14.3 10.9 3.7 8.4 15.899 8.4 30.499 0 8.501-1 17.7 0 22.601.5 2.199 2.9 5 4.199 7 4.001 6 9.201 13.9 13.301 19.9 5.899 8.5 14.601 18.1 17.5 26.5 2.199 6.6 1.1 16.899 1.1 26.199 0 7.399.6 14.9 0 20.9-1.3 13.7-12.601 22.7-27.399 24.5-7 .9-16.601 0-25.501 0-17.199 0-31 1.101-40.6-5-5.799-3.699-10.399-9.1-12.199-15.301-2.9-10.299-.801-26.899-.801-39.8V113.84c0-13.898-2.299-29.398 14.801-28.499 4.3.302 6.2 1.702 9.6 4.402">
    </path>
    <path opacity=".7" fill="#EC008C" d="M338.55 162.442l102.7 16.801 33.699-119.6-119.6-22.7-16.799 125.499z"></path>
    <path opacity=".5" fill="#BFD730"
      d="M388.65 143.443c6.799-.4 7.1-7.4 6.799-14.9-6.6-.801-10.699-3.7-14.799-6.601.7 7.5-3.1 22.101 8 21.501m-8 45.201c7.199 1 16.199 0 25.1 0 8.699 0 18.1.8 25.5 0 11.199-1.3 20.199-9.301 21.3-18.901.7-6.8 0-13.999 0-20.6 0-6.799.8-14.1 0-20.6-.7-5.9-4.5-10.8-8.399-13.6-12.601-9.001-38.4-4-61.9-5.301-.5-.099-1.301 1-.4 1 2.101 6.5 7.101 11.399 15.6 12.301 6.301.699 29.701-2.5 29.602 3-.102 5.899-18 1.699-24.701 2.999-.4 5.001.5 9.101-1.1 12.9-3.5 8.2-17 9.9-23.9 3.6-3.1 3.7-12.1 5.301-17.5 2.301-1.801 21.8.298 37.901 20.798 40.901m0-85c2.699.2 12.3 0 14.799 0 4.6-15.201-19.299-15.301-14.799 0m-20.9 14.298c0 9.401-3.2 25.601 7.2 25.501 10-.101 7.2-14.001 7.2-24.201 0-12.1 3.199-28.999-8.4-27.499-9.2 1.2-6 14.401-6 26.199m43-13.898c1.2-.2 6.101-.701 9.1 0-1.9-4.801-6.399-10.301-9.5-15.301.201 5-.5 10.8.4 15.301m.699-51.401c-2.299-3.499-8.499-15.6-12.499-17.199-4.899-2.001-10.601.899-10.601 5.6 0 2.3 2.5 5.699 4.201 8.301 11.799 18.599 24.199 36.899 36.1 54.399 6.9-.3 13.499.899 18.6 1.7-11.5-16.501-23.9-35.202-35.801-52.801m12.901-26.201c-1.3-5.3-11-6.399-13.699-1.3-1.7 3.1-.2 9-.801 13.301 4.9 6.999 9.4 14.399 14.4 21.2-1.4-8.9 2.2-24.701.1-33.201m-39.1 63.301c3.5-3.5 12.6-5.5 18.199-2.3 1.4-8.701-1.899-12.501-5.699-18.2-2-3.001-3.9-6.3-5.7-9-4-6.2-10.399-12.399-10.601-18.9-.299-9.301 11.701-16 22-10.6-2.1-8 6.701-18.6 19.4-14.3 10.9 3.7 8.4 15.899 8.4 30.499 0 8.501-1 17.7 0 22.601.5 2.199 2.9 5 4.199 7 4.001 6 9.201 13.9 13.301 19.9 5.899 8.5 14.601 18.1 17.5 26.5 2.199 6.6 1.1 16.899 1.1 26.199 0 7.399.6 14.9 0 20.9-1.3 13.7-12.601 22.7-27.399 24.5-7 .9-16.601 0-25.501 0-17.199 0-31 1.101-40.6-5-5.799-3.699-10.399-9.1-12.199-15.301-2.9-10.299-.801-26.899-.801-39.8V113.84c0-13.898-2.299-29.398 14.801-28.499 4.3.302 6.2 1.702 9.6 4.402">
    </path>
    <path fill="#00C0F3"
      d="M508.55 153.442l-17.2-27c11.5-7.299 38.8-20.399 50-25.8 37.1-17.6 40.7-18 43-18.2l3.4 31.9c1.5-.2 2.399-.5 2.5-.5-7.301 2.302-66 29.601-81.7 39.6z">
    </path>
    <path fill="#FFF200"
      d="M484.249 142.542l-21.7 9.001 21.7 7.101v19.1l12.101-17.6 23.8 9.699-11.899-18.199 11.899-9.102h-17.9l-18-28.299-.001 28.299z">
    </path>
    <path opacity=".25" fill="#FF0C66"
      d="M292.95 337.643l74.9-12.1-12.101-74.9-74.9 12.1 12.101 74.9zm26.5-299.3l-70.5 11.4 11.5 71.3 38.1 118.301 33.4-5.4-1-124.2-11.5-71.401z">
    </path>
    <path opacity=".4" fill="#FFFF4B"
      d="M181.351 382.242l50.9-33.398-33.5-50.9-50.9 33.499 33.5 50.799zm-78.9-227.899l-47.9 31.501 31.8 48.399 66.701 74.1 22.7-14.9-41.601-90.6-31.7-48.5z">
    </path>
    <path opacity=".4" fill="#00009A"
      d="M478.949 335.342l68.601 17.001 17-68.601-68.601-16.999-17 68.599zM611.05 88.743l-64.501-16.001-16.199 65.201-10.6 115.199 30.6 7.601 44.5-106.8 16.2-65.2z">
    </path>
    <path class="svg_fill_white" fill="var(--white)"
      d="M125.25 71.442h-2.7v14.301h6.4v-2.3h-3.701V71.442zm10.5 9.401c0 .9-.2 1.5-.5 2s-.7.7-1.3.7c-1.2 0-1.801-.9-1.801-2.7v-9.4h-2.6v9.201c0 1.699.4 2.999 1.101 3.899.699.899 1.8 1.3 3.2 1.3s2.5-.4 3.3-1.3c.8-.9 1.2-2.2 1.2-3.899v-9.301h-2.6v9.5zm20.4-9.301h-2.8l-2.4 4.901-.9 2.1v-7.101h-2.7v14.3h2.7v-5l1.101-1.101 2.299 6.101h2.8l-3.4-8 3.3-6.2zm396.499 139.102h-2.8l-2.4 4.899-.9 2.1v-7.1h-2.699v14.3h2.699v-5l1.102-1.1 2.299 6.1h2.801l-3.4-8 3.298-6.199zM247.95 169.843h-3.5v-5.7h-2.7v14.3h2.7v-6.3h3.5v6.3h2.7v-14.3h-2.7v5.7zm6.3-5.7l-3.5 14.3h2.7l.8-3.6h3.7l.8 3.6h2.6l-3.5-14.3h-3.6zm3.2 8.399h-2.7c.5-2.399.9-3.899 1-4.599.1-.701.2-1.301.3-1.9 0 .199.1.8.3 1.6.2.8.299 1.3.299 1.5l.8 3.301v.098zm12 5.9h6.4v-2.3h-3.8v-4h3.5v-2.3h-3.5v-3.4h3.8v-2.3h-6.4v14.3zm296.9 32.101l-3.5 14.3h2.7l.8-3.6h3.7l.8 3.6h2.6l-3.5-14.3h-3.6zm3.199 8.499h-2.699c.5-2.399.9-3.899 1-4.599.1-.701.2-1.301.301-1.9 0 .2.1.8.299 1.6.2.8.301 1.3.301 1.5l.799 3.301v.098zm-16.499 5.801h6.399v-2.3h-3.8v-4h3.5v-2.301h-3.5v-3.399h3.8v-2.3h-6.399v14.3zm-288.1-52c-.2 1.001-.399 2-.5 3.2-.2-1.4-.3-2.5-.5-3.2l-1.9-8.7h-2.7l3.3 14.3h3.4l3.4-14.3h-2.7l-1.8 8.7zm-120.6-101.5c-1.6 0-2.8.6-3.7 1.899-.9 1.301-1.3 3.101-1.3 5.4s.4 4.1 1.3 5.4c.9 1.3 2.1 1.9 3.7 1.9 1.1 0 2.001-.2 2.7-.701v-2.399c-.9.5-1.6.7-2.4.7-1.7 0-2.6-1.7-2.6-5 0-1.601.3-2.801.7-3.7s1-1.3 1.8-1.3c.4 0 .7.2 1 .4l.9.6.9-2.2c-.5-.4-1-.7-1.5-.801-.499-.099-.999-.198-1.5-.198zm-31.799.099h-3.8v14.301h3.5c1.8 0 3.1-.701 4.1-1.9.9-1.2 1.4-3 1.4-5.4 0-2.199-.5-3.899-1.299-5.199-.901-1.201-2.202-1.802-3.901-1.802zm1.699 10.8c-.399.801-1.1 1.201-2.099 1.201h-.9v-9.7h1.1c1.701 0 2.6 1.6 2.6 4.8-.001 1.6-.301 2.899-.701 3.699zm486.199 134.7c-.699-.399-1.199-.799-1.5-1.199-.3-.4-.399-.801-.399-1.3 0-.501.1-.901.3-1.2.199-.301.6-.4 1-.4s.699 0 1.1.2.701.3 1 .499l.9-2.1c-1.101-.6-2.1-.899-3.2-.899s-2.001.399-2.7 1.1c-.7.7-1 1.7-1 2.9 0 .699.201 1.2.3 1.699.101.501.401.9.7 1.301.301.399.801.8 1.4 1.2.699.499 1.2.899 1.5 1.3.301.399.5.8.5 1.3 0 .399-.199.8-.4 1.101-.199.3-.6.399-1.1.399-.9 0-1.801-.3-2.9-1v2.601c.9.499 2 .699 3.2.699 1.3 0 2.2-.399 2.9-1.1s.999-1.8.999-3.101c0-.799-.398-1.5-.699-2.099-.3-.6-1-1.3-1.901-1.901zM83.25 73.643c.7 0 1.5.2 2.3.7l.8-2.2c-1.1-.601-2.199-.899-3.3-.899-1.8 0-3.3.6-4.3 1.899-1 1.3-1.499 3.101-1.499 5.4 0 2.399.399 4.199 1.299 5.5.9 1.3 2.1 1.9 3.8 1.9 1.3 0 2.7-.301 3.9-.801v-7.3h-4.299v2.3h1.8v3.4c-.4.1-.9.199-1.3.199-.9 0-1.5-.399-1.9-1.3-.4-.899-.6-2.1-.6-3.7s.3-2.8.899-3.699c.6-.899 1.4-1.399 2.4-1.399zm526.5 136.9v5.699h-3.5v-5.699h-2.701v14.3h2.701v-6.3h3.5v6.3h2.699v-14.3h-2.699zm-73.2 0l-3.5 14.3h2.7l.8-3.6h3.699l.8 3.6h2.601l-3.499-14.3h-3.601zm3.2 8.499h-2.701c.501-2.399.9-3.899 1-4.599.1-.701.201-1.301.301-1.9 0 .2.1.8.301 1.6.199.8.299 1.3.299 1.5l.801 3.301v.098zm-13.301 2.7h-.1l-2.4-11.199h-4.1v14.3h2.5v-9.601c0-.799-.1-1.7-.2-2.6h.101l2.699 12.2v-.1h2.801l2.699-12.101h.1c-.1.899-.1 1.7-.1 2.5v9.7h2.5v-14.3h-4.1l-2.4 11.201zM102.65 71.143c-1.6 0-2.899.6-3.8 1.899-.9 1.2-1.299 3.001-1.299 5.4 0 2.4.399 4.2 1.299 5.5.901 1.3 2.1 1.9 3.8 1.9 1.6 0 2.9-.601 3.8-1.9.9-1.2 1.3-3 1.3-5.399 0-2.4-.5-4.2-1.3-5.501-.9-1.3-2.2-1.899-3.8-1.899zm-.099 12.4c-.8 0-1.4-.4-1.801-1.301-.399-.8-.599-2.1-.599-3.699 0-1.601.2-2.801.599-3.7.4-.899 1-1.3 1.801-1.3 1.6 0 2.399 1.7 2.399 5s-.8 5-2.399 5zm489.699 141.3h2.5v-14.3h-2.5v14.3zm-4-6.199a62.996 62.996 0 0 0-.5 3.8c-.1-1.301-.301-2.601-.5-3.8l-1.5-8.101h-2.801l-1.5 8.101c-.199.699-.301 1.999-.5 3.699-.199-1.7-.4-3-.5-3.8l-1.3-8.1h-2.601l2.601 14.3h3.3l1.4-7.4.4-2.899.1-.701c.1 1.4.3 2.601.5 3.601l1.4 7.5h3.299l2.5-14.3h-2.6l-1.198 8.1zM91.951 71.143c-1.601 0-2.9.7-3.8 1.899-.9 1.2-1.3 3.001-1.3 5.4 0 2.4.4 4.2 1.3 5.5.899 1.3 2.1 1.9 3.8 1.9 1.6 0 2.9-.7 3.8-1.9.899-1.2 1.3-3 1.3-5.399 0-2.4-.5-4.2-1.3-5.501-.9-1.3-2.2-1.899-3.8-1.899zm-.1 12.4c-.8 0-1.4-.4-1.8-1.301-.4-.8-.6-2.1-.6-3.699 0-1.601.2-2.801.6-3.7.399-.899 1-1.3 1.8-1.3 1.6 0 2.4 1.7 2.4 5s-.8 5-2.4 5zm226.399 80.6l.5 9.701h2.1l.501-9.701h-3.101zm.3 11.7c-.3.3-.4.7-.4 1.2s.1.9.4 1.199c.3.301.7.4 1.2.4s.9-.1 1.2-.4c.3-.299.4-.699.4-1.199s-.101-.9-.4-1.2-.7-.4-1.2-.4c-.5-.001-.9.1-1.2.4zm-1.1 2.599v-14.3h-2.7v5.7h-3.5v-5.7h-2.701v14.3h2.701v-6.3h3.5v6.3h2.7zm19.1 188.101h6.4v-2.3h-3.799v-4h3.5v-2.3h-3.5v-3.4h3.799v-2.3h-6.4v14.3zm76-7.5v-.1c.7-.101 1.101-.4 1.5-1 .3-.601.5-1.3.5-2.101 0-1.2-.3-2.1-.999-2.7-.601-.6-1.701-.899-3.201-.899h-3.6v14.2h4.2c1.2 0 2.1-.4 2.8-1.101.699-.699 1-1.699 1-2.999 0-.901-.1-1.601-.5-2.201-.301-.498-.9-.899-1.7-1.099zm-3.3-4.5h1.1c.5 0 .9.1 1.201.4.299.3.398.7.398 1.3 0 .601-.1.999-.299 1.3-.2.3-.601.4-1.201.4h-1.199v-3.4zm2.5 9.2c-.199.3-.6.5-1.2.5h-1.3v-4h1.199c1.102 0 1.701.601 1.701 1.9 0 .7-.1 1.3-.4 1.6zm-123.1-199.6l-2 8.173v-1.873h-3.5v-4h3.8v-2.3h-6.4v14.3h2.6v-5.7h3.396l-1.395 5.7h2.7l.8-3.6h3.7l.8 3.6h2.6l-3.5-14.3h-3.601zm3.2 8.399h-2.7c.5-2.399.899-3.899 1-4.599.1-.701.2-1.301.3-1.9 0 .199.1.8.3 1.6.2.8.3 1.3.3 1.5l.8 3.301v.098zm81.4 183.901c0-1.4-.301-2.5-1-3.201-.701-.699-1.8-.999-3.3-.999h-3.5v14.3h2.7v-5.6h.899l2.3 5.6h2.8l-2.7-6.3c1.201-.7 1.801-2 1.801-3.8zm-3.1 1.701c-.2.299-.7.499-1.301.499h-.699v-4.2h.699c.6 0 1 .101 1.301.501.3.399.4.899.4 1.6.001.698-.2 1.299-.4 1.6zm-10.9-6.202c-1.6 0-2.9.701-3.8 1.9-.899 1.2-1.3 3.001-1.3 5.4s.4 4.2 1.3 5.5 2.101 1.899 3.8 1.899c1.6 0 2.9-.699 3.801-1.899.898-1.2 1.3-3 1.3-5.4 0-2.3-.401-4.2-1.3-5.5-.901-1.299-2.201-1.9-3.801-1.9zm0 12.401c-.8 0-1.4-.499-1.8-1.3-.4-.8-.601-2.1-.601-3.7s.2-2.8.601-3.699c.399-.9 1-1.301 1.8-1.301 1.6 0 2.4 1.7 2.4 5s-.8 5-2.4 5zm36.8 2.2h6.4v-2.3h-3.8v-4h3.5v-2.3h-3.5v-3.4h3.8v-2.3h-6.4v14.3zm-19-11.9h2.7v11.9h2.7v-11.9h2.7v-2.3h-8.101v2.3zm14.7 3.3h-3.5v-5.7h-2.699v14.3h2.699v-6.3h3.5v6.3h2.7v-14.3h-2.7v5.7zm-44.1 8.6h2.6v-5.699h3.5v-2.301h-3.5v-4h3.8v-2.3h-6.4v14.3zm-25.5-14.601c-1.6 0-2.899.701-3.8 1.9-.9 1.2-1.3 3.001-1.3 5.4s.4 4.2 1.3 5.5c.9 1.3 2.1 1.899 3.8 1.899 1.601 0 2.9-.6 3.8-1.899.899-1.2 1.3-3 1.3-5.4 0-2.3-.401-4.2-1.3-5.5-.9-1.299-2.2-1.9-3.8-1.9zm-.1 12.401c-.8 0-1.399-.499-1.8-1.3-.4-.8-.6-2.1-.6-3.7s.2-2.8.6-3.699c.4-.9 1-1.301 1.8-1.301 1.6 0 2.4 1.7 2.4 5s-.8 5-2.4 5zm-14-200.2h-8.1v2.4h2.7v11.899h2.7v-12h2.7v-2.299zm-11.7 14.299h2.5v-14.3h-2.5v14.3zm17 179.501h-3.5v-5.7h-2.7v14.301h2.7v-6.301h3.5v6.301h2.7v-14.301h-2.7v5.7zm18.5-5.7h-3.601v14.301h2.701v-5.201h.7c1.4 0 2.5-.399 3.3-1.2.7-.8 1.1-1.999 1.1-3.499 0-2.901-1.3-4.401-4.2-4.401zm1.1 6.3c-.4.3-.8.5-1.5.5h-.4v-4.5h.6c.7 0 1.1.1 1.4.5s.4 1 .4 1.7c0 .9-.2 1.401-.5 1.8zm95.999-5.55c-1.06-.562-2.033-.851-3.1-.851-1.1 0-2 .4-2.699 1.1-.701.701-1 1.701-1 2.9 0 .701.1 1.2.299 1.7.101.501.4.9.701 1.3.299.4.799.8 1.399 1.2.7.501 1.2.899 1.5 1.3s.501.801.501 1.301c0 .399-.102.8-.4 1.1-.2.3-.601.399-1.101.399-.899 0-1.8-.3-2.899-.999v.8h-3.601v-4h3.5v-2.3h-3.5v-3.4h3.8v-2.3h-6.4v14.3h6.4v-.41c.863.427 1.885.61 3 .61 1.301 0 2.201-.399 2.9-1.101.7-.699 1-1.799 1-3.1 0-.8-.1-1.5-.8-2.1-.3-.601-1.001-1.301-1.899-1.9-.601-.399-1.101-.8-1.4-1.2-.301-.399-.4-.8-.4-1.3s.1-.9.3-1.2.601-.4 1-.4.7 0 1.101.2.699.301 1 .5l.799-1.867v1.367h2.701v11.9h2.699v-11.9h2.7v-2.3h-8.101v.651zM333.15 52.343c0-.899 0-1.699-.2-2.5h.099l4.401 10.301h3.2V45.843h-2.4v7.8c0 .9.1 1.7.2 2.4h-.1l-4.4-10.2h-3.3v14.301h2.5v-7.801zm-4.5-6.5h-2.5v14.301h2.5V45.843zm18.3 14.501c1.3 0 2.7-.301 3.9-.801v-7.301h-4.299v2.401h1.8v3.299c-.4.101-.9.2-1.3.2-.9 0-1.5-.399-1.9-1.3-.4-.899-.6-2.1-.6-3.699 0-1.601.299-2.801.9-3.701.6-.899 1.4-1.399 2.4-1.399.7 0 1.5.199 2.3.7l.8-2.2c-1.1-.601-2.2-.9-3.3-.9-1.8 0-3.3.601-4.3 1.9s-1.5 3.101-1.5 5.4c0 2.399.4 4.199 1.3 5.5.899 1.299 2.099 1.901 3.799 1.901zm14.3-5.801h.9l2.3 5.601h2.8l-2.7-6.301c1.2-.699 1.8-1.999 1.8-3.8 0-1.4-.3-2.5-1-3.2-.699-.7-1.799-1-3.3-1h-3.5v14.301h2.7v-5.601zm0-6.4h.7c.6 0 1 .2 1.3.5.301.4.4.9.4 1.601 0 .699-.201 1.3-.4 1.601-.199.3-.7.499-1.3.499h-.7v-4.201zm-3.5 9.7h-3.8v-4h3.5v-2.3h-3.5v-3.4h3.8v-2.3h-6.4v14.301h6.4v-2.301zm-1.8 8.5v-2.3h-6.4v14.3h6.4v-2.3h-3.8v-4h3.5v-2.299h-3.5v-3.401h3.8zm-7 8.099c0-.899-.201-1.601-.8-2.3-.3-.601-1-1.3-1.9-1.9-.6-.399-1.1-.8-1.4-1.199-.299-.4-.399-.8-.399-1.301 0-.5.1-.899.3-1.199.2-.3.6-.4 1-.4s.7 0 1.1.2.7.301 1 .5l.899-2.1c-1.1-.6-2.1-.9-3.2-.9s-2 .4-2.7 1.1c-.7.7-1 1.701-1 2.9 0 .701.1 1.2.3 1.7.1.499.4.9.7 1.3.3.4.8.8 1.4 1.2.7.501 1.2.899 1.5 1.3s.5.8.5 1.301c0 .399-.1.799-.4 1.099-.2.301-.6.4-1.1.4-.802 0-1.612-.256-2.556-.803.036-.287.056-.586.056-.897 0-.899-.4-1.7-.7-2.3-.3-.601-1-1.3-1.9-1.9-.7-.399-1.2-.8-1.5-1.199-.3-.4-.4-.8-.4-1.301 0-.5.1-.899.299-1.199.2-.3.6-.4 1-.4.399 0 .7 0 1.1.2.4.2.7.301 1 .5l.899-2.1c-1.1-.6-2.1-.9-3.2-.9s-2 .4-2.7 1.1c-.7.7-1 1.701-1 2.9 0 .701.201 1.2.3 1.7.101.499.4.9.7 1.3.3.4.8.8 1.4 1.2.7.501 1.2.899 1.5 1.3.299.4.5.8.5 1.301 0 .399-.2.799-.4 1.099-.201.301-.601.4-1.101.4-.9 0-1.8-.3-2.9-1v2.801c.901.499 2 .699 3.201.699 1.3 0 2.2-.4 2.9-1.1.259-.259.446-.588.6-.945v1.346c.899.499 2 .699 3.2.699 1.3 0 2.2-.4 2.9-1.1.702-.702 1.002-1.802 1.002-3.102zm-23.2 2.101c.9 1.3 2.1 1.899 3.8 1.899 1.6 0 2.899-.699 3.799-1.899.901-1.2 1.3-3 1.3-5.4 0-2.301-.399-4.199-1.3-5.5-.9-1.299-2.2-1.9-3.799-1.9-1.6 0-2.9.701-3.8 1.9-.9 1.2-1.3 3-1.3 5.4 0 2.399.4 4.2 1.3 5.5zm2-9.101c.4-.899 1-1.3 1.8-1.3 1.6 0 2.4 1.7 2.4 5s-.8 5-2.4 5c-.8 0-1.4-.5-1.8-1.3s-.6-2.101-.6-3.7.2-2.798.6-3.7zm-15.4 11.101c1.1 0 2-.2 2.7-.7v-2.4c-.9.5-1.601.7-2.4.7-1.7 0-2.6-1.7-2.6-4.999 0-1.601.3-2.8.7-3.701.4-.899 1-1.3 1.8-1.3.4 0 .7.2 1 .4l.899.601.9-2.201c-.5-.399-1-.699-1.5-.8-.5-.1-1-.2-1.5-.2-1.6 0-2.8.601-3.7 1.899-.9 1.302-1.3 3.101-1.3 5.401s.4 4.1 1.3 5.4c.901 1.3 2.101 1.9 3.701 1.9zm53.599-7.5c0-2.201-.399-4-1.299-5.201-.9-1.199-2.2-1.799-3.9-1.799h-3.801v14.3h3.5c1.801 0 3.201-.7 4.101-1.899.9-1.201 1.4-3.002 1.399-5.401zm-3.499 3.8c-.4.8-1.101 1.2-2.1 1.2h-.9v-9.7h1.1c1.7 0 2.601 1.6 2.601 4.801-.001 1.598-.301 2.899-.701 3.699zm-41.4-20.4h3.5v-2.3h-3.5v-4.001h3.8v-2.3h-6.4v14.301h2.6v-5.7zm-2.5 18.299h.9l2.3 5.601h2.8l-2.7-6.3c1.2-.7 1.8-2.001 1.8-3.8 0-1.4-.3-2.499-1-3.2-.7-.699-1.8-1-3.3-1h-3.5v14.3h2.7v-5.601zm0-6.499h.7c.6 0 1 .1 1.299.499.3.401.4.901.4 1.602 0 .699-.2 1.299-.4 1.6-.2.299-.7.5-1.299.5h-.7v-4.201z">
    </path>
  </g>
</svg>