<svg xmlns="http://www.w3.org/2000/svg" viewBox="0 0 700 400">
  <path fill="transparent" d="M0 0h700v400H0z"></path>
  <path fill="#78C043" d="M134.2 310l-2.9-55.8 209-12.2v59.6z"></path>
  <path fill="#FFF" d="M165.7 277.2l1.9-5.6h2.8l-3.4 8.6v5.7h-2.6v-5.6l-3.4-8.7h2.8l1.9 5.6zM180.2 278.7c0 2.4-.4 4.2-1.3 5.4s-2.2 1.9-3.8 1.9c-1.7 0-2.9-.6-3.8-1.9s-1.3-3.1-1.3-5.5.4-4.2 1.3-5.4 2.2-1.9 3.8-1.9c1.6 0 2.9.6 3.8 1.9s1.3 3.1 1.3 5.5zm-7.6 0c0 1.6.2 2.9.6 3.7s1 1.3 1.8 1.3c1.6 0 2.4-1.7 2.4-5s-.8-5-2.4-5c-.8 0-1.4.4-1.8 1.3s-.6 2-.6 3.7zM189.9 271.6v9.2c0 1.7-.4 3-1.2 3.9s-1.9 1.3-3.3 1.3-2.5-.4-3.2-1.3-1.1-2.2-1.1-3.9v-9.2h2.6v9.4c0 1.8.6 2.7 1.8 2.7.6 0 1-.2 1.3-.7s.5-1.1.5-2v-9.5h2.6zM200.4 285.8l-2.7-12.2h-.1c.1.9.2 1.8.2 2.6v9.6h-2.5v-14.3h4.1l2.4 11.2h.1l2.4-11.2h4.1v14.3H206v-9.7c0-.8 0-1.6.1-2.5h-.1l-2.7 12.1h-2.9z"></path>
  <path fill="#FFF" d="M216.2 285.8l-.8-3.6h-3.7l-.8 3.6h-2.7l3.5-14.3h3.6l3.5 14.3h-2.6zm-1.3-5.9l-.8-3.3c0-.2-.1-.7-.3-1.5s-.3-1.4-.3-1.6c-.1.6-.2 1.2-.3 1.9s-.5 2.2-1 4.6h2.7zM228.2 278.6c0 2.4-.5 4.2-1.4 5.4s-2.3 1.9-4.1 1.9h-3.5v-14.3h3.8c1.7 0 3 .6 3.9 1.8s1.3 2.9 1.3 5.2zm-2.7 0c0-3.2-.9-4.8-2.6-4.8h-1.1v9.7h.9c1 0 1.7-.4 2.1-1.2s.7-2 .7-3.7zM228.9 285.8v-14.3h2.7v12h3.7v2.3h-6.4z"></path>
  <path fill="#FFF" d="M237 277.2l1.9-5.6h2.8l-3.4 8.6v5.7h-2.6v-5.6l-3.4-8.7h2.8l1.9 5.6zM255.7 285.8h-3.2l-4.4-10.3h-.1c.2.8.2 1.6.2 2.5v7.8h-2.5v-14.3h3.3l4.4 10.2h.1c-.1-.7-.2-1.5-.2-2.4v-7.8h2.4v14.3zM263.6 285.8h-6.4v-14.3h6.4v2.3h-3.8v3.4h3.5v2.3h-3.5v4h3.8v2.3zM270.6 285.8h-6.4v-14.3h6.4v2.3h-3.8v3.4h3.5v2.3h-3.5v4h3.8v2.3zM280.7 278.6c0 2.4-.5 4.2-1.4 5.4s-2.3 1.9-4.1 1.9h-3.5v-14.3h3.8c1.7 0 3 .6 3.9 1.8s1.3 2.9 1.3 5.2zm-2.7 0c0-3.2-.9-4.8-2.6-4.8h-1.1v9.7h.9c1 0 1.7-.4 2.1-1.2s.7-2 .7-3.7zM294.1 271.6v9.2c0 1.7-.4 3-1.2 3.9s-1.9 1.3-3.3 1.3-2.5-.4-3.2-1.3-1.1-2.2-1.1-3.9v-9.2h2.6v9.4c0 1.8.6 2.7 1.8 2.7.6 0 1-.2 1.3-.7s.5-1.1.5-2v-9.5h2.6zM301.7 281.9c0 1.3-.3 2.4-1 3.1s-1.6 1.1-2.9 1.1c-1.2 0-2.3-.2-3.2-.7v-2.6c1.1.7 2 1 2.9 1 .5 0 .9-.1 1.1-.4s.4-.7.4-1.1c0-.5-.2-.9-.5-1.3s-.8-.8-1.5-1.3c-.6-.4-1.1-.8-1.4-1.2s-.6-.8-.7-1.3-.3-1-.3-1.7c0-1.2.3-2.2 1-2.9s1.6-1.1 2.7-1.1 2.1.3 3.2.9l-.9 2.1c-.3-.2-.6-.3-1-.5s-.7-.2-1.1-.2c-.4 0-.8.1-1 .4s-.3.7-.3 1.2.1.9.4 1.3.8.8 1.5 1.2c.9.6 1.6 1.3 1.9 1.9s.7 1.3.7 2.1zM302.1 284.5c0-.5.1-.9.4-1.2s.7-.4 1.2-.4.9.1 1.2.4.4.7.4 1.2-.1.9-.4 1.2-.7.4-1.2.4-.9-.1-1.2-.4-.4-.7-.4-1.2zm2.7-3.3h-2.1l-.5-9.7h3.1l-.5 9.7z"></path>
  <g>
    <path opacity=".8" fill="#00C0F3" d="M321.6 256.4L307 355.9l315.9 19.5 2.8-103.5z"></path>
    <g fill="#FFF">
      <path d="M358.8 295c0 1.5-.4 2.7-1.1 3.5-.8.8-1.9 1.2-3.3 1.2h-.7v5.2H351v-14.3h3.6c2.8 0 4.2 1.4 4.2 4.4zm-5.1 2.4h.5c.7 0 1.1-.2 1.5-.5.3-.4.5-.9.5-1.8 0-.7-.1-1.3-.4-1.7s-.7-.5-1.4-.5h-.6v4.5zM369.2 297.7c0 2.4-.4 4.2-1.3 5.4s-2.2 1.9-3.8 1.9c-1.7 0-2.9-.6-3.8-1.9s-1.3-3.1-1.3-5.5.4-4.2 1.3-5.4 2.2-1.9 3.8-1.9c1.6 0 2.9.6 3.8 1.9s1.3 3.1 1.3 5.5zm-7.5 0c0 1.6.2 2.9.6 3.7s1 1.3 1.8 1.3c1.6 0 2.4-1.7 2.4-5s-.8-5-2.4-5c-.8 0-1.4.4-1.8 1.3s-.6 2.1-.6 3.7zM374.5 304.9h-2.6V293h-2.7v-2.3h8.1v2.3h-2.7v11.9zM384 304.9h-6.4v-14.3h6.4v2.3h-3.8v3.4h3.5v2.3h-3.5v4h3.8v2.3zM394.9 304.9h-3.2l-4.4-10.3h-.1c.2.8.2 1.6.2 2.5v7.8h-2.5v-14.3h3.3l4.4 10.2h.1c-.1-.7-.2-1.5-.2-2.4v-7.8h2.4v14.3zM401.1 292.7c-.8 0-1.4.4-1.8 1.3s-.7 2.1-.7 3.7c0 3.3.9 5 2.6 5 .8 0 1.5-.2 2.4-.7v2.4c-.7.5-1.6.7-2.7.7-1.6 0-2.8-.6-3.7-1.9-.9-1.3-1.3-3.1-1.3-5.4s.4-4.1 1.3-5.4 2.1-1.9 3.7-1.9c.5 0 1 .1 1.5.2s1 .4 1.5.8l-.9 2.2-.9-.6c-.3-.2-.6-.4-1-.4zM405.1 304.9v-14.3h2.5v14.3h-2.5zM416.4 304.9l-.8-3.6h-3.7l-.8 3.6h-2.7l3.5-14.3h3.6l3.5 14.3h-2.6zm-1.3-6l-.8-3.3c0-.2-.1-.7-.3-1.5-.2-.8-.3-1.4-.3-1.6-.1.6-.2 1.2-.3 1.9-.1.7-.5 2.2-1 4.6h2.7z"></path>
      <path d="M418.6 304.9v-14.3h2.7v12h3.7v2.3h-6.4zM432 304.9h-2.6v-14.3h6.4v2.3H432v4h3.5v2.3H432v5.7zM437.1 304.9v-14.3h2.5v14.3h-2.5zM451.6 304.9h-3.2l-4.4-10.3h-.1c.2.8.2 1.6.2 2.5v7.8h-2.5v-14.3h3.3l4.4 10.2h.1c-.1-.7-.2-1.5-.2-2.4v-7.8h2.4v14.3zM459.9 304.9l-.8-3.6h-3.7l-.8 3.6h-2.7l3.5-14.3h3.6l3.5 14.3h-2.6zm-1.4-6l-.8-3.3c0-.2-.1-.7-.3-1.5-.2-.8-.3-1.4-.3-1.6-.1.6-.2 1.2-.3 1.9-.1.7-.5 2.2-1 4.6h2.7zM472.8 304.9h-3.2l-4.4-10.3h-.2c.2.8.2 1.6.2 2.5v7.8h-2.5v-14.3h3.3l4.4 10.2h.1c-.1-.7-.2-1.5-.2-2.4v-7.8h2.4v14.3zM479 292.7c-.8 0-1.4.4-1.8 1.3s-.7 2.1-.7 3.7c0 3.3.9 5 2.6 5 .8 0 1.5-.2 2.4-.7v2.4c-.7.5-1.6.7-2.7.7-1.6 0-2.8-.6-3.7-1.9-.9-1.3-1.3-3.1-1.3-5.4s.4-4.1 1.3-5.4 2.1-1.9 3.7-1.9c.5 0 1 .1 1.5.2s1 .4 1.5.8l-.9 2.2-.9-.6c-.3-.2-.6-.4-1-.4zM483 304.9v-14.3h2.5v14.3H483z"></path>
      <path d="M492.9 304.9l-.8-3.6h-3.7l-.8 3.6h-2.7l3.5-14.3h3.6l3.5 14.3h-2.6zm-1.3-6l-.8-3.3c0-.2-.1-.7-.3-1.5s-.3-1.4-.3-1.6c-.1.6-.2 1.2-.3 1.9s-.5 2.2-1 4.6h2.7zM495.8 304.9v-14.3h2.7v12h3.7v2.3h-6.4zM506.2 290.6h3.6c1.5 0 2.6.3 3.2.9s1 1.5 1 2.7c0 .8-.2 1.5-.5 2.1s-.8.9-1.5 1v.1c.8.2 1.4.6 1.7 1.1s.5 1.3.5 2.2c0 1.3-.3 2.3-1 3s-1.6 1.1-2.8 1.1h-4.3v-14.2zm2.5 5.7h1.2c.6 0 1-.1 1.2-.4s.3-.7.3-1.3-.1-1-.4-1.3-.7-.4-1.2-.4h-1.1v3.4zm0 2.2v4h1.3c.6 0 1-.2 1.2-.5s.4-.9.4-1.6c0-1.3-.6-1.9-1.7-1.9h-1.2zM521.8 304.9h-6.4v-14.3h6.4v2.3H518v3.4h3.5v2.3H518v4h3.8v2.3zM532.5 304.9h-3.2l-4.4-10.3h-.1c.2.8.2 1.6.2 2.5v7.8h-2.5v-14.3h3.3l4.4 10.2h.1c-.1-.7-.2-1.5-.2-2.4v-7.8h2.4v14.3zM540.2 304.9h-6.4v-14.3h6.4v2.3h-3.8v3.4h3.5v2.3h-3.5v4h3.8v2.3zM543.8 304.9h-2.6v-14.3h6.4v2.3h-3.8v4h3.5v2.3h-3.5v5.7zM548.8 304.9v-14.3h2.5v14.3h-2.5zM558 292.7c-.8 0-1.4.4-1.8 1.3s-.7 2.1-.7 3.7c0 3.3.9 5 2.6 5 .8 0 1.5-.2 2.4-.7v2.4c-.7.5-1.6.7-2.7.7-1.6 0-2.8-.6-3.7-1.9s-1.3-3.1-1.3-5.4.4-4.1 1.3-5.4 2.1-1.9 3.7-1.9c.5 0 1 .1 1.5.2s1 .4 1.5.8l-.9 2.2-.9-.6c-.3-.2-.6-.4-1-.4zM562 304.9v-14.3h2.5v14.3H562z"></path>
    </g>
    <path fill="#FFF" d="M572.6 304.9l-.8-3.6H568l-.8 3.6h-2.7l3.5-14.3h3.6l3.5 14.3h-2.5zm-1.3-6l-.8-3.3c0-.2-.1-.7-.3-1.5s-.3-1.4-.3-1.6c-.1.6-.2 1.2-.3 1.9s-.5 2.2-1 4.6h2.7zM575.3 304.9v-14.3h2.7v12h3.7v2.3h-6.4zM378.1 309.7c-.8 0-1.4.4-1.8 1.3s-.7 2.1-.7 3.7c0 3.3.9 5 2.6 5 .8 0 1.5-.2 2.4-.7v2.4c-.7.5-1.6.7-2.7.7-1.6 0-2.8-.6-3.7-1.9s-1.3-3.1-1.3-5.4.4-4.1 1.3-5.4 2.1-1.9 3.7-1.9c.5 0 1 .1 1.5.2s1 .4 1.5.8l-.9 2.2-.9-.6c-.3-.2-.6-.4-1-.4zM391.2 314.7c0 2.4-.4 4.2-1.3 5.4s-2.2 1.9-3.8 1.9c-1.7 0-2.9-.6-3.8-1.9s-1.3-3.1-1.3-5.5.4-4.2 1.3-5.4 2.2-1.9 3.8-1.9c1.6 0 2.9.6 3.8 1.9s1.3 3.1 1.3 5.5zm-7.5 0c0 1.6.2 2.9.6 3.7s1 1.3 1.8 1.3c1.6 0 2.4-1.7 2.4-5s-.8-5-2.4-5c-.8 0-1.4.4-1.8 1.3s-.6 2.1-.6 3.7z"></path>
    <g fill="#FFF">
      <path d="M402.1 321.9h-3.2l-4.4-10.3h-.1c.2.8.2 1.6.2 2.5v7.8h-2.5v-14.3h3.3l4.4 10.2h.1c-.1-.7-.2-1.5-.2-2.4v-7.8h2.4v14.3zM413.6 321.9h-3.2l-4.4-10.3h-.1c.2.8.2 1.6.2 2.5v7.8h-2.5v-14.3h3.3l4.4 10.2h.1c-.1-.7-.2-1.5-.2-2.4v-7.8h2.4v14.3zM421.6 321.9h-6.4v-14.3h6.4v2.3h-3.8v3.4h3.5v2.3h-3.5v4h3.8v2.3zM427.4 309.7c-.8 0-1.4.4-1.8 1.3s-.7 2.1-.7 3.7c0 3.3.9 5 2.6 5 .8 0 1.5-.2 2.4-.7v2.4c-.7.5-1.6.7-2.7.7-1.6 0-2.8-.6-3.7-1.9s-1.3-3.1-1.3-5.4.4-4.1 1.3-5.4 2.1-1.9 3.7-1.9c.5 0 1 .1 1.5.2s1 .4 1.5.8l-.9 2.2-.9-.6c-.3-.2-.6-.4-1-.4z"></path>
      <path d="M435.3 321.9h-2.6V310H430v-2.3h8.1v2.3h-2.7v11.9z"></path>
    </g>
    <path fill="#FFF" d="M446.1 309.7c-.8 0-1.4.4-1.8 1.3s-.7 2.1-.7 3.7c0 3.3.9 5 2.6 5 .8 0 1.5-.2 2.4-.7v2.4c-.7.5-1.6.7-2.7.7-1.6 0-2.8-.6-3.7-1.9s-1.3-3.1-1.3-5.4.4-4.1 1.3-5.4 2.1-1.9 3.7-1.9c.5 0 1 .1 1.5.2s1 .4 1.5.8l-.9 2.2-.9-.6c-.3-.2-.6-.4-1-.4z"></path>
    <g fill="#FFF">
      <path d="M459.3 314.7c0 2.4-.4 4.2-1.3 5.4s-2.2 1.9-3.8 1.9c-1.7 0-2.9-.6-3.8-1.9s-1.3-3.1-1.3-5.5.4-4.2 1.3-5.4 2.2-1.9 3.8-1.9c1.6 0 2.9.6 3.8 1.9s1.3 3.1 1.3 5.5zm-7.5 0c0 1.6.2 2.9.6 3.7s1 1.3 1.8 1.3c1.6 0 2.4-1.7 2.4-5s-.8-5-2.4-5c-.8 0-1.4.4-1.8 1.3s-.6 2.1-.6 3.7zM460.4 321.9v-14.3h2.7v12h3.7v2.3h-6.4zM467.4 321.9v-14.3h2.7v12h3.7v2.3h-6.4z"></path>
    </g>
    <g fill="#FFF">
      <path d="M480.3 321.9h-6.4v-14.3h6.4v2.3h-3.8v3.4h3.5v2.3h-3.5v4h3.8v2.3zM486.1 309.7c-.8 0-1.4.4-1.8 1.3s-.7 2.1-.7 3.7c0 3.3.9 5 2.6 5 .8 0 1.5-.2 2.4-.7v2.4c-.7.5-1.6.7-2.7.7-1.6 0-2.8-.6-3.7-1.9s-1.3-3.1-1.3-5.4.4-4.1 1.3-5.4 2.1-1.9 3.7-1.9c.5 0 1 .1 1.5.2s1 .4 1.5.8l-.9 2.2-.9-.6c-.3-.2-.6-.4-1-.4z"></path>
      <path d="M494 321.9h-2.6V310h-2.7v-2.3h8.1v2.3H494v11.9zM503.9 321.9h-2.6v-14.3h6.4v2.3h-3.8v4h3.5v2.3h-3.5v5.7zM518.2 314.7c0 2.4-.4 4.2-1.3 5.4s-2.2 1.9-3.8 1.9c-1.7 0-2.9-.6-3.8-1.9s-1.3-3.1-1.3-5.5.4-4.2 1.3-5.4 2.2-1.9 3.8-1.9c1.6 0 2.9.6 3.8 1.9s1.3 3.1 1.3 5.5zm-7.5 0c0 1.6.2 2.9.6 3.7s1 1.3 1.8 1.3c1.6 0 2.4-1.7 2.4-5s-.8-5-2.4-5c-.8 0-1.4.4-1.8 1.3s-.6 2.1-.6 3.7z"></path>
    </g>
    <path fill="#FFF" d="M520.9 316.3v5.6h-2.7v-14.3h3.5c1.5 0 2.6.3 3.3 1 .7.7 1 1.8 1 3.2 0 1.8-.6 3.1-1.8 3.8l2.7 6.3h-2.8l-2.3-5.6h-.9zm0-2.3h.7c.6 0 1.1-.2 1.3-.5s.4-.9.4-1.6c0-.7-.1-1.2-.4-1.6-.3-.3-.7-.5-1.3-.5h-.7v4.2z"></path>
    <g fill="#FFF">
      <path d="M531.3 313.9h4.4v7.3c-1.2.5-2.6.8-3.9.8-1.7 0-2.9-.6-3.8-1.9s-1.3-3.1-1.3-5.5c0-2.3.5-4.1 1.5-5.4s2.5-1.9 4.3-1.9c1.1 0 2.2.3 3.3.9l-.8 2.2c-.8-.5-1.6-.7-2.3-.7-1 0-1.8.5-2.4 1.4s-.9 2.1-.9 3.7.2 2.8.6 3.7 1 1.3 1.9 1.3c.4 0 .9-.1 1.3-.2v-3.3h-1.8v-2.4zM543.3 321.9h-6.4v-14.3h6.4v2.3h-3.8v3.4h3.5v2.3h-3.5v4h3.8v2.3z"></path>
    </g>
    <path fill="#FFF" d="M548.4 321.9h-2.6V310H543v-2.3h8.1v2.3h-2.7v11.9z"></path>
    <g fill="#FFF">
      <path d="M386.5 333.3v5.6h-2.7v-14.3h3.5c1.5 0 2.6.3 3.3 1s1 1.8 1 3.2c0 1.8-.6 3.1-1.8 3.8l2.7 6.3h-2.8l-2.3-5.6h-.9zm0-2.3h.7c.6 0 1.1-.2 1.3-.5s.4-.9.4-1.6c0-.7-.1-1.2-.4-1.6s-.7-.5-1.3-.5h-.7v4.2zM393.3 338.9v-14.3h2.5v14.3h-2.5zM402.2 330.9h4.4v7.3c-1.2.5-2.6.8-3.9.8-1.7 0-2.9-.6-3.8-1.9s-1.3-3.1-1.3-5.5c0-2.3.5-4.1 1.5-5.4s2.5-1.9 4.3-1.9c1.1 0 2.2.3 3.3.9l-.8 2.2c-.8-.5-1.6-.7-2.3-.7-1 0-1.8.5-2.4 1.4s-.9 2.1-.9 3.7.2 2.8.6 3.7 1 1.3 1.9 1.3c.4 0 .9-.1 1.3-.2v-3.3h-1.8v-2.4zM416.5 338.9h-2.7v-6.3h-3.5v6.3h-2.7v-14.3h2.7v5.7h3.5v-5.7h2.7v14.3zM422.4 338.9h-2.6V327h-2.7v-2.3h8.1v2.3h-2.7v11.9zM425.5 337.5c0-.5.1-.9.4-1.2s.7-.4 1.2-.4.9.1 1.2.4.4.7.4 1.2-.1.9-.4 1.2-.7.4-1.2.4-.9-.1-1.2-.4-.4-.7-.4-1.2zm2.7-3.2h-2.1l-.5-9.7h3.1l-.5 9.7zM431 334.3v-.7c0-.6.1-1.2.3-1.6s.5-1 1-1.5.8-.9.9-1.2.2-.7.2-1.1c0-.4-.1-.8-.3-1s-.5-.4-.9-.4c-.7 0-1.4.3-2.2.8l-.9-2c1-.7 2.2-1 3.4-1 1.1 0 1.9.3 2.5.9s.9 1.4.9 2.5c0 .7-.1 1.4-.3 1.9s-.7 1.1-1.3 1.9c-.4.5-.7.8-.8 1.1s-.2.6-.2 1v.6H431zm-.5 3.2c0-.5.1-.9.4-1.2s.7-.4 1.2-.4.9.1 1.2.4.4.7.4 1.2-.1.9-.4 1.2-.7.4-1.2.4-.9-.1-1.2-.4-.4-.7-.4-1.2z"></path>
    </g>
    <path fill="#FFF" d="M449.1 331.7c0 2.4-.4 4.2-1.3 5.4-.9 1.3-2.2 1.9-3.8 1.9-1.7 0-2.9-.6-3.8-1.9-.9-1.3-1.3-3.1-1.3-5.5s.4-4.2 1.3-5.4c.9-1.3 2.2-1.9 3.8-1.9 1.6 0 2.9.6 3.8 1.9s1.3 3.1 1.3 5.5zm-7.6 0c0 1.6.2 2.9.6 3.7s1 1.3 1.8 1.3c1.6 0 2.4-1.7 2.4-5s-.8-5-2.4-5c-.8 0-1.4.4-1.8 1.3s-.6 2.1-.6 3.7zM458.9 338.9H456l-2.3-6.1-1.1 1.1v5H450v-14.3h2.7v7.1l.9-2.1 2.4-4.9h2.8l-3.3 6.2 3.4 8z"></path>
    <path fill="#FFF" d="M461.9 336.8c-.3 1.3-.9 2.9-1.7 4.7h-2c.4-1.7.8-3.4 1-4.9h2.6l.1.2zM466.9 338.9v-14.3h2.7v12h3.7v2.3h-6.4zM480.2 338.9h-6.4v-14.3h6.4v2.3h-3.8v3.4h3.5v2.3h-3.5v4h3.8v2.3z"></path>
    <path fill="#FFF" d="M485.4 338.9h-2.6V327h-2.7v-2.3h8.1v2.3h-2.7v11.9z"></path>
    <g fill="#FFF">
      <path d="M491 324.6l.1.2c-.3 1.3-.9 2.8-1.7 4.7h-2c.4-1.7.7-3.3 1-4.9h2.6zM498.1 334.9c0 1.3-.3 2.4-1 3.1s-1.6 1.1-2.9 1.1c-1.2 0-2.3-.2-3.2-.7v-2.6c1.1.7 2 1 2.9 1 .5 0 .9-.1 1.1-.4.3-.3.4-.7.4-1.1 0-.5-.2-.9-.5-1.3s-.8-.8-1.5-1.3c-.6-.4-1.1-.8-1.4-1.2-.3-.4-.6-.8-.7-1.3-.2-.5-.3-1-.3-1.7 0-1.2.3-2.2 1-2.9.7-.7 1.6-1.1 2.7-1.1s2.1.3 3.2.9l-.9 2.1c-.3-.2-.6-.3-1-.5s-.7-.2-1.1-.2c-.4 0-.8.1-1 .4-.2.3-.3.7-.3 1.2s.1.9.4 1.3c.3.4.8.8 1.5 1.2.9.6 1.6 1.3 1.9 1.9.5.5.7 1.3.7 2.1z"></path>
    </g>
    <path fill="#FFF" d="M504.9 333.3v5.6h-2.7v-14.3h3.5c1.5 0 2.6.3 3.3 1s1 1.8 1 3.2c0 1.8-.6 3.1-1.8 3.8l2.7 6.3h-2.8l-2.3-5.6h-.9zm0-2.3h.7c.6 0 1.1-.2 1.3-.5s.4-.9.4-1.6c0-.7-.1-1.2-.4-1.6s-.7-.5-1.3-.5h-.7v4.2z"></path>
    <g fill="#FFF">
      <path d="M519.8 324.6v9.2c0 1.7-.4 3-1.2 3.9-.8.9-1.9 1.3-3.3 1.3s-2.5-.4-3.2-1.3-1.1-2.2-1.1-3.9v-9.2h2.6v9.4c0 1.8.6 2.7 1.8 2.7.6 0 1-.2 1.3-.7.3-.5.5-1.1.5-2v-9.5h2.6zM531.3 338.9H528l-4.4-10.3h-.1c.2.8.2 1.6.2 2.5v7.8h-2.5v-14.3h3.3l4.4 10.2h.1c-.1-.7-.2-1.5-.2-2.4v-7.8h2.4v14.3z"></path>
    </g>
    <path fill="#FFF" d="M536.7 338.9v-14.3h2.5v14.3h-2.5zM545.4 338.9h-2.6V327H540v-2.3h8.1v2.3h-2.7v11.9z"></path>
    <g fill="#FFF">
      <path d="M546.1 337.5c0-.5.1-.9.4-1.2s.7-.4 1.2-.4.9.1 1.2.4.4.7.4 1.2-.1.9-.4 1.2-.7.4-1.2.4-.9-.1-1.2-.4-.4-.7-.4-1.2zM550.5 337.5c0-.5.1-.9.4-1.2s.7-.4 1.2-.4.9.1 1.2.4.4.7.4 1.2-.1.9-.4 1.2-.7.4-1.2.4-.9-.1-1.2-.4-.4-.7-.4-1.2z"></path>
    </g>
    <path fill="#FFF" d="M554.5 337.5c0-.5.1-.9.4-1.2.3-.3.7-.4 1.2-.4s.9.1 1.2.4.4.7.4 1.2-.1.9-.4 1.2-.7.4-1.2.4-.9-.1-1.2-.4-.4-.7-.4-1.2z"></path>
  </g>
  <g>
    <path opacity=".9" fill="#FF0" d="M85.1 88.6h136v144.9h-20.4L173.3 262v-28.5H85.1z"></path>
    <path fill="#009BDF" d="M111.4 126.7l-.8-3.6h-3.7l-.8 3.6h-2.7l3.5-14.3h3.6l3.5 14.3h-2.6zm-1.3-5.9l-.8-3.3c0-.2-.1-.7-.3-1.5s-.3-1.4-.3-1.6c-.1.6-.2 1.2-.3 1.9s-.5 2.2-1 4.6h2.7zM125.5 126.7h-3.3l-1.4-7.5c-.2-1-.4-2.2-.5-3.6l-.1.7-.4 2.9-1.4 7.4h-3.3l-2.6-14.3h2.6l1.3 8.1c.1.8.3 2.1.5 3.8.2-1.7.3-3 .5-3.7l1.5-8.1h2.8l1.5 8.1c.2 1.2.4 2.5.5 3.8.2-1.9.4-3.2.5-3.8l1.2-8.1h2.6l-2.5 14.3zM134.8 126.7h-6.4v-14.3h6.4v2.3H131v3.4h3.5v2.3H131v4h3.8v2.3zM142.2 122.8c0 1.3-.3 2.4-1 3.1s-1.6 1.1-2.9 1.1c-1.2 0-2.3-.2-3.2-.7v-2.6c1.1.7 2 1 2.9 1 .5 0 .9-.1 1.1-.4s.4-.7.4-1.1c0-.5-.2-.9-.5-1.3s-.8-.8-1.5-1.3c-.6-.4-1.1-.8-1.4-1.2s-.6-.8-.7-1.3-.3-1-.3-1.7c0-1.2.3-2.2 1-2.9s1.6-1.1 2.7-1.1 2.1.3 3.2.9l-.9 2.1c-.3-.2-.6-.3-1-.5s-.7-.2-1.1-.2c-.4 0-.8.1-1 .4s-.3.7-.3 1.2.1.9.4 1.3.8.8 1.5 1.2c.9.6 1.6 1.3 1.9 1.9s.7 1.3.7 2.1zM152.6 119.6c0 2.4-.4 4.2-1.3 5.4s-2.2 1.9-3.8 1.9c-1.7 0-2.9-.6-3.8-1.9s-1.3-3.1-1.3-5.5.4-4.2 1.3-5.4 2.2-1.9 3.8-1.9c1.6 0 2.9.6 3.8 1.9s1.3 3.1 1.3 5.5zm-7.6 0c0 1.6.2 2.9.6 3.7s1 1.3 1.8 1.3c1.6 0 2.4-1.7 2.4-5s-.8-5-2.4-5c-.8 0-1.4.4-1.8 1.3s-.6 2-.6 3.7zM158.5 126.7l-2.7-12.2h-.1c.1.9.2 1.8.2 2.6v9.6h-2.5v-14.3h4.1l2.4 11.2h.1l2.4-11.2h4.1v14.3H164V117c0-.8 0-1.6.1-2.5h-.1l-2.7 12.1h-2.8zM174.4 126.7H168v-14.3h6.4v2.3h-3.8v3.4h3.5v2.3h-3.5v4h3.8v2.3zM175.1 125.4c0-.5.1-.9.4-1.2s.7-.4 1.2-.4.9.1 1.2.4.4.7.4 1.2-.1.9-.4 1.2-.7.4-1.2.4-.9-.1-1.2-.4-.4-.7-.4-1.2zm2.7-3.3h-2.1l-.5-9.7h3.1l-.5 9.7zM104.7 131.2h3.6c1.5 0 2.6.3 3.2.9s1 1.5 1 2.7c0 .8-.2 1.5-.5 2.1s-.8.9-1.5 1v.1c.8.2 1.4.6 1.7 1.1s.5 1.3.5 2.2c0 1.3-.3 2.3-1 3s-1.6 1.1-2.8 1.1h-4.3v-14.2zm2.5 5.8h1.2c.6 0 1-.1 1.2-.4s.3-.7.3-1.3-.1-1-.4-1.3-.7-.4-1.2-.4h-1.1v3.4zm0 2.2v4h1.3c.6 0 1-.2 1.2-.5s.4-.9.4-1.6c0-1.3-.6-1.9-1.7-1.9h-1.2zM122.4 131.2v9.2c0 1.7-.4 3-1.2 3.9s-1.9 1.3-3.3 1.3-2.5-.4-3.2-1.3-1.1-2.2-1.1-3.9v-9.2h2.6v9.4c0 1.8.6 2.7 1.8 2.7.6 0 1-.2 1.3-.7s.5-1.1.5-2v-9.5h2.6zM127.1 136.9l1.9-5.6h2.8l-3.4 8.6v5.7h-2.6V140l-3.4-8.7h2.8l1.9 5.6zM141.5 145.5h-2.6v-8.4c0-.9 0-2 .1-3.1 0 .1-.2.3-.5.6s-.9.9-1.7 1.8l-1.5-1.6 3.8-3.5h2.4v14.2zM109 156.4h4.4v7.3c-1.2.5-2.6.8-3.9.8-1.7 0-2.9-.6-3.8-1.9s-1.3-3.1-1.3-5.5c0-2.3.5-4.1 1.5-5.4s2.5-1.9 4.3-1.9c1.1 0 2.2.3 3.3.9l-.8 2.2c-.8-.5-1.6-.7-2.3-.7-1 0-1.8.5-2.4 1.4s-.9 2.1-.9 3.7.2 2.8.6 3.7 1 1.3 1.9 1.3c.4 0 .9-.1 1.3-.2v-3.3H109v-2.4zM120.8 164.3h-6.4V150h6.4v2.3H117v3.4h3.5v2.3H117v4h3.8v2.3zM126.1 164.3h-2.6v-11.9h-2.7V150h8.1v2.3h-2.7v12zM136.5 155.3c1.1 0 1.9.4 2.6 1.1s1 1.8 1 3.1c0 1.6-.4 2.8-1.2 3.6s-1.9 1.3-3.3 1.3c-1.2 0-2.3-.2-3-.7v-2.5c.3.2.8.5 1.3.6s1 .3 1.5.3c1.4 0 2.1-.8 2.1-2.4 0-1.5-.7-2.3-2-2.3-.5 0-1.1.1-1.7.3l-.9-.6.4-7.2h6.1v2.4h-3.8l-.2 3.1c.2 0 .6-.1 1.1-.1z"></path>
    <g fill="#009BDF">
      <path d="M108.1 174.4l1.9-5.6h2.8l-3.4 8.6v5.7h-2.6v-5.6l-3.4-8.7h2.8l1.9 5.6zM119.5 183h-6.4v-14.3h6.4v2.3h-3.8v3.4h3.5v2.3h-3.5v4h3.8v2.3zM127.1 179.1c0 1.3-.3 2.4-1 3.1s-1.6 1.1-2.9 1.1c-1.2 0-2.3-.2-3.2-.7V180c1.1.7 2 1 2.9 1 .5 0 .9-.1 1.1-.4s.4-.7.4-1.1c0-.5-.2-.9-.5-1.3s-.8-.8-1.5-1.3c-.6-.4-1.1-.8-1.4-1.2s-.6-.8-.7-1.3-.3-1-.3-1.7c0-1.2.3-2.2 1-2.9s1.6-1.1 2.7-1.1 2.1.3 3.2.9l-.9 2.1c-.3-.2-.6-.3-1-.5s-.7-.2-1.1-.2c-.4 0-.8.1-1 .4s-.3.7-.3 1.2.1.9.4 1.3.8.8 1.5 1.2c.9.6 1.6 1.3 1.9 1.9s.7 1.3.7 2.1zM130.8 180.9c-.3 1.3-.9 2.9-1.7 4.7h-2c.4-1.7.8-3.4 1-4.9h2.6l.1.2z"></path>
    </g>
    <g fill="#009BDF">
      <path d="M147 183h-3.3l-1.4-7.5c-.2-1-.4-2.2-.5-3.6l-.1.7-.4 2.9-1.3 7.5h-3.3l-2.6-14.3h2.6l1.3 8.1c.1.8.3 2.1.5 3.8.2-1.7.3-3 .5-3.7l1.5-8.1h2.8l1.5 8.1c.2 1.2.4 2.5.5 3.8.2-1.9.4-3.2.5-3.8l1.2-8.1h2.6L147 183zM156.5 183H150v-14.3h6.4v2.3h-3.8v3.4h3.5v2.3h-3.5v4h3.8v2.3zM160.1 168.8l.1.2c-.3 1.3-.9 2.8-1.7 4.7h-2c.4-1.7.7-3.3 1-4.9h2.6zM163.3 177.5v5.6h-2.7v-14.3h3.5c1.5 0 2.6.3 3.3 1s1 1.8 1 3.2c0 1.8-.6 3.1-1.8 3.8l2.7 6.3h-2.8l-2.3-5.6h-.9zm0-2.3h.7c.6 0 1.1-.2 1.3-.5s.4-.9.4-1.6c0-.7-.1-1.2-.4-1.6s-.7-.5-1.3-.5h-.7v4.2z"></path>
    </g>
    <path fill="#009BDF" d="M175.3 183h-6.4v-14.3h6.4v2.3h-3.8v3.4h3.5v2.3h-3.5v4h3.8v2.3zM109 193.9h4.4v7.3c-1.2.5-2.6.8-3.9.8-1.7 0-2.9-.6-3.8-1.9s-1.3-3.1-1.3-5.5c0-2.3.5-4.1 1.5-5.4s2.5-1.9 4.3-1.9c1.1 0 2.2.3 3.3.9l-.8 2.2c-.8-.5-1.6-.7-2.3-.7-1 0-1.8.5-2.4 1.4s-.9 2.1-.9 3.7.2 2.8.6 3.7 1 1.3 1.9 1.3c.4 0 .9-.1 1.3-.2v-3.3H109v-2.4z"></path>
    <g fill="#009BDF">
      <path d="M124.2 194.7c0 2.4-.4 4.2-1.3 5.4s-2.2 1.9-3.8 1.9c-1.7 0-2.9-.6-3.8-1.9s-1.3-3.1-1.3-5.5.4-4.2 1.3-5.4 2.2-1.9 3.8-1.9c1.6 0 2.9.6 3.8 1.9s1.3 3.1 1.3 5.5zm-7.6 0c0 1.6.2 2.9.6 3.7s1 1.3 1.8 1.3c1.6 0 2.4-1.7 2.4-5s-.8-5-2.4-5c-.8 0-1.4.4-1.8 1.3s-.6 2-.6 3.7zM125.7 201.8v-14.3h2.5v14.3h-2.5zM140.3 201.8H137l-4.4-10.3h-.1c.2.8.2 1.6.2 2.5v7.8h-2.5v-14.3h3.3l4.4 10.2h.1c-.1-.7-.2-1.5-.2-2.4v-7.8h2.4v14.3z"></path>
    </g>
    <path fill="#009BDF" d="M145.5 193.9h4.4v7.3c-1.2.5-2.6.8-3.9.8-1.7 0-2.9-.6-3.8-1.9s-1.3-3.1-1.3-5.5c0-2.3.5-4.1 1.5-5.4s2.5-1.9 4.3-1.9c1.1 0 2.2.3 3.3.9l-.8 2.2c-.8-.5-1.6-.7-2.3-.7-1 0-1.8.5-2.4 1.4s-.9 2.1-.9 3.7.2 2.8.6 3.7 1 1.3 1.9 1.3c.4 0 .9-.1 1.3-.2v-3.3h-1.8v-2.4z"></path>
    <g fill="#009BDF">
      <path d="M159.7 201.8l-2.7-12.2h-.1c.1.9.2 1.8.2 2.6v9.6h-2.5v-14.3h4.1l2.4 11.2h.1l2.4-11.2h4.1v14.3h-2.5v-9.7c0-.8 0-1.6.1-2.5h-.1l-2.7 12.1h-2.8zM176 201.8l-.8-3.6h-3.7l-.8 3.6H168l3.5-14.3h3.6l3.5 14.3H176zm-1.3-5.9l-.8-3.3c0-.2-.1-.7-.3-1.5s-.3-1.4-.3-1.6c-.1.6-.2 1.2-.3 1.9s-.5 2.2-1 4.6h2.7z"></path>
    </g>
    <path fill="#009BDF" d="M187.7 194.5c0 2.4-.5 4.2-1.4 5.4s-2.3 1.9-4.1 1.9h-3.5v-14.3h3.8c1.7 0 3 .6 3.9 1.8s1.3 3 1.3 5.2zm-2.7.1c0-3.2-.9-4.8-2.6-4.8h-1.1v9.7h.9c1 0 1.7-.4 2.1-1.2s.7-2.1.7-3.7zM188.4 200.5c0-.5.1-.9.4-1.2s.7-.4 1.2-.4.9.1 1.2.4.4.7.4 1.2-.1.9-.4 1.2-.7.4-1.2.4-.9-.1-1.2-.4-.4-.7-.4-1.2zm2.7-3.3H189l-.5-9.7h3.1l-.5 9.7z"></path>
  </g>
  <g>
    <path fill="#640C66" d="M417 77.8l-13.2 100.9 109.9 8-8.4 60.5 61.5-60.6 53.1 5.9 22.6-114.9z"></path>
    <path fill="#FFF" d="M440 104.6c-.8 0-1.4.4-1.8 1.3s-.7 2.1-.7 3.7c0 3.3.9 5 2.6 5 .8 0 1.5-.2 2.4-.7v2.4c-.7.5-1.6.7-2.7.7-1.6 0-2.8-.6-3.7-1.9s-1.3-3.1-1.3-5.4.4-4.1 1.3-5.4 2.1-1.9 3.7-1.9c.5 0 1 .1 1.5.2s1 .4 1.5.8l-.9 2.2-.9-.6c-.3-.2-.6-.4-1-.4zM453.2 109.6c0 2.4-.4 4.2-1.3 5.4s-2.2 1.9-3.8 1.9c-1.7 0-2.9-.6-3.8-1.9s-1.3-3.1-1.3-5.5.4-4.2 1.3-5.4 2.2-1.9 3.8-1.9c1.6 0 2.9.6 3.8 1.9s1.3 3.1 1.3 5.5zm-7.6 0c0 1.6.2 2.9.6 3.7s1 1.3 1.8 1.3c1.6 0 2.4-1.7 2.4-5s-.8-5-2.4-5c-.8 0-1.4.4-1.8 1.3s-.6 2-.6 3.7zM464 116.7h-3.2l-4.4-10.3h-.1c.2.8.2 1.6.2 2.5v7.8H454v-14.3h3.3l4.4 10.2h.1c-.1-.7-.2-1.5-.2-2.4v-7.8h2.4v14.3zM471.9 112.8c0 1.3-.3 2.4-1 3.1s-1.6 1.1-2.9 1.1c-1.2 0-2.3-.2-3.2-.7v-2.6c1.1.7 2 1 2.9 1 .5 0 .9-.1 1.1-.4s.4-.7.4-1.1c0-.5-.2-.9-.5-1.3s-.8-.8-1.5-1.3c-.6-.4-1.1-.8-1.4-1.2s-.6-.8-.7-1.3-.3-1-.3-1.7c0-1.2.3-2.2 1-2.9s1.6-1.1 2.7-1.1 2.1.3 3.2.9l-.9 2.1c-.3-.2-.6-.3-1-.5s-.7-.2-1.1-.2c-.4 0-.8.1-1 .4s-.3.7-.3 1.2.1.9.4 1.3.8.8 1.5 1.2c.9.6 1.6 1.3 1.9 1.9s.7 1.3.7 2.1zM472.9 116.7v-14.3h2.5v14.3h-2.5zM486.3 109.5c0 2.4-.5 4.2-1.4 5.4s-2.3 1.9-4.1 1.9h-3.5v-14.3h3.8c1.7 0 3 .6 3.9 1.8s1.3 2.9 1.3 5.2zm-2.7 0c0-3.2-.9-4.8-2.6-4.8h-1.1v9.7h.9c1 0 1.7-.4 2.1-1.2s.7-2 .7-3.7z"></path>
    <g fill="#FFF">
      <path d="M493.7 116.7h-6.4v-14.3h6.4v2.3h-3.8v3.4h3.5v2.3h-3.5v4h3.8v2.3zM497.4 111.2v5.6h-2.7v-14.3h3.5c1.5 0 2.6.3 3.3 1s1 1.8 1 3.2c0 1.8-.6 3.1-1.8 3.8l2.7 6.3h-2.8l-2.3-5.6h-.9zm0-2.3h.7c.6 0 1.1-.2 1.3-.5s.4-.9.4-1.6c0-.7-.1-1.2-.4-1.6s-.7-.5-1.3-.5h-.7v4.2z"></path>
    </g>
    <path fill="#FFF" d="M507.3 102.5h3.6c1.5 0 2.6.3 3.2.9s1 1.5 1 2.7c0 .8-.2 1.5-.5 2.1s-.8.9-1.5 1v.1c.8.2 1.4.6 1.7 1.1s.5 1.3.5 2.2c0 1.3-.3 2.3-1 3s-1.6 1.1-2.8 1.1h-4.3v-14.2zm2.5 5.7h1.2c.6 0 1-.1 1.2-.4s.3-.7.3-1.3-.1-1-.4-1.3-.7-.4-1.2-.4h-1.1v3.4zm0 2.2v4h1.3c.6 0 1-.2 1.2-.5s.4-.9.4-1.6c0-1.3-.6-1.9-1.7-1.9h-1.2zM516 116.7v-14.3h2.7v12h3.7v2.3H516z"></path>
    <path fill="#FFF" d="M529.7 116.7l-.8-3.6h-3.7l-.8 3.6h-2.7l3.5-14.3h3.6l3.5 14.3h-2.6zm-1.4-5.9l-.8-3.3c0-.2-.1-.7-.3-1.5-.2-.8-.3-1.4-.3-1.6-.1.6-.2 1.2-.3 1.9-.1.7-.5 2.2-1 4.6h2.7z"></path>
    <path fill="#FFF" d="M541.2 116.7h-2.7v-6.3H535v6.3h-2.7v-14.3h2.7v5.7h3.5v-5.7h2.7v14.3zM546.5 102.5h3.6c1.5 0 2.6.3 3.2.9s1 1.5 1 2.7c0 .8-.2 1.5-.5 2.1s-.8.9-1.5 1v.1c.8.2 1.4.6 1.7 1.1s.5 1.3.5 2.2c0 1.3-.3 2.3-1 3s-1.6 1.1-2.8 1.1h-4.3v-14.2zm2.5 5.7h1.2c.6 0 1-.1 1.2-.4s.3-.7.3-1.3-.1-1-.4-1.3-.7-.4-1.2-.4H549v3.4zm0 2.2v4h1.3c.6 0 1-.2 1.2-.5s.4-.9.4-1.6c0-1.3-.6-1.9-1.7-1.9H549zM555.2 116.7v-14.3h2.7v12h3.7v2.3h-6.4z"></path>
    <path fill="#FFF" d="M568.8 116.7l-.8-3.6h-3.7l-.8 3.6h-2.7l3.5-14.3h3.6l3.5 14.3h-2.6zm-1.3-5.9l-.8-3.3c0-.2-.1-.7-.3-1.5s-.3-1.4-.3-1.6c-.1.6-.2 1.2-.3 1.9s-.5 2.2-1 4.6h2.7zM580.4 116.7h-2.7v-6.3h-3.5v6.3h-2.7v-14.3h2.7v5.7h3.5v-5.7h2.7v14.3zM432.1 119.5h3.6c1.5 0 2.6.3 3.2.9s1 1.5 1 2.7c0 .8-.2 1.5-.5 2.1s-.8.9-1.5 1v.1c.8.2 1.4.6 1.7 1.1s.5 1.3.5 2.2c0 1.3-.3 2.3-1 3s-1.6 1.1-2.8 1.1H432v-14.2zm2.5 5.7h1.2c.6 0 1-.1 1.2-.4s.3-.7.3-1.3-.1-1-.4-1.3-.7-.4-1.2-.4h-1.1v3.4zm0 2.2v4h1.3c.6 0 1-.2 1.2-.5s.4-.9.4-1.6c0-1.3-.6-1.9-1.7-1.9h-1.2zM443.7 128.2v5.6H441v-14.3h3.5c1.5 0 2.6.3 3.3 1s1 1.8 1 3.2c0 1.8-.6 3.1-1.8 3.8l2.7 6.3h-2.8l-2.3-5.6h-.9zm0-2.3h.7c.6 0 1.1-.2 1.3-.5s.4-.9.4-1.6c0-.7-.1-1.2-.4-1.6s-.7-.5-1.3-.5h-.7v4.2zM456.3 133.7h-6.4v-14.3h6.4v2.3h-3.8v3.4h3.5v2.3h-3.5v4h3.8v2.3z"></path>
    <path fill="#FFF" d="M464 133.7l-.8-3.6h-3.7l-.8 3.6H456l3.5-14.3h3.6l3.5 14.3H464zm-1.4-5.9l-.8-3.3c0-.2-.1-.7-.3-1.5-.2-.8-.3-1.4-.3-1.6-.1.6-.2 1.2-.3 1.9-.1.7-.5 2.2-1 4.6h2.7z"></path>
    <g fill="#FFF">
      <path d="M475.6 133.7h-2.8l-2.3-6.1-1.1 1.1v5h-2.7v-14.3h2.7v7.1l.9-2.1 2.4-4.9h2.8l-3.3 6.2 3.4 8z"></path>
      <path d="M475.3 129.5v-2.3h4.9v2.3h-4.9zM487.6 133.7h-6.4v-14.3h6.4v2.3h-3.8v3.4h3.5v2.3h-3.5v4h3.8v2.3z"></path>
      <path d="M494.8 119.5h2.7l-3.4 14.3h-3.4l-3.3-14.3h2.7l1.9 8.7c.2.7.3 1.8.5 3.2.1-1.2.3-2.2.5-3.2l1.8-8.7zM504.2 133.7h-6.4v-14.3h6.4v2.3h-3.8v3.4h3.5v2.3h-3.5v4h3.8v2.3zM515.3 133.7H512l-4.4-10.3h-.1c.2.8.2 1.6.2 2.5v7.8h-2.5v-14.3h3.3l4.4 10.2h.1c-.1-.7-.2-1.5-.2-2.4v-7.8h2.4v14.3z"></path>
    </g>
    <path fill="#FFF" d="M526.1 129.8c0 1.3-.3 2.4-1 3.1s-1.6 1.1-2.9 1.1c-1.2 0-2.3-.2-3.2-.7v-2.6c1.1.7 2 1 2.9 1 .5 0 .9-.1 1.1-.4.3-.3.4-.7.4-1.1 0-.5-.2-.9-.5-1.3s-.8-.8-1.5-1.3c-.6-.4-1.1-.8-1.4-1.2-.3-.4-.6-.8-.7-1.3-.2-.5-.3-1-.3-1.7 0-1.2.3-2.2 1-2.9.7-.7 1.6-1.1 2.7-1.1s2.1.3 3.2.9l-.9 2.1c-.3-.2-.6-.3-1-.5s-.7-.2-1.1-.2c-.4 0-.8.1-1 .4-.2.3-.3.7-.3 1.2s.1.9.4 1.3c.3.4.8.8 1.4 1.2.9.6 1.6 1.3 1.9 1.9.7.5.8 1.3.8 2.1z"></path>
    <g fill="#FFF">
      <path d="M535.3 119.5v9.2c0 1.7-.4 3-1.2 3.9-.8.9-1.9 1.3-3.3 1.3s-2.5-.4-3.2-1.3-1.1-2.2-1.1-3.9v-9.2h2.6v9.4c0 1.8.6 2.7 1.8 2.7.6 0 1-.2 1.3-.7.3-.5.5-1.1.5-2v-9.5h2.6zM541.5 121.6c-.8 0-1.4.4-1.8 1.3s-.7 2.1-.7 3.7c0 3.3.9 5 2.6 5 .8 0 1.5-.2 2.4-.7v2.4c-.7.5-1.6.7-2.7.7-1.6 0-2.8-.6-3.7-1.9-.9-1.3-1.3-3.1-1.3-5.4s.4-4.1 1.3-5.4 2.1-1.9 3.7-1.9c.5 0 1 .1 1.5.2s1 .4 1.5.8l-.9 2.2-.9-.6c-.3-.2-.6-.4-1-.4zM549.4 121.6c-.8 0-1.4.4-1.8 1.3s-.7 2.1-.7 3.7c0 3.3.9 5 2.6 5 .8 0 1.5-.2 2.4-.7v2.4c-.7.5-1.6.7-2.7.7-1.6 0-2.8-.6-3.7-1.9-.9-1.3-1.3-3.1-1.3-5.4s.4-4.1 1.3-5.4 2.1-1.9 3.7-1.9c.5 0 1 .1 1.5.2s1 .4 1.5.8l-.9 2.2-.9-.6c-.3-.2-.6-.4-1-.4zM559.4 133.7H553v-14.3h6.4v2.3h-3.8v3.4h3.5v2.3h-3.5v4h3.8v2.3z"></path>
    </g>
    <path fill="#FFF" d="M566.6 129.8c0 1.3-.3 2.4-1 3.1s-1.6 1.1-2.9 1.1c-1.2 0-2.3-.2-3.2-.7v-2.6c1.1.7 2 1 2.9 1 .5 0 .9-.1 1.1-.4s.4-.7.4-1.1c0-.5-.2-.9-.5-1.3s-.8-.8-1.5-1.3c-.6-.4-1.1-.8-1.4-1.2s-.6-.8-.7-1.3-.3-1-.3-1.7c0-1.2.3-2.2 1-2.9s1.6-1.1 2.7-1.1 2.1.3 3.2.9l-.9 2.1c-.3-.2-.6-.3-1-.5s-.7-.2-1.1-.2c-.4 0-.8.1-1 .4s-.3.7-.3 1.2.1.9.4 1.3.8.8 1.5 1.2c.9.6 1.6 1.3 1.9 1.9s.7 1.3.7 2.1z"></path>
    <path fill="#FFF" d="M573.6 129.8c0 1.3-.3 2.4-1 3.1s-1.6 1.1-2.9 1.1c-1.2 0-2.3-.2-3.2-.7v-2.6c1.1.7 2 1 2.9 1 .5 0 .9-.1 1.1-.4.3-.3.4-.7.4-1.1 0-.5-.2-.9-.5-1.3s-.8-.8-1.5-1.3c-.6-.4-1.1-.8-1.4-1.2-.3-.4-.6-.8-.7-1.3-.2-.5-.3-1-.3-1.7 0-1.2.3-2.2 1-2.9.7-.7 1.6-1.1 2.7-1.1s2.1.3 3.2.9l-.9 2.1c-.3-.2-.6-.3-1-.5s-.7-.2-1.1-.2c-.4 0-.8.1-1 .4-.2.3-.3.7-.3 1.2s.1.9.4 1.3c.3.4.8.8 1.4 1.2.9.6 1.6 1.3 1.9 1.9.6.5.8 1.3.8 2.1z"></path>
    <g fill="#FFF">
      <path d="M454.5 150.7h-2.6v-11.9h-2.7v-2.3h8.1v2.3h-2.7v11.9zM466.5 136.5v9.2c0 1.7-.4 3-1.2 3.9s-1.9 1.3-3.3 1.3-2.5-.4-3.2-1.3-1.1-2.2-1.1-3.9v-9.2h2.6v9.4c0 1.8.6 2.7 1.8 2.7.6 0 1-.2 1.3-.7s.5-1.1.5-2v-9.5h2.6zM470.6 145.2v5.6H468v-14.3h3.5c1.5 0 2.6.3 3.3 1s1 1.8 1 3.2c0 1.8-.6 3.1-1.8 3.8l2.7 6.3h-2.8l-2.3-5.6h-1zm0-2.3h.7c.6 0 1.1-.2 1.3-.5s.4-.9.4-1.6c0-.7-.1-1.2-.4-1.6s-.7-.5-1.3-.5h-.7v4.2zM487 150.7h-3.2l-4.4-10.3h-.1c.2.8.2 1.6.2 2.5v7.8H477v-14.3h3.3l4.4 10.2h.1c-.1-.7-.2-1.5-.2-2.4v-7.8h2.4v14.3z"></path>
    </g>
    <path fill="#FFF" d="M501.3 143.6c0 2.4-.4 4.2-1.3 5.4-.9 1.3-2.2 1.9-3.8 1.9-1.7 0-2.9-.6-3.8-1.9-.9-1.3-1.3-3.1-1.3-5.5s.4-4.2 1.3-5.4c.9-1.3 2.2-1.9 3.8-1.9 1.6 0 2.9.6 3.8 1.9s1.3 3.1 1.3 5.5zm-7.5 0c0 1.6.2 2.9.6 3.7s1 1.3 1.8 1.3c1.6 0 2.4-1.7 2.4-5s-.8-5-2.4-5c-.8 0-1.4.4-1.8 1.3s-.6 2-.6 3.7zM508.4 136.5h2.7l-3.4 14.3h-3.4l-3.3-14.3h2.7l1.9 8.7c.2.7.3 1.8.5 3.2.1-1.2.3-2.2.5-3.2l1.8-8.7z"></path>
    <g fill="#FFF">
      <path d="M517.6 150.7h-6.4v-14.3h6.4v2.3h-3.8v3.4h3.5v2.3h-3.5v4h3.8v2.3zM521.3 145.2v5.6h-2.7v-14.3h3.5c1.5 0 2.6.3 3.3 1s1 1.8 1 3.2c0 1.8-.6 3.1-1.8 3.8l2.7 6.3h-2.8l-2.3-5.6h-.9zm0-2.3h.7c.6 0 1.1-.2 1.3-.5s.4-.9.4-1.6c0-.7-.1-1.2-.4-1.6s-.7-.5-1.3-.5h-.7v4.2z"></path>
    </g>
    <path fill="#FFF" d="M531.2 136.5h3.6c1.5 0 2.6.3 3.2.9s1 1.5 1 2.7c0 .8-.2 1.5-.5 2.1s-.8.9-1.5 1v.1c.8.2 1.4.6 1.7 1.1s.5 1.3.5 2.2c0 1.3-.3 2.3-1 3s-1.6 1.1-2.8 1.1h-4.3v-14.2zm2.5 5.7h1.2c.6 0 1-.1 1.2-.4s.3-.7.3-1.3-.1-1-.4-1.3-.7-.4-1.2-.4h-1.1v3.4zm0 2.2v4h1.3c.6 0 1-.2 1.2-.5s.4-.9.4-1.6c0-1.3-.6-1.9-1.7-1.9h-1.2z"></path>
    <g fill="#FFF">
      <path d="M549.8 143.6c0 2.4-.4 4.2-1.3 5.4s-2.2 1.9-3.8 1.9c-1.7 0-2.9-.6-3.8-1.9s-1.3-3.1-1.3-5.5.4-4.2 1.3-5.4 2.2-1.9 3.8-1.9c1.6 0 2.9.6 3.8 1.9s1.3 3.1 1.3 5.5zm-7.6 0c0 1.6.2 2.9.6 3.7s1 1.3 1.8 1.3c1.6 0 2.4-1.7 2.4-5s-.8-5-2.4-5c-.8 0-1.4.4-1.8 1.3s-.6 2-.6 3.7zM560.7 143.6c0 2.4-.4 4.2-1.3 5.4s-2.2 1.9-3.8 1.9c-1.7 0-2.9-.6-3.8-1.9s-1.3-3.1-1.3-5.5.4-4.2 1.3-5.4 2.2-1.9 3.8-1.9c1.6 0 2.9.6 3.8 1.9s1.3 3.1 1.3 5.5zm-7.6 0c0 1.6.2 2.9.6 3.7s1 1.3 1.8 1.3c1.6 0 2.4-1.7 2.4-5s-.8-5-2.4-5c-.8 0-1.4.4-1.8 1.3s-.6 2-.6 3.7z"></path>
    </g>
    <path fill="#FFF" d="M566.5 150.7l-2.7-12.2h-.1c.1.9.2 1.8.2 2.6v9.6h-2.5v-14.3h4.1l2.4 11.2h.1l2.4-11.2h4.1v14.3H572V141c0-.8 0-1.6.1-2.5h-.1l-2.7 12.1h-2.8z"></path>
  </g>
  <g>
    <path opacity=".9" fill="#FF0" d="M422.9 139.5l23 46.5 51.3 7.4-37.1 36.2 8.7 51.1-45.9-24.1-45.9 24.1 8.8-51.1-37.1-36.2L400 186z"></path>
    <path fill="#009BDF" d="M404.5 217.8l-.8-3.6H400l-.8 3.6h-2.7l3.5-14.3h3.6l3.5 14.3h-2.6zm-1.4-6l-.8-3.3c0-.2-.1-.7-.3-1.5s-.3-1.4-.3-1.6c-.1.6-.2 1.2-.3 1.9s-.5 2.2-1 4.6h2.7z"></path>
    <g fill="#009BDF">
      <path d="M421.1 217.8h-3.2l-4.4-10.3h-.1c.2.8.2 1.6.2 2.5v7.8h-2.5v-14.3h3.3l4.4 10.2h.1c-.1-.7-.2-1.5-.2-2.4v-7.8h2.4v14.3zM429.1 217.8h-6.4v-14.3h6.4v2.3h-3.8v3.4h3.5v2.3h-3.5v4h3.8v2.3z"></path>
    </g>
    <path fill="#009BDF" d="M441.4 217.8h-3.3l-1.4-7.5c-.2-1-.4-2.2-.5-3.6l-.1.7-.4 2.9-1.4 7.4H431l-2.6-14.3h2.6l1.3 8.1c.1.8.3 2.1.5 3.8.2-1.7.3-3 .5-3.7l1.5-8.1h2.8l1.5 8.1c.2 1.2.4 2.5.5 3.8.2-1.9.4-3.2.5-3.8l1.2-8.1h2.6l-2.5 14.3zM407.8 226.2l1.9-5.6h2.8l-3.4 8.6v5.7h-2.6v-5.6l-3.4-8.7h2.8l1.9 5.6zM422.3 227.6c0 2.4-.4 4.2-1.3 5.4s-2.2 1.9-3.8 1.9c-1.7 0-2.9-.6-3.8-1.9s-1.3-3.1-1.3-5.5.4-4.2 1.3-5.4 2.2-1.9 3.8-1.9c1.6 0 2.9.6 3.8 1.9s1.3 3.2 1.3 5.5zm-7.5 0c0 1.6.2 2.9.6 3.7s1 1.3 1.8 1.3c1.6 0 2.4-1.7 2.4-5s-.8-5-2.4-5c-.8 0-1.4.4-1.8 1.3s-.6 2.1-.6 3.7zM432 220.5v9.2c0 1.7-.4 3-1.2 3.9s-1.9 1.3-3.3 1.3-2.5-.4-3.2-1.3-1.1-2.2-1.1-3.9v-9.2h2.6v9.4c0 1.8.6 2.7 1.8 2.7.6 0 1-.2 1.3-.7s.5-1.1.5-2v-9.5h2.6zM433.1 233.5c0-.5.1-.9.4-1.2s.7-.4 1.2-.4.9.1 1.2.4.4.7.4 1.2-.1.9-.4 1.2-.7.4-1.2.4-.9-.1-1.2-.4-.4-.7-.4-1.2zm2.7-3.3h-2.1l-.5-9.7h3.1l-.5 9.7z"></path>
  </g>
  <g>
    <path opacity=".85" fill="#FF008C" d="M418.2 127.2l-25.3 11 21.6 17.2-27.3 4.1 16.4 22.2-27.4-3.1 10.1 25.7-25.7-10.1 3.1 27.4-22.2-16.4-4.1 27.3-17.2-21.6-11 25.3-11-25.3-17.2 21.6-4.1-27.3-22.2 16.4 3.1-27.4-25.6 10 10-25.6-27.4 3.1 16.4-22.2-27.3-4.1 21.6-17.2-25.3-11 25.3-11L203.9 99l27.3-4.1-16.4-22.2 27.4 3.1-10-25.7 25.6 10.1-3.1-27.4 22.2 16.4 4.1-27.3 17.2 21.6 11-25.3 11 25.3 17.2-21.6 4.1 27.3 22.2-16.4-3.1 27.4 25.7-10.1-10.1 25.7 27.4-3.1-16.4 22.2 27.3 4.1-21.6 17.2z"></path>
    <g fill="#FFF">
      <path d="M269.2 108.7h-3.3l-1.4-7.5c-.2-1-.4-2.2-.5-3.6l-.1.7-.4 2.9-1.4 7.4h-3.3l-2.6-14.3h2.6l1.3 8.1c.1.8.3 2.1.5 3.8.2-1.7.3-3 .5-3.7l1.5-8.1h2.8l1.5 8.1c.2 1.2.4 2.5.5 3.8.2-1.9.4-3.2.5-3.8l1.2-8.1h2.6l-2.5 14.3zM278.6 108.7h-6.4V94.4h6.4v2.3h-3.8v3.4h3.5v2.3h-3.5v4h3.8v2.3z"></path>
    </g>
    <path fill="#FFF" d="M287.4 108.7h-2.6V96.8h-2.7v-2.3h8.1v2.3h-2.7v11.9zM293.2 103.2v5.6h-2.7V94.4h3.5c1.5 0 2.6.3 3.3 1s1 1.8 1 3.2c0 1.8-.6 3.1-1.8 3.8l2.7 6.3h-2.8l-2.3-5.6h-.9zm0-2.3h.7c.6 0 1.1-.2 1.3-.5s.4-.9.4-1.6c0-.7-.1-1.2-.4-1.6s-.7-.5-1.3-.5h-.7v4.2z"></path>
    <path fill="#FFF" d="M302 100.1l1.9-5.6h2.8l-3.4 8.6v5.7h-2.6v-5.6l-3.4-8.7h2.8l1.9 5.6zM319.5 108.7h-2.7v-6.3h-3.5v6.3h-2.7V94.4h2.7v5.7h3.5v-5.7h2.7v14.3z"></path>
    <path fill="#FFF" d="M327.4 108.7l-.8-3.6h-3.7l-.8 3.6h-2.7l3.5-14.3h3.6l3.5 14.3h-2.6zm-1.3-5.9l-.8-3.3c0-.2-.1-.7-.3-1.5s-.3-1.4-.3-1.6c-.1.6-.2 1.2-.3 1.9s-.5 2.2-1 4.6h2.7z"></path>
    <g fill="#FFF">
      <path d="M332.8 103.2v5.6h-2.7V94.4h3.5c1.5 0 2.6.3 3.3 1s1 1.8 1 3.2c0 1.8-.6 3.1-1.8 3.8l2.7 6.3H336l-2.3-5.6h-.9zm0-2.3h.7c.6 0 1.1-.2 1.3-.5s.4-.9.4-1.6c0-.7-.1-1.2-.4-1.6s-.7-.5-1.3-.5h-.7v4.2zM348.3 101.4c0 2.4-.5 4.2-1.4 5.4s-2.3 1.9-4.1 1.9h-3.5V94.4h3.8c1.7 0 3 .6 3.9 1.8s1.3 3 1.3 5.2zm-2.8.1c0-3.2-.9-4.8-2.6-4.8h-1.1v9.7h.9c1 0 1.7-.4 2.1-1.2s.7-2 .7-3.7z"></path>
    </g>
    <path fill="#FFF" d="M355.4 108.7H349V94.4h6.4v2.3h-3.8v3.4h3.5v2.3h-3.5v4h3.8v2.3zM358.9 103.2v5.6h-2.7V94.4h3.5c1.5 0 2.6.3 3.3 1s1 1.8 1 3.2c0 1.8-.6 3.1-1.8 3.8l2.7 6.3h-2.8l-2.3-5.6h-.9zm0-2.3h.7c.6 0 1.1-.2 1.3-.5s.4-.9.4-1.6c0-.7-.1-1.2-.4-1.6s-.7-.5-1.3-.5h-.7v4.2z"></path>
    <g fill="#FFF">
      <path d="M249 125.7h-2.6v-8.4c0-.9 0-2 .1-3.1 0 .1-.2.3-.5.6s-.9.9-1.7 1.8l-1.5-1.6 3.8-3.5h2.4v14.2zM258.7 118.6c0 2.6-.3 4.5-.9 5.6s-1.6 1.7-3 1.7-2.4-.6-3-1.7-.9-3-.9-5.6c0-2.6.3-4.5.9-5.6s1.6-1.7 3-1.7 2.4.6 3 1.7.9 3 .9 5.6zm-5.2 0c0 2 .1 3.3.3 4s.5 1 1 1c.3 0 .6-.1.8-.4s.3-.8.4-1.5.1-1.7.1-3.1c0-2-.1-3.3-.3-4s-.5-1.1-1-1.1-.8.4-1 1.1-.3 2-.3 4zM266.9 118.6c0 2.6-.3 4.5-.9 5.6s-1.6 1.7-3 1.7-2.4-.6-3-1.7-.9-3-.9-5.6c0-2.6.3-4.5.9-5.6s1.6-1.7 3-1.7 2.4.6 3 1.7.9 3 .9 5.6zm-5.1 0c0 2 .1 3.3.3 4s.5 1 1 1c.3 0 .6-.1.8-.4s.3-.8.4-1.5.1-1.7.1-3.1c0-2-.1-3.3-.3-4s-.5-1.1-1-1.1-.8.4-1 1.1-.3 2-.3 4z"></path>
    </g>
    <path fill="#FFF" d="M272.4 115.7c0 1.5-.2 2.6-.7 3.4s-1.2 1.1-2.1 1.1c-1 0-1.7-.4-2.1-1.1s-.7-1.9-.7-3.3c0-3 .9-4.5 2.8-4.5 1.8-.1 2.8 1.4 2.8 4.4zm-3.7 0c0 .9.1 1.6.2 2s.3.6.6.6.5-.2.6-.6.2-1.1.2-2-.1-1.6-.2-2-.3-.6-.6-.6-.5.2-.6.6-.2 1.1-.2 2zm8.9-4.3l-5.9 14.3h-2l5.9-14.3h2zm3 10c0 1.5-.2 2.6-.7 3.3s-1.2 1.1-2.1 1.1c-1 0-1.7-.4-2.1-1.1s-.7-1.9-.7-3.3c0-1.5.2-2.6.7-3.3s1.2-1.2 2.1-1.2c1.8 0 2.8 1.5 2.8 4.5zm-3.6 0c0 .9.1 1.6.2 2s.3.6.6.6.5-.2.6-.6.2-1.1.2-2-.1-1.6-.2-2-.3-.6-.6-.6-.5.2-.6.6-.2 1.1-.2 2zM291.6 121.8c0 1.3-.3 2.4-1 3.1s-1.6 1.1-2.9 1.1c-1.2 0-2.3-.2-3.2-.7v-2.6c1.1.7 2 1 2.9 1 .5 0 .9-.1 1.1-.4s.4-.7.4-1.1c0-.5-.2-.9-.5-1.3s-.8-.8-1.5-1.3c-.6-.4-1.1-.8-1.4-1.2s-.6-.8-.7-1.3-.3-1-.3-1.7c0-1.2.3-2.2 1-2.9s1.6-1.1 2.7-1.1 2.1.3 3.2.9l-.9 2.1c-.3-.2-.6-.3-1-.5s-.7-.2-1.1-.2c-.4 0-.8.1-1 .4s-.3.7-.3 1.2.1.9.4 1.3.8.8 1.5 1.2c.9.6 1.6 1.3 1.9 1.9s.7 1.3.7 2.1z"></path>
    <path fill="#FFF" d="M298.9 125.7l-.8-3.6h-3.7l-.8 3.6h-2.7l3.5-14.3h3.6l3.5 14.3h-2.6zm-1.3-5.9l-.8-3.3c0-.2-.1-.7-.3-1.5s-.3-1.4-.3-1.6c-.1.6-.2 1.2-.3 1.9s-.5 2.2-1 4.6h2.7z"></path>
    <g fill="#FFF">
      <path d="M304.2 125.7h-2.6v-11.9h-2.7v-2.3h8.1v2.3h-2.7v11.9zM307.9 125.7v-14.3h2.5v14.3h-2.5z"></path>
    </g>
    <path fill="#FFF" d="M318.6 121.8c0 1.3-.3 2.4-1 3.1s-1.6 1.1-2.9 1.1c-1.2 0-2.3-.2-3.2-.7v-2.6c1.1.7 2 1 2.9 1 .5 0 .9-.1 1.1-.4s.4-.7.4-1.1c0-.5-.2-.9-.5-1.3s-.8-.8-1.5-1.3c-.6-.4-1.1-.8-1.4-1.2s-.6-.8-.7-1.3-.3-1-.3-1.7c0-1.2.3-2.2 1-2.9s1.6-1.1 2.7-1.1 2.1.3 3.2.9l-.9 2.1c-.3-.2-.6-.3-1-.5s-.7-.2-1.1-.2c-.4 0-.8.1-1 .4s-.3.7-.3 1.2.1.9.4 1.3.8.8 1.5 1.2c.9.6 1.6 1.3 1.9 1.9s.7 1.3.7 2.1zM321.8 125.7h-2.6v-14.3h6.4v2.3h-3.8v4h3.5v2.3h-3.5v5.7z"></path>
    <path fill="#FFF" d="M331.8 125.7l-.8-3.6h-3.7l-.8 3.6h-2.7l3.5-14.3h3.6l3.5 14.3h-2.6zm-1.3-5.9l-.8-3.3c0-.2-.1-.7-.3-1.5s-.3-1.4-.3-1.6c-.1.6-.2 1.2-.3 1.9s-.5 2.2-1 4.6h2.7z"></path>
    <g fill="#FFF">
      <path d="M339.3 113.6c-.8 0-1.4.4-1.8 1.3s-.7 2.1-.7 3.7c0 3.3.9 5 2.6 5 .8 0 1.5-.2 2.4-.7v2.4c-.7.5-1.6.7-2.7.7-1.6 0-2.8-.6-3.7-1.9s-1.3-3.1-1.3-5.4.4-4.1 1.3-5.4 2.1-1.9 3.7-1.9c.5 0 1 .1 1.5.2s1 .4 1.5.8l-.9 2.2-.9-.6c-.3-.2-.7-.4-1-.4z"></path>
      <path d="M347.2 125.7h-2.6v-11.9h-2.7v-2.3h8.1v2.3h-2.7v11.9zM350.9 125.7v-14.3h2.5v14.3h-2.5zM365.2 118.6c0 2.4-.4 4.2-1.3 5.4-.9 1.3-2.2 1.9-3.8 1.9-1.7 0-2.9-.6-3.8-1.9-.9-1.3-1.3-3.1-1.3-5.5s.4-4.2 1.3-5.4c.9-1.3 2.2-1.9 3.8-1.9 1.6 0 2.9.6 3.8 1.9s1.3 3.1 1.3 5.5zm-7.5 0c0 1.6.2 2.9.6 3.7s1 1.3 1.8 1.3c1.6 0 2.4-1.7 2.4-5s-.8-5-2.4-5c-.8 0-1.4.4-1.8 1.3s-.6 2-.6 3.7z"></path>
    </g>
    <path fill="#FFF" d="M375.6 125.7h-3.2l-4.4-10.3h-.1c.2.8.2 1.6.2 2.5v7.8h-2.5v-14.3h3.3l4.4 10.2h.1c-.1-.7-.2-1.5-.2-2.4v-7.8h2.4v14.3z"></path>
    <g fill="#FFF">
      <path d="M272 134.8h4.4v7.3c-1.2.5-2.6.8-3.9.8-1.7 0-2.9-.6-3.8-1.9s-1.3-3.1-1.3-5.5c0-2.3.5-4.1 1.5-5.4s2.5-1.9 4.3-1.9c1.1 0 2.2.3 3.3.9l-.8 2.2c-.8-.5-1.6-.7-2.3-.7-1 0-1.8.5-2.4 1.4s-.9 2.1-.9 3.7.2 2.8.6 3.7 1 1.3 1.9 1.3c.4 0 .9-.1 1.3-.2v-3.3H272v-2.4zM286.4 128.4v9.2c0 1.7-.4 3-1.2 3.9s-1.9 1.3-3.3 1.3-2.5-.4-3.2-1.3-1.1-2.2-1.1-3.9v-9.2h2.6v9.4c0 1.8.6 2.7 1.8 2.7.6 0 1-.2 1.3-.7s.5-1.1.5-2v-9.5h2.6zM294.6 142.7l-.8-3.6H290l-.8 3.6h-2.7l3.5-14.3h3.6l3.5 14.3h-2.5zm-1.3-5.9l-.8-3.3c0-.2-.1-.7-.3-1.5s-.3-1.4-.3-1.6c-.1.6-.2 1.2-.3 1.9s-.5 2.2-1 4.6h2.7z"></path>
    </g>
    <path fill="#FFF" d="M299.6 137.2v5.6H297v-14.3h3.5c1.5 0 2.6.3 3.3 1s1 1.8 1 3.2c0 1.8-.6 3.1-1.8 3.8l2.7 6.3h-2.8l-2.3-5.6h-1zm0-2.3h.7c.6 0 1.1-.2 1.3-.5s.4-.9.4-1.6c0-.7-.1-1.2-.4-1.6s-.7-.5-1.3-.5h-.7v4.2z"></path>
    <g fill="#FFF">
      <path d="M312.5 142.7l-.8-3.6H308l-.8 3.6h-2.7l3.5-14.3h3.6l3.5 14.3h-2.6zm-1.3-5.9l-.8-3.3c0-.2-.1-.7-.3-1.5s-.3-1.4-.3-1.6c-.1.6-.2 1.2-.3 1.9s-.5 2.2-1 4.6h2.7zM325.4 142.7h-3.2l-4.4-10.3h-.1c.2.8.2 1.6.2 2.5v7.8h-2.5v-14.3h3.3l4.4 10.2h.1c-.1-.7-.2-1.5-.2-2.4v-7.8h2.4v14.3zM331.3 142.7h-2.6v-11.9H326v-2.3h8.1v2.3h-2.7v11.9zM341 142.7h-6.4v-14.3h6.4v2.3h-3.8v3.4h3.5v2.3h-3.5v4h3.8v2.3z"></path>
    </g>
    <path fill="#FFF" d="M347.8 142.7h-6.4v-14.3h6.4v2.3H344v3.4h3.5v2.3H344v4h3.8v2.3zM357.8 135.4c0 2.4-.5 4.2-1.4 5.4-1 1.2-2.3 1.9-4.1 1.9h-3.5v-14.3h3.8c1.7 0 3 .6 3.9 1.8.8 1.3 1.3 3 1.3 5.2zm-2.7.1c0-3.2-.9-4.8-2.6-4.8h-1.1v9.7h.9c1 0 1.7-.4 2.1-1.2.4-.8.7-2 .7-3.7z"></path>
    <g fill="#FFF">
      <path d="M284.4 155.8c0 1.3-.3 2.4-1 3.1s-1.6 1.1-2.9 1.1c-1.2 0-2.3-.2-3.2-.7v-2.6c1.1.7 2 1 2.9 1 .5 0 .9-.1 1.1-.4s.4-.7.4-1.1c0-.5-.2-.9-.5-1.3s-.8-.8-1.5-1.3c-.6-.4-1.1-.8-1.4-1.2s-.6-.8-.7-1.3-.3-1-.3-1.7c0-1.2.3-2.2 1-2.9s1.6-1.1 2.7-1.1 2.1.3 3.2.9l-.9 2.1c-.3-.2-.6-.3-1-.5s-.7-.2-1.1-.2c-.4 0-.8.1-1 .4s-.3.7-.3 1.2.1.9.4 1.3.8.8 1.5 1.2c.9.6 1.6 1.3 1.9 1.9s.7 1.3.7 2.1zM285.6 159.7v-14.3h2.5v14.3h-2.5zM294.5 151.8h4.4v7.3c-1.2.5-2.6.8-3.9.8-1.7 0-2.9-.6-3.8-1.9s-1.3-3.1-1.3-5.5c0-2.3.5-4.1 1.5-5.4s2.5-1.9 4.3-1.9c1.1 0 2.2.3 3.3.9l-.8 2.2c-.8-.5-1.6-.7-2.3-.7-1 0-1.8.5-2.4 1.4s-.9 2.1-.9 3.7.2 2.8.6 3.7 1 1.3 1.9 1.3c.4 0 .9-.1 1.3-.2v-3.3h-1.8v-2.4zM310 159.7h-3.2l-4.4-10.3h-.1c.2.8.2 1.6.2 2.5v7.8H300v-14.3h3.3l4.4 10.2h.1c-.1-.7-.2-1.5-.2-2.4v-7.8h2.4v14.3zM324.3 159.7h-2.7v-6.3h-3.5v6.3h-2.7v-14.3h2.7v5.7h3.5v-5.7h2.7v14.3zM332.2 159.7h-6.4v-14.3h6.4v2.3h-3.8v3.4h3.5v2.3h-3.5v4h3.8v2.3zM336 154.2v5.6h-2.7v-14.3h3.5c1.5 0 2.6.3 3.3 1s1 1.8 1 3.2c0 1.8-.6 3.1-1.8 3.8l2.7 6.3h-2.8l-2.3-5.6h-.9zm0-2.3h.7c.6 0 1.1-.2 1.3-.5s.4-.9.4-1.6c0-.7-.1-1.2-.4-1.6s-.7-.5-1.3-.5h-.7v4.2z"></path>
    </g>
    <path fill="#FFF" d="M347.3 159.7h-6.4v-14.3h6.4v2.3h-3.8v3.4h3.5v2.3h-3.5v4h3.8v2.3zM348 158.4c0-.5.1-.9.4-1.2s.7-.4 1.2-.4.9.1 1.2.4.4.7.4 1.2-.1.9-.4 1.2-.7.4-1.2.4-.9-.1-1.2-.4-.4-.7-.4-1.2zm2.7-3.3h-2.1l-.5-9.7h3.1l-.5 9.7z"></path>
  </g>
  <path opacity=".3" fill="#213B74" d="M398.4 247.9l51.5-4.7-4.7-51.5-51.5 4.7 4.7 51.5zm32.2-202.3L382.1 50l4.4 49 20.3 82.2 23-2.1 5.2-84.5-4.4-49z"></path>
  <path opacity=".15" fill="#FF2300" d="M590 285.7l-75.4-25.8-25.8 75.4 75.4 25.8 25.8-75.4zm-24.8-167.4l-23 128.4 33.7 11.5 60.3-115.7 24.5-71.8-70.9-24.2-24.6 71.8z"></path>
  <path opacity=".3" fill="#009BDF" d="M195.9 357.8l79.2-26.1-26.1-79.2-79.2 26.1 26.1 79.2zM172.6 28.3L98.1 52.9l24.9 75.4L184.9 250l35.3-11.7-22.7-134.6-24.9-75.4z"></path>
</svg>
