<svg
    xmlns="http://www.w3.org/2000/svg"
    class="brand_color outlined icon--who"
    viewBox="0 0 400 400"
>
  <path
        fill="currentColor"
        d="M194.565 185.32c16.821 0 30.836-13.455 30.836-30.273 0-16.82-14.016-30.836-30.836-30.836-16.819 0-30.836 13.455-30.836 30.275 0 16.818 14.017 30.834 30.836 30.834zm27.471 12.335h-54.943c-27.471 0-40.366 13.456-40.366 40.365v64.476c0 10.092 8.408 18.5 18.501 18.5h6.168V358c0 24.106 19.061 37 43.168 37 24.108 0 43.167-13.454 43.167-37v-37.004h6.168c10.094 0 18.502-8.408 18.502-18.5V238.02c.001-27.471-13.454-40.365-40.365-40.365zm140.378-15.265c7.417 0 13.486-6.068 13.486-13.485 0-7.418-6.069-13.488-13.486-13.488-7.418 0-13.487 5.733-13.487 13.488 0 7.416 6.069 13.485 13.487 13.485zm29.332 22.926c0-11.799-5.73-17.533-17.532-17.533h-23.938c-11.8 0-17.531 5.734-17.531 17.533V233.3c0 4.383 3.708 8.093 8.091 8.093h2.697v16.184c0 10.452 8.431 16.184 18.882 16.184 10.452 0 18.881-5.731 18.881-16.184v-16.184h2.695c4.385 0 8.094-3.71 8.094-8.093-.001-4.381-.001-21.578-.339-27.984zm-62.581 105.065c6.697 0 12.179-5.479 12.179-12.178s-5.481-12.178-12.179-12.178-12.179 5.176-12.179 12.178c0 6.698 5.481 12.178 12.179 12.178zm26.486 20.703c0-10.654-5.175-15.832-15.831-15.832h-21.616c-10.655 0-15.831 5.178-15.831 15.832v25.271c0 3.957 3.349 7.308 7.307 7.308h2.436v14.612c0 9.438 7.612 14.614 17.05 14.614s17.05-5.176 17.05-14.614v-14.612h2.434c3.959 0 7.308-3.351 7.308-7.308-.002-3.959-.002-19.487-.307-25.271zM72.378 30.49c6.823 0 12.407-5.583 12.407-12.406 0-6.824-5.583-12.407-12.407-12.407S59.971 10.95 59.971 18.084c0 6.823 5.583 12.406 12.407 12.406zm26.983 21.091c0-10.855-5.272-16.128-16.129-16.128H61.211c-10.855 0-16.128 5.273-16.128 16.128v25.743c0 4.031 3.413 7.444 7.444 7.444h2.481v14.888c0 9.616 7.753 14.888 17.369 14.888 9.615 0 17.369-5.272 17.369-14.888V84.768h2.481c4.032 0 7.444-3.413 7.444-7.444.001-4.032.001-19.85-.31-25.743zm223.525-17.537c7.988 0 14.524-6.536 14.524-14.522C337.41 11.534 330.874 5 322.886 5s-14.522 6.172-14.522 14.522c-.001 7.986 6.533 14.522 14.522 14.522zm31.586 24.689c0-12.707-6.172-18.88-18.88-18.88h-25.776c-12.707 0-18.878 6.173-18.878 18.88v30.133c0 4.72 3.992 8.713 8.711 8.713h2.906v17.428c0 11.254 9.076 17.427 20.331 17.427 11.256 0 20.331-6.173 20.331-17.427V97.58h2.905c4.719 0 8.715-3.994 8.715-8.713s0-23.236-.365-30.134zM53.459 174.173c11.385 0 20.701-9.316 20.701-20.701 0-11.386-9.316-20.701-20.701-20.701-11.387 0-20.702 8.798-20.702 20.701.001 11.385 9.316 20.701 20.702 20.701zm45.024 35.191c0-18.112-8.798-26.913-26.912-26.913H34.827c-18.113 0-26.911 8.8-26.911 26.913v42.954c0 6.729 5.693 12.421 12.42 12.421h4.141v24.842c0 16.045 12.938 24.841 28.982 24.841 16.043 0 28.981-8.796 28.981-24.841v-24.842h4.14c6.729 0 12.421-5.691 12.421-12.421 0-6.728 0-33.121-.518-42.954z"
    />
</svg>
