<svg xmlns="http://www.w3.org/2000/svg" viewBox="0 0 566.93 566.93">
  <path fill="#2D6AB2" d="M0 0h358.536L566.93 210.536V566.93"/>
  <path d="M339.91 115.778c-.512.74-1.32 1.576-2.427 2.513s-2.003 1.64-2.683 2.09c-.683.46-1.334.88-1.96 1.28-.624.4-1.248.74-1.872 1.02-4.033 1.65-8.205 2.13-12.52 1.45-1.648-.28-3.266-.74-4.855-1.36s-3.21-1.36-4.854-2.21c-.86-.4-1.67-.89-2.43-1.49-.77-.59-1.52-1.15-2.26-1.66-.34-.23-.64-.47-.9-.72s-.56-.49-.9-.72c-.29-.17-.53-.41-.73-.72-.2-.31-.5-.55-.9-.72-.28-.17-.54-.4-.77-.68-.23-.28-.49-.56-.77-.85l-24.84-24.9c-.97-.96-1.73-1.82-2.3-2.55-.57-.73-.65-1.59-.26-2.55.28-.63.9-1.39 1.87-2.3.96-.91 1.76-1.67 2.38-2.3l49.99-49.99c.68-.68 1.39-1.42 2.13-2.21s1.47-1.28 2.21-1.45c.62-.17 1.33-.03 2.13.42.17.05.29.15.38.29.08.14.21.24.38.3l25.38 25.38c.39.39.81.78 1.23 1.14.42.37.78.75 1.06 1.15.17.39.42.71.76.94.34.23.62.51.85.85l.51.51c.22.46.54.85.93 1.19.39.34.74.76 1.02 1.28.34.57.69 1.1 1.06 1.58s.72 1.01 1.06 1.58c.68 1.48 1.32 2.88 1.92 4.22.59 1.33 1 2.68 1.23 4.05.34 1.93.28 3.86-.17 5.79-.46 1.93-1.23 3.89-2.3 5.88-.29.51-.61.98-.98 1.41-.37.42-.73.92-1.07 1.49-.17.28-.39.52-.64.72-.26.2-.47.44-.64.73-.11.23-.31.46-.6.68-.29.23-.52.37-.68.43l-.77.77c-.17.17-.39.36-.64.56-.26.2-.44.35-.55.47-.51.29-.94.57-1.28.86-.35.28-.71.51-1.11.68-2.79 1.31-5.43 2.02-7.92 2.13-.8 0-1.57-.09-2.3-.26-.74-.17-1.51-.2-2.3-.08-.23 0-.51.03-.85.08-.35.06-.6.29-.77.69-.34.57-.36 1.32-.04 2.26.31.94.55 1.78.72 2.52.51 2.56.57 5 .17 7.33-.4 2.22-1.22 4.46-2.47 6.73-.28.63-.64 1.21-1.06 1.75-.43.54-.81 1.09-1.15 1.66l-.94.94zm-14.563-11.838c.906-.682 1.717-1.576 2.428-2.684.707-1.106 1.176-2 1.404-2.682 1.24-2.84 1.1-5.82-.43-8.943-.69-1.24-1.58-2.48-2.68-3.7-1.11-1.22-2.29-2.45-3.54-3.7l-9.62-9.63c-.23 0-.37-.05-.43-.17-.06-.11-.14-.23-.26-.34-.85-.51-1.59-.68-2.22-.51-.74.17-1.46.61-2.17 1.32l-2 2-7.58 7.58c-.68.69-1.37 1.39-2.05 2.13-.68.74-1.08 1.45-1.19 2.13-.06.51.1 1.1.47 1.75s.86 1.32 1.49 2c.62.68 1.29 1.35 2 2 .71.66 1.32 1.24 1.83 1.75 1.7 1.71 3.33 3.37 4.89 4.99 1.56 1.62 3.15 3.04 4.77 4.26 1.61 1.22 3.22 2.15 4.81 2.77 1.59.63 3.24.77 4.94.43.74-.17 1.49-.47 2.26-.89.76-.42 1.54-.86 2.34-1.32l.51-.51zm8.005-55.7c-.683.114-1.32.47-1.915 1.065l-1.832 1.832-4.6 4.6c-.396.396-.822.793-1.276 1.19-.46.397-.8.767-1.03 1.108l-.85.852c-.23.453-.44.836-.64 1.148-.2.312-.36.64-.47.98-.06.51.1 1.064.47 1.66.36.597.83 1.207 1.4 1.83.56.627 1.17 1.236 1.83 1.832.65.596 1.23 1.15 1.74 1.662.85.85 1.73 1.76 2.64 2.72.9.96 1.83 1.91 2.77 2.85.93.93 1.87 1.78 2.81 2.55.93.76 1.83 1.35 2.68 1.74 2.27 1.13 4.54 1.42 6.81.85 1.13-.34 2.35-1.05 3.66-2.13 2.04-1.82 3.28-3.62 3.7-5.41.42-1.79.29-3.65-.39-5.58-.23-.46-.5-.93-.81-1.41s-.64-1.01-.98-1.58c-.17-.28-.49-.65-.94-1.11-.51-.85-1.22-1.71-2.13-2.56-.91-.86-1.76-1.68-2.56-2.47l-7.24-7.24c-.17-.06-.33-.16-.47-.3-.14-.15-.3-.24-.47-.3-.74-.4-1.39-.54-1.96-.43zm59.7 37.39l31.854 31.852 7.41 7.41c.68.68 1.305 1.36 1.873 2.043.56.682.79 1.362.68 2.045-.06.283-.19.553-.39.81-.2.255-.36.552-.47.894l-.94.936c-.34.455-.75.895-1.24 1.32-.49.427-.93.838-1.32 1.236-.46.454-.88.907-1.28 1.36-.4.456-.83.853-1.28 1.194-.35.227-.8.625-1.37 1.19-.86.513-1.59.683-2.22.513-.57-.113-1.11-.426-1.62-.938l-1.62-1.618-5.87-5.877-15.42-15.41c-.46-.452-.97-.99-1.54-1.614-.57-.625-1.17-1.22-1.79-1.79-.63-.565-1.24-1.063-1.84-1.49-.59-.425-1.09-.667-1.49-.724-.68-.112-1.33.06-1.96.51-.62.457-1.27 1.02-1.95 1.705l-4.86 4.855-2.47 2.47c-.34.565-.61 1.06-.81 1.49-.2.423-.24.862-.13 1.32.11.565.38 1.09.81 1.573.42.48.89.976 1.4 1.49l4.6 4.596 14.65 14.65c.4.4.91.88 1.53 1.45.63.57 1.21 1.15 1.75 1.75.54.6 1.02 1.17 1.45 1.71.42.54.67 1.01.72 1.41.11.45-.03.99-.43 1.62s-.88 1.25-1.45 1.88c-.57.62-1.18 1.23-1.83 1.83-.66.6-1.21 1.12-1.66 1.58l-1.2 1.19c-.4.4-.8.69-1.19.86-.57.34-1.17.48-1.79.43-.46-.11-.95-.38-1.49-.81-.54-.42-1.11-.94-1.71-1.53s-1.18-1.2-1.75-1.83c-.57-.62-1.05-1.13-1.45-1.53l-16.6-16.61c-.68-.68-1.32-1.35-1.92-2-.6-.66-1.21-1.21-1.83-1.66-.63-.46-1.25-.74-1.87-.86-.63-.11-1.28 0-1.96.35-.34.23-.67.5-.98.81l-.9.89-3.23 3.24-4.77 4.77c-.68.68-1.24 1.33-1.7 1.96-.45.62-.62 1.27-.51 1.96 0 .34.11.65.34.94s.43.62.6 1.02l.85.85c.22.34.52.67.89.98.37.31.69.61.98.9l3.58 3.58 16.01 16.01 4.51 4.52 1.32 1.32s.72.9.89 1.41c.28.63.28 1.25 0 1.88-.18.4-.44.81-.81 1.23s-.78.87-1.24 1.32l-3.92 3.92c-.68.69-1.35 1.29-2 1.83-.66.54-1.35.73-2.09.56-.62-.06-1.21-.36-1.75-.9l-1.75-1.74-6.39-6.39-25.21-25.21-6.73-6.73c-.8-.79-1.45-1.53-1.96-2.21-.51-.68-.68-1.39-.51-2.13.11-.57.44-1.12.98-1.66l1.57-1.57 6.13-6.13 23.17-23.16 18.58-18.57 5.28-5.28 1.53-1.53c.51-.51 1.02-.79 1.53-.85.63-.17 1.34-.02 2.13.43.17.05.3.15.39.3.08.14.21.24.38.29zm74.18 71.624c11.187 10.844 15.5 21.688 12.947 32.533-.35 1.477-.84 2.853-1.49 4.13-.66 1.278-1.41 2.627-2.26 4.047-.34.567-.83 1.135-1.45 1.703-.63.566-1.2.88-1.71.937-.63.057-1.24-.128-1.83-.554-.6-.426-1.21-.95-1.83-1.576l-5.37-5.365c-.51-.51-1.02-1.03-1.54-1.54-.51-.51-.88-.99-1.11-1.45-.4-.97-.37-1.85.08-2.64.45-.8.85-1.65 1.19-2.56.34-.8.62-1.71.85-2.73.23-1.02.28-1.93.17-2.73-.23-1.37-.51-2.62-.85-3.75-.4-.97-.99-2.05-1.79-3.24-.8-1.19-1.69-2.34-2.69-3.45-1-1.11-2.06-2.12-3.19-3.02-1.14-.91-2.28-1.59-3.41-2.05-1.88-.74-3.55-1.08-5.03-1.02-1.48.05-3.13.71-4.94 1.96-.52.28-.98.69-1.41 1.23-.43.54-.73 1.01-.9 1.4-.74 1.64-.94 3.12-.59 4.43.34 1.3.85 2.75 1.53 4.34.34.91.77 1.76 1.28 2.55.51.79.99 1.64 1.45 2.55 1.02 2.04 2.15 4.06 3.4 6.04s2.44 4 3.58 6.04c.17.4.4.74.68 1.02s.51.62.68 1.02c.74 1.53 1.55 3.08 2.43 4.64.88 1.56 1.49 3.13 1.83 4.73.57 2.49.92 4.78 1.06 6.85.14 2.07-.08 4.35-.64 6.85-.17.73-.44 1.49-.81 2.25-.37.77-.73 1.55-1.07 2.34-.12.22-.24.41-.39.55-.14.14-.24.3-.3.47-.69 1.13-1.71 2.38-3.07 3.74-.18.4-.46.68-.86.85l-1.54 1.53c-.74.51-1.44 1.01-2.09 1.49-.66.48-1.35.92-2.09 1.32-1.36.68-2.67 1.25-3.92 1.7-1.25.45-2.56.79-3.92 1.02-.51.06-.98.07-1.4.04-.43-.03-.87.01-1.32.13-.63.05-1.27.07-1.92.04s-1.32-.1-2-.21c-.51-.06-1.04-.13-1.57-.22-.54-.09-1.09-.19-1.66-.3-1.59-.34-3.11-.84-4.56-1.49s-2.94-1.35-4.48-2.09c-1.08-.52-2.08-1.15-3.02-1.92s-1.92-1.49-2.94-2.17c-.51-.29-.94-.63-1.28-1.03-.34-.39-.74-.71-1.2-.93l-.68-.68c-.12-.12-.26-.29-.43-.51-.17-.23-.35-.37-.52-.43-.34-.23-.86-.68-1.54-1.36s-1.14-1.2-1.36-1.54l-.85-.86c-.28-.51-.65-.96-1.11-1.36-.46-.4-.8-.82-1.03-1.28-.29-.29-.53-.56-.73-.81-.2-.26-.41-.56-.64-.9-.51-.86-1.08-1.71-1.7-2.56-.63-.85-1.14-1.71-1.54-2.56-1.88-3.69-3.17-7.28-3.88-10.78-.71-3.49-.64-7.08.22-10.77.46-2.27 1.365-4.6 2.73-6.99.23-.46.5-.87.81-1.24.31-.37.61-.81.894-1.32.34-.57.81-1.21 1.41-1.91s1.2-1.1 1.83-1.15c.73-.17 1.42-.03 2.04.42.623.45 1.28 1.02 1.96 1.7l5.363 5.36 1.45 1.44c.51.51.88 1.05 1.1 1.62.34.91.24 1.74-.3 2.51-.54.77-1.01 1.63-1.4 2.6-.45.91-.79 1.82-1.02 2.72-.23.91-.4 1.82-.51 2.73-.06.62-.06 1.25 0 1.87.05.62.14 1.22.25 1.79.46 2.04 1.34 4.23 2.64 6.553.29.51.61.95.98 1.32.37.37.73.833 1.07 1.4l.42.425c.34.57.9 1.25 1.7 2.05.79.8 1.47 1.37 2.04 1.71.22.11.54.37.93.76.34.23.68.483 1.02.77.34.28.71.51 1.11.68 2.44 1.42 4.653 2.27 6.642 2.554 1.98.282 4.2-.34 6.64-1.87.51-.28.98-.72 1.4-1.32s.72-1.09.895-1.49c.97-2.1 1.19-4.26.68-6.47-.06-.28-.2-.77-.42-1.45-.34-1.36-.88-2.727-1.62-4.088-.74-1.36-1.44-2.72-2.13-4.08-.28-.52-.56-1-.85-1.45-.28-.46-.6-.97-.93-1.54-.62-1.19-1.31-2.35-2.04-3.49-.74-1.13-1.39-2.27-1.96-3.41-.17-.4-.34-.69-.51-.86-.17-.17-.31-.43-.428-.77-.348-.57-.64-1.09-.9-1.58-.26-.48-.56-1.01-.9-1.575-.85-1.76-1.63-3.48-2.34-5.15s-1.26-3.338-1.66-4.98c-.45-2.16-.65-4.348-.59-6.56.06-2.218.51-4.37 1.366-6.476.29-.74.64-1.435 1.07-2.09.43-.65.87-1.37 1.32-2.17.4-.626 1.05-1.45 1.96-2.47.91-1.02 1.73-1.79 2.47-2.3.28-.17.65-.48 1.11-.94.8-.45 1.53-.91 2.22-1.36.68-.456 1.42-.855 2.21-1.19 2.84-1.14 5.62-1.73 8.34-1.79 2.72-.06 5.53.225 8.43.85 1.82.454 3.58 1.135 5.28 2.044 1.7.91 3.46 1.93 5.28 3.064.68.45 1.31.93 1.88 1.44.57.51 1.19.99 1.88 1.44.23.11.5.38.81.81.31.42.58.63.81.63zm65.664 68.216l8.687 8.688c.737.737 1.446 1.476 2.13 2.214.68.738 1.105 1.476 1.277 2.215.056.284 0 .596-.17.936-.17.342-.37.683-.598 1.023l-.426.426c-.17.283-.396.568-.68.852l-.853.852-3.32 3.32c-.4.398-.77.795-1.108 1.193-.342.39-.738.7-1.192.93-1.25.68-2.33.62-3.236-.17-.91-.8-1.958-1.79-3.15-2.98l-8.688-8.69c-1.14-1.14-2.16-2.08-3.07-2.81-.91-.74-1.99-.77-3.24-.09-.34.22-.6.48-.77.76-.18.28-.46.51-.86.68-.4.28-.8.65-1.19 1.1-.4.45-.77.85-1.11 1.19l-7.58 7.58-24.53 24.52-8.01 8c-.91.91-1.74 1.65-2.47 2.21-.74.57-1.57.68-2.47.34-.52-.28-1.03-.68-1.54-1.19l-1.45-1.45-5.79-5.79c-.63-.62-1.18-1.23-1.66-1.83-.49-.6-.7-1.21-.64-1.83.17-.74.61-1.46 1.32-2.17l2.17-2.17 8.52-8.52 23.67-23.67 7.24-7.24c.39-.4.82-.8 1.27-1.19.45-.4.79-.83 1.02-1.28.23-.34.48-.6.77-.77.28-.17.48-.43.59-.77.68-1.25.62-2.36-.17-3.33-.8-.96-1.79-2.04-2.98-3.23l-7.92-7.92c-.63-.63-1.34-1.31-2.13-2.05-.8-.74-1.37-1.39-1.71-1.96-.28-.63-.37-1.22-.25-1.79.11-.46.38-.92.81-1.41.42-.49.86-.95 1.32-1.41l4.17-4.18c.73-.74 1.43-1.35 2.08-1.83.65-.48 1.35-.64 2.09-.47.28.06.71.26 1.27.6l.43.43 34.07 34.06zM228.27 60.237c11.187 10.844 15.5 21.688 12.947 32.532-.343 1.47-.838 2.85-1.49 4.13-.654 1.27-1.407 2.62-2.257 4.04-.342.57-.824 1.13-1.447 1.7-.626.56-1.194.88-1.704.93-.63.05-1.24-.13-1.84-.56-.6-.43-1.21-.95-1.83-1.58l-5.37-5.37-1.54-1.53c-.51-.51-.88-.99-1.11-1.45-.4-.97-.37-1.85.09-2.64.45-.8.85-1.65 1.19-2.56.34-.79.62-1.7.85-2.73.23-1.02.28-1.93.17-2.73-.23-1.36-.51-2.61-.85-3.74-.4-.97-1-2.05-1.79-3.24-.8-1.19-1.69-2.34-2.68-3.45-1-1.11-2.06-2.12-3.2-3.03-1.14-.91-2.27-1.59-3.41-2.05-1.88-.74-3.55-1.08-5.03-1.02-1.48.05-3.13.7-4.94 1.95-.52.29-.98.7-1.41 1.24-.43.54-.73 1.01-.9 1.4-.74 1.65-.94 3.12-.6 4.43.34 1.31.85 2.75 1.53 4.34.34.91.77 1.76 1.28 2.56s.99 1.65 1.45 2.55c1.02 2.04 2.15 4.06 3.4 6.04 1.25 1.99 2.44 4 3.58 6.05.17.4.39.73.68 1.02.28.28.51.62.68 1.02.74 1.53 1.54 3.08 2.43 4.64.88 1.56 1.49 3.13 1.83 4.72.57 2.5.92 4.79 1.06 6.86.14 2.07-.08 4.35-.64 6.85-.17.74-.44 1.49-.81 2.26-.37.77-.73 1.55-1.07 2.34-.12.23-.25.42-.39.56-.14.14-.24.29-.3.47-.68 1.13-1.7 2.38-3.07 3.74-.17.39-.45.68-.85.85l-1.53 1.53c-.74.51-1.44 1.01-2.09 1.49-.65.48-1.35.92-2.09 1.32-1.36.68-2.67 1.25-3.91 1.7-1.25.45-2.56.79-3.92 1.02-.52.05-.98.07-1.41.04-.43-.03-.87.01-1.32.12-.63.06-1.27.08-1.92.05-.66-.03-1.32-.1-2-.22-.52-.06-1.04-.13-1.58-.21s-1.1-.19-1.66-.3c-1.6-.34-3.11-.84-4.56-1.49-1.45-.66-2.94-1.35-4.47-2.09-1.08-.52-2.09-1.15-3.03-1.92s-1.92-1.49-2.94-2.17c-.51-.29-.94-.63-1.28-1.03-.34-.4-.74-.71-1.2-.94l-.68-.68c-.12-.12-.26-.29-.43-.51-.17-.23-.34-.37-.51-.42-.34-.23-.85-.68-1.53-1.36s-1.14-1.19-1.36-1.53l-.86-.85c-.28-.51-.65-.97-1.1-1.36-.45-.4-.79-.82-1.02-1.28-.28-.29-.52-.56-.72-.81-.2-.26-.42-.56-.64-.89-.51-.85-1.08-1.71-1.71-2.56-.62-.85-1.13-1.7-1.53-2.56-1.87-3.69-3.17-7.29-3.87-10.78-.72-3.5-.64-7.09.21-10.78.45-2.28 1.36-4.6 2.72-6.99.23-.46.5-.87.81-1.24.31-.37.61-.81.89-1.32.34-.57.81-1.21 1.41-1.92.59-.71 1.2-1.1 1.83-1.15.73-.17 1.42-.03 2.04.42.62.45 1.28 1.02 1.96 1.7l5.36 5.36 1.45 1.45c.51.51.88 1.05 1.11 1.62.34.9.24 1.74-.29 2.51-.54.77-1.01 1.63-1.41 2.6-.46.9-.8 1.81-1.02 2.72-.23.91-.4 1.81-.52 2.72-.05.63-.05 1.25 0 1.87.06.63.14 1.22.26 1.79.46 2.04 1.34 4.23 2.64 6.56.29.51.61.95.98 1.32.37.37.73.84 1.07 1.41l.42.43c.34.57.91 1.25 1.7 2.04.79.8 1.47 1.36 2.04 1.71.23.11.54.37.94.77.34.23.68.48 1.02.76.34.29.71.51 1.11.68 2.44 1.42 4.66 2.28 6.65 2.56 1.98.28 4.2-.34 6.64-1.88.51-.28.98-.72 1.41-1.32s.72-1.09.89-1.49c.96-2.1 1.19-4.26.68-6.47-.06-.29-.2-.77-.42-1.45-.34-1.37-.88-2.73-1.62-4.09-.74-1.37-1.45-2.73-2.13-4.09-.29-.51-.57-1-.86-1.45-.28-.46-.6-.97-.94-1.53-.63-1.19-1.31-2.36-2.05-3.49-.74-1.14-1.39-2.27-1.96-3.41-.17-.4-.34-.68-.51-.85-.17-.17-.32-.43-.43-.77-.35-.57-.64-1.09-.9-1.58-.26-.48-.56-1.01-.9-1.58-.86-1.76-1.64-3.48-2.35-5.15-.71-1.68-1.26-3.34-1.66-4.98-.455-2.16-.655-4.35-.596-6.56.05-2.22.51-4.37 1.36-6.48.28-.74.64-1.44 1.06-2.09.43-.655.87-1.378 1.32-2.17.4-.627 1.05-1.448 1.96-2.47.91-1.02 1.73-1.79 2.47-2.3.28-.17.66-.48 1.11-.938.8-.45 1.53-.91 2.22-1.36.68-.456 1.41-.85 2.21-1.19 2.836-1.13 5.62-1.73 8.34-1.79 2.73-.05 5.54.23 8.43.86 1.82.46 3.58 1.14 5.28 2.05 1.71.91 3.47 1.93 5.28 3.07.68.45 1.31.94 1.88 1.45.57.51 1.19.99 1.87 1.44.23.12.5.39.81.81.31.43.58.64.81.64zm36.28 38.833l31.853 31.853 7.41 7.41c.682.682 1.305 1.362 1.874 2.044.567.68.794 1.362.68 2.044-.056.29-.185.56-.382.81-.2.26-.356.56-.47.9l-.936.94c-.35.46-.76.9-1.24 1.32-.49.43-.93.84-1.32 1.24-.46.46-.88.91-1.28 1.36-.4.46-.83.85-1.28 1.19-.35.23-.8.63-1.37 1.2-.85.51-1.59.68-2.22.51-.57-.11-1.11-.42-1.62-.93l-1.62-1.62-5.88-5.88-15.42-15.41c-.46-.45-.97-.99-1.54-1.61-.57-.62-1.17-1.22-1.79-1.79-.62-.56-1.23-1.06-1.83-1.49-.6-.42-1.1-.67-1.49-.72-.68-.11-1.34.06-1.96.51-.63.46-1.28 1.03-1.96 1.71l-4.86 4.86-2.47 2.47c-.34.57-.61 1.07-.81 1.49-.2.43-.24.87-.13 1.32.11.57.38 1.1.81 1.58.42.48.89.98 1.4 1.49l4.6 4.6 14.7 14.59c.39.4.9.88 1.53 1.45s1.2 1.15 1.74 1.75c.54.59 1.02 1.16 1.45 1.7.42.54.66 1.01.72 1.4.11.45-.03.99-.43 1.62s-.88 1.25-1.45 1.88c-.57.62-1.18 1.24-1.83 1.83-.66.6-1.21 1.12-1.67 1.58l-1.19 1.19c-.4.39-.8.68-1.19.85-.57.34-1.17.48-1.79.42-.46-.11-.96-.38-1.49-.81-.54-.42-1.11-.94-1.71-1.53s-1.18-1.21-1.74-1.83c-.57-.63-1.05-1.14-1.45-1.53l-16.61-16.61c-.68-.68-1.32-1.35-1.91-2-.59-.65-1.2-1.21-1.83-1.66-.62-.45-1.25-.74-1.87-.85-.62-.12-1.27 0-1.96.34-.34.23-.66.5-.98.81l-.89.89-3.23 3.23-4.77 4.77c-.68.68-1.25 1.33-1.7 1.96-.45.62-.62 1.28-.51 1.96 0 .34.12.65.34.94.23.28.43.62.6 1.02l.86.85c.23.34.53.67.9.98.37.31.7.61.98.89l3.58 3.58 16.01 16.01 4.51 4.52 1.32 1.32c.42.43.72.89.89 1.4.28.62.28 1.25 0 1.87-.18.4-.44.81-.81 1.24-.37.43-.78.87-1.24 1.32l-3.92 3.92c-.68.68-1.35 1.29-2 1.83-.66.54-1.35.73-2.09.55-.63-.05-1.21-.35-1.75-.89l-1.75-1.75-6.39-6.39-25.21-25.2-6.73-6.73c-.8-.79-1.45-1.53-1.96-2.21-.51-.68-.68-1.39-.51-2.13.11-.57.44-1.12.98-1.66l1.57-1.58 6.13-6.13 23.16-23.17 18.562-18.56 5.28-5.28 1.53-1.53c.51-.51 1.02-.8 1.54-.85.62-.17 1.33-.03 2.13.43.166.06.29.16.38.3.08.14.21.24.38.3zm55.274 55.274l7.238 7.238c.625.625 1.22 1.25 1.79 1.873.565.626.792 1.278.68 1.96-.114.68-.497 1.35-1.15 2s-1.35 1.35-2.085 2.087l-7.75 7.75-25.807 25.807-5.024 5.02c-.455.45-.91.88-1.362 1.28-.455.39-.825.85-1.107 1.36l-.852.85c-.397.4-.768.79-1.107 1.19-.342.39-.597.79-.767 1.19-.34 1.13.09 2.29 1.28 3.49l3.49 3.49 16.53 16.52c.46.45 1.04 1.01 1.75 1.66.71.65 1.36 1.3 1.96 1.96.6.65 1.11 1.3 1.53 1.96.43.65.61 1.18.56 1.57-.05.62-.34 1.19-.85 1.7l-1.61 1.62-3.92 3.91c-.45.45-.86.89-1.23 1.32-.37.42-.75.72-1.15.89-.68.23-1.27.25-1.79.08-.51-.05-1.05-.37-1.62-.94l-1.61-1.62-6.04-6.05-23.08-23.08-6.13-6.14c-.8-.8-1.45-1.53-1.96-2.21-.51-.69-.68-1.39-.51-2.13.11-.57.44-1.12.98-1.66l1.58-1.58 5.96-5.97 22.57-22.57 19.25-19.25 5.36-5.37c.51-.51 1.04-1.01 1.58-1.49s1.04-.78 1.49-.89c.62-.17 1.36 0 2.22.51.17.05.3.15.39.3.09.14.21.24.39.3zm50.502 50.502l7.24 7.24c.623.623 1.22 1.248 1.788 1.872.566.626.792 1.278.682 1.96-.115.68-.498 1.35-1.15 2l-2.087 2.088-7.75 7.75-25.81 25.805-5.03 5.03c-.46.46-.91.88-1.37 1.28-.46.4-.83.85-1.11 1.37l-.85.85c-.4.4-.77.8-1.11 1.2-.35.4-.6.8-.77 1.2-.34 1.14.08 2.3 1.27 3.49l3.49 3.49L354.28 288c.454.455 1.035 1.01 1.75 1.66.71.655 1.36 1.308 1.96 1.96.592.655 1.1 1.306 1.53 1.96.424.65.61 1.18.553 1.576-.06.623-.34 1.19-.85 1.703l-1.616 1.61-3.92 3.92c-.455.45-.867.89-1.235 1.32-.37.42-.75.72-1.15.89-.68.23-1.276.25-1.786.08-.514-.06-1.053-.37-1.62-.94l-1.617-1.62-6.05-6.05L317.16 273l-6.13-6.13c-.8-.795-1.45-1.53-1.96-2.213-.51-.68-.687-1.39-.516-2.13.116-.566.44-1.12.98-1.66l1.577-1.574 5.97-5.962 22.57-22.57 19.25-19.25 5.37-5.36c.51-.51 1.04-1.01 1.58-1.49s1.04-.78 1.49-.89c.63-.17 1.36 0 2.22.51.17.06.3.16.38.3.09.15.21.25.39.3zm50.418 50.418l31.852 31.852 7.41 7.41c.682.682 1.305 1.362 1.873 2.043.56.68.79 1.36.68 2.04-.06.28-.19.55-.39.81-.2.25-.36.55-.47.89l-.94.93c-.35.45-.76.89-1.24 1.32-.49.42-.93.84-1.32 1.23-.46.45-.88.9-1.28 1.36-.4.45-.83.85-1.28 1.19-.35.23-.8.62-1.37 1.19-.85.51-1.59.68-2.21.51-.57-.11-1.11-.43-1.62-.94l-1.62-1.62-5.88-5.88-15.42-15.42c-.46-.46-.97-.99-1.54-1.62-.57-.63-1.17-1.22-1.79-1.79-.63-.57-1.23-1.07-1.83-1.49-.6-.43-1.1-.67-1.49-.73-.68-.12-1.34.05-1.96.51s-1.28 1.02-1.96 1.7l-4.85 4.85-2.47 2.47c-.34.56-.61 1.06-.81 1.49-.2.42-.24.86-.13 1.32.11.56.38 1.09.81 1.57.42.48.89.98 1.4 1.49l4.6 4.6 14.64 14.65c.39.39.9.88 1.53 1.45s1.2 1.14 1.74 1.74 1.02 1.16 1.45 1.7c.42.54.66 1 .72 1.4.11.45-.03.99-.43 1.62-.4.62-.88 1.24-1.45 1.87-.57.62-1.18 1.24-1.83 1.83-.66.6-1.21 1.12-1.66 1.58l-1.2 1.19c-.4.4-.79.68-1.19.85-.57.35-1.16.49-1.79.43-.45-.11-.95-.38-1.49-.81-.54-.42-1.11-.94-1.7-1.53-.6-.6-1.18-1.21-1.75-1.83-.57-.63-1.05-1.14-1.45-1.53l-16.6-16.6c-.68-.68-1.32-1.35-1.92-2-.6-.66-1.21-1.21-1.83-1.66-.63-.46-1.25-.74-1.88-.86-.62-.11-1.28 0-1.96.34-.34.23-.67.5-.98.81l-.9.9-3.24 3.24-4.77 4.77c-.68.68-1.25 1.33-1.7 1.96-.46.62-.63 1.28-.51 1.96 0 .34.11.65.34.94.22.28.42.62.59 1.02l.85.85c.23.34.52.67.9.98.37.31.69.61.98.89l3.57 3.58 16.01 16.01 4.51 4.51 1.32 1.32s.73.89.9 1.4c.29.63.29 1.25 0 1.88-.17.39-.44.81-.81 1.23-.37.43-.78.87-1.23 1.32l-3.92 3.92c-.68.68-1.35 1.29-2 1.83-.65.54-1.35.72-2.08.55-.62-.06-1.21-.36-1.74-.9l-1.75-1.75-6.39-6.39L368.19 324l-6.73-6.73c-.8-.8-1.45-1.54-1.96-2.22-.51-.68-.68-1.39-.51-2.13.11-.566.44-1.12.98-1.66.54-.538 1.06-1.06 1.57-1.57l6.13-6.13 23.16-23.17 18.57-18.56 5.28-5.28 1.538-1.538s1.02-.794 1.53-.85c.62-.17 1.33-.03 2.13.42.17.06.3.15.38.3.08.147.21.246.38.3zM466.052 418.1c-.228.455-.556.752-.98.896-.426.142-.78.185-1.063.128-.63-.057-1.23-.396-1.79-1.02-.57-.625-1.17-1.25-1.79-1.874l-4.69-4.686c-.91-.908-1.66-1.745-2.26-2.513-.6-.76-.78-1.6-.56-2.51.28-1.19.93-2.35 1.96-3.49 1.02-1.13 1.9-2.3 2.64-3.49.23-.22.42-.45.6-.68.17-.22.34-.42.51-.59.51-.85 1.15-1.66 1.91-2.43.76-.76 1.4-1.51 1.91-2.25.11-.22.34-.51.68-.85.51-.73 1.05-1.47 1.61-2.21.57-.73 1.08-1.5 1.54-2.3.85-1.76 1.47-3.46 1.87-5.11.4-1.65.28-3.29-.34-4.94-.17-.39-.37-.76-.6-1.1-.23-.34-.45-.74-.68-1.19-.68-1.36-1.69-2.71-3.02-4.05l-3.96-3.96-6.99-6.98c-.57-.34-1.05-.65-1.45-.94-.4-.28-.86-.39-1.37-.34-1.02.12-2.1.8-3.24 2.05-1.14 1.25-2.19 2.36-3.15 3.32l-10.9 10.9c-.46.46-.94.91-1.45 1.37-.52.46-1 .91-1.45 1.37l-1.24 1.24c-.37.37-.75.64-1.15.81-.68.34-1.36.34-2.05 0-.4-.17-.79-.45-1.19-.85l-1.28-1.28-3.84-3.84c-.91-.91-1.89-1.86-2.94-2.85s-1.64-1.94-1.75-2.85c-.18-.74.12-1.49.89-2.26l2.25-2.25 51.78-51.78c.63-.63 1.26-1.3 1.92-2.01.65-.71 1.32-1.12 2-1.23.57-.11 1.27.03 2.13.43.17.06.31.17.43.34.11.17.25.29.42.34l28.96 28.96c.9.91 1.76 1.79 2.55 2.64.79.86 1.48 1.74 2.04 2.64.17.4.41.76.72 1.07.31.31.55.67.72 1.07.28.51.56 1.02.85 1.54.28.51.53 1.05.76 1.62.79 2.05 1.33 4.12 1.62 6.22.28 2.11.22 4.15-.18 6.14-.06.51-.17.99-.34 1.45-.17.46-.29.94-.34 1.45-.34 1.25-.82 2.41-1.45 3.49-.62 1.08-1.31 2.27-2.04 3.58-.17.29-.39.53-.64.73-.26.2-.44.47-.56.81l-.77.77c-.34.57-.87 1.15-1.57 1.75-.71.6-1.32 1.04-1.83 1.32-.57.34-1.04.7-1.41 1.07-.37.37-.81.7-1.32.98-1.14.57-2.23 1.1-3.28 1.58s-2.15.84-3.28 1.07c-.28.06-.61.1-.98.13s-.7.07-.98.13c-.4.05-.81.1-1.23.12-.43.03-.84.02-1.24-.04l-1.87-.17c-.63-.05-1.28-.14-1.96-.25-.4-.06-.81-.1-1.24-.13-.43-.02-.84.05-1.24.22-.46.23-.69.57-.68 1.02 0 .46.02.82.08 1.11.11 1.02.23 2.04.34 3.06.11 1.02.06 2.05-.17 3.07-.29 1.65-.74 3.18-1.36 4.6s-1.42 2.96-2.39 4.6c-.4.63-.87 1.24-1.41 1.83-.54.6-1.01 1.21-1.41 1.83-.34.34-.66.69-.94 1.03-.29.34-.6.68-.94 1.02-.18.28-.4.54-.68.76-.29.23-.54.51-.77.85-.17.29-.39.53-.64.73-.26.2-.5.47-.73.81-.45.68-.99 1.34-1.62 1.96-.63.63-1.17 1.28-1.62 1.96l-1.28 1.79-1.2 1.87c-.41.63-.78 1.23-1.12 1.79zm24.358-52.46c.736-.513 1.518-1.265 2.342-2.258.822-.993 1.404-1.774 1.746-2.343.11-.35.256-.6.426-.77s.283-.4.34-.68c1.078-2.44 1.105-4.97.086-7.58-.514-1.42-1.363-2.78-2.555-4.09-1.193-1.31-2.47-2.64-3.833-4.01l-9.88-9.88c-.23 0-.384-.07-.47-.22-.085-.14-.183-.27-.296-.39-.852-.51-1.592-.68-2.215-.51-.74.17-1.44.62-2.12 1.36-.68.74-1.36 1.45-2.04 2.13l-7.92 7.92-2.04 2.04s-1.08 1.36-1.19 2.04c-.11.57.03 1.16.43 1.79s.88 1.27 1.45 1.96c.57.68 1.21 1.35 1.92 2s1.32 1.23 1.83 1.74l5.03 5.02c.4.39.81.84 1.24 1.32s.87.84 1.32 1.06l1.11 1.1c.57.34 1.07.72 1.49 1.15s.9.78 1.41 1.06c1.25.68 2.47 1.16 3.66 1.44s2.42.31 3.66.08c.86-.17 1.68-.48 2.47-.94.8-.45 1.68-.99 2.65-1.61z" fill="#FFF"/>
</svg>
