<svg xmlns="http://www.w3.org/2000/svg" viewBox="0 0 566.93 566.93">
  <path fill="#2D6AB2" d="M0 0h358.54l208.39 210.54v356.39" />
  <path
        fill="currentColor"
        d="M339.91 115.78c-.51.74-1.32 1.57-2.43 2.51a30.92 30.92 0 0 1-4.64 3.37c-.62.4-1.25.74-1.87 1.02a23 23 0 0 1-17.38.1 50.85 50.85 0 0 1-4.85-2.22 12.2 12.2 0 0 1-2.43-1.49 56.1 56.1 0 0 0-2.26-1.66c-.34-.23-.64-.47-.9-.72s-.56-.49-.9-.72a2.18 2.18 0 0 1-.73-.72 2 2 0 0 0-.9-.72c-.28-.17-.54-.4-.77-.68-.23-.28-.5-.56-.77-.85l-24.84-24.9a27.27 27.27 0 0 1-2.3-2.55c-.57-.73-.65-1.59-.26-2.55.28-.63.9-1.39 1.87-2.3.96-.9 1.76-1.67 2.38-2.3l49.99-49.99c.68-.68 1.39-1.42 2.13-2.2s1.47-1.29 2.2-1.46c.63-.17 1.34-.03 2.14.42.17.05.29.15.38.3.08.13.2.23.38.3l25.38 25.37c.39.4.8.78 1.23 1.14.42.37.78.75 1.06 1.15.17.4.42.71.76.94.34.23.62.51.85.85l.5.51c.23.46.55.85.94 1.2.39.33.74.75 1.02 1.27.34.57.69 1.1 1.06 1.58s.72 1.01 1.06 1.58a482.5 482.5 0 0 1 1.92 4.22c.59 1.33 1 2.68 1.23 4.05.34 1.93.28 3.86-.17 5.8a24.4 24.4 0 0 1-2.3 5.87c-.3.51-.61.98-.98 1.41-.37.42-.73.92-1.07 1.5-.17.27-.4.51-.64.71-.26.2-.47.44-.64.73-.11.23-.31.46-.6.68-.3.23-.52.37-.68.43l-.77.77c-.17.17-.4.36-.64.56-.26.2-.44.35-.55.47-.51.3-.94.57-1.28.86-.35.28-.71.51-1.11.68a20.88 20.88 0 0 1-7.92 2.13c-.8 0-1.57-.09-2.3-.26a6.1 6.1 0 0 0-2.3-.08c-.23 0-.51.03-.85.08-.35.06-.6.3-.77.7-.34.56-.36 1.31-.04 2.25.3.94.55 1.78.72 2.52.5 2.56.57 5 .17 7.33a22.06 22.06 0 0 1-2.47 6.73 8.42 8.42 0 0 1-1.06 1.75c-.43.54-.81 1.1-1.15 1.66l-.94.94zm-14.56-11.84c.9-.68 1.71-1.58 2.43-2.68.7-1.11 1.17-2 1.4-2.69 1.24-2.84 1.1-5.82-.43-8.94a20.28 20.28 0 0 0-2.68-3.7 108.67 108.67 0 0 0-3.54-3.7l-9.62-9.63c-.23 0-.37-.05-.43-.17a1.29 1.29 0 0 0-.26-.34c-.85-.5-1.6-.68-2.22-.5-.74.16-1.46.6-2.17 1.31l-2 2-7.58 7.58c-.68.7-1.37 1.4-2.05 2.13a4.28 4.28 0 0 0-1.2 2.13c-.05.51.1 1.1.48 1.75s.86 1.32 1.49 2c.62.68 1.29 1.35 2 2a71.3 71.3 0 0 1 1.83 1.75c1.7 1.71 3.33 3.37 4.89 5a40.34 40.34 0 0 0 4.77 4.25 20.2 20.2 0 0 0 4.8 2.77c1.6.63 3.25.77 4.95.43a8.9 8.9 0 0 0 2.26-.89l2.34-1.32.5-.5zm8-55.7c-.68.11-1.32.47-1.91 1.07l-1.83 1.83-4.6 4.6c-.4.4-.83.79-1.28 1.19-.46.4-.8.76-1.03 1.1l-.85.86c-.23.45-.44.83-.64 1.14-.2.32-.36.65-.47.99-.06.5.1 1.06.47 1.65.36.6.83 1.21 1.4 1.83a24.4 24.4 0 0 0 1.83 1.84 61 61 0 0 1 1.74 1.66c.85.85 1.73 1.76 2.64 2.72.9.96 1.83 1.9 2.77 2.85.93.93 1.87 1.78 2.8 2.55.94.76 1.84 1.35 2.69 1.74a9.62 9.62 0 0 0 6.8.85 10.9 10.9 0 0 0 3.67-2.13c2.04-1.82 3.28-3.62 3.7-5.41a9.79 9.79 0 0 0-.4-5.58c-.22-.46-.5-.93-.8-1.41s-.64-1.01-.98-1.58a7.07 7.07 0 0 0-.94-1.11 12.04 12.04 0 0 0-2.13-2.56 162.1 162.1 0 0 1-2.56-2.47l-7.24-7.24a1.25 1.25 0 0 1-.47-.3c-.14-.15-.3-.24-.47-.3a2.96 2.96 0 0 0-1.96-.43zm59.7 37.39 31.86 31.85 7.4 7.41a27.1 27.1 0 0 1 1.88 2.05c.56.68.79 1.36.68 2.04-.06.28-.2.55-.4.81s-.35.55-.46.9l-.94.93c-.34.46-.75.9-1.24 1.32a27.04 27.04 0 0 0-2.6 2.6c-.4.45-.83.85-1.28 1.19-.35.23-.8.63-1.37 1.19-.86.51-1.6.68-2.22.51a3.17 3.17 0 0 1-1.62-.93l-1.62-1.62-5.87-5.88-15.42-15.41c-.46-.45-.97-.99-1.54-1.61a28.78 28.78 0 0 0-1.8-1.8 21.14 21.14 0 0 0-1.83-1.48 3.65 3.65 0 0 0-1.5-.73 2.56 2.56 0 0 0-1.95.51 16.9 16.9 0 0 0-1.95 1.7l-4.86 4.86-2.47 2.47c-.34.57-.61 1.06-.81 1.5-.2.42-.24.85-.13 1.31.1.57.38 1.1.8 1.58.43.48.9.97 1.4 1.49l4.6 4.6 14.66 14.64c.4.4.9.88 1.53 1.45a26.26 26.26 0 0 1 3.2 3.46c.42.54.67 1.01.72 1.41.1.45-.03 1-.43 1.62s-.88 1.25-1.45 1.88c-.57.62-1.18 1.23-1.83 1.83a40.1 40.1 0 0 0-1.66 1.58l-1.2 1.2a4 4 0 0 1-1.2.85c-.56.34-1.16.48-1.78.43a3.95 3.95 0 0 1-1.5-.8c-.53-.43-1.1-.95-1.7-1.54s-1.18-1.2-1.75-1.83a52.5 52.5 0 0 0-1.45-1.53l-16.6-16.6a69.35 69.35 0 0 1-1.92-2c-.6-.67-1.21-1.22-1.83-1.67a4.68 4.68 0 0 0-1.87-.86c-.63-.1-1.28 0-1.96.35-.34.23-.67.5-.98.81l-.9.9-3.23 3.23-4.77 4.77a16.8 16.8 0 0 0-1.7 1.96 2.55 2.55 0 0 0-.51 1.96c0 .34.1.65.34.94s.43.62.6 1.02l.85.85c.22.34.52.67.89.98.37.31.69.61.98.9l3.58 3.58 16 16.01 4.52 4.52 1.32 1.32s.72.9.89 1.41a2.2 2.2 0 0 1 0 1.88c-.18.4-.44.81-.81 1.23s-.78.87-1.24 1.32l-3.92 3.92c-.68.7-1.35 1.3-2 1.83-.66.54-1.35.73-2.1.56a2.86 2.86 0 0 1-1.74-.9l-1.75-1.74-6.4-6.39-25.2-25.2-6.73-6.74c-.8-.79-1.45-1.53-1.96-2.2-.51-.69-.68-1.4-.51-2.14.1-.57.44-1.12.98-1.66l1.57-1.57 6.13-6.13 23.17-23.16 18.58-18.57 5.28-5.28 1.53-1.53a2.65 2.65 0 0 1 1.53-.85c.63-.17 1.34-.02 2.13.43.17.05.3.15.39.3.08.14.2.24.38.3zm74.18 71.62c11.19 10.85 15.5 21.7 12.95 32.54a18.42 18.42 0 0 1-1.5 4.13 74.03 74.03 0 0 1-2.25 4.04 7.86 7.86 0 0 1-1.45 1.7c-.63.57-1.2.89-1.71.94a2.66 2.66 0 0 1-1.83-.55c-.6-.43-1.21-.95-1.83-1.58l-5.37-5.36-1.54-1.54a5.78 5.78 0 0 1-1.11-1.45c-.4-.97-.37-1.85.08-2.64.45-.8.85-1.65 1.19-2.56.34-.8.62-1.71.85-2.73.23-1.02.28-1.93.17-2.73a30.72 30.72 0 0 0-.85-3.75c-.4-.97-1-2.05-1.8-3.24a30.87 30.87 0 0 0-2.68-3.45c-1-1.11-2.06-2.12-3.2-3.02a13.91 13.91 0 0 0-3.4-2.05 12.52 12.52 0 0 0-5.03-1.02c-1.48.05-3.13.7-4.94 1.96-.52.28-.98.69-1.41 1.23a6.64 6.64 0 0 0-.9 1.4 6.65 6.65 0 0 0-.6 4.43c.35 1.3.86 2.75 1.54 4.34.34.9.77 1.76 1.28 2.55.5.79.99 1.64 1.45 2.55 1.02 2.04 2.15 4.06 3.4 6.04s2.44 4 3.58 6.04c.17.4.4.74.68 1.02s.5.62.68 1.02a83.06 83.06 0 0 0 2.43 4.64 16.64 16.64 0 0 1 1.83 4.73c.57 2.49.92 4.78 1.06 6.85.14 2.07-.08 4.35-.64 6.85-.17.73-.44 1.49-.81 2.25a62 62 0 0 0-1.07 2.34c-.12.22-.24.4-.4.55a20.87 20.87 0 0 1-3.37 4.21c-.17.4-.45.68-.85.85l-1.54 1.53a78.9 78.9 0 0 0-2.1 1.49c-.65.48-1.34.92-2.08 1.32a36.38 36.38 0 0 1-3.92 1.7c-1.25.45-2.56.79-3.92 1.02-.51.06-.98.07-1.4.04a4 4 0 0 0-1.32.13 15.3 15.3 0 0 1-3.92-.17 31.1 31.1 0 0 1-3.23-.52c-1.6-.34-3.11-.84-4.56-1.5s-2.94-1.34-4.48-2.08c-1.08-.52-2.08-1.15-3.02-1.92s-1.92-1.5-2.94-2.17a4.71 4.71 0 0 1-1.28-1.03 3.73 3.73 0 0 0-1.2-.93l-.68-.68a5.57 5.57 0 0 1-.43-.51 1.17 1.17 0 0 0-.52-.43c-.34-.23-.86-.68-1.54-1.36s-1.14-1.2-1.36-1.54l-.85-.86a4.95 4.95 0 0 0-1.11-1.36c-.46-.4-.8-.82-1.03-1.28a9.86 9.86 0 0 1-1.37-1.71 32.4 32.4 0 0 0-1.7-2.56 15.12 15.12 0 0 1-1.54-2.56 42.35 42.35 0 0 1-3.88-10.78 25 25 0 0 1 .22-10.77 23.59 23.59 0 0 1 3.54-8.23c.3-.37.6-.81.9-1.32.33-.57.8-1.21 1.4-1.91s1.2-1.1 1.83-1.15a2.42 2.42 0 0 1 2.04.42 15.9 15.9 0 0 1 1.96 1.7l5.37 5.36 1.45 1.44c.5.5.88 1.05 1.1 1.62.34.9.24 1.74-.3 2.5a13.4 13.4 0 0 0-1.4 2.6c-.45.92-.8 1.83-1.02 2.73-.23.9-.4 1.82-.51 2.73a9.74 9.74 0 0 0 0 1.87c.05.62.14 1.22.25 1.79a24.74 24.74 0 0 0 2.64 6.55c.29.51.6.95.98 1.32.37.37.73.83 1.07 1.4l.42.43c.34.57.9 1.25 1.7 2.05.79.8 1.47 1.37 2.04 1.7.22.12.54.38.93.77.34.23.68.48 1.02.77.34.28.7.5 1.1.68a18.82 18.82 0 0 0 6.65 2.55c1.98.28 4.2-.34 6.64-1.87.5-.28.98-.72 1.4-1.32s.72-1.09.9-1.49a9.79 9.79 0 0 0 .67-6.47c-.06-.28-.2-.77-.42-1.45a17.4 17.4 0 0 0-1.62-4.09c-.74-1.36-1.44-2.72-2.13-4.08-.28-.52-.56-1-.85-1.45-.28-.46-.6-.97-.93-1.54a45.34 45.34 0 0 0-2.04-3.49 33.86 33.86 0 0 1-1.96-3.4 2.8 2.8 0 0 0-.5-.87 2.02 2.02 0 0 1-.44-.77c-.34-.57-.64-1.09-.9-1.58-.25-.48-.55-1-.9-1.57-.84-1.76-1.62-3.48-2.33-5.15s-1.26-3.34-1.66-4.98a28.3 28.3 0 0 1-.6-6.56c.07-2.22.52-4.37 1.37-6.48.3-.74.64-1.43 1.07-2.09.43-.65.87-1.37 1.32-2.17a21 21 0 0 1 1.96-2.47 14.64 14.64 0 0 1 2.47-2.3c.28-.17.65-.48 1.11-.94.8-.45 1.53-.9 2.22-1.36.68-.45 1.42-.85 2.21-1.19a23.7 23.7 0 0 1 8.34-1.79c2.72-.06 5.53.23 8.43.85 1.82.46 3.58 1.14 5.28 2.05a93 93 0 0 1 5.28 3.06c.68.45 1.31.93 1.88 1.44.57.51 1.2.99 1.88 1.44.23.11.5.38.81.81.31.42.58.63.81.63zm65.67 68.22 8.68 8.69a80.9 80.9 0 0 1 2.13 2.21 5 5 0 0 1 1.28 2.22c.06.28 0 .6-.17.93-.17.35-.37.69-.6 1.03l-.42.42c-.17.29-.4.57-.68.85l-.86.86-3.32 3.32c-.4.4-.77.8-1.1 1.19a4 4 0 0 1-1.2.93c-1.25.68-2.33.62-3.23-.17-.91-.8-1.96-1.8-3.15-2.98l-8.7-8.7a39.01 39.01 0 0 0-3.06-2.8c-.91-.74-2-.77-3.24-.1-.34.23-.6.49-.77.77-.18.28-.46.5-.86.68-.4.28-.8.65-1.2 1.1-.4.45-.76.85-1.1 1.19l-7.58 7.58-24.53 24.52-8.01 8a25.6 25.6 0 0 1-2.47 2.2 2.4 2.4 0 0 1-2.47.35 6.73 6.73 0 0 1-1.54-1.2l-1.45-1.44-5.8-5.8a20.83 20.83 0 0 1-1.65-1.82c-.5-.6-.7-1.21-.64-1.83a4.5 4.5 0 0 1 1.32-2.17l2.17-2.17 8.52-8.52 23.67-23.67 7.24-7.24c.39-.4.82-.8 1.27-1.2.45-.4.79-.82 1.02-1.27.23-.34.48-.6.77-.77.28-.17.48-.43.59-.77.68-1.25.62-2.36-.17-3.33-.8-.96-1.8-2.04-2.98-3.23l-7.92-7.92a91.7 91.7 0 0 0-2.13-2.05 9.5 9.5 0 0 1-1.71-1.96 2.87 2.87 0 0 1-.25-1.8c.1-.45.38-.91.8-1.4.43-.5.87-.95 1.33-1.41l4.17-4.18c.73-.74 1.43-1.35 2.08-1.83a2.46 2.46 0 0 1 2.09-.47c.28.06.7.26 1.27.6l.43.43 34.07 34.06zM228.27 60.24c11.19 10.84 15.5 21.68 12.95 32.53a18.16 18.16 0 0 1-1.5 4.13 72.8 72.8 0 0 1-2.25 4.04 7.77 7.77 0 0 1-1.45 1.7c-.62.56-1.2.88-1.7.93a2.72 2.72 0 0 1-1.84-.56c-.6-.43-1.21-.95-1.83-1.58l-5.37-5.37-1.54-1.53a5.78 5.78 0 0 1-1.11-1.45c-.4-.97-.37-1.85.09-2.64.45-.8.85-1.65 1.19-2.56.34-.8.62-1.7.85-2.73.23-1.02.28-1.93.17-2.73a30.97 30.97 0 0 0-.85-3.74c-.4-.97-1-2.05-1.8-3.24a31.98 31.98 0 0 0-2.67-3.45c-1-1.11-2.06-2.12-3.2-3.03A13.73 13.73 0 0 0 213 66.9a12.52 12.52 0 0 0-5.03-1.02c-1.48.05-3.13.7-4.94 1.95a6.64 6.64 0 0 0-2.31 2.64c-.74 1.65-.94 3.12-.6 4.43.34 1.3.85 2.75 1.53 4.34.34.9.77 1.76 1.28 2.56s.99 1.65 1.45 2.55a69.7 69.7 0 0 0 3.4 6.04c1.25 1.99 2.44 4 3.58 6.05.17.4.39.73.68 1.02.28.28.5.62.68 1.02a76.88 76.88 0 0 0 2.43 4.64 16.7 16.7 0 0 1 1.83 4.72c.57 2.5.92 4.79 1.06 6.86.14 2.07-.08 4.35-.64 6.85a10.8 10.8 0 0 1-.81 2.26 62 62 0 0 0-1.07 2.34c-.12.23-.25.42-.4.56a20.04 20.04 0 0 1-3.37 4.21c-.16.39-.44.68-.84.85l-1.53 1.53a78.9 78.9 0 0 0-2.1 1.49c-.64.48-1.34.92-2.08 1.32a37.14 37.14 0 0 1-3.91 1.7c-1.25.45-2.56.79-3.92 1.02-.52.05-.98.07-1.41.04a4 4 0 0 0-1.32.12 13.6 13.6 0 0 1-3.92-.17l-1.58-.21c-.54-.08-1.1-.2-1.66-.3-1.6-.34-3.11-.84-4.56-1.5a210.3 210.3 0 0 1-4.47-2.08c-1.08-.52-2.1-1.15-3.03-1.92s-1.92-1.5-2.94-2.17a4.71 4.71 0 0 1-1.28-1.03c-.34-.4-.74-.71-1.2-.94l-.68-.68a5.57 5.57 0 0 1-.43-.51c-.17-.23-.34-.37-.51-.42-.34-.23-.85-.68-1.53-1.36s-1.14-1.2-1.36-1.53l-.86-.85a4.95 4.95 0 0 0-1.1-1.36 4.3 4.3 0 0 1-1.02-1.28 11.75 11.75 0 0 1-1.36-1.7 31.67 31.67 0 0 0-1.71-2.56c-.62-.85-1.13-1.7-1.53-2.56a42.44 42.44 0 0 1-3.87-10.78c-.72-3.5-.64-7.1.2-10.78a23.31 23.31 0 0 1 3.54-8.23c.3-.37.6-.81.89-1.32.34-.57.8-1.21 1.4-1.92.6-.71 1.2-1.1 1.84-1.15a2.42 2.42 0 0 1 2.04.42c.62.45 1.28 1.02 1.96 1.7l5.36 5.36 1.45 1.45a4.9 4.9 0 0 1 1.1 1.62c.35.9.25 1.74-.28 2.5a14 14 0 0 0-1.41 2.6c-.46.9-.8 1.82-1.02 2.73-.23.9-.4 1.8-.52 2.72a11.67 11.67 0 0 0 .26 3.66 24.87 24.87 0 0 0 2.64 6.56c.29.5.6.95.98 1.32.37.37.73.84 1.07 1.4l.42.44c.34.57.9 1.25 1.7 2.04.79.8 1.47 1.36 2.04 1.7.23.12.54.38.94.78.34.23.68.48 1.02.76.34.29.7.5 1.1.68a18.79 18.79 0 0 0 6.66 2.56c1.98.28 4.2-.34 6.64-1.88.5-.28.98-.72 1.4-1.32s.73-1.1.9-1.5a9.85 9.85 0 0 0 .68-6.46c-.06-.3-.2-.77-.42-1.45a17.24 17.24 0 0 0-1.62-4.1c-.74-1.36-1.45-2.72-2.13-4.08-.3-.51-.57-1-.86-1.45l-.94-1.53a43.63 43.63 0 0 0-2.05-3.5 35 35 0 0 1-1.96-3.4c-.17-.4-.34-.68-.51-.85a1.92 1.92 0 0 1-.43-.77 28.5 28.5 0 0 1-.9-1.58c-.26-.48-.56-1.01-.9-1.58-.86-1.76-1.64-3.48-2.35-5.15a32.68 32.68 0 0 1-1.66-4.98 28.1 28.1 0 0 1-.6-6.56 18.3 18.3 0 0 1 1.36-6.48c.28-.74.64-1.44 1.06-2.1.43-.65.87-1.37 1.32-2.16.4-.63 1.05-1.45 1.96-2.47a14.64 14.64 0 0 1 2.47-2.3c.28-.17.66-.48 1.11-.94.8-.45 1.53-.9 2.22-1.36.68-.45 1.41-.85 2.21-1.19a23.9 23.9 0 0 1 8.34-1.79c2.73-.05 5.54.23 8.43.86 1.82.46 3.58 1.14 5.28 2.05 1.71.91 3.47 1.93 5.28 3.07.68.45 1.31.94 1.88 1.45.57.51 1.2 1 1.87 1.44.23.12.5.4.81.81.31.43.58.64.81.64zm36.28 38.83 31.85 31.85 7.41 7.41c.68.68 1.3 1.36 1.88 2.05.56.68.8 1.36.68 2.04-.06.3-.19.56-.38.81-.2.26-.36.56-.47.9l-.94.94c-.35.46-.76.9-1.24 1.32a31.56 31.56 0 0 0-2.6 2.6c-.4.46-.83.85-1.28 1.2-.35.22-.8.62-1.37 1.2-.85.5-1.6.67-2.22.5a3.15 3.15 0 0 1-1.62-.93l-1.62-1.62-5.88-5.88-15.42-15.4c-.46-.46-.97-1-1.54-1.62a30.22 30.22 0 0 0-1.8-1.79 21.05 21.05 0 0 0-1.82-1.49 3.7 3.7 0 0 0-1.5-.72 2.56 2.56 0 0 0-1.95.51c-.63.46-1.28 1.03-1.96 1.71l-4.86 4.86-2.47 2.47c-.34.57-.61 1.07-.81 1.5-.2.42-.24.86-.13 1.31.1.57.38 1.1.8 1.58.43.48.9.98 1.4 1.5l4.6 4.6 14.7 14.58c.4.4.9.88 1.54 1.45s1.2 1.15 1.74 1.75c.54.6 1.02 1.16 1.45 1.7.42.54.66 1.01.72 1.4.1.45-.03 1-.43 1.62s-.88 1.25-1.45 1.88c-.57.62-1.18 1.24-1.83 1.83-.66.6-1.21 1.12-1.67 1.58l-1.2 1.2c-.4.38-.8.67-1.18.84a2.9 2.9 0 0 1-1.8.42 3.88 3.88 0 0 1-1.48-.8c-.54-.43-1.11-.95-1.71-1.54s-1.18-1.2-1.74-1.83a35.15 35.15 0 0 0-1.45-1.53l-16.61-16.6a57.44 57.44 0 0 1-1.91-2c-.6-.66-1.2-1.22-1.83-1.67a4.59 4.59 0 0 0-1.87-.85c-.62-.12-1.27 0-1.96.34-.34.23-.66.5-.98.81l-.9.9-3.22 3.22-4.77 4.77a15.9 15.9 0 0 0-1.7 1.96 2.56 2.56 0 0 0-.51 1.96c0 .34.12.65.34.94.23.28.43.62.6 1.02l.86.85c.23.34.53.67.9.98.37.31.7.61.98.9l3.58 3.57 16 16.01 4.52 4.52 1.32 1.32c.42.43.72.9.89 1.4.28.62.28 1.25 0 1.87-.18.4-.44.81-.81 1.24-.37.43-.78.87-1.24 1.32l-3.92 3.92c-.68.68-1.35 1.3-2 1.83a2.3 2.3 0 0 1-2.1.55 2.77 2.77 0 0 1-1.74-.89l-1.75-1.75-6.4-6.39-25.2-25.2-6.73-6.73c-.8-.79-1.45-1.53-1.96-2.2-.51-.69-.68-1.4-.51-2.14.1-.57.44-1.12.98-1.66l1.57-1.58 6.13-6.13 23.16-23.17 18.56-18.56 5.28-5.28 1.53-1.53c.51-.5 1.02-.8 1.54-.85.62-.17 1.33-.03 2.13.43.17.06.3.16.38.3.08.14.21.24.38.3zm55.27 55.27 7.24 7.24a58.3 58.3 0 0 1 1.8 1.87c.56.63.78 1.28.67 1.96-.11.68-.5 1.35-1.15 2l-2.08 2.1-7.75 7.74-25.81 25.8-5.02 5.03c-.46.45-.91.88-1.37 1.28-.45.39-.82.85-1.1 1.36l-.86.85c-.4.4-.76.79-1.1 1.19-.34.39-.6.79-.77 1.19-.34 1.13.1 2.29 1.28 3.49l3.5 3.49 16.52 16.52 1.75 1.66c.71.65 1.36 1.3 1.96 1.96.6.65 1.11 1.3 1.53 1.96.43.65.61 1.18.56 1.57a2.7 2.7 0 0 1-.85 1.7l-1.6 1.62-3.93 3.9c-.45.46-.86.9-1.23 1.33-.37.42-.75.72-1.15.89-.68.23-1.27.25-1.79.08-.5-.05-1.05-.37-1.62-.94l-1.6-1.62-6.05-6.05-23.08-23.08-6.13-6.14a21.1 21.1 0 0 1-1.96-2.21 2.5 2.5 0 0 1-.5-2.13c.1-.57.43-1.12.97-1.66l1.58-1.58 5.96-5.97 22.57-22.57 19.25-19.25 5.36-5.37c.51-.51 1.04-1.01 1.58-1.5s1.04-.77 1.5-.88c.61-.17 1.35 0 2.21.5.17.06.3.16.4.3a.7.7 0 0 0 .38.3zm50.5 50.5 7.25 7.25a55.2 55.2 0 0 1 1.78 1.87c.57.62.8 1.28.69 1.96a3.8 3.8 0 0 1-1.15 2l-2.1 2.09-7.74 7.75-25.81 25.8-5.03 5.03c-.46.46-.91.88-1.37 1.28-.46.4-.83.85-1.11 1.37l-.85.85c-.4.4-.77.8-1.11 1.2-.35.4-.6.8-.77 1.2-.34 1.14.08 2.3 1.27 3.5l3.49 3.48L354.28 288c.45.46 1.03 1.01 1.75 1.66.71.66 1.36 1.3 1.96 1.96.6.66 1.1 1.3 1.53 1.96.42.65.61 1.18.55 1.58a2.75 2.75 0 0 1-.85 1.7l-1.61 1.6-3.92 3.93c-.46.45-.87.89-1.24 1.32-.37.42-.75.72-1.15.89-.68.23-1.27.25-1.78.08-.52-.06-1.06-.37-1.62-.94l-1.62-1.62-6.05-6.05L317.16 273l-6.13-6.13a21.1 21.1 0 0 1-1.96-2.21 2.5 2.5 0 0 1-.52-2.13c.12-.57.44-1.12.98-1.66l1.58-1.58 5.97-5.96 22.57-22.57 19.25-19.25 5.37-5.36c.51-.5 1.04-1 1.58-1.49s1.04-.78 1.5-.89c.62-.17 1.35 0 2.21.51.17.06.3.16.38.3.1.15.21.25.4.3zm50.42 50.42 31.86 31.86 7.4 7.4c.69.69 1.31 1.37 1.88 2.05.56.68.79 1.36.68 2.04-.06.28-.2.55-.4.8-.2.26-.35.56-.46.9l-.94.93c-.35.45-.76.89-1.24 1.32a23.45 23.45 0 0 0-2.6 2.59c-.4.45-.83.85-1.28 1.19-.35.23-.8.62-1.37 1.19-.85.5-1.6.68-2.21.5a3.17 3.17 0 0 1-1.62-.93l-1.62-1.62-5.88-5.88-15.42-15.42c-.46-.46-.97-1-1.54-1.62a27.48 27.48 0 0 0-1.8-1.8 19.05 19.05 0 0 0-1.82-1.48c-.6-.43-1.1-.67-1.5-.73-.67-.12-1.33.05-1.95.5s-1.28 1.03-1.96 1.7l-4.85 4.86-2.47 2.47c-.34.56-.61 1.06-.81 1.49-.2.42-.24.86-.13 1.32.1.56.38 1.09.8 1.57.43.48.9.98 1.4 1.49l4.6 4.6 14.65 14.65c.39.39.9.88 1.53 1.45s1.2 1.14 1.74 1.74 1.02 1.16 1.45 1.7c.42.54.66 1 .72 1.4.1.45-.03.99-.43 1.62-.4.62-.88 1.24-1.45 1.87-.57.62-1.18 1.24-1.83 1.83a40.1 40.1 0 0 0-1.66 1.58l-1.2 1.19c-.4.4-.8.68-1.2.85-.56.35-1.15.49-1.78.43a4.03 4.03 0 0 1-1.5-.81c-.53-.42-1.1-.94-1.7-1.53a60.2 60.2 0 0 1-1.74-1.83 35.15 35.15 0 0 0-1.45-1.53l-16.6-16.6a69.35 69.35 0 0 1-1.92-2c-.6-.66-1.21-1.21-1.83-1.66a4.65 4.65 0 0 0-1.88-.86c-.62-.11-1.28 0-1.96.34-.34.23-.67.5-.98.8l-.9.9-3.24 3.25-4.77 4.77a15.9 15.9 0 0 0-1.7 1.96 2.48 2.48 0 0 0-.51 1.96c0 .34.1.65.34.94.22.28.42.62.59 1.02l.85.85c.23.34.52.67.9.98.37.3.69.6.98.89l3.57 3.58 16 16 4.52 4.52 1.32 1.32s.73.89.9 1.4c.29.63.29 1.25 0 1.88a4.8 4.8 0 0 1-.81 1.23c-.37.43-.78.87-1.23 1.32l-3.92 3.92c-.68.68-1.35 1.29-2 1.83-.65.54-1.35.72-2.08.55a2.82 2.82 0 0 1-1.74-.9l-1.75-1.75-6.4-6.4-25.2-25.2-6.73-6.73a21.1 21.1 0 0 1-1.96-2.22c-.51-.68-.68-1.39-.51-2.13.11-.57.44-1.12.98-1.66l1.57-1.57 6.13-6.13 23.16-23.17 18.57-18.56 5.28-5.28 1.54-1.54s1.02-.8 1.53-.85c.62-.17 1.33-.03 2.13.42.17.06.3.15.38.3.08.15.2.25.38.3zm45.31 162.84c-.23.46-.55.75-.98.9-.42.14-.78.18-1.06.12a2.77 2.77 0 0 1-1.8-1.02 60.76 60.76 0 0 0-1.78-1.87l-4.7-4.69c-.9-.9-1.65-1.74-2.25-2.5a2.8 2.8 0 0 1-.56-2.52 7.97 7.97 0 0 1 1.96-3.49c1.02-1.13 1.9-2.3 2.64-3.49.23-.22.42-.45.6-.68.17-.22.34-.42.5-.59.52-.85 1.16-1.66 1.92-2.43.76-.76 1.4-1.5 1.9-2.25.12-.22.35-.5.69-.85a61 61 0 0 1 1.6-2.2 19.3 19.3 0 0 0 1.55-2.3 25.69 25.69 0 0 0 1.87-5.12c.4-1.65.28-3.29-.34-4.94a6.84 6.84 0 0 0-.6-1.1c-.23-.34-.45-.74-.68-1.19a16.01 16.01 0 0 0-3.02-4.05l-3.96-3.96-7-6.98a19.6 19.6 0 0 1-1.44-.94c-.4-.28-.86-.39-1.37-.34-1.02.12-2.1.8-3.24 2.05a100.86 100.86 0 0 1-3.15 3.32l-10.9 10.9c-.46.46-.94.91-1.45 1.37-.52.46-1 .91-1.45 1.37l-1.24 1.24c-.37.37-.75.64-1.15.81-.68.34-1.36.34-2.05 0-.4-.17-.8-.45-1.2-.85l-1.27-1.28-3.84-3.84c-.91-.9-1.9-1.86-2.94-2.85s-1.64-1.94-1.75-2.85c-.18-.74.12-1.49.89-2.26l2.25-2.25 51.78-51.78a76.7 76.7 0 0 0 1.92-2 3.56 3.56 0 0 1 2-1.24c.57-.1 1.27.03 2.13.43.17.06.3.17.43.34.1.17.25.3.42.34l28.96 28.96c.9.91 1.76 1.8 2.55 2.64a18 18 0 0 1 2.04 2.64c.17.4.4.76.72 1.07.3.31.55.67.72 1.07l.85 1.54c.28.51.53 1.05.76 1.62a27.83 27.83 0 0 1 1.62 6.22c.28 2.11.22 4.15-.18 6.14-.06.51-.17 1-.34 1.45-.17.46-.3.94-.34 1.45a14.36 14.36 0 0 1-1.45 3.5c-.62 1.07-1.31 2.26-2.04 3.57-.17.3-.4.53-.64.73-.26.2-.44.47-.56.81l-.77.77a7.43 7.43 0 0 1-1.57 1.75c-.71.6-1.32 1.04-1.83 1.32-.57.34-1.04.7-1.41 1.07-.37.37-.81.7-1.32.98-1.14.57-2.23 1.1-3.28 1.58s-2.15.84-3.28 1.07c-.28.06-.61.1-.98.13s-.7.07-.98.13c-.4.05-.81.1-1.23.12-.43.03-.84.02-1.24-.04l-1.87-.17c-.63-.05-1.28-.14-1.96-.25-.4-.06-.81-.1-1.24-.13-.43-.02-.84.05-1.24.22-.46.23-.7.57-.68 1.02 0 .46.02.82.08 1.11.1 1.02.23 2.04.34 3.06a9.35 9.35 0 0 1-.17 3.07c-.3 1.65-.74 3.18-1.36 4.6s-1.42 2.96-2.4 4.6c-.4.63-.86 1.24-1.4 1.83-.54.6-1.01 1.21-1.41 1.83-.34.34-.66.7-.94 1.03-.3.34-.6.68-.94 1.02-.18.28-.4.54-.68.76-.3.23-.54.51-.77.85-.17.3-.4.53-.64.73-.26.2-.5.47-.73.81a12.2 12.2 0 0 1-1.62 1.96c-.63.63-1.17 1.28-1.62 1.96l-1.28 1.8-1.2 1.86c-.41.63-.78 1.23-1.12 1.8zm24.36-52.46c.74-.51 1.52-1.26 2.34-2.26.82-1 1.4-1.77 1.75-2.34.1-.35.25-.6.42-.77s.29-.4.34-.68a9.52 9.52 0 0 0 .09-7.58 12.34 12.34 0 0 0-2.56-4.1c-1.19-1.3-2.47-2.63-3.83-4l-9.88-9.88c-.23 0-.38-.07-.47-.22a2.33 2.33 0 0 0-.3-.4c-.85-.5-1.59-.67-2.2-.5a4.2 4.2 0 0 0-2.13 1.36c-.68.74-1.36 1.45-2.04 2.13l-7.92 7.92-2.04 2.04s-1.08 1.36-1.19 2.04c-.1.57.03 1.16.43 1.79a19.6 19.6 0 0 0 3.37 3.96c.71.65 1.32 1.23 1.83 1.74l5.03 5.02c.4.39.81.84 1.24 1.32s.87.84 1.32 1.06l1.11 1.1c.57.34 1.07.72 1.5 1.15s.9.78 1.4 1.06c1.25.68 2.47 1.16 3.66 1.44s2.42.3 3.66.08a7.92 7.92 0 0 0 2.47-.94c.8-.45 1.68-1 2.65-1.61z"
    />
</svg>
