<svg fill="currentColor" xmlns="http://www.w3.org/2000/svg" viewBox="0 0 20 20">
<path d="M9.982 0c2.797 0 5.166.97 7.107 2.91C19.03 4.84 20 7.203 20 10s-.953 5.143-2.858 7.036C15.131 19.012 12.743 20 9.982 20c-2.703 0-5.048-.982-7.035-2.947C.982 15.09 0 12.74 0 10c0-2.726.983-5.089 2.947-7.089C4.887.971 7.232 0 9.982 0Zm.036 1.804c-2.274 0-4.196.803-5.768 2.41C2.619 5.87 1.803 7.799 1.803 10c0 2.227.81 4.143 2.429 5.75 1.619 1.62 3.547 2.428 5.785 2.428 2.226 0 4.167-.815 5.822-2.446 1.571-1.524 2.357-3.434 2.357-5.732 0-2.285-.798-4.214-2.393-5.785-1.583-1.608-3.512-2.411-5.785-2.411ZM5.553 8.589c.19-1.226.684-2.176 1.482-2.848.798-.673 1.768-1.009 2.91-1.009 1.572 0 2.822.506 3.75 1.518.93 1.012 1.394 2.31 1.394 3.893 0 1.535-.482 2.812-1.446 3.83-.965 1.017-2.215 1.526-3.75 1.526-1.132 0-2.108-.339-2.93-1.017-.82-.68-1.315-1.643-1.481-2.893H8c.06 1.214.792 1.821 2.197 1.821.701 0 1.267-.303 1.696-.91.429-.607.643-1.417.643-2.429 0-1.06-.196-1.866-.589-2.42-.393-.553-.958-.83-1.697-.83-1.333 0-2.083.59-2.25 1.768h.732L6.752 10.57 4.768 8.589h.785Z"></path>
</svg>
