<svg fill="currentColor" xmlns="http://www.w3.org/2000/svg" viewBox="0 0 20 20">
<path d="M9.982 0c2.809 0 5.178.964 7.107 2.893C19.03 4.833 20 7.203 20 10c0 2.81-.953 5.149-2.858 7.017C15.118 19.006 12.732 20 9.982 20c-2.703 0-5.048-.983-7.035-2.947C.982 15.09 0 12.738 0 10c0-2.738.983-5.107 2.947-7.107C4.875.964 7.22 0 9.982 0Zm.036 1.804c-2.274 0-4.196.798-5.768 2.393C2.619 5.863 1.803 7.798 1.803 10c0 2.215.81 4.132 2.429 5.75 1.619 1.62 3.547 2.428 5.785 2.428 2.226 0 4.167-.815 5.822-2.446 1.571-1.512 2.357-3.423 2.357-5.732 0-2.274-.798-4.208-2.393-5.804-1.595-1.595-3.523-2.392-5.785-2.392Zm2.679 5.714v4.089h-1.143v4.857H8.447v-4.857H7.304v-4.09a.62.62 0 0 1 .187-.455.622.622 0 0 1 .456-.187h4.107c.167 0 .316.063.446.188s.197.276.197.455Zm-4.09-2.571c0-.94.464-1.411 1.393-1.411.93 0 1.393.47 1.393 1.41 0 .929-.465 1.393-1.393 1.393-.928 0-1.393-.464-1.393-1.392Z"></path>
</svg>
