<svg xmlns="http://www.w3.org/2000/svg" fill="currentColor" viewBox="0 0 20 20">
  <path d="M9.982 0q4.196 0 7.142 2.929a9.6 9.6 0 0 1 2.143 3.223Q20 7.964 20 10q0 2.055-.723 3.848a9.2 9.2 0 0 1-2.134 3.17 10.3 10.3 0 0 1-3.322 2.214A10 10 0 0 1 9.982 20a9.7 9.7 0 0 1-3.794-.76 10.1 10.1 0 0 1-3.25-2.195A10 10 0 0 1 .75 13.803 9.8 9.8 0 0 1 0 10q0-1.982.759-3.813a10 10 0 0 1 2.205-3.276Q5.822 0 9.982 0m.036 1.804q-3.43 0-5.768 2.393a8.6 8.6 0 0 0-1.813 2.687A7.9 7.9 0 0 0 1.803 10q0 1.608.634 3.098A8.3 8.3 0 0 0 4.25 15.76a8.2 8.2 0 0 0 2.66 1.786 8 8 0 0 0 3.108.616q1.607 0 3.116-.624a8.6 8.6 0 0 0 2.723-1.804q2.34-2.285 2.339-5.732a8.2 8.2 0 0 0-.607-3.143 8 8 0 0 0-1.767-2.643q-2.411-2.41-5.804-2.411ZM9.892 8.34l-1.34.696q-.213-.446-.526-.625a1.2 1.2 0 0 0-.58-.178q-1.34 0-1.34 1.768 0 .802.34 1.285.339.482 1 .482.875 0 1.232-.857l1.232.625a2.94 2.94 0 0 1-2.625 1.572q-1.34 0-2.16-.822-.822-.822-.822-2.285 0-1.429.83-2.268.83-.84 2.099-.84 1.857 0 2.66 1.447m5.768 0-1.321.696q-.215-.446-.527-.625a1.2 1.2 0 0 0-.598-.178q-1.34 0-1.34 1.768 0 .802.34 1.285.338.482 1 .482.874 0 1.231-.857l1.25.625a3.07 3.07 0 0 1-1.106 1.152q-.697.42-1.518.42-1.357 0-2.17-.822t-.812-2.285q0-1.429.83-2.268.83-.84 2.098-.84 1.858 0 2.643 1.447"/>
</svg>
