<svg xmlns="http://www.w3.org/2000/svg" class="white_color outlined icon--desperate" viewBox="0.5 400.5 400 400">
  <path fill="none" d="M86 645.22a39.02 39.02 0 0 1-17.24-52.43c9.65-19.2 33.17-26.92 52.46-17.16a39.07 39.07 0 0 1 17.2 52.43 39 39 0 0 1-52.41 17.16z"/>
  <path fill="none" d="M80.69 663.07h73.14l.55-62.44c.56-23.4 4-40.54 14.87-54.8 9.8-12.94 19.68-28.58 61.66-41.7 62.6-19.6 112.24 12.83 118.19 16.55a41.19 41.19 0 0 1 13 56.7 40.8 40.8 0 0 1-7.33 8.46c-.33.43-.44.97-.82 1.34l-66 72.09h80.63a21.93 21.93 0 0 1 .02 43.85H238.12A21.96 21.96 0 0 1 218.04 690a21.88 21.88 0 0 1-.05-17.2c.25-4.44 1.17-8.9 3.7-12.9l49-79.1a54 54 0 0 0-18.85 2.47c-18.58 5.94-31.84 18.31-31.87 18.31 0 0-2.25 2.2-3.35 3.33l-21.43 81.82c-.17.69-.6 1.18-.81 1.8-.35 1-.8 1.97-1.31 2.9a19.25 19.25 0 0 1-2.7 3.91c-.68.75-1.26 1.5-2.02 2.15a20.4 20.4 0 0 1-4.27 2.83c-.78.43-1.46.91-2.28 1.23a21.48 21.48 0 0 1-7.82 1.55H80.7c-12.1 0-21.92-7.39-21.92-19.49 0-12.1 9.83-20.55 21.92-20.55zm-36.26-23.7.03.04S40 658.73 31.98 664.68c-8.04 5.97-15.62 2.73-19.04-1.89l-.03-.02c-3.42-4.62-4.08-12.48 3.96-18.46 8.02-5.95 27.56-4.93 27.56-4.93zm5.73-28.07-.01.04S33.17 621.61 23.34 620c-9.89-1.6-12.85-9.3-11.93-14.97v-.05c.93-5.67 6.12-11.58 16-9.97 9.84 1.6 22.75 16.29 22.75 16.29z"/>
</svg>
