<svg xmlns="http://www.w3.org/2000/svg" viewBox="0 0 100 125">
<style xmlns="http://www.w3.org/2000/svg" type="text/css">
:root {
    --brand: #0069cc;
}
.brand {
    fill: none;
    stroke: var(--brand);
    stroke-width: 0.25;
    stroke-linejoin: round;
}
.current {
    fill: none;
    stroke: currentColor;
    stroke-width: 0.25;
    stroke-linejoin: round;
    
}
    </style>
  <path
        class="current"
        d="M20.3 63.04a10.05 10.05 0 1 1 9.05-17.94 10.05 10.05 0 0 1-9.06 17.94z"
    />
  <path
        class="current"
        d="M18.92 67.64h18.84l.15-16.08c.14-6.03 1.03-10.45 3.83-14.12 2.52-3.33 5.07-7.36 15.88-10.74 16.13-5.05 28.91 3.3 30.45 4.26a10.61 10.61 0 0 1 3.35 14.6 10.5 10.5 0 0 1-1.9 2.19c-.08.1-.1.25-.2.34l-17 18.57h20.77a5.64 5.64 0 0 1 5.64 5.64 5.65 5.65 0 0 1-5.64 5.66h-33.6a5.66 5.66 0 0 1-5.18-3.38 5.64 5.64 0 0 1-.02-4.43c.07-1.14.3-2.3.96-3.32l12.62-20.38a13.9 13.9 0 0 0-4.86.64c-4.78 1.52-8.2 4.71-8.2 4.71l-.87.86-5.52 21.08c-.04.18-.15.3-.2.46a4.76 4.76 0 0 1-.35.75 4.99 4.99 0 0 1-.7 1c-.17.2-.32.4-.51.56-.34.3-.7.52-1.1.73-.2.11-.38.23-.59.32-.63.24-1.3.4-2.01.4H18.92c-3.11 0-5.64-1.9-5.64-5.02 0-3.12 2.53-5.3 5.64-5.3zm-9.34-6.1h.01s-1.15 4.98-3.21 6.52c-2.08 1.54-4.03.7-4.9-.49h-.02c-.88-1.2-1.05-3.22 1.02-4.76 2.07-1.53 7.1-1.27 7.1-1.27zm1.48-7.24v.02s-4.38 2.64-6.91 2.23c-2.55-.42-3.31-2.4-3.07-3.86v-.01c.24-1.46 1.57-2.99 4.12-2.57 2.53.41 5.86 4.2 5.86 4.2z"
    />
</svg>
