<svg xmlns="http://www.w3.org/2000/svg" viewBox=".5 10.5 100 100">
  <path
        d="M75.33 83.6c-.51 0-.93-.42-.93-.93s.42-.93.93-.93c.09 0 .17.01.26.03v-1.73c-.08.03-.17.04-.26.04-.51 0-.93-.42-.93-.93s.42-.93.93-.93c.09 0 .17.02.26.04v-1.72c-.08.02-.17.03-.26.03-.51 0-.93-.42-.93-.93 0-.5.42-.93.93-.93.09 0 .17.01.26.04v-1.73c-.08.02-.17.04-.26.04-.51 0-.93-.42-.93-.93s.42-.93.93-.93c.09 0 .17.02.26.04v-1.92h-.03c-.51 0-.93-.42-.93-.93 0-.5.42-.93.93-.93l.03.01v-1.66l-.03.01c-.51 0-.93-.42-.93-.93s.42-.93.93-.93h.03V62.3h-.03c-.51 0-.93-.42-.93-.93s.42-.93.93-.93h.03v-1.65h-.03c-.51 0-.93-.42-.93-.93 0-.5.42-.92.93-.92h.03v-1.66h-.03c-.51 0-.93-.42-.93-.93s.42-.93.93-.93h.03v-1.88h-.14c-.51 0-.93-.42-.93-.93 0-.5.42-.92.93-.92.05 0 .09.01.14.01v-1.68c-.05.01-.09.02-.14.02-.51 0-.93-.42-.93-.93s.42-.93.93-.93c.05 0 .09 0 .14.01v-1.68c-.05.01-.09.01-.14.01-.51 0-.93-.42-.93-.93s.42-.93.93-.93c.05 0 .09.01.14.02V41c-.05 0-.09.01-.14.01-.51 0-.93-.42-.93-.93s.42-.93.93-.93c.05 0 .09.01.14.01v-1.68c-.05.02-.09.02-.14.02-.51 0-.93-.42-.93-.93 0-.09.02-.18.04-.26h-1.49c.02.08.03.17.03.26 0 .51-.42.93-.93.93s-.93-.42-.93-.93c0-.09.01-.18.04-.26h-1.49c.02.08.03.17.03.26 0 .51-.42.93-.93.93s-.93-.42-.93-.93c0-.09.01-.18.04-.26h-1.49c.03.08.04.17.04.26 0 .51-.42.93-.93.93s-.93-.42-.93-.93c0-.09.01-.18.03-.26h-1.49c.02.08.04.17.04.26 0 .51-.42.93-.93.93s-.93-.42-.93-.93c0-.09.01-.18.04-.26h-1.49c.02.08.04.17.04.26 0 .51-.42.93-.93.93s-.93-.42-.93-.93c0-.09.01-.18.04-.26h-1.49c.02.08.03.17.03.26 0 .51-.42.93-.93.93s-.93-.42-.93-.93c0-.09.01-.18.04-.26h-1.49c.02.08.04.17.04.26 0 .51-.42.93-.93.93s-.93-.42-.93-.93c0-.09.02-.18.04-.26h-1.49c.02.08.03.17.03.26 0 .51-.42.93-.93.93s-.93-.42-.93-.93c0-.09.01-.18.04-.26h-1.49c.02.08.04.17.04.26 0 .51-.42.93-.93.93s-.93-.42-.93-.93c0-.09.01-.18.03-.26h-1.48c.02.08.03.17.03.26 0 .51-.42.93-.93.93s-.93-.42-.93-.93c0-.09.01-.18.03-.26h-1.48c.02.08.03.17.03.26 0 .51-.42.93-.93.93s-.93-.42-.93-.93c0-.09.02-.18.04-.26h-1.49c.02.08.03.17.03.26 0 .51-.42.93-.93.93s-.92-.42-.92-.93c0-.09.01-.18.03-.26H33.8c.02.08.03.17.03.26 0 .51-.42.93-.92.93-.51 0-.93-.42-.93-.93 0-.09.01-.18.03-.26h-1.49c.02.08.04.17.04.26 0 .51-.42.93-.93.93s-.93-.42-.93-.93c0-.09.01-.18.03-.26h-1.49c.02.08.04.17.04.26 0 .51-.42.93-.93.93s-.93-.42-.93-.93c0-.09.02-.18.04-.26h-1.49c.02.08.03.16.03.26 0 .51-.42.93-.93.93s-.92-.42-.92-.93c0-.1.01-.18.03-.26h-1.49c.02.08.03.16.03.26 0 .51-.42.93-.93.93s-.92-.42-.92-.93c0-.09.01-.18.03-.26h-1.49c.02.08.04.17.04.26 0 .45-.32.81-.74.91v1.69c.42.09.74.46.74.91 0 .44-.32.82-.74.9v1.7c.42.1.74.46.74.91s-.32.81-.73.91v1.7c.42.08.73.45.73.9s-.32.82-.73.91v1.7c.42.09.73.46.73.9 0 .45-.32.82-.73.91v1.9c.47.04.85.45.85.93s-.38.88-.85.93v1.66c.47.04.85.44.85.92s-.38.88-.85.92v1.66c.47.05.85.44.85.93 0 .48-.37.88-.85.93v1.66c.47.04.85.43.85.93 0 .48-.37.87-.85.91v1.67c.47.05.85.45.85.92 0 .49-.37.89-.85.93v1.94c.36.12.62.46.62.87 0 .4-.26.75-.62.87v1.76c.37.14.62.47.62.88 0 .41-.26.74-.62.88v1.76c.36.12.62.47.62.87 0 .41-.26.75-.62.87v1.77c.36.13.62.46.62.88 0 .4-.26.74-.62.87v1.15h.41c-.01-.04-.02-.1-.02-.15 0-.51.42-.93.93-.93s.96.41.96.93c0 .05 0 .11-.01.15h1.44c-.01-.04-.01-.1-.01-.15 0-.51.42-.93.93-.93s.92.42.92.93c0 .05 0 .11-.01.15h1.44c0-.04-.01-.1-.01-.15 0-.51.42-.93.92-.93.51 0 .93.42.93.93 0 .05 0 .11-.01.15h1.44c-.01-.04-.01-.1-.01-.15 0-.51.42-.93.93-.93s.93.42.93.93c0 .05-.01.11-.02.15h1.44c-.01-.04-.02-.1-.02-.15 0-.51.42-.93.93-.93s.93.42.93.93c0 .05 0 .11-.01.15h1.44c-.01-.04-.01-.1-.01-.15 0-.51.42-.93.92-.93.51 0 .93.42.93.93 0 .05-.01.11-.01.15h1.44c-.01-.04-.02-.1-.02-.15 0-.51.42-.93.92-.93.51 0 .93.42.93.93 0 .05 0 .11-.01.15h1.44c0-.04-.01-.1-.01-.15 0-.51.42-.93.93-.93s.93.42.93.93c0 .05-.01.11-.02.15h1.44c-.01-.04-.02-.1-.02-.15 0-.51.42-.93.93-.93s.93.42.93.93c0 .05 0 .11-.01.15h1.44c-.01-.04-.01-.1-.01-.15 0-.51.42-.93.93-.93s.93.42.93.93c0 .05-.01.11-.02.15h1.44c-.01-.04-.01-.1-.01-.15 0-.51.42-.93.93-.93s.92.42.92.93c0 .05 0 .11-.01.15h1.44c-.01-.04-.01-.1-.01-.15 0-.51.41-.93.92-.93s.93.42.93.93c0 .05 0 .11-.02.15h1.44c-.01-.04-.01-.1-.01-.15 0-.51.42-.93.93-.93s.93.42.93.93c0 .05 0 .11-.01.15h1.44c-.01-.04-.01-.1-.01-.15 0-.51.42-.93.93-.93s.93.42.93.93c0 .05 0 .11-.01.15h1.44c-.01-.04-.02-.1-.02-.15 0-.51.42-.93.93-.93s.92.42.92.93c0 .05 0 .11-.01.15h1.44c-.01-.04-.01-.1-.01-.15 0-.51.41-.93.92-.93s.93.42.93.93c0 .05 0 .11-.02.15h1.44c0-.04-.01-.1-.01-.15 0-.51.42-.93.93-.93s.93.42.93.93c0 .05 0 .11-.01.15h1.44c-.01-.04-.01-.1-.01-.15 0-.51.42-.93.93-.93s.93.42.93.93c0 .05 0 .11-.01.15h.98v-1.13c-.06.02-.14.04-.23.04zm-.71-6.09c0 .51-.42.93-.93.93s-.93-.42-.93-.93c0-.5.42-.92.93-.92s.93.41.93.92zm-51.41-8.19c-.51 0-.93-.42-.93-.93 0-.5.42-.93.93-.93s.93.43.93.93c0 .52-.42.93-.93.93zm.7 2.81c0 .51-.42.93-.92.93-.51 0-.93-.42-.93-.93s.42-.93.93-.93c.5 0 .92.41.92.93zm40.9-14.27c0-.51.42-.93.92-.93.51 0 .93.42.93.93s-.42.93-.93.93c-.5 0-.92-.42-.92-.93zm.22 1.87c0 .51-.42.93-.92.93-.51 0-.93-.42-.93-.93 0-.5.42-.92.93-.92.5 0 .92.41.92.92zm-.93-2.57c-.51 0-.93-.42-.93-.93s.42-.93.93-.93.92.42.92.93c.01.51-.41.93-.92.93zm-.7.7c0 .51-.42.93-.92.93-.51 0-.93-.42-.93-.93s.42-.93.93-.93c.5 0 .92.41.92.93zm-4.2 2.58c.51 0 .93.42.93.93s-.41.93-.93.93-.93-.42-.93-.93.41-.93.93-.93zm-1.64.22c-.51 0-.93-.42-.93-.93 0-.5.42-.92.93-.92s.93.42.93.92c0 .51-.42.93-.93.93zm2.34-.93c0-.5.42-.92.93-.92s.93.42.93.92c0 .51-.42.93-.93.93s-.93-.42-.93-.93zm.93-2.57c-.51 0-.93-.42-.93-.93s.42-.93.93-.93.93.42.93.93-.42.93-.93.93zm-.7.7c0 .51-.41.93-.93.93s-.93-.42-.93-.93.42-.93.93-.93.93.41.93.93zm-2.57-.7c-.51 0-.93-.42-.93-.93s.42-.93.93-.93.93.42.93.93-.42.93-.93.93zm-.7.7c0 .51-.42.93-.93.93s-.93-.42-.93-.93.42-.93.93-.93.93.41.93.93zm-1.65 1.87c0 .51-.41.93-.93.93-.51 0-.92-.42-.92-.93 0-.5.42-.92.92-.92.52 0 .93.41.93.92zm-.93-2.57c-.51 0-.92-.42-.92-.93s.42-.93.92-.93c.51 0 .93.42.93.93s-.41.93-.93.93zm-.7.7c0 .51-.42.93-.92.93-.51 0-.93-.42-.93-.93s.42-.93.93-.93.92.41.92.93zm-4.2 2.58c.51 0 .93.42.93.93s-.42.93-.93.93-.93-.42-.93-.93c.01-.51.42-.93.93-.93zm-1.64.22c-.51 0-.93-.42-.93-.93 0-.5.42-.92.93-.92s.93.42.93.92c0 .51-.41.93-.93.93zm2.35-.93c0-.5.42-.92.93-.92s.92.42.92.92c0 .51-.42.93-.92.93-.52 0-.93-.42-.93-.93zm.93-2.57c-.51 0-.93-.42-.93-.93s.42-.93.93-.93.92.42.92.93-.41.93-.92.93zm-.71.7c0 .51-.42.93-.93.93s-.93-.42-.93-.93.42-.93.93-.93.93.41.93.93zm-2.57-.7c-.51 0-.93-.42-.93-.93s.42-.93.93-.93.93.42.93.93-.41.93-.93.93zm-.7.7c0 .51-.42.93-.93.93s-.93-.42-.93-.93.42-.93.93-.93.93.41.93.93zm-4.2 2.58c.51 0 .93.42.93.93s-.42.93-.93.93-.93-.42-.93-.93.42-.93.93-.93zm-1.64.22c-.51 0-.93-.42-.93-.93 0-.5.42-.92.93-.92s.93.42.93.92c0 .51-.42.93-.93.93zm2.34-.93c0-.5.42-.92.93-.92s.93.42.93.92c0 .51-.42.93-.93.93s-.93-.42-.93-.93zm.93-2.57c-.51 0-.93-.42-.93-.93s.42-.93.93-.93.93.42.93.93-.42.93-.93.93zm-.7.7c0 .51-.42.93-.93.93s-.93-.42-.93-.93.42-.93.93-.93.93.41.93.93zm-2.57-.7c-.51 0-.93-.42-.93-.93s.42-.93.93-.93.93.42.93.93-.42.93-.93.93zm-.7.7c0 .51-.42.93-.93.93s-.93-.42-.93-.93.42-.93.93-.93.93.41.93.93zm-1.65 1.87c0 .51-.42.93-.93.93s-.92-.42-.92-.93c0-.5.42-.92.92-.92.52 0 .93.41.93.92zm-.92-2.57c-.51 0-.92-.42-.92-.93s.42-.93.92-.93c.51 0 .93.42.93.93-.01.51-.42.93-.93.93zm-.71.7c0 .51-.42.93-.93.93s-.92-.42-.92-.93.42-.93.92-.93c.52 0 .93.41.93.93zm-1.64 1.87c0 .51-.42.93-.92.93-.51 0-.93-.42-.93-.93 0-.5.42-.92.93-.92s.92.41.92.92zm-.93-2.57c-.51 0-.92-.42-.92-.93s.42-.93.92-.93c.51 0 .93.42.93.93s-.41.93-.93.93zm-.7.7c0 .51-.42.93-.93.93s-.92-.42-.92-.93.42-.93.92-.93c.52 0 .93.41.93.93zm-4.2 2.58c.51 0 .93.42.93.93s-.42.93-.93.93-.93-.42-.93-.93.42-.93.93-.93zm-1.64.22c-.51 0-.93-.42-.93-.93 0-.5.42-.92.93-.92s.93.42.93.92c0 .51-.41.93-.93.93zm2.35-.93c0-.5.42-.92.93-.92s.92.42.92.92c0 .51-.42.93-.92.93-.52 0-.93-.42-.93-.93zm.92-2.57c-.51 0-.93-.42-.93-.93s.42-.93.93-.93.92.42.92.93c.01.51-.41.93-.92.93zm-.7.7c0 .51-.42.93-.93.93s-.93-.42-.93-.93.42-.93.93-.93.93.41.93.93zm-2.57-.7c-.51 0-.93-.42-.93-.93s.42-.93.93-.93.93.42.93.93-.41.93-.93.93zm-.7.7c0 .51-.42.93-.93.93s-.93-.42-.93-.93.42-.93.93-.93.93.41.93.93zm-.93 2.58c.51 0 .93.42.93.93s-.42.93-.93.93-.93-.42-.93-.93.42-.93.93-.93zm1.63 1.88c.51 0 .93.42.93.93s-.42.93-.93.93-.93-.42-.93-.93c0-.52.42-.93.93-.93zm1.64 1.64c.51 0 .93.42.93.93s-.42.93-.93.93-.93-.42-.93-.93.42-.93.93-.93zm.71-.71c0-.51.42-.93.93-.93s.93.42.93.93-.42.93-.93.93c-.52 0-.93-.42-.93-.93zm1.64-1.88c0-.51.42-.93.92-.93.51 0 .93.42.93.93s-.42.93-.92.93c-.52 0-.93-.42-.93-.93zm2.55.95c.51 0 .93.42.93.93s-.42.93-.93.93-.92-.42-.92-.93c0-.52.41-.93.92-.93zm.71-.95c0-.51.42-.93.93-.93s.93.42.93.93-.42.93-.93.93-.92-.42-.93-.93zm2.57.95c.51 0 .93.42.93.93s-.42.93-.93.93-.93-.42-.93-.93c0-.52.42-.93.93-.93zm.71-.95c0-.51.42-.93.93-.93s.93.42.93.93-.42.93-.93.93-.93-.42-.93-.93zm2.56.95c.51 0 .93.42.93.93s-.42.93-.93.93-.93-.42-.93-.93c0-.52.41-.93.93-.93zm1.64 1.64c.51 0 .93.42.93.93s-.42.93-.93.93-.93-.42-.93-.93.42-.93.93-.93zm.7-.71c0-.51.42-.93.93-.93s.93.42.93.93-.42.93-.93.93-.93-.42-.93-.93zm1.64-1.88c0-.51.42-.93.93-.93s.93.42.93.93-.42.93-.93.93-.93-.42-.93-.93zm2.56.95c.51 0 .92.42.92.93s-.42.93-.92.93c-.51 0-.93-.42-.93-.93 0-.52.42-.93.93-.93zm1.64 1.64c.51 0 .93.42.93.93s-.42.93-.92.93c-.51 0-.93-.42-.93-.93s.41-.93.92-.93zm.71-.71c0-.51.42-.93.92-.93.51 0 .93.42.93.93s-.42.93-.93.93-.92-.42-.92-.93zm1.63-1.88c0-.51.42-.93.93-.93s.93.42.93.93-.42.93-.93.93-.93-.42-.93-.93zm2.56.95c.51 0 .93.42.93.93s-.41.93-.93.93c-.51 0-.93-.42-.93-.93.01-.52.43-.93.93-.93zm.72-.95c0-.51.42-.93.93-.93s.93.42.93.93-.42.93-.93.93c-.52 0-.93-.42-.93-.93zm2.56.95c.51 0 .93.42.93.93s-.42.93-.93.93-.93-.42-.93-.93c0-.52.41-.93.93-.93zm1.64 1.64c.51 0 .93.42.93.93s-.42.93-.93.93-.93-.42-.93-.93.41-.93.93-.93zm.7-.71c0-.51.42-.93.93-.93s.93.42.93.93-.42.93-.93.93-.93-.42-.93-.93zm1.64-1.88c0-.51.42-.93.92-.93.51 0 .93.42.93.93s-.42.93-.92.93c-.51 0-.93-.42-.93-.93zm2.56.95c.51 0 .93.42.93.93s-.42.93-.93.93-.92-.42-.92-.93c-.01-.52.41-.93.92-.93zm.71-.95c0-.51.42-.93.92-.93.51 0 .93.42.93.93s-.42.93-.93.93c-.5 0-.92-.42-.92-.93zm2.56.95c.51 0 .93.42.93.93s-.41.93-.93.93c-.51 0-.93-.42-.93-.93 0-.52.42-.93.93-.93zm0-1.66c-.51 0-.93-.42-.93-.93 0-.5.42-.92.93-.92s.93.42.93.92c0 .51-.42.93-.93.93zm0-3.5c-.51 0-.93-.42-.93-.93s.42-.93.93-.93.93.42.93.93-.42.93-.93.93zm-.11-3.74c-.51 0-.93-.42-.93-.93s.42-.93.93-.93.92.42.92.93c.01.51-.41.93-.92.93zm-.59.93c0 .51-.42.93-.93.93s-.92-.42-.92-.93.42-.93.92-.93c.51 0 .93.41.93.93zm-2.68-.93c-.51 0-.93-.42-.93-.93s.42-.93.93-.93.93.42.93.93-.42.93-.93.93zm-.59.93c0 .51-.42.93-.92.93-.51 0-.93-.42-.93-.93s.42-.93.93-.93c.5 0 .92.41.92.93zm-2.68-.93c-.51 0-.93-.42-.93-.93s.41-.93.93-.93.93.42.93.93-.42.93-.93.93zm-.59.93c0 .51-.41.93-.93.93s-.93-.42-.93-.93.42-.93.93-.93.93.41.93.93zm-2.69-.93c-.51 0-.93-.42-.93-.93s.42-.93.93-.93.93.42.93.93-.41.93-.93.93zm-.58.93c0 .51-.42.93-.93.93s-.93-.42-.93-.93.42-.93.93-.93.93.41.93.93zm-2.69-.93c-.51 0-.92-.42-.92-.93s.42-.93.92-.93c.51 0 .93.42.93.93s-.42.93-.93.93zm-.59.93c0 .51-.42.93-.93.93s-.92-.42-.92-.93.42-.93.92-.93c.52 0 .93.41.93.93zm-2.68-.93c-.51 0-.93-.42-.93-.93s.42-.93.93-.93.92.42.92.93c.01.51-.41.93-.92.93zm-.59.93c0 .51-.42.93-.92.93-.51 0-.93-.42-.93-.93s.42-.93.93-.93c.5 0 .92.41.92.93zm-2.68-.93c-.51 0-.93-.42-.93-.93s.42-.93.93-.93.93.42.93.93-.42.93-.93.93zm-.59.93c0 .51-.42.93-.93.93s-.93-.42-.93-.93.42-.93.93-.93.93.41.93.93zm-2.68-.93c-.51 0-.93-.42-.93-.93s.42-.93.93-.93.93.42.93.93-.42.93-.93.93zm-.59.93c0 .51-.42.93-.93.93s-.93-.42-.93-.93.42-.93.93-.93.93.41.93.93zm-2.69-.93c-.51 0-.92-.42-.92-.93s.42-.93.92-.93c.51 0 .93.42.93.93s-.41.93-.93.93zm-.58.93c0 .51-.42.93-.93.93s-.93-.42-.93-.93.42-.93.93-.93.93.41.93.93zm-2.68-.93c-.51 0-.93-.42-.93-.93s.42-.93.93-.93.92.42.92.93-.41.93-.92.93zm-.6.93c0 .51-.42.93-.93.93s-.92-.42-.92-.93.42-.93.92-.93c.52 0 .93.41.93.93zm-2.68-.93c-.51 0-.93-.42-.93-.93s.42-.93.93-.93.93.42.93.93-.41.93-.93.93zm-.59.93c0 .51-.42.93-.93.93s-.92-.42-.92-.93.42-.93.92-.93c.52 0 .93.41.93.93zm-2.68-.93c-.51 0-.93-.42-.93-.93s.42-.93.93-.93.93.42.93.93-.41.93-.93.93zm-.59.93c0 .51-.42.93-.93.93s-.93-.42-.93-.93.42-.93.93-.93.93.41.93.93zM28 53.42c-.51 0-.93-.42-.93-.93s.42-.93.93-.93.93.42.93.93-.42.93-.93.93zm-.59.93c0 .51-.42.93-.93.93s-.93-.42-.93-.93.42-.93.93-.93.93.41.93.93zm-2.68-.93c-.51 0-.93-.42-.93-.93s.42-.93.93-.93.93.42.93.93-.42.93-.93.93zm.11 1.88c.51 0 .93.42.93.93s-.42.93-.93.93-.93-.42-.93-.93c0-.52.42-.93.93-.93zm0 3.51c.51 0 .93.42.93.92 0 .51-.42.93-.93.93s-.93-.42-.93-.93.42-.92.93-.92zm0 3.51c.51 0 .93.42.93.93s-.42.93-.93.93-.93-.42-.93-.93c0-.52.42-.93.93-.93zm0 3.51c.51 0 .93.42.93.93s-.42.93-.93.93-.93-.42-.93-.93.42-.93.93-.93zm.71-.94c0-.51.42-.93.93-.93s.93.42.93.93-.42.93-.93.93-.93-.42-.93-.93zm2.56.94c.51 0 .93.42.93.93s-.42.93-.93.93-.93-.42-.93-.93.42-.93.93-.93zm1.64 1.63c.51 0 .92.43.92.93 0 .51-.42.93-.92.93-.51 0-.93-.42-.93-.93 0-.5.42-.93.93-.93zm.71-.7c0-.51.42-.93.93-.93s.92.42.92.93-.42.93-.92.93c-.52 0-.93-.42-.93-.93zm1.64-1.87c0-.51.42-.93.92-.93.51 0 .93.42.93.93s-.42.93-.93.93-.92-.42-.92-.93zm2.55.94c.51 0 .93.42.93.93s-.42.93-.93.93-.92-.42-.92-.93.41-.93.92-.93zm.71-.94c0-.51.42-.93.93-.93s.93.42.93.93-.42.93-.93.93-.93-.42-.93-.93zm2.57.94c.51 0 .93.42.93.93s-.42.93-.93.93-.92-.42-.92-.93c-.01-.51.41-.93.92-.93zm.71-.94c0-.51.42-.93.93-.93s.93.42.93.93-.42.93-.93.93-.93-.42-.93-.93zm2.56.94c.51 0 .93.42.93.93s-.42.93-.93.93-.93-.42-.93-.93.41-.93.93-.93zm1.64 1.63c.51 0 .93.43.93.93 0 .51-.42.93-.93.93s-.93-.42-.93-.93c0-.5.42-.93.93-.93zm.7-.7c0-.51.42-.93.93-.93s.93.42.93.93-.42.93-.93.93-.93-.42-.93-.93zm1.64-1.87c0-.51.42-.93.93-.93s.93.42.93.93-.42.93-.93.93-.93-.42-.93-.93zm2.56.94c.51 0 .93.42.93.93s-.42.93-.93.93-.93-.42-.93-.93.42-.93.93-.93zm1.64 1.63c.51 0 .93.43.93.93 0 .51-.42.93-.92.93-.51 0-.93-.42-.93-.93 0-.5.41-.93.92-.93zm.71-.7c0-.51.42-.93.92-.93.51 0 .93.42.93.93s-.42.93-.93.93-.92-.42-.92-.93zm1.63-1.87c0-.51.42-.93.93-.93s.93.42.93.93-.42.93-.93.93-.93-.42-.93-.93zm2.56.94c.51 0 .93.42.93.93s-.41.93-.93.93-.93-.42-.93-.93c.01-.51.42-.93.93-.93zm.72-.94c0-.51.42-.93.93-.93s.93.42.93.93-.42.93-.93.93c-.52 0-.93-.42-.93-.93zm2.56.94c.51 0 .93.42.93.93s-.42.93-.93.93-.93-.42-.93-.93.41-.93.93-.93zm1.64 1.63c.51 0 .93.43.93.93 0 .51-.42.93-.93.93s-.93-.42-.93-.93c0-.5.41-.93.93-.93zm.7-.7c0-.51.42-.93.93-.93s.93.42.93.93-.42.93-.93.93-.93-.42-.93-.93zm1.64-1.87c0-.51.42-.93.92-.93.51 0 .93.42.93.93s-.42.93-.93.93c-.5 0-.92-.42-.92-.93zm2.56.94c.51 0 .93.42.93.93s-.42.93-.92.93c-.51 0-.93-.42-.93-.93-.01-.51.41-.93.92-.93zm.71-.94c0-.51.42-.93.92-.93.51 0 .93.42.93.93s-.42.93-.93.93c-.5 0-.92-.42-.92-.93zm2.56.94c.51 0 .93.42.93.93s-.41.93-.93.93c-.51 0-.93-.42-.93-.93s.42-.93.93-.93zm.71-.94c0-.51.42-.93.93-.93s.93.42.93.93-.42.93-.93.93-.93-.42-.93-.93zm.93-2.59c-.51 0-.93-.42-.93-.93s.42-.93.93-.93.93.42.93.93-.41.93-.93.93zm0-3.51c-.51 0-.93-.42-.93-.93s.42-.93.93-.93.93.42.93.93-.41.93-.93.93zm0-3.51c-.51 0-.93-.42-.93-.93s.42-.93.93-.93.93.42.93.93-.41.93-.93.93zm-.11-3.74c-.51 0-.93-.42-.93-.93 0-.5.42-.93.93-.93s.93.42.93.93-.42.93-.93.93zm-1.64-1.63c-.51 0-.93-.42-.93-.93s.42-.93.93-.93.92.42.92.93c.01.51-.41.93-.92.93zm-.71.7c0 .51-.42.93-.92.93-.51 0-.93-.42-.93-.93 0-.5.41-.93.93-.93.51 0 .92.43.92.93zm-2.56-.7c-.51 0-.93-.42-.93-.93s.42-.93.93-.93.93.42.93.93-.42.93-.93.93zm-.7.7c0 .51-.42.93-.93.93s-.93-.42-.93-.93c0-.5.42-.93.93-.93s.93.43.93.93zm-2.57-.7c-.51 0-.93-.42-.93-.93s.41-.93.93-.93.93.42.93.93-.42.93-.93.93zm-.71.7c0 .51-.42.93-.93.93s-.93-.42-.93-.93c0-.5.42-.93.93-.93.52 0 .93.43.93.93zm-2.57-.7c-.51 0-.93-.42-.93-.93s.42-.93.93-.93.93.42.93.93-.41.93-.93.93zm-.7.7c0 .51-.42.93-.93.93s-.93-.42-.93-.93c0-.5.42-.93.93-.93.52 0 .93.43.93.93zm-2.57-.7c-.51 0-.92-.42-.92-.93s.42-.93.92-.93c.51 0 .93.42.93.93s-.42.93-.93.93zm-.7.7c0 .51-.42.93-.93.93s-.92-.42-.92-.93c0-.5.41-.93.92-.93s.93.43.93.93zm-2.57-.7c-.51 0-.93-.42-.93-.93s.42-.93.93-.93.92.42.92.93c.01.51-.41.93-.92.93zm-.7.7c0 .51-.42.93-.92.93-.51 0-.93-.42-.93-.93 0-.5.42-.93.93-.93.5 0 .92.43.92.93zm-2.57-.7c-.51 0-.93-.42-.93-.93s.42-.93.93-.93.93.42.93.93-.42.93-.93.93zm-.7.7c0 .51-.42.93-.93.93s-.93-.42-.93-.93c0-.5.42-.93.93-.93s.93.43.93.93zm-2.57-.7c-.51 0-.93-.42-.93-.93s.42-.93.93-.93.93.42.93.93-.42.93-.93.93zm-.7.7c0 .51-.42.93-.93.93s-.93-.42-.93-.93c0-.5.42-.93.93-.93s.93.43.93.93zm-2.58-.7c-.51 0-.92-.42-.92-.93s.42-.93.92-.93c.51 0 .93.42.93.93s-.41.93-.93.93zm-.7.7c0 .51-.42.93-.93.93s-.92-.42-.92-.93c0-.5.42-.93.92-.93.52 0 .93.43.93.93zm-2.56-.7c-.51 0-.93-.42-.93-.93s.42-.93.93-.93.92.42.92.93-.41.93-.92.93zm-.71.7c0 .51-.42.93-.92.93-.51 0-.93-.42-.93-.93 0-.5.42-.93.92-.93.51 0 .93.43.93.93zm-2.57-.7c-.51 0-.93-.42-.93-.93s.42-.93.93-.93.93.42.93.93-.42.93-.93.93zm-.7.7c0 .51-.42.93-.93.93s-.93-.42-.93-.93c0-.5.42-.93.93-.93s.93.43.93.93zm-2.57-.7c-.51 0-.93-.42-.93-.93s.42-.93.93-.93.93.42.93.93-.41.93-.93.93zm-.7.7c0 .51-.42.93-.93.93s-.93-.42-.93-.93c0-.5.42-.93.93-.93s.93.43.93.93zm-2.57-.7c-.51 0-.93-.42-.93-.93s.42-.93.93-.93.93.42.93.93-.42.93-.93.93zm-.7.7c0 .51-.42.93-.93.93s-.93-.42-.93-.93c0-.5.42-.93.93-.93s.93.43.93.93zm-2.57-.7c-.51 0-.93-.42-.93-.93s.42-.93.93-.93.93.42.93.93-.42.93-.93.93zm-.71.7c0 .51-.42.93-.93.93s-.92-.42-.92-.93c0-.5.42-.93.92-.93.52 0 .93.43.93.93zm-.81 2.81c.51 0 .93.42.93.93s-.42.93-.93.93-.92-.42-.92-.93c-.01-.52.41-.93.92-.93zm0 3.51c.51 0 .93.43.93.93 0 .51-.42.93-.93.93s-.92-.42-.92-.93c-.01-.5.41-.93.92-.93zm0 3.51c.51 0 .93.42.93.93s-.42.93-.93.93-.92-.42-.92-.93c-.01-.51.41-.93.92-.93zm0 3.52c.51 0 .93.42.93.93s-.42.93-.93.93-.92-.42-.92-.93c-.01-.51.41-.93.92-.93zm1.63 5.38c.51 0 .93.42.93.93s-.42.93-.93.93-.93-.42-.93-.93.42-.93.93-.93zm1.41 1.86c.51 0 .93.42.93.93s-.42.93-.93.93-.92-.42-.92-.93c0-.52.41-.93.92-.93zm.23-1.88c-.51 0-.93-.42-.93-.93 0-.5.42-.92.93-.92s.93.42.93.92c0 .52-.41.93-.93.93zm1.63.02c.51 0 .93.42.93.93s-.42.93-.93.93-.93-.42-.93-.93.42-.93.93-.93zm1.42 1.86c.51 0 .93.42.93.93s-.42.93-.93.93-.93-.42-.93-.93c0-.52.41-.93.93-.93zm.93-.93c0-.51.42-.93.93-.93s.93.42.93.93-.42.93-.93.93c-.52 0-.93-.42-.93-.93zm2.34.93c.51 0 .93.42.93.93s-.42.93-.93.93-.93-.42-.93-.93c0-.52.41-.93.93-.93zm.23-1.88c-.51 0-.93-.42-.93-.93 0-.5.42-.92.93-.92s.92.42.92.92c0 .52-.41.93-.92.93zm1.63.02c.51 0 .92.42.92.93s-.42.93-.92.93c-.51 0-.93-.42-.93-.93s.41-.93.93-.93zm1.41 1.86c.51 0 .93.42.93.93s-.42.93-.93.93-.93-.42-.93-.93c0-.52.42-.93.93-.93zm.22-1.88c-.51 0-.92-.42-.92-.93s.42-.93.92-.93c.51 0 .93.42.93.93 0 .52-.41.93-.93.93zm1.64.02c.51 0 .93.42.93.93s-.42.93-.93.93-.92-.42-.92-.93.41-.93.92-.93zm1.41 1.86c.51 0 .92.42.92.93s-.42.93-.92.93c-.51 0-.93-.42-.93-.93.01-.52.42-.93.93-.93zm.23-1.88c-.51 0-.93-.42-.93-.93s.42-.93.93-.93.93.42.93.93c0 .52-.42.93-.93.93zm1.63.02c.51 0 .93.42.93.93s-.42.93-.93.93-.93-.42-.93-.93.41-.93.93-.93zm1.41 1.86c.51 0 .93.42.93.93s-.42.93-.93.93-.92-.42-.92-.93c0-.52.41-.93.92-.93zm.93-.93c0-.51.42-.93.93-.93s.93.42.93.93-.42.93-.93.93-.93-.42-.93-.93zm2.34.93c.51 0 .93.42.93.93s-.42.93-.93.93-.93-.42-.93-.93c.01-.52.42-.93.93-.93zm.23-1.88c-.51 0-.93-.42-.93-.93 0-.5.42-.93.93-.93s.92.43.92.93c.01.52-.41.93-.92.93zm1.63.02c.51 0 .93.42.93.93s-.42.93-.93.93-.93-.42-.93-.93.42-.93.93-.93zm1.42 1.86c.51 0 .93.42.93.93s-.42.93-.93.93-.93-.42-.93-.93c0-.52.41-.93.93-.93zm.93-.93c0-.51.42-.93.92-.93.51 0 .93.42.93.93s-.42.93-.93.93-.92-.42-.92-.93zm2.34.93c.51 0 .93.42.93.93s-.42.93-.93.93-.93-.42-.93-.93c0-.52.42-.93.93-.93zm.22-1.88c-.51 0-.93-.42-.93-.93 0-.5.42-.93.93-.93s.93.43.93.93c0 .52-.41.93-.93.93zm1.63.02c.51 0 .93.42.93.93s-.41.93-.93.93-.93-.42-.93-.93.42-.93.93-.93zm1.42 1.86c.51 0 .93.42.93.93s-.41.93-.93.93c-.51 0-.92-.42-.92-.93-.01-.52.41-.93.92-.93zm.23-1.88c-.51 0-.93-.42-.93-.93 0-.5.42-.93.93-.93s.93.43.93.93c0 .52-.42.93-.93.93zm1.63.02c.51 0 .93.42.93.93s-.42.93-.93.93-.93-.42-.93-.93.41-.93.93-.93zm1.41 1.86c.51 0 .93.42.93.93s-.42.93-.93.93-.93-.42-.93-.93c0-.52.42-.93.93-.93zm.93-.93c0-.51.42-.93.93-.93s.93.42.93.93-.42.93-.93.93-.93-.42-.93-.93zm2.34.93c.51 0 .93.42.93.93s-.42.93-.93.93-.93-.42-.93-.93c0-.52.42-.93.93-.93zm.23-1.88c-.51 0-.92-.42-.92-.93 0-.5.42-.93.92-.93.51 0 .93.43.93.93 0 .52-.42.93-.93.93zm1.63.02c.51 0 .93.42.93.93s-.42.93-.93.93-.92-.42-.92-.93.41-.93.92-.93zm1.42 1.86c.51 0 .93.42.93.93s-.42.93-.93.93-.93-.42-.93-.93c0-.52.41-.93.93-.93zm.22-1.88c-.51 0-.93-.42-.93-.93 0-.5.42-.93.93-.93s.93.43.93.93c0 .52-.42.93-.93.93zm1.63.02c.51 0 .93.42.93.93s-.41.93-.93.93-.93-.42-.93-.93.42-.93.93-.93zm1.41 1.86c.51 0 .93.42.93.93s-.41.93-.93.93c-.51 0-.92-.42-.92-.93 0-.52.42-.93.92-.93zm.23-1.88c-.51 0-.93-.42-.93-.93 0-.5.42-.93.93-.93s.93.43.93.93c0 .52-.41.93-.93.93zm1.63.02c.51 0 .93.42.93.93s-.42.93-.93.93-.93-.42-.93-.93.42-.93.93-.93zm0-1.65c-.51 0-.93-.42-.93-.93s.42-.93.93-.93.93.42.93.93-.41.93-.93.93zm0-3.51c-.51 0-.93-.42-.93-.93s.42-.93.93-.93.93.42.93.93-.41.93-.93.93zm0-3.52c-.51 0-.93-.42-.93-.93 0-.5.42-.92.93-.92s.93.42.93.92c0 .51-.41.93-.93.93zm0-3.5c-.51 0-.93-.42-.93-.93s.42-.93.93-.93.93.42.93.93-.41.93-.93.93zm-.11-3.74c-.51 0-.92-.42-.92-.93s.42-.93.92-.93c.51 0 .93.42.93.93s-.42.93-.93.93zm0-3.51c-.51 0-.92-.42-.92-.93s.42-.93.92-.93c.51 0 .93.42.93.93s-.42.93-.93.93zm0-3.51c-.51 0-.92-.42-.92-.93s.42-.93.92-.93c.51 0 .93.42.93.93s-.42.93-.93.93zm-.7.71c0 .51-.42.93-.93.93s-.93-.42-.93-.93.42-.93.93-.93.93.42.93.93zm-2.57-.71c-.51 0-.93-.42-.93-.93s.42-.93.93-.93.92.42.92.93c.01.51-.41.93-.92.93zm-.71.71c0 .51-.42.93-.92.93-.51 0-.93-.42-.93-.93s.41-.93.93-.93c.51 0 .93.42.92.93zm-2.56-.71c-.51 0-.93-.42-.93-.93s.42-.93.93-.93.93.42.93.93-.42.93-.93.93zm-.7.71c0 .51-.42.93-.93.93s-.93-.42-.93-.93.42-.93.93-.93.93.42.93.93zm-2.57-.71c-.51 0-.93-.42-.93-.93s.41-.93.93-.93.93.42.93.93-.42.93-.93.93zm-.71.71c0 .51-.42.93-.93.93s-.93-.42-.93-.93.42-.93.93-.93c.52 0 .93.42.93.93zm-2.57-.71c-.51 0-.93-.42-.93-.93s.42-.93.93-.93.93.42.93.93-.41.93-.93.93zm-.7.71c0 .51-.42.93-.93.93s-.93-.42-.93-.93.42-.93.93-.93c.52 0 .93.42.93.93zm-2.57-.71c-.51 0-.92-.42-.92-.93s.42-.93.92-.93c.51 0 .93.42.93.93s-.42.93-.93.93zm-.7.71c0 .51-.42.93-.93.93s-.92-.42-.92-.93.41-.93.92-.93.93.42.93.93zm-2.57-.71c-.51 0-.93-.42-.93-.93s.42-.93.93-.93.92.42.92.93c.01.51-.41.93-.92.93zm-.7.71c0 .51-.42.93-.92.93-.51 0-.93-.42-.93-.93s.42-.93.93-.93c.5 0 .92.42.92.93zm-2.57-.71c-.51 0-.93-.42-.93-.93s.42-.93.93-.93.93.42.93.93-.42.93-.93.93zm-.7.71c0 .51-.42.93-.93.93s-.93-.42-.93-.93.42-.93.93-.93.93.42.93.93zm-2.57-.71c-.51 0-.93-.42-.93-.93s.42-.93.93-.93.93.42.93.93-.42.93-.93.93zm-.7.71c0 .51-.42.93-.93.93s-.93-.42-.93-.93.42-.93.93-.93.93.42.93.93zm-2.58-.71c-.51 0-.93-.42-.93-.93s.42-.93.93-.93.93.42.93.93-.41.93-.93.93zm-.7.71c0 .51-.42.93-.93.93s-.92-.42-.92-.93.42-.93.92-.93c.52 0 .93.42.93.93zm-2.57-.71c-.51 0-.92-.42-.92-.93s.42-.93.92-.93c.51 0 .93.42.93.93s-.41.93-.93.93zm-.7.71c0 .51-.42.93-.93.93s-.92-.42-.92-.93.42-.93.92-.93c.51 0 .93.42.93.93zm-2.57-.71c-.51 0-.93-.42-.93-.93s.42-.93.93-.93.92.42.92.93c.01.51-.41.93-.92.93zm-.7.71c0 .51-.42.93-.92.93-.51 0-.93-.42-.93-.93s.42-.93.93-.93c.5 0 .92.42.92.93zm-2.57-.71c-.51 0-.93-.42-.93-.93s.42-.93.93-.93.93.42.93.93-.41.93-.93.93zm-.7.71c0 .51-.42.93-.93.93s-.93-.42-.93-.93.42-.93.93-.93.93.42.93.93zM28 46.4c-.51 0-.93-.42-.93-.93s.42-.93.93-.93.93.42.93.93-.42.93-.93.93zm-.7.71c0 .51-.42.93-.93.93s-.93-.42-.93-.93.42-.93.93-.93.93.42.93.93zm-2.57-.71c-.51 0-.93-.42-.93-.93s.42-.93.93-.93.93.42.93.93-.42.93-.93.93zm-.71.71c0 .51-.42.93-.93.93s-.92-.42-.92-.93.42-.93.92-.93c.52 0 .93.42.93.93zm-2.56-.71c-.51 0-.93-.42-.93-.93s.42-.93.93-.93.92.42.92.93-.41.93-.92.93zm0 1.65c.51 0 .92.42.92.93s-.42.93-.92.93c-.51 0-.93-.42-.93-.93 0-.52.41-.93.93-.93zm0 3.51c.51 0 .92.42.92.93s-.42.93-.92.93c-.51 0-.93-.42-.93-.93s.41-.93.93-.93zm.11 3.74c.51 0 .92.42.92.93s-.42.93-.92.93c-.51 0-.93-.42-.93-.93 0-.52.42-.93.93-.93zm0 3.51c.51 0 .92.42.92.92 0 .51-.42.93-.92.93-.51 0-.93-.42-.93-.93s.42-.92.93-.92zm0 3.51c.51 0 .92.42.92.93s-.42.93-.92.93c-.51 0-.93-.42-.93-.93 0-.52.42-.93.93-.93zm0 3.51c.51 0 .92.42.92.93s-.42.93-.92.93c-.51 0-.93-.42-.93-.93s.42-.93.93-.93zm0 3.51c.51 0 .92.42.92.93s-.42.93-.92.93c-.51 0-.93-.42-.93-.93s.42-.93.93-.93zm-.23 3.74c.51 0 .93.42.93.93s-.42.93-.93.93-.93-.42-.93-.93c.01-.52.42-.93.93-.93zm1.65 1.64c.51 0 .92.42.92.92 0 .51-.42.93-.92.93-.51 0-.93-.42-.93-.93s.41-.93.93-.92zm.7-.71c0-.51.42-.93.93-.93s.92.42.92.93-.42.93-.92.93c-.52 0-.93-.42-.93-.93zm2.56.71c.51 0 .93.42.93.92 0 .51-.42.93-.92.93-.51 0-.93-.42-.93-.93s.41-.93.92-.92zm.71-.71c0-.51.42-.93.92-.93.51 0 .93.42.93.93s-.42.93-.93.93c-.5 0-.92-.42-.92-.93zm2.57.71c.51 0 .93.42.93.92 0 .51-.42.93-.93.93s-.92-.42-.92-.93c-.01-.51.41-.93.92-.92zm.7-.71c0-.51.42-.93.93-.93s.93.42.93.93-.42.93-.93.93-.93-.42-.93-.93zm2.57.71c.51 0 .93.42.93.92 0 .51-.42.93-.93.93s-.93-.42-.93-.93.41-.93.93-.92zm.7-.71c0-.51.42-.93.93-.93s.93.42.93.93-.42.93-.93.93-.93-.42-.93-.93zm2.57.71c.51 0 .93.42.93.92 0 .51-.42.93-.93.93s-.93-.42-.93-.93.42-.93.93-.92zm.7-.71c0-.51.42-.93.93-.93s.93.42.93.93-.42.93-.93.93-.93-.42-.93-.93zm2.57.71c.51 0 .92.42.92.92 0 .51-.42.93-.92.93-.51 0-.93-.42-.93-.93.01-.51.42-.93.93-.92zm.71-.71c0-.51.42-.93.92-.93.51 0 .93.42.93.93s-.42.93-.92.93c-.52 0-.93-.42-.93-.93zm2.56.71c.51 0 .93.42.93.92 0 .51-.42.93-.93.93s-.92-.42-.92-.93.41-.93.92-.92zm.71-.71c0-.51.42-.93.92-.93.51 0 .93.42.93.93s-.42.93-.93.93-.92-.42-.92-.93zm2.56.71c.51 0 .93.42.93.92 0 .51-.42.93-.93.93s-.93-.42-.93-.93c.01-.51.42-.93.93-.92zm.71-.71c0-.51.42-.93.93-.93s.93.42.93.93-.42.93-.93.93-.93-.42-.93-.93zm2.57.71c.51 0 .93.42.93.92 0 .51-.42.93-.93.93s-.93-.42-.93-.93.41-.93.93-.92zm.7-.71c0-.51.42-.93.93-.93s.93.42.93.93-.42.93-.93.93c-.52 0-.93-.42-.93-.93zm2.57.71c.51 0 .93.42.93.92 0 .51-.42.93-.93.93s-.93-.42-.93-.93.42-.93.93-.92zm.7-.71c0-.51.41-.93.93-.93s.93.42.93.93-.42.93-.93.93-.93-.42-.93-.93zm2.57.71c.51 0 .93.42.93.92 0 .51-.42.93-.93.93s-.93-.42-.93-.93.42-.93.93-.92zm.7-.71c0-.51.42-.93.93-.93s.92.42.92.93-.42.93-.92.93c-.51 0-.93-.42-.93-.93zm2.58.71c.51 0 .92.42.92.92 0 .51-.42.93-.92.93-.51 0-.93-.42-.93-.93s.41-.93.93-.92zm.7-.71c0-.51.42-.93.92-.93.51 0 .93.42.93.93s-.42.93-.93.93-.92-.42-.92-.93zm2.56.71c.51 0 .93.42.93.92 0 .51-.42.93-.93.93s-.93-.42-.93-.93c.01-.51.42-.93.93-.92zm.71-.71c0-.51.41-.93.92-.93s.93.42.93.93-.42.93-.93.93c-.5 0-.92-.42-.92-.93zm2.57.71c.51 0 .93.42.93.92 0 .51-.42.93-.93.93s-.93-.42-.93-.93.41-.93.93-.92zm.7-.71c0-.51.41-.93.93-.93s.93.42.93.93-.42.93-.93.93-.93-.42-.93-.93zm2.57.71c.51 0 .93.42.93.92 0 .51-.42.93-.93.93s-.93-.42-.93-.93.42-.93.93-.92zm.7-.71c0-.51.42-.93.93-.93s.93.42.93.93-.42.93-.93.93-.93-.42-.93-.93zm2.57.71c.51 0 .92.42.92.92 0 .51-.42.93-.92.93-.51 0-.93-.42-.93-.93s.42-.93.93-.92zm0-1.66c-.51 0-.93-.42-.93-.93s.41-.93.93-.93c.51 0 .92.42.92.93.01.51-.41.93-.92.93zm.22-3.74c-.51 0-.93-.42-.93-.93 0-.5.41-.93.93-.93s.93.43.93.93c0 .52-.41.93-.93.93zm0-3.5c-.51 0-.93-.42-.93-.93s.41-.93.93-.93.93.42.93.93-.41.93-.93.93zm0-3.52c-.51 0-.93-.42-.93-.93s.41-.93.93-.93.93.42.93.93-.41.93-.93.93zm0-3.51c-.51 0-.93-.42-.93-.93s.41-.93.93-.93.93.42.93.93-.41.93-.93.93zm0-3.51c-.51 0-.93-.42-.93-.93s.41-.93.93-.93.93.42.93.93-.41.93-.93.93zm-.1-3.74c-.51 0-.93-.42-.93-.93 0-.5.42-.93.93-.93s.92.42.92.93-.42.93-.92.93zm0-3.5c-.51 0-.93-.42-.93-.93s.42-.93.93-.93.92.42.92.93-.42.93-.92.93zm0-3.52c-.51 0-.93-.42-.93-.93s.42-.93.93-.93.92.42.92.93-.42.93-.92.93zm-1.65-1.64c-.51 0-.93-.42-.93-.93 0-.5.42-.92.93-.92s.92.42.92.93c.01.5-.41.92-.92.92zm-.7.71c0 .51-.42.93-.93.93s-.93-.42-.93-.93.42-.93.93-.93.93.42.93.93zm-2.57-.71c-.51 0-.93-.42-.93-.93 0-.5.42-.92.93-.92s.93.42.93.93c0 .5-.41.92-.93.92zm-.7.71c0 .51-.42.93-.93.93s-.93-.42-.93-.93.41-.93.93-.93.93.42.93.93zm-2.57-.71c-.51 0-.93-.42-.93-.93 0-.5.42-.92.93-.92s.93.42.93.93c0 .5-.42.92-.93.92zm-.7.71c0 .51-.42.93-.93.93s-.93-.42-.93-.93.42-.93.93-.93.93.42.93.93zm-2.57-.71c-.51 0-.93-.42-.93-.93 0-.5.41-.92.93-.92s.93.42.93.93c0 .5-.42.92-.93.92zm-.71.71c0 .51-.42.93-.93.93s-.93-.42-.93-.93.42-.93.93-.93c.52 0 .93.42.93.93zm-2.57-.71c-.51 0-.93-.42-.93-.93 0-.5.42-.92.93-.92s.93.42.93.93c0 .5-.41.92-.93.92zm-.7.71c0 .51-.42.93-.93.93s-.92-.42-.92-.93.42-.93.92-.93c.52 0 .93.42.93.93zm-2.57-.71c-.51 0-.92-.42-.92-.93 0-.5.42-.92.92-.92.51 0 .93.42.93.93 0 .5-.42.92-.93.92zm-.7.71c0 .51-.42.93-.93.93s-.92-.42-.92-.93.41-.93.92-.93.93.42.93.93zm-2.57-.71c-.51 0-.93-.42-.93-.93 0-.5.42-.92.93-.92s.92.42.92.93c.01.5-.41.92-.92.92zm-.7.71c0 .51-.42.93-.93.93s-.93-.42-.93-.93.42-.93.93-.93.93.42.93.93zm-2.57-.71c-.51 0-.93-.42-.93-.93 0-.5.42-.92.93-.92s.93.42.93.93c0 .5-.42.92-.93.92zm-.7.71c0 .51-.42.93-.93.93s-.93-.42-.93-.93.42-.93.93-.93.93.42.93.93zm-2.57-.71c-.51 0-.93-.42-.93-.93 0-.5.42-.92.93-.92s.93.42.93.93c0 .5-.42.92-.93.92zm-.7.71c0 .51-.42.93-.93.93s-.93-.42-.93-.93.42-.93.93-.93.93.42.93.93zm-2.58-.71c-.51 0-.92-.42-.92-.93 0-.5.42-.92.92-.92.51 0 .93.42.93.93 0 .5-.41.92-.93.92zm-.7.71c0 .51-.42.93-.93.93s-.92-.42-.92-.93.42-.93.92-.93c.52 0 .93.42.93.93zm-2.56-.71c-.51 0-.93-.42-.93-.93 0-.5.42-.92.93-.92s.92.42.92.93c0 .5-.41.92-.92.92zm-.71.71c0 .51-.42.93-.92.93-.51 0-.93-.42-.93-.93s.42-.93.93-.93c.5 0 .92.42.92.93zm-2.57-.71c-.51 0-.93-.42-.93-.93 0-.5.42-.92.93-.92s.93.42.93.93c0 .5-.41.92-.93.92zm-.7.71c0 .51-.42.93-.93.93s-.93-.42-.93-.93.42-.93.93-.93.93.42.93.93zm-2.57-.71c-.51 0-.93-.42-.93-.93 0-.5.42-.92.93-.92s.93.42.93.93c0 .5-.41.92-.93.92zm-.7.71c0 .51-.42.93-.93.93s-.93-.42-.93-.93.42-.93.93-.93.93.42.93.93zM28 42.88c-.51 0-.93-.42-.93-.93 0-.5.42-.92.93-.92s.93.42.93.93c0 .5-.42.92-.93.92zm-.7.71c0 .51-.42.93-.93.93s-.93-.42-.93-.93.42-.93.93-.93.93.42.93.93zm-2.57-.71c-.51 0-.93-.42-.93-.93 0-.5.42-.92.93-.92s.93.42.93.93c0 .5-.42.92-.93.92zm-.71.71c0 .51-.42.93-.93.93s-.92-.42-.92-.93.42-.93.92-.93c.52 0 .93.42.93.93zm-2.56-.71c-.51 0-.93-.42-.93-.93 0-.5.42-.92.93-.92s.92.42.92.93c0 .5-.41.92-.92.92zm-.71.71c0 .51-.42.93-.92.93-.51 0-.93-.42-.93-.93s.42-.93.93-.93.92.42.92.93zm-.92 2.59c.51 0 .92.42.92.93s-.42.93-.92.93c-.51 0-.93-.42-.93-.93s.41-.93.93-.93zm0 3.51c.51 0 .92.42.92.92 0 .51-.42.93-.92.93-.51 0-.93-.42-.93-.93 0-.5.41-.92.93-.92zm.11 3.73c.51 0 .92.42.92.93s-.42.93-.93.93-.92-.42-.92-.93c0-.52.42-.93.93-.93zm0 3.52c.51 0 .92.42.92.92 0 .51-.42.93-.93.93s-.92-.42-.92-.93c0-.5.42-.92.93-.92zm0 3.5c.51 0 .92.42.92.93s-.42.93-.93.93-.92-.42-.92-.93.42-.93.93-.93zm0 3.52c.51 0 .92.42.92.93s-.42.93-.93.93-.92-.42-.92-.93.42-.93.93-.93zm0 3.51c.51 0 .92.42.92.92 0 .51-.42.93-.93.93s-.92-.42-.92-.93c0-.5.42-.92.93-.92zm-.23 3.73c.51 0 .93.42.93.93s-.42.93-.93.93-.93-.42-.93-.93c0-.52.42-.93.93-.93zm0 3.52c.51 0 .93.42.93.92 0 .51-.42.93-.93.93s-.93-.42-.93-.93.42-.92.93-.92zm0 3.5c.51 0 .93.42.93.93s-.42.93-.93.93-.93-.42-.93-.93.42-.93.93-.93zm.71-.7c0-.51.42-.93.93-.93s.93.42.93.93c0 .5-.42.92-.93.92-.52 0-.93-.42-.93-.92zm2.57.7c.51 0 .92.42.92.93s-.42.93-.92.93c-.51 0-.93-.42-.93-.93s.41-.93.93-.93zm.7-.7c0-.51.42-.93.93-.93s.92.42.92.93c0 .5-.42.92-.93.92s-.92-.42-.92-.92zm2.56.7c.51 0 .93.42.93.93s-.42.93-.93.93-.92-.42-.92-.93.41-.93.92-.93zm.71-.7c0-.51.42-.93.92-.93.51 0 .93.42.93.93 0 .5-.42.92-.93.92-.5 0-.92-.42-.92-.92zm2.57.7c.51 0 .93.42.93.93s-.42.93-.93.93-.93-.42-.93-.93.42-.93.93-.93zm.7-.7c0-.51.42-.93.93-.93s.93.42.93.93c0 .5-.42.92-.93.92s-.93-.42-.93-.92zm2.57.7c.51 0 .93.42.93.93s-.42.93-.93.93-.93-.42-.93-.93.41-.93.93-.93zm.7-.7c0-.51.42-.93.93-.93s.93.42.93.93c0 .5-.42.92-.93.92s-.93-.42-.93-.92zm2.57.7c.51 0 .93.42.93.93s-.42.93-.93.93-.93-.42-.93-.93.42-.93.93-.93zm.7-.7c0-.51.42-.93.93-.93s.92.42.92.93c0 .5-.42.92-.92.92-.51 0-.93-.42-.93-.92zm2.57.7c.51 0 .92.42.92.93s-.42.93-.92.93c-.51 0-.93-.42-.93-.93.01-.51.42-.93.93-.93zm.71-.7c0-.51.42-.93.92-.93.51 0 .93.42.93.93 0 .5-.42.92-.93.92s-.92-.42-.92-.92zm2.56.7c.51 0 .93.42.93.93s-.42.93-.93.93-.93-.42-.93-.93.42-.93.93-.93zm.7-.7c0-.51.42-.93.93-.93s.93.42.93.93c0 .5-.42.92-.93.92s-.92-.42-.93-.92zm2.57.7c.51 0 .93.42.93.93s-.42.93-.93.93-.93-.42-.93-.93c.01-.51.42-.93.93-.93zm.71-.7c0-.51.42-.93.93-.93s.93.42.93.93c0 .5-.42.92-.93.92s-.93-.42-.93-.92zm2.57.7c.51 0 .93.42.93.93s-.42.93-.93.93-.93-.42-.93-.93.41-.93.93-.93zm.7-.7c0-.51.42-.93.93-.93s.93.42.93.93c0 .5-.42.92-.93.92-.52 0-.93-.42-.93-.92zm2.57.7c.51 0 .93.42.93.93s-.42.93-.93.93-.93-.42-.93-.93.42-.93.93-.93zm.7-.7c0-.51.41-.93.93-.93.51 0 .93.42.93.93 0 .5-.42.92-.93.92s-.93-.42-.93-.92zm2.57.7c.51 0 .92.42.92.93s-.41.93-.92.93-.93-.42-.93-.93.42-.93.93-.93zm.7-.7c0-.51.42-.93.93-.93s.92.42.92.93c0 .5-.42.92-.92.92-.51 0-.93-.42-.93-.92zm2.57.7c.51 0 .93.42.93.93s-.42.93-.93.93-.92-.42-.92-.93.41-.93.92-.93zm.71-.7c0-.51.42-.93.92-.93.51 0 .93.42.93.93 0 .5-.42.92-.93.92s-.92-.42-.92-.92zm2.56.7c.51 0 .93.42.93.93s-.42.93-.93.93-.93-.42-.93-.93.42-.93.93-.93zm.71-.7c0-.51.42-.93.93-.93s.92.41.92.93c0 .5-.42.92-.93.92-.5 0-.92-.42-.92-.92zm2.57.7c.51 0 .93.42.93.93s-.42.93-.93.93-.93-.42-.93-.93.41-.93.93-.93zm.7-.7c0-.51.41-.93.93-.93.51 0 .93.42.93.93 0 .5-.42.92-.93.92s-.93-.42-.93-.92zm2.57.7c.51 0 .92.42.92.93s-.41.93-.92.93-.93-.42-.93-.93.42-.93.93-.93zm.7-.7c0-.51.42-.93.93-.93s.92.42.92.93c0 .5-.42.92-.92.92-.51 0-.93-.42-.93-.92zm2.57.7c.51 0 .93.42.93.93s-.42.93-.93.93-.92-.42-.92-.93c-.01-.51.41-.93.92-.93zm2.56-4.21c0 .51-.42.93-.93.93s-.92-.42-.92-.93.42-.93.92-.93c.51 0 .93.41.93.93zm.23-3.74c0 .51-.42.93-.93.93s-.93-.42-.93-.93.42-.93.93-.93.93.41.93.93zm0-3.51c0 .51-.42.93-.93.93s-.93-.42-.93-.93c0-.5.42-.93.93-.93s.93.42.93.93zm0-3.51c0 .51-.42.93-.93.93s-.93-.42-.93-.93.42-.93.93-.93.93.41.93.93zm0-3.51c0 .5-.42.92-.93.92s-.93-.42-.93-.92c0-.51.42-.93.93-.93s.93.41.93.93zm0-3.51c0 .51-.42.93-.93.93s-.93-.42-.93-.93.42-.93.93-.93.93.41.93.93zm-.12-3.74c0 .51-.42.93-.93.93s-.93-.42-.93-.93.42-.93.93-.93c.52 0 .93.42.93.93zm0-3.51c0 .51-.42.93-.93.93s-.93-.42-.93-.93c0-.5.42-.92.93-.92.52 0 .93.41.93.92zm0-3.51c0 .51-.42.93-.93.93s-.93-.42-.93-.93.42-.93.93-.93c.52 0 .93.42.93.93zm0-3.51c0 .5-.42.92-.93.92s-.93-.42-.93-.92c0-.51.42-.93.93-.93.52 0 .93.41.93.93zm-.93-4.44c.51 0 .93.42.93.93s-.42.93-.93.93-.93-.42-.93-.93.42-.93.93-.93zm-1.63 1.64c.51 0 .93.42.93.92 0 .51-.42.93-.93.93s-.92-.42-.92-.93c0-.5.41-.92.92-.92zm-1.64-1.64c.51 0 .93.42.93.93s-.42.93-.93.93-.92-.42-.92-.93.41-.93.92-.93zm-1.63 1.64c.51 0 .92.42.92.92 0 .51-.42.93-.92.93-.51 0-.93-.42-.93-.93 0-.5.42-.92.93-.92zm-1.64-1.64c.51 0 .92.42.92.93s-.42.93-.92.93c-.51 0-.93-.42-.93-.93s.42-.93.93-.93zm-1.63 1.64c.51 0 .93.42.93.92 0 .51-.42.93-.93.93s-.93-.42-.93-.93c0-.5.42-.92.93-.92zm-1.64-1.64c.51 0 .93.42.93.93s-.42.93-.93.93-.93-.42-.93-.93.41-.93.93-.93zm-1.63 1.64c.51 0 .93.42.93.92 0 .51-.42.93-.93.93s-.93-.42-.93-.93c0-.5.41-.92.93-.92zm-1.64-1.64c.51 0 .93.42.93.93s-.42.93-.93.93-.93-.42-.93-.93.41-.93.93-.93zm-1.64 1.64c.51 0 .93.42.93.92 0 .51-.42.93-.93.93s-.93-.42-.93-.93c.01-.5.42-.92.93-.92zm-1.64-1.64c.51 0 .93.42.93.93s-.42.93-.93.93-.92-.42-.92-.93.41-.93.92-.93zm-1.63 1.64c.51 0 .93.42.93.92 0 .51-.42.93-.93.93s-.92-.42-.92-.93c0-.5.41-.92.92-.92zm-1.64-1.64c.51 0 .93.42.93.93s-.42.93-.93.93-.92-.42-.92-.93.41-.93.92-.93zm-1.63 1.64c.51 0 .93.42.93.92 0 .51-.42.93-.92.93-.51 0-.93-.42-.93-.93 0-.5.41-.92.92-.92zm-1.64-1.64c.51 0 .93.42.93.93s-.42.93-.93.93-.93-.42-.93-.93.42-.93.93-.93zm-1.63 1.64c.51 0 .93.42.93.92 0 .51-.42.93-.93.93s-.93-.42-.93-.93c0-.5.42-.92.93-.92zm-1.64-1.64c.51 0 .93.42.93.93s-.42.93-.93.93-.93-.42-.93-.93.42-.93.93-.93zM46 39.15c.51 0 .93.42.93.93s-.42.93-.93.93-.93-.42-.93-.93.41-.93.93-.93zm-1.64-1.63c.51 0 .93.42.93.93s-.42.93-.93.93-.93-.42-.93-.93.42-.93.93-.93zm-1.63 1.63c.51 0 .93.42.93.93s-.42.93-.93.93-.93-.42-.93-.93.42-.93.93-.93zm-1.65-1.63c.51 0 .93.42.93.93s-.42.93-.93.93-.92-.42-.92-.93.42-.93.92-.93zm-1.63 1.63c.51 0 .93.42.93.93s-.42.93-.93.93-.92-.42-.92-.93.41-.93.92-.93zm-1.63-1.63c.51 0 .92.42.92.93s-.42.93-.92.93c-.51 0-.93-.42-.93-.93s.41-.93.93-.93zm-1.63 1.63c.51 0 .92.42.92.93s-.42.93-.92.93c-.51 0-.93-.42-.93-.93s.41-.93.93-.93zm-1.65-1.63c.51 0 .93.42.93.93s-.42.93-.93.93-.93-.42-.93-.93.42-.93.93-.93zm-1.63 1.63c.51 0 .93.42.93.93s-.42.93-.93.93-.93-.42-.93-.93.42-.93.93-.93zm-1.64-1.63c.51 0 .93.42.93.93s-.42.93-.93.93-.93-.42-.93-.93.42-.93.93-.93zm-1.63 1.63c.51 0 .93.42.93.93s-.42.93-.93.93-.93-.42-.93-.93.42-.93.93-.93zM28 37.52c.51 0 .93.42.93.93s-.42.93-.93.93-.93-.42-.93-.93.41-.93.93-.93zm-1.63 1.63c.51 0 .93.42.93.93s-.42.93-.93.93-.93-.42-.93-.93.41-.93.93-.93zm-1.64-1.63c.51 0 .93.42.93.93s-.42.93-.93.93-.93-.42-.93-.93.41-.93.93-.93zm-1.64 1.63c.51 0 .93.42.93.93s-.42.93-.93.93-.92-.42-.92-.93.41-.93.92-.93zm-1.64-1.63c.51 0 .93.42.93.93s-.42.93-.93.93-.92-.42-.92-.93.41-.93.92-.93zm-1.63 1.63c.51 0 .93.42.93.93s-.42.93-.93.93-.92-.42-.92-.93.41-.93.92-.93zm-2.56-.7c0-.51.42-.93.93-.93s.92.42.92.93-.42.93-.92.93c-.52 0-.93-.42-.93-.93zm0 3.5c0-.5.42-.92.93-.92s.92.42.92.92c0 .51-.42.93-.92.93-.52 0-.93-.42-.93-.93zm0 3.52c0-.51.42-.93.93-.93s.92.42.92.93-.42.93-.92.93c-.52 0-.93-.42-.93-.93zm0 3.51c0-.51.42-.93.93-.93s.92.42.92.93-.42.93-.92.93c-.52 0-.93-.42-.93-.93zm0 3.51c0-.51.42-.93.93-.93s.92.42.92.93-.42.93-.92.93c-.52 0-.93-.42-.93-.93zm.11 3.74c0-.51.42-.93.93-.93s.92.42.92.93-.42.93-.93.93-.92-.42-.92-.93zm0 3.5c0-.5.42-.92.93-.92s.92.42.92.92c0 .51-.42.93-.93.93s-.92-.42-.92-.93zm0 3.52c0-.51.42-.93.93-.93s.92.42.92.93-.42.93-.93.93-.92-.42-.92-.93zm0 3.51c0-.51.42-.93.93-.93s.92.42.92.93-.42.93-.93.93-.92-.42-.92-.93zm0 3.51c0-.51.42-.93.93-.93s.92.42.92.93-.42.93-.93.93-.92-.42-.92-.93zm-.23 3.74c0-.51.42-.93.93-.93s.93.41.93.93c0 .51-.42.93-.93.93s-.93-.42-.93-.93zm0 3.51c0-.51.42-.93.93-.93s.93.41.93.93c0 .5-.42.92-.93.92s-.93-.42-.93-.92zm.93 4.44c-.51 0-.93-.42-.93-.93s.42-.93.93-.93.93.41.93.93-.41.93-.93.93zm1.64 1.64c-.51 0-.93-.42-.93-.93s.42-.93.93-.93.93.42.93.93-.41.93-.93.93zm1.63-1.64c-.51 0-.93-.42-.93-.93s.42-.93.93-.93.93.42.93.93-.42.93-.93.93zm1.65 1.64c-.51 0-.93-.42-.93-.93s.42-.93.93-.93.92.42.92.93-.42.93-.92.93zm1.62-1.64c-.51 0-.92-.42-.92-.93s.42-.93.92-.93c.51 0 .93.42.93.93s-.41.93-.93.93zm1.64 1.64c-.51 0-.92-.42-.92-.93s.42-.93.92-.93c.51 0 .93.42.93.93s-.41.93-.93.93zm1.63-1.64c-.51 0-.92-.42-.92-.93s.42-.93.92-.93c.51 0 .93.42.93.93s-.41.93-.93.93zm1.65 1.64c-.51 0-.93-.42-.93-.93s.42-.93.93-.93.93.42.93.93-.42.93-.93.93zm1.63-1.64c-.51 0-.93-.42-.93-.93s.42-.93.93-.93.93.42.93.93-.42.93-.93.93zm1.64 1.64c-.51 0-.93-.42-.93-.93s.42-.93.93-.93.93.42.93.93-.42.93-.93.93zm1.63-1.64c-.51 0-.93-.42-.93-.93s.42-.93.93-.93.93.42.93.93-.42.93-.93.93zm1.64 1.64c-.51 0-.93-.42-.93-.93s.42-.93.93-.93.92.42.92.93c.01.51-.41.93-.92.93zm1.63-1.64c-.51 0-.93-.42-.93-.93s.42-.93.93-.93.92.42.92.93-.41.93-.92.93zm1.64 1.64c-.51 0-.92-.42-.92-.93s.42-.93.92-.93c.51 0 .93.42.93.93s-.42.93-.93.93zm1.63-1.64c-.51 0-.92-.42-.92-.93s.42-.93.92-.93c.51 0 .93.42.93.93s-.42.93-.93.93zm1.64 1.64c-.51 0-.93-.42-.93-.93s.42-.93.93-.93.93.42.93.93-.41.93-.93.93zm1.63-1.64c-.51 0-.93-.42-.93-.93s.42-.93.93-.93.93.42.93.93-.41.93-.93.93zm1.64 1.64c-.51 0-.93-.42-.93-.93s.42-.93.93-.93.93.42.93.93-.41.93-.93.93zm1.64-1.64c-.51 0-.93-.42-.93-.93s.41-.93.93-.93.93.42.93.93-.42.93-.93.93zm1.64 1.64c-.51 0-.93-.42-.93-.93s.42-.93.93-.93.93.42.93.93-.42.93-.93.93zm1.63-1.64c-.51 0-.93-.42-.93-.93s.42-.93.93-.93.93.42.93.93-.42.93-.93.93zm1.64 1.64c-.51 0-.93-.42-.93-.93s.42-.93.93-.93.93.42.93.93-.42.93-.93.93zm1.63-1.64c-.51 0-.93-.42-.93-.93s.41-.93.93-.93c.51 0 .92.42.92.93s-.41.93-.92.93zm1.64 1.64c-.51 0-.93-.42-.93-.93s.42-.93.93-.93.92.42.92.93c.01.51-.41.93-.92.93zm1.63-1.64c-.51 0-.93-.42-.93-.93s.42-.93.93-.93.93.42.93.93-.42.93-.93.93zm1.64 1.64c-.51 0-.92-.42-.92-.93s.41-.93.92-.93.93.42.93.93-.42.93-.93.93zm1.63-1.64c-.51 0-.93-.42-.93-.93s.42-.93.93-.93.93.42.93.93-.41.93-.93.93zm1.64 1.64c-.51 0-.93-.42-.93-.93s.42-.93.93-.93.93.42.93.93-.41.93-.93.93zm1.64-1.64c-.51 0-.93-.42-.93-.93s.42-.93.93-.93.93.42.93.93-.42.93-.93.93zm1.64 1.64c-.51 0-.93-.42-.93-.93s.42-.93.93-.93.93.42.93.93-.42.93-.93.93zm1.63-1.64c-.51 0-.93-.42-.93-.93s.41-.93.93-.93c.51 0 .92.42.92.93s-.41.93-.92.93zm1.64 1.64c-.51 0-.93-.42-.93-.93s.42-.93.93-.93.92.42.92.93-.41.93-.92.93zm1.63-1.64c-.51 0-.93-.42-.93-.93s.42-.93.92-.93c.51 0 .93.42.93.93s-.41.93-.92.93zm1.64 1.64c-.51 0-.92-.42-.92-.93s.41-.93.92-.93.93.42.93.93-.42.93-.93.93zm1.63-1.64c-.51 0-.93-.42-.93-.93s.42-.93.93-.93.93.42.93.93-.42.93-.93.93z"
    />
  <path
        d="M71.85 83.83V67.1c0-.57-.46-1.04-1.04-1.04H63.9v-14.9c0-.35-.17-.66-.46-.86-.29-.2-.65-.23-.97-.1l-10.19 4.1v-.82c0-4.87-3.96-8.82-8.82-8.82s-8.82 3.96-8.82 8.82v4.57h-2.83c-.57 0-1.04.46-1.04 1.04v6.97h-9.59c-.57 0-1.03.46-1.03 1.04v16.73h51.7z"
    />
  <path
        fill="#57aeff"
        d="M71.96 83.86V67.24c0-.63-.51-1.15-1.15-1.15h-6.8v-14.8c0-.38-.19-.74-.51-.96-.31-.2-.72-.25-1.07-.11L52.4 54.27v-.65c0-4.92-4.01-8.94-8.93-8.94-4.93 0-8.93 4.01-8.93 8.94v4.45h-2.72c-.63 0-1.15.51-1.15 1.16v6.86h-9.48c-.63 0-1.15.51-1.15 1.15v16.62h51.92zm-2.3-15.47v14.47h-5.64V68.39h5.64zM61.72 53v29.86H52.4V56.75L61.72 53zM40.58 74.84v8.02H30.8v-8.02h2.18V60.37h5.43v14.47h2.17zm1.14-2.29H40.7V59.23c0-.63-.51-1.16-1.15-1.16h-2.72v-4.45c0-3.66 2.98-6.63 6.63-6.63s6.63 2.98 6.63 6.63v29.24h-7.23v-9.17c.02-.63-.5-1.14-1.14-1.14zm-11.05-4.16v4.15h-1.02c-.63 0-1.15.51-1.15 1.15v9.17h-6.15V68.39h8.32zM85 63.51c-1.65 0-3-1.36-3-3.01 0-1.65 1.35-3.01 3-3.01s3 1.36 3 3.01c0 1.64-1.35 3.01-3 3.01z"
    />
  <path
        fill="currentColor"
        d="M14.5 82.77h-2.39c-1.99 0-3.61-1.61-3.61-3.6V41.39c0-1.99 1.62-3.61 3.61-3.61h2.39v44.99zm74.38-44.99H77.5v44.99h11.38c1.99 0 3.61-1.61 3.61-3.6V41.39c.01-1.99-1.61-3.61-3.61-3.61zM85 66.49c-3.32 0-6-2.68-6-5.99 0-3.32 2.68-6 6-6 3.31 0 6 2.68 6 6 0 3.31-2.69 5.99-6 5.99z"
    />
  <path
        d="M88.88 34.77H12.11c-3.64 0-6.61 2.97-6.61 6.62v37.78c0 3.64 2.97 6.61 6.61 6.61H88.9c3.63 0 6.6-2.97 6.6-6.61V41.39c0-3.65-2.97-6.62-6.62-6.62zm-74.38 48h-2.39c-1.99 0-3.61-1.61-3.61-3.6V41.39c0-1.99 1.62-3.61 3.61-3.61h2.39v44.99zm60 0h-57V37.78h57v44.99zm18-3.6c0 1.99-1.62 3.6-3.61 3.6H77.5V37.78h11.38c1.99 0 3.61 1.62 3.61 3.61v37.78zM85 54.5c-3.32 0-6 2.68-6 6 0 3.31 2.68 5.99 6 5.99 3.31 0 6-2.68 6-5.99 0-3.32-2.69-6-6-6zm0 9.01c-1.65 0-3-1.36-3-3.01 0-1.65 1.35-3.01 3-3.01s3 1.36 3 3.01c0 1.64-1.35 3.01-3 3.01zM11.5 59c-.83 0-1.5.67-1.5 1.5v5.99c0 .83.68 1.5 1.5 1.5s1.5-.67 1.5-1.5V60.5c0-.83-.67-1.5-1.5-1.5zM10 54.5v1.49c0 .83.68 1.5 1.5 1.5s1.5-.67 1.5-1.5V54.5c0-.82-.67-1.49-1.5-1.49s-1.5.67-1.5 1.49zm25.85-30.62c-.6 0-1.16-.23-1.59-.66-2.56-2.57-5.98-3.99-9.63-3.99-3.64 0-7.06 1.42-9.63 3.99-.43.42-.99.66-1.59.66-.6 0-1.16-.23-1.59-.66-.42-.42-.66-.99-.66-1.59s.24-1.17.66-1.59c3.41-3.42 7.96-5.3 12.81-5.3 4.84 0 9.39 1.88 12.8 5.29.43.44.65 1 .65 1.59 0 .61-.23 1.16-.65 1.59-.42.44-.98.67-1.58.67z"
    />
  <path
        fill="#57aeff"
        d="M24.64 15.5c4.44 0 8.89 1.69 12.27 5.07.29.3.44.67.44 1.06s-.13.76-.44 1.07c-.29.29-.67.44-1.06.44s-.76-.15-1.06-.44c-2.8-2.8-6.48-4.21-10.16-4.21-3.68 0-7.36 1.4-10.17 4.21-.29.29-.68.44-1.06.44s-.76-.15-1.06-.44c-.59-.58-.59-1.53 0-2.12 3.4-3.39 7.85-5.08 12.3-5.08m0-1.5c-5.05 0-9.79 1.96-13.34 5.52-.57.56-.88 1.31-.88 2.12s.31 1.56.88 2.12c.56.56 1.31.87 2.11.87.8 0 1.55-.31 2.12-.87 2.43-2.43 5.67-3.77 9.11-3.77s6.67 1.34 9.1 3.76c.57.57 1.32.88 2.12.88s1.55-.31 2.12-.88c.57-.57.87-1.33.87-2.13 0-.78-.3-1.53-.86-2.1C34.41 15.96 29.68 14 24.64 14z"
    />
  <path
        d="M32.85 30.2c-.6 0-1.16-.23-1.59-.66-1.72-1.72-4-2.67-6.43-2.67s-4.71.95-6.43 2.67c-.42.42-.99.66-1.59.66-.6 0-1.16-.23-1.59-.65-.87-.89-.87-2.31 0-3.18 2.57-2.57 5.98-3.99 9.61-3.99 3.65 0 7.06 1.41 9.61 3.97.43.45.65 1.01.65 1.6 0 .6-.22 1.15-.65 1.59-.43.43-.99.66-1.59.66z"
    />
  <path
        fill="#57aeff"
        d="M24.83 23.13c3.44 0 6.66 1.32 9.08 3.75.28.3.44.67.44 1.07s-.14.76-.44 1.07c-.29.29-.68.44-1.06.44s-.76-.15-1.06-.44c-1.86-1.86-4.32-2.89-6.96-2.89-2.64 0-5.1 1.03-6.96 2.89-.29.29-.67.44-1.06.44-.38 0-.77-.15-1.06-.44-.58-.59-.58-1.53 0-2.12 2.44-2.43 5.65-3.77 9.08-3.77m0-1.5c-3.82 0-7.42 1.49-10.14 4.21-1.16 1.16-1.16 3.05-.01 4.23.58.58 1.33.89 2.13.89.8 0 1.55-.31 2.12-.88 1.58-1.58 3.67-2.45 5.9-2.45s4.32.87 5.9 2.45c.57.57 1.32.88 2.12.88s1.55-.31 2.12-.87c.58-.6.88-1.33.88-2.13 0-.78-.3-1.52-.85-2.1-2.71-2.74-6.31-4.23-10.17-4.23z"
    />
  <path
        d="M24.64 106.25c-4.84 0-9.39-1.88-12.81-5.31-.42-.41-.66-.97-.66-1.57 0-.6.23-1.17.66-1.6.42-.42.99-.66 1.58-.66.6 0 1.16.23 1.59.65 2.57 2.57 5.99 3.99 9.63 3.99 3.65 0 7.07-1.42 9.65-3.99.42-.43.99-.66 1.59-.66.6 0 1.17.24 1.59.67.43.45.65 1.01.65 1.59 0 .6-.23 1.17-.65 1.59-3.42 3.42-7.98 5.3-12.82 5.3z"
    />
  <path
        fill="#57aeff"
        d="M35.87 97.85c.38 0 .77.15 1.06.44.28.3.44.67.44 1.06 0 .38-.14.76-.44 1.06-3.39 3.39-7.84 5.09-12.29 5.09-4.45 0-8.89-1.7-12.28-5.09-.59-.57-.59-1.52 0-2.11.29-.29.67-.44 1.06-.44.38 0 .77.15 1.06.44 2.8 2.8 6.48 4.2 10.16 4.2 3.68 0 7.37-1.4 10.18-4.21.28-.29.66-.44 1.05-.44m0-1.5c-.8 0-1.56.32-2.12.89-2.42 2.43-5.66 3.77-9.11 3.77-3.44 0-6.67-1.34-9.1-3.76-.57-.57-1.32-.88-2.12-.88s-1.55.31-2.12.88c-.57.57-.88 1.33-.88 2.13 0 .8.32 1.55.89 2.11 3.55 3.55 8.29 5.51 13.33 5.51s9.78-1.96 13.35-5.53c.56-.56.87-1.32.87-2.12 0-.77-.3-1.52-.85-2.09-.59-.59-1.34-.91-2.14-.91z"
    />
  <path
        d="M24.43 98.61c-3.65 0-7.06-1.41-9.61-3.98-.87-.87-.87-2.29 0-3.17.43-.43 1-.66 1.6-.66.59 0 1.15.22 1.57.63 1.73 1.73 4.01 2.68 6.44 2.68s4.71-.95 6.43-2.67c.43-.42.99-.65 1.59-.65.6 0 1.16.23 1.58.64.44.47.66 1.03.66 1.61 0 .61-.23 1.18-.65 1.6-2.57 2.56-5.99 3.97-9.61 3.97z"
    />
  <path
        fill="#57aeff"
        d="M32.45 91.54c.38 0 .77.14 1.06.43.28.31.44.68.44 1.07 0 .4-.14.77-.44 1.07-2.42 2.41-5.64 3.76-9.08 3.76s-6.66-1.33-9.08-3.76c-.58-.58-.58-1.52 0-2.12.3-.29.68-.44 1.07-.44.38 0 .76.14 1.05.42 1.86 1.86 4.32 2.89 6.96 2.89s5.1-1.03 6.96-2.89c.29-.29.67-.43 1.06-.43m0-1.5c-.79 0-1.54.31-2.11.86-1.59 1.59-3.68 2.46-5.91 2.46s-4.32-.87-5.9-2.45c-.58-.56-1.32-.86-2.11-.86-.8 0-1.56.31-2.13.88-1.17 1.18-1.16 3.08 0 4.24 2.69 2.71 6.29 4.2 10.14 4.2 3.82 0 7.42-1.49 10.14-4.2.57-.57.88-1.32.88-2.13 0-.76-.29-1.5-.83-2.08l-.03-.03-.03-.03c-.57-.56-1.32-.86-2.11-.86z"
    />
</svg>
