<svg xmlns="http://www.w3.org/2000/svg" class="brand_color outlined icon--google_my_biz" viewBox="0 0 400 400">
  <path fill="none" d="M119.23 34.16H67.77A30.05 30.05 0 0 0 38.44 57.8l-.12.42L10 158.85h.23a47.47 47.47 0 0 0 94.94-.03H105l14.23-124.66z"/>
  <path fill="none" d="M200.01 158.82V34.17h-80.78l-14.22 124.68h.16a47.47 47.47 0 0 0 94.95-.03H200z"/>
  <path fill="none" d="M295 158.82 280.8 34.17H200v124.68h.1a47.47 47.47 0 0 0 94.95-.03H295z"/>
  <path fill="none" d="M390 158.85v-.03l-28.3-100.6-.11-.42a30.05 30.05 0 0 0-29.33-23.64h-51.47L295 158.86h.05a47.47 47.47 0 0 0 94.95 0v-.01zm-47.47 128.59a89.36 89.36 0 0 0-.85-6.96H289.9c0 7.24 0 15.14-.03 22.4h30a26.1 26.1 0 0 1-10.98 16.74s0-.13-.02-.13a31.42 31.42 0 0 1-12.15 4.74c-4.34.8-8.8.77-13.14-.06a32.79 32.79 0 0 1-12.25-5.31 34.18 34.18 0 0 1-12.04-15.4c-.19-.48-.36-.96-.54-1.46v-.05l.05-.04a33.22 33.22 0 0 1-.02-21.37 34.39 34.39 0 0 1 7.97-12.96 32.36 32.36 0 0 1 32.61-8.5 29.62 29.62 0 0 1 11.87 7l10.12-10.13c1.79-1.8 3.64-3.55 5.36-5.41a53.46 53.46 0 0 0-17.73-10.98 55.75 55.75 0 0 0-38.33.12 55.41 55.41 0 0 0-29.94 26.83 54.54 54.54 0 0 0-4.79 13.85 55.09 55.09 0 0 0 39.72 64.07 58.9 58.9 0 0 0 28.17.3A49.94 49.94 0 0 0 326.36 333c6.66-6.13 11.43-14.29 13.93-22.96a63.89 63.89 0 0 0 2.24-22.61z"/>
  <path fill="none" d="M109.97 115.35 105 158.82h.02l4.95-43.47zm232.56 90.94a47.47 47.47 0 0 1-47.47-47.26 47.47 47.47 0 0 1-94.94-.18 47.47 47.47 0 0 1-94.95 0A47.47 47.47 0 0 1 57.7 206.3a47.26 47.26 0 0 1-28.61-9.59v155.97c0 7.27 5.9 13.17 13.17 13.17h306.16c7.27 0 13.17-5.9 13.17-13.17V202.3a47.32 47.32 0 0 1-19.06 4z"/>
</svg>
