<svg
    xmlns="http://www.w3.org/2000/svg"
    viewBox="0 0 1600 1600"
    class="icon--google_my_biz"
>
    <defs>
      <style>
        .cls-0{fill:transparent}.cls-1{fill:currentColor}.cls-8{fill:#3c4ba6}.cls-5{fill:#7babf7}.cls-7{fill:#709be0}.cls-7,.cls-8{fill-rule:evenodd}
      </style>
      <linearGradient
            id="linear-gradient"
            x1="321.97"
            y1="913.43"
            x2="1251.93"
            y2="913.43"
            gradientUnits="userSpaceOnUse"
        >
        <stop offset=".03" stop-color="#4079d8" />
        <stop offset="1" stop-color="#4989f5" />
      </linearGradient>
    </defs>
    <path
        class="cls-0"
        transform="rotate(-90 800.03 798.03)"
        d="M2 0h1596.06v1596.06H2z"
    />
    <rect
        x="321.45"
        y="567.98"
        width="931"
        height="696.14"
        rx="36.88"
        ry="36.88"
        fill="#4989f5"
    />
    <path
        d="M1204.81 562.75H368.06c-25.92 0-46.09 200.6-46.09 226.52l458.23 474.85h424.61a47.26 47.26 0 0 0 47.13-47.13V609.87a47.26 47.26 0 0 0-47.13-47.12z"
        fill="url(#linear-gradient)"
    />
    <path fill="#3c4ba6" d="M534.03 684.56h266V335.44H573.86l-39.83 349.12z" />
    <path
        class="cls-5"
        d="M1066.03 684.56h-266V335.44h226.17l39.83 349.12zM1252.45 401.62l.33 1.19c-.08-.42-.24-.81-.33-1.19z"
    />
    <path
        d="M1252.78 402.8l-.33-1.19a84.13 84.13 0 0 0-82.14-66.18H1026.2l39.8 349.13h266z"
        fill="#3f51b5"
    />
    <path class="cls-5" d="M347.61 401.62l-.33 1.19c.08-.42.24-.81.33-1.19z" />
    <path
        class="cls-5"
        d="M347.27 402.8l.33-1.19a84.13 84.13 0 0 1 82.14-66.18h144.12L534 684.56H268z"
    />
    <path class="cls-7" d="M534.48 684.47a132.92 132.92 0 0 1-265.85 0z" />
    <path class="cls-8" d="M800.33 684.47a132.92 132.92 0 0 1-265.85 0z" />
    <path class="cls-7" d="M1066.18 684.47a132.92 132.92 0 0 1-265.85 0z" />
    <path class="cls-8" d="M1332 684.47a132.92 132.92 0 1 1-265.85 0z" />
    <path
        class="cls-1"
        d="M1199.08 1044.6c-.47-6.33-1.25-12.11-2.36-19.49h-145c0 20.28 0 42.41-.08 62.7h84a73.05 73.05 0 0 1-30.75 46.89s0-.35-.06-.36a88 88 0 0 1-34 13.27 99.85 99.85 0 0 1-36.79-.16 91.9 91.9 0 0 1-34.31-14.87 95.72 95.72 0 0 1-33.73-43.1c-.52-1.35-1-2.71-1.49-4.09v-.15l.13-.1a93 93 0 0 1-.05-59.84A96.27 96.27 0 0 1 986.9 989a90.63 90.63 0 0 1 91.32-23.78 83 83 0 0 1 33.23 19.56l28.34-28.34c5-5.05 10.19-9.94 15-15.16a149.78 149.78 0 0 0-49.64-30.74 156.08 156.08 0 0 0-103.83-.91q-1.76.6-3.5 1.25A155.18 155.18 0 0 0 914 986a152.61 152.61 0 0 0-13.42 38.78 154.25 154.25 0 0 0 111.21 179.4c25.69 6.88 53 6.71 78.89.83a139.88 139.88 0 0 0 63.14-32.81c18.64-17.15 32-40 39-64.27a179 179 0 0 0 6.26-63.33z"
    />
</svg>
