<svg xmlns="http://www.w3.org/2000/svg" viewBox="0.45 595.14 400 400">
  <path
        fill="currentColor"
        d="M209.5 663.84a43.03 43.03 0 0 1 30.73 13.05 44.47 44.47 0 0 1 0 62.53l-35 35.5-.28.28v-20.63a30.27 30.27 0 0 0-30.2-30.2v-.02c-18.39 0-30.21 13.94-30.21 30.2v21.22l-.78-.8-35.02-35.55a44.47 44.47 0 0 1 0-62.53 42.86 42.86 0 0 1 61.45 0 6.04 6.04 0 0 0 8.59 0 43.03 43.03 0 0 1 30.72-13.05z"
    />
  <path
        fill="none"
        d="M174.74 736.43a17.95 17.95 0 0 1 18.12 18.12v72.5a6.04 6.04 0 0 0 6.04 6.03h123.85c8 0 15.1 7.58 15.1 18.13v24.4a114.76 114.76 0 0 1-57.4 99.15 114.75 114.75 0 0 1-114.75 0h-.02a114.8 114.8 0 0 1-57.32-96.93l-.07-.62v-1.84c0-10.55 7.1-18.12 15.1-18.12h27.19a6.04 6.04 0 0 0 6.04-6.04v-96.66a17.95 17.95 0 0 1 18.12-18.12zm-1.66-136.29v50.43m-75.33 9.68-32.72-37.78m6.49 85.65-49.16-9m262.71-76.65-32.71 37.78m75.4 38.87-49.17 9"
    />
</svg>
