<svg xmlns="http://www.w3.org/2000/svg" viewBox="0 0 480 300">
  <path fill="#a9a9a9" d="M249.29 186.67c-7.1.11-14.21-.24-21.29.24-8.64.83-17.23 2.6-25.32 5.77-27.01 8.4-51.44 23.05-77.65 33.41-22.13 8.61-46.65 12.61-70.14 7.83-13.14-2.66-26.22-8.47-35.09-18.82-7.59-8.8-11.23-20.58-10.87-32.12-.42-10.89 1.97-22.46 9.17-30.94 6.7-8.04 17.49-12.12 27.85-11.22 6.67.31 13.43 3.22 17.55 8.59 3.24 4.25 3.44 10.07 2.02 15.04-1.73 4.47-5.3 7.96-9.18 10.64 1.98-3.34 3.18-7.75.84-11.24-2.88-4.648-9.97-5.118-13.72-1.3-4.62 4.75-5.59 12.512-2.49 18.33 3.36 6.102 10.31 9.58 17.04 10.29 10.18.88 19.01-5.43 26.48-11.55 15.46-13.31 29.38-28.54 46.53-39.8 14.14-9.48 30.8-15.89 47.99-15.81 16.07-.07 32.55 4.54 45.04 14.93 6.4 5.18 11.57 11.68 15.96 18.6 7.9-12.77 19.44-23.62 33.67-28.85 17.34-6.51 36.94-6.06 54.25.32 15.12 5.522 28.34 15.14 40.33 25.722 9.38 8.28 18.06 17.34 27.72 25.31 5.09 4.13 10.56 8 16.82 10.14 8.32 2.84 18.16.16 24.11-6.25 5.51-6 5.17-16.37-.9-21.85-3.86-3.33-10.46-2.66-13.19 1.78-2.39 3.52-1.05 7.91.82 11.32-4.97-3.63-9.95-8.69-9.93-15.29-1.03-7.63 4.63-14.36 11.41-17.03 13.23-5.29 29.82-.73 38.17 10.92 8.03 10.87 8.67 25.158 7.27 38.11-1.69 12.298-8.57 23.778-18.77 30.898-14.32 10.22-32.47 13.39-49.74 13.17-16.6-.45-33.03-4.2-48.41-10.4-25.72-10.34-49.79-24.63-76.35-32.89-8.81-3.42-18.18-5.27-27.6-5.84"/>
  <g fill="#aaa" stroke="#e6e6e6" stroke-miterlimit="10">
    <path d="M14.957 35.46c0-3.98 3.28-7.26 7.26-7.26s7.26 3.28 7.26 7.26v18.034c1.952-3.98 5.854-7.416 12.724-7.416 10.852 0 14.99 6.792 14.99 16.55v20.296c0 3.98-3.28 7.26-7.26 7.26s-7.26-3.28-7.26-7.26V64.892c0-6.558-3.67-7.807-6.168-7.807-2.966 0-7.025 1.483-7.025 9.602v16.237c0 3.98-3.28 7.26-7.26 7.26s-7.26-3.28-7.26-7.26V35.46zM86.617 63.798h5.31c0-4.528-.47-7.572-5.934-7.572-6.635 0-7.614 4.918-12.412 4.918-3.434 0-6.244-2.186-6.244-5.7 0-7.47 11.354-9.523 18.813-9.523 12.255 0 19.75 4.685 19.75 17.722v19.594c0 3.748-2.89 6.948-6.715 6.948-3.435 0-6.245-2.498-6.713-5.777-3.357 4.606-7.73 6.167-13.35 6.167-7.883 0-14.52-4.605-14.52-12.958.002-12.334 12.336-13.818 22.015-13.818zm-2.732 17.487c5.308 0 8.12-4.06 8.12-9.055v-.703h-4.607c-3.59 0-8.587.625-8.587 5.23 0 2.967 2.265 4.528 5.075 4.528zM115.812 53.104c0-3.67 3.044-6.713 6.713-6.713 3.747 0 6.792 3.045 6.792 6.714v1.093c2.108-4.138 6.48-8.04 13.74-8.04 10.85 0 14.987 6.79 14.987 16.548v20.22c0 3.98-3.28 7.26-7.26 7.26s-7.26-3.28-7.26-7.26V64.968c0-6.558-3.67-7.807-6.167-7.807-2.966 0-7.025 1.483-7.025 9.602v16.16c0 3.98-3.28 7.26-7.26 7.26s-7.26-3.28-7.26-7.26v-29.82zM184.662 46.156c6.48 0 9.21 2.732 10.93 4.605v-15.3c0-3.98 3.278-7.26 7.26-7.26 3.98 0 7.26 3.28 7.26 7.26v46.605c0 4.762-2.577 8.275-6.714 8.275-3.28 0-6.01-2.342-6.636-5.542-2.576 3.2-6.792 5.62-12.88 5.62-11.475 0-18.19-8.508-18.19-21.545 0-13.193 6.87-22.717 18.97-22.717zm3.513 34.582c5.387 0 7.807-4.996 7.807-12.256 0-7.182-2.342-12.178-7.73-12.178-5.385 0-7.96 4.996-7.96 12.256 0 7.104 2.497 12.178 7.883 12.178zM220.258 35.46c0-3.98 3.28-7.26 7.26-7.26s7.26 3.28 7.26 7.26v47.464c0 3.98-3.28 7.26-7.26 7.26s-7.26-3.28-7.26-7.26V35.46zM264.598 45.922c13.817 0 21.312 10.227 21.312 19.36 0 4.372-1.405 6.87-6.4 6.87h-23.03c.547 5.074 3.826 8.353 8.744 8.353 5.883 0 6.516-4.684 11.32-4.684 3.2 0 5.853 2.655 5.853 6.012 0 6.364-8.35 8.9-16.003 8.9-14.754 0-23.81-8.666-23.81-22.327 0-12.96 8.43-22.483 22.014-22.483zm7.338 17.72c-.234-4.995-3.2-8.118-7.572-8.118-4.37 0-7.26 3.123-7.806 8.12h15.378zM293.4 35.46c0-3.98 3.28-7.26 7.26-7.26s7.26 3.28 7.26 7.26v17.643c1.797-3.278 5.31-6.947 12.335-6.947 12.022 0 17.564 9.68 17.564 21.31 0 14.365-8.04 23.03-18.346 23.03-7.73 0-10.93-3.356-12.725-5.542-.625 2.967-3.436 5.23-6.714 5.23-3.67 0-6.636-2.966-6.636-6.635V35.46zm21.937 45.278c4.216 0 7.885-3.67 7.885-12.49s-3.747-11.944-7.73-11.944c-4.604 0-7.96 3.59-7.96 11.944 0 9.29 3.59 12.49 7.805 12.49zM365.53 63.798h5.31c0-4.528-.47-7.572-5.933-7.572-6.636 0-7.614 4.918-12.412 4.918-3.436 0-6.245-2.186-6.245-5.7 0-7.47 11.354-9.523 18.813-9.523 12.256 0 19.75 4.685 19.75 17.722v19.594c0 3.748-2.89 6.948-6.714 6.948-3.436 0-6.246-2.498-6.714-5.777-3.357 4.606-7.73 6.167-13.35 6.167-7.885 0-14.52-4.605-14.52-12.958.002-12.334 12.336-13.818 22.015-13.818zm-2.73 17.487c5.308 0 8.118-4.06 8.118-9.055v-.703h-4.605c-3.592 0-8.588.625-8.588 5.23 0 2.967 2.264 4.528 5.074 4.528zM394.726 53.104c0-3.67 3.044-6.713 6.714-6.713 3.747 0 6.79 3.045 6.79 6.714v1.874h.313c1.562-3.747 3.66-8.587 8.274-8.587 5.23 0 6.792 3.826 6.792 6.324 0 2.966-2.265 6.167-6.09 6.167-6.48 0-8.275 5.61-8.275 11.242v12.803c0 3.98-3.278 7.26-7.26 7.26s-7.26-3.28-7.26-7.26v-29.82zM427.198 81.597c0-4.293 1.952-6.4 5.777-6.4 5.43 0 6.65 6.088 14.207 6.088 2.967 0 4.996-1.17 4.996-3.747 0-1.56-.702-2.576-4.527-3.356l-5.308-1.093c-9.602-1.952-14.208-6.402-14.208-13.35 0-9.056 7.73-13.817 19.282-13.817 7.338 0 16.706 3.747 16.706 9.758 0 2.42-1.874 4.685-4.528 4.685-5.698 0-4.762-5.152-12.88-5.152-2.81 0-4.918 1.327-4.918 3.59 0 1.796 1.404 2.577 4.84 3.28l6.09 1.25c9.366 1.95 13.348 6.4 13.348 13.426 0 8.742-4.605 14.13-19.438 14.13-11.007-.003-19.438-2.814-19.438-9.293z"/>
  </g>
</svg>
