<svg xmlns="http://www.w3.org/2000/svg" viewBox="0 0 100 125">
  <path
        fill="#0069cc"
        d="M92.95 8.779a4.554 4.554 0 0 0 .284-6.424C91.546.5 88.675.375 86.816 2.065L59.433 27.078l-43.806-.106a4.548 4.548 0 0 0 0 9.094h26.701v16.416l-18.625.018a5.464 5.464 0 0 0-4.49 2.368 5.453 5.453 0 0 0-.598 5.044l8.338 21.728a5.46 5.46 0 0 0 5.095 3.505c.651 0 1.312-.119 1.954-.367a5.45 5.45 0 0 0 3.14-7.045l-5.497-14.32 24.452-.024.031 14.983-21.542 9.812a5.458 5.458 0 0 0 4.523 9.934l24.747-11.273a5.445 5.445 0 0 0 3.189-4.978l-.085-49.354L92.95 8.779z"
    />
  <path
        fill="#0069cc"
        d="M57.643 16.913c0 4.967-4.027 8.998-8.99 8.998-4.97 0-9-4.031-9-8.998a9 9 0 0 1 9-8.999c4.962 0 8.99 4.031 8.99 8.999z"
    />
</svg>
