<svg
    xmlns="http://www.w3.org/2000/svg"
    class="brand_color outlined icon--jumping"
    viewBox="0.5 400.5 400 400"
>
<style>
.st0 {
fill: none;
stroke:currentColor;
stroke-width: 4;
}
</style>
  <path
        class="st0"
        d="M356.65 441.24a17.7 17.7 0 0 0 1.1-24.99 17.66 17.66 0 0 0-24.95-1.13L226.3 512.4 55.93 512a17.69 17.69 0 0 0 0 35.36h103.85v63.85l-72.44.06a21.25 21.25 0 0 0-17.46 9.21 21.21 21.21 0 0 0-2.33 19.62l32.43 84.5a21.24 21.24 0 0 0 19.81 13.64c2.53 0 5.1-.47 7.6-1.43a21.2 21.2 0 0 0 12.22-27.37.18.18 0 0 0 0-.03l-21.38-55.7 95.1-.09.11 58.28-83.78 38.16a21.23 21.23 0 0 0 17.6 38.63l96.24-43.84a21.17 21.17 0 0 0 12.4-19.36l-.33-191.95 101.08-92.3z"
    />
  <path
        class="st0"
        d="M219.34 472.87a34.99 34.99 0 1 1-34.97-35 35 35 0 0 1 34.97 35z"
    />
</svg>
