<svg
    xmlns="http://www.w3.org/2000/svg"
    class="jeistar"
    onclick="hi.reset().play();"
    viewBox="-10 -10 1020 1020"
    stroke-linecap="round"
    stroke-linejoin="round"
    stroke-miterlimit="10"
    stroke-width="8"
    fill="none"

>
  <path
        stroke="hsla(209, 100%, 70%, 1)"
        class="circlej"
        data-duration="80"
        data-start="1"
        d="M839 132.8V564c0 115.3-30.5 200-91.2 254-60.8 54-141.2 81.8-241.2 82.8-102.2 1-184.2-23.8-246-74.5C198.8 775.3 168 710 168 630c0-35.2 17.2-53 51.5-53.5 36.5-.2 54.8 13 54.8 40 0 59.2 20.8 105.8 62 139.5 41.2 33.8 97 50.5 167 49.7 73-.8 129.5-21 169.2-61 40-39.8 60-99.8 60-179.8V57.5A496.13 496.13 0 0 0 500 0C224.2 0 0 224.2 0 500s224.2 500 500 500 500-224.2 500-500c0-145-62-275.8-161-367.2z"
style="stroke-dasharray: 5854, 5856;stroke-dashoffset: 0;fill-opacity: .1;fill: currentColor;"    />
  <path
        fill="none"
        stroke="currentColor"
        class="circlej"
        data-duration="80"
        data-start="1"
        d="M839 132.8V564c0 115.3-30.5 200-91.2 254-60.8 54-141.2 81.8-241.2 82.8-102.2 1-184.2-23.8-246-74.5C198.8 775.3 168 710 168 630c0-35.2 17.2-53 51.5-53.5 36.5-.2 54.8 13 54.8 40 0 59.2 20.8 105.8 62 139.5 41.2 33.8 97 50.5 167 49.7 73-.8 129.5-21 169.2-61 40-39.8 60-99.8 60-179.8V57.5A496.13 496.13 0 0 0 500 0C224.2 0 0 224.2 0 500s224.2 500 500 500 500-224.2 500-500c0-145-62-275.8-161-367.2z"
    />
  <path
        fill="none"
        stroke="hsla(209, 100%, 70%, 1)"
        class="star"
        data-delay="0"
        data-duration="50"
        data-start="1"
        d="m122.5 459.8 137.7-131.3L227.5 143l170.3 87.2L568 142.5l-32.2 185.3L673.5 459l-190.3 27.2-85 168.8L313 486.5z"
    />
  <path
        fill="none"
        stroke="currentColor"
        d="m122.5 459.8 137.7-131.3L227.5 143l170.3 87.2L568 142.5l-32.2 185.3L673.5 459l-190.3 27.2-85 168.8L313 486.5z"
        class="star"
        data-delay="-20"
        data-duration="50"
        data-start="1"
    />
</svg>
