<svg xmlns="http://www.w3.org/2000/svg" viewBox="0 0 400 400">
  <path
        fill="currentColor"
        fill-rule="evenodd"
        stroke="currentColor"
        d="m328.81 60.47-.03 163.83c0 43.78-11.56 75.95-34.65 96.5-23.1 20.57-53.64 31.04-91.64 31.44-38.82.4-69.97-9.04-93.46-28.32-23.5-19.28-35.23-44.1-35.23-74.49 0-13.4 6.54-20.18 19.62-20.31 13.9-.15 20.84 4.91 20.84 15.16 0 22.48 7.86 40.15 23.59 53 15.72 12.86 36.86 19.16 63.43 18.88 27.78-.3 49.23-8 64.36-23.15 15.11-15.15 22.68-37.91 22.69-68.28l.04-192.89A188.82 188.82 0 0 0 200 10C95.23 10 10 95.23 10 200s85.23 190 190 190 190-85.23 190-190c0-55.1-23.59-104.8-61.19-139.53zM56.6 184.72l52.3-49.92-12.42-70.4 64.73 33.2 64.67-33.31-12.3 70.44 52.4 49.83-72.34 10.33-32.3 64.1-32.4-64.04-72.35-10.22z"
        clip-rule="evenodd"
        shape-rendering="geometricPrecision"
    />
</svg>
