<svg xmlns="http://www.w3.org/2000/svg" viewBox="0.45 595.14 400 400">
  <path
        fill="currentColor"
        d="M258.36 898.44c0-2.02.97-6.57 2.6-7.75 38.25-27.5 55.59-77.7 43.15-124.91-12.94-49.09-55.57-83.37-103.68-83.37-48.09 0-90.71 34.28-103.64 83.37-12.45 47.21 4.89 97.4 43.13 124.91 1.64 1.18 2.61 5.73 2.61 7.75h115.83z"
    />
  <path
        fill="none"
        d="m142.93 910.43-.02 24.5c2.12 30.76 26.99 54.94 56.78 55.21h.5c29.86 0 55.16-24.16 57.4-55.01v-25.27m-56.74-309.72v43.76m92.68-22.95-20.37 38.23m-146.36.78-21.44-37.7"
    />
</svg>
