<svg xmlns="http://www.w3.org/2000/svg" viewBox="0 0 400 400"  class="brand_color outlined icon--pinterest">
  <path d="M225.345 287.866c-23.74-1.835-33.718-13.607-52.333-24.911-10.237 53.688-22.741 105.16-59.786 132.045-11.448-81.152 16.781-142.096 29.892-206.797-22.348-37.619 2.693-113.34 49.827-94.681 58.011 22.941-50.225 139.88 22.437 154.483 75.859 15.243 106.824-131.627 59.782-179.398C207.196-.369 77.31 67.037 93.281 165.776c3.892 24.139 28.835 31.467 9.965 64.781-43.5-9.637-56.48-43.947-54.811-89.689 2.69-74.876 67.276-127.301 132.056-134.557 81.924-9.167 158.817 30.083 169.434 107.144 11.946 86.983-36.984 181.178-124.58 174.411zm0 0"/>
</svg>
