<svg xmlns="http://www.w3.org/2000/svg" xmlns:xlink="http://www.w3.org/1999/xlink" viewBox="0 0 198.13 197.58" overflow="visible">
  <defs>
    <linearGradient id="a" gradientUnits="userSpaceOnUse" x1="174.1" y1="215.5" x2="132.3" y2="141.8">
      <stop offset="0" stop-color="#a9a8a7"/>
      <stop offset="0" stop-color="#a9a8a7"/>
      <stop offset=".4" stop-color="#828282"/>
      <stop offset="1" stop-color="#4d4d4d"/>
      <stop offset="1" stop-color="#4d4d4d"/>
    </linearGradient>
    <linearGradient id="c" gradientUnits="userSpaceOnUse" x1="194.9" y1="153.6" x2="141" y2="117.4">
      <stop offset="0" stop-color="#454545"/>
      <stop offset="0" stop-color="#454545"/>
      <stop offset="1" stop-color="#4d4d4d"/>
      <stop offset="1" stop-color="#4d4d4d"/>
    </linearGradient>
    <linearGradient id="d" gradientUnits="userSpaceOnUse" x1="151.8" y1="217.8" x2="97.9" y2="181.6">
      <stop offset="0" stop-color="#454545"/>
      <stop offset="0" stop-color="#454545"/>
      <stop offset="1" stop-color="#4d4d4d"/>
      <stop offset="1" stop-color="#4d4d4d"/>
    </linearGradient>
    <linearGradient id="e" gradientUnits="userSpaceOnUse" x1="38.7" y1="127.4" x2="47" y2="181.7">
      <stop offset="0" stop-color="#FFF"/>
      <stop offset="0" stop-color="#FFF"/>
      <stop offset=".2" stop-color="#9c9c9c"/>
      <stop offset=".5" stop-color="#808080"/>
      <stop offset="1" stop-color="#545454"/>
      <stop offset="1" stop-color="#545454"/>
    </linearGradient>
    <linearGradient id="f" gradientUnits="userSpaceOnUse" x1="96.1" y1="76.7" x2="99.2" y2="132.1">
      <stop offset="0" stop-color="#FFF"/>
      <stop offset="0" stop-color="#FFF"/>
      <stop offset=".2" stop-color="#999"/>
      <stop offset=".6" stop-color="#676565"/>
      <stop offset="1" stop-color="#545454"/>
      <stop offset="1" stop-color="#545454"/>
    </linearGradient>
    <linearGradient id="g" gradientUnits="userSpaceOnUse" x1="147.1" y1="25.5" x2="156.3" y2="65.2">
      <stop offset="0" stop-color="#FFF"/>
      <stop offset="0" stop-color="#FFF"/>
      <stop offset=".2" stop-color="#949494"/>
      <stop offset=".4" stop-color="#6b6b6b"/>
      <stop offset="1" stop-color="#545454"/>
      <stop offset="1" stop-color="#545454"/>
    </linearGradient>
    <linearGradient id="h" gradientUnits="userSpaceOnUse" x1="119" y1="11.5" x2="158.7" y2="-8.3">
      <stop offset="0" stop-color="#FFF"/>
      <stop offset="0" stop-color="#FFF"/>
      <stop offset=".5" stop-color="#6e6e6e"/>
      <stop offset="1" stop-color="#616161"/>
      <stop offset="1" stop-color="#616161"/>
    </linearGradient>
    <linearGradient id="i" gradientUnits="userSpaceOnUse" x1="3.9" y1="113.6" x2="7.2" y2="146.3">
      <stop offset="0" stop-color="#FFF"/>
      <stop offset="0" stop-color="#FFF"/>
      <stop offset=".3" stop-color="#828282"/>
      <stop offset="1" stop-color="#666"/>
      <stop offset="1" stop-color="#666"/>
    </linearGradient>
    <linearGradient id="j" gradientUnits="userSpaceOnUse" x1="-18.6" y1="155.1" x2="135" y2="-2.8">
      <stop offset="0" stop-color="#5e5e5e"/>
      <stop offset="0" stop-color="#5e5e5e"/>
      <stop offset=".1" stop-color="#FFF"/>
      <stop offset=".2" stop-color="#FFF"/>
      <stop offset=".3" stop-color="#737373"/>
      <stop offset=".3" stop-color="#424242"/>
      <stop offset=".5" stop-color="#525151"/>
      <stop offset=".7" stop-color="#595959"/>
      <stop offset="1" stop-color="#787878"/>
      <stop offset="1" stop-color="#787878"/>
    </linearGradient>
    <linearGradient id="k" gradientUnits="userSpaceOnUse" x1="99.1" y1="171" x2="52.8" y2="159.6">
      <stop offset="0" stop-color="#474747"/>
      <stop offset="0" stop-color="#474747"/>
      <stop offset=".5" stop-color="#4d4c4c"/>
      <stop offset="1" stop-color="#595959"/>
      <stop offset="1" stop-color="#595959"/>
    </linearGradient>
    <linearGradient id="l" gradientUnits="userSpaceOnUse" x1="178.5" y1="115.5" x2="137.4" y2="78.7">
      <stop offset="0" stop-color="#454545"/>
      <stop offset="0" stop-color="#454545"/>
      <stop offset="1" stop-color="#4f4f4f"/>
      <stop offset="1" stop-color="#4f4f4f"/>
    </linearGradient>
    <linearGradient id="m" gradientUnits="userSpaceOnUse" x1="193.6" y1="47.9" x2="173.2" y2="26.1">
      <stop offset="0" stop-color="#424242"/>
      <stop offset="0" stop-color="#424242"/>
      <stop offset="1" stop-color="#545454"/>
      <stop offset="1" stop-color="#545454"/>
    </linearGradient>
    <radialGradient id="n" cx="143.8" cy="79.4" r="50.4" gradientUnits="userSpaceOnUse">
      <stop offset="0" stop-color="#545454"/>
      <stop offset="0" stop-color="#545454"/>
      <stop offset="1" stop-color="#424242"/>
      <stop offset="1" stop-color="#424242"/>
    </radialGradient>
    <radialGradient id="o" cx="74.1" cy="145.8" r="66.9" gradientUnits="userSpaceOnUse">
      <stop offset="0" stop-color="#525252"/>
      <stop offset="0" stop-color="#525252"/>
      <stop offset="1" stop-color="#454545"/>
      <stop offset="1" stop-color="#454545"/>
    </radialGradient>
    <linearGradient id="p" gradientUnits="userSpaceOnUse" x1="26.7" y1="197.3" x2="10" y2="140.7">
      <stop offset="0" stop-color="#4f4f4f"/>
      <stop offset="0" stop-color="#4f4f4f"/>
      <stop offset=".4" stop-color="#545454"/>
      <stop offset="1" stop-color="#5e5e5e"/>
      <stop offset="1" stop-color="#5e5e5e"/>
    </linearGradient>
    <linearGradient id="q" gradientUnits="userSpaceOnUse" x1="154.6" y1="9.8" x2="192" y2="26.3">
      <stop offset="0" stop-color="#595959"/>
      <stop offset="0" stop-color="#595959"/>
      <stop offset=".4" stop-color="#4d4c4c"/>
      <stop offset="1" stop-color="#454545"/>
      <stop offset="1" stop-color="#454545"/>
    </linearGradient>
    <linearGradient y2="141.8" x2="132.3" y1="215.5" x1="174.1" gradientUnits="userSpaceOnUse" id="b" xlink:href="#a"/>
  </defs>
  <path clip-rule="evenodd" fill="url(#b)" fill-rule="evenodd" d="M153.5 130.4l-113 67.2 146.3-10L198 40"/>
  <path clip-rule="evenodd" fill="url(#c)" fill-rule="evenodd" d="M187 187.5l-12.5-86.8-34.3 45.2"/>
  <path clip-rule="evenodd" fill="url(#d)" fill-rule="evenodd" d="M187.3 187.5L95 180.3l-54 17"/>
  <path clip-rule="evenodd" fill="url(#e)" fill-rule="evenodd" d="M41 197.4L64 122l-50.7 10.8"/>
  <path clip-rule="evenodd" fill="url(#f)" fill-rule="evenodd" d="M140.2 146.2l-21.2-83L58.3 120"/>
  <path clip-rule="evenodd" fill="url(#g)" fill-rule="evenodd" d="M193.3 64.3L136 17.5 120 69"/>
  <path clip-rule="evenodd" fill="url(#h)" fill-rule="evenodd" d="M166.5.8l-33.7 18.6-21.3-19"/>
  <path clip-rule="evenodd" fill="url(#i)" fill-rule="evenodd" d="M0 158l14-25.7-11.3-30.7"/>
  <path clip-rule="evenodd" d="M2 100.7l11.4 32.6 50-11.2 57-53 16.2-51-25.4-18-43 16C54.4 29 28 54 27 54.3c-1 .5-17.4 31.6-25.3 46.5z" fill="#fff" fill-rule="evenodd"/>
  <path clip-rule="evenodd" d="M42.3 42c29.5-29 67.4-46.4 82-31.7 14.5 14.7-1 50.4-30.4 79.6-29.5 29-67 47.2-81.5 32.5C-2 108 13 71.3 42.3 42z" fill="url(#j)" fill-rule="evenodd"/>
  <path clip-rule="evenodd" d="M41 197.4l23-75.7 75.8 24.3c-27.5 25.8-58 47.6-98.8 51.4z" fill="url(#k)" fill-rule="evenodd"/>
  <path clip-rule="evenodd" d="M120.6 69l19.5 77c23-24 43.6-50 53.6-82l-73 5z" fill="url(#l)" fill-rule="evenodd"/>
  <path clip-rule="evenodd" d="M193.4 64.4C201.2 40.8 203 7 166.4.8L136 17.5l57.4 47z" fill="url(#m)" fill-rule="evenodd"/>
  <path clip-rule="evenodd" d="M0 157.8c1 38.8 29 39.4 41 39.7L13.5 133 0 158z" fill="#545454" fill-rule="evenodd"/>
  <path clip-rule="evenodd" d="M120.7 69l53.8 33c1 .6 15.3-24 18.5-37.8L120.7 69z" fill="url(#n)" fill-rule="evenodd"/>
  <path clip-rule="evenodd" d="M63.8 121.7l30.6 59c18-10 32.2-21.8 45.2-34.6l-75.8-24.3z" fill="url(#o)" fill-rule="evenodd"/>
  <path clip-rule="evenodd" d="M13.3 133.2L9 184.8c8.2 11 19.4 12 31.2 11.2-8.5-21.2-25.6-63.7-27-62.8z" fill="url(#p)" fill-rule="evenodd"/>
  <path clip-rule="evenodd" d="M136 17.6l60.6 8.5c-3.2-13.6-13.2-22.5-30-25.2l-30.7 16.8z" fill="url(#q)" fill-rule="evenodd"/>
</svg>
