<svg
    xmlns="http://www.w3.org/2000/svg"
    viewBox="0.14 841.445 400 400"
    class="white_color outlined icon--location"
>
  <path
        d="M314.598 1119.047c-14.498 0-27.47 5.723-37.39 14.688l-136.013-79.166c.953-4.388 1.715-8.776 1.715-13.354 0-4.579-.763-8.966-1.715-13.354l134.488-78.403c10.301 9.539 23.845 15.452 38.915 15.452 31.666 0 57.229-25.562 57.229-57.229 0-31.666-25.563-57.229-57.229-57.229-31.667 0-57.229 25.562-57.229 57.229 0 4.579.763 8.967 1.716 13.354l-134.488 78.404c-10.302-9.54-23.846-15.452-38.916-15.452-31.666 0-57.228 25.562-57.228 57.229s25.562 57.229 57.228 57.229c15.07 0 28.614-5.914 38.916-15.451l135.824 79.358c-.954 4.006-1.527 8.201-1.527 12.398 0 30.712 24.99 55.703 55.703 55.703s55.703-24.991 55.703-55.703-24.989-55.703-55.702-55.703z"
    />
</svg>
