<svg xmlns="http://www.w3.org/2000/svg" fill="none" viewBox="0 0 24 24">
  <path stroke="currentColor" stroke-linecap="round" stroke-linejoin="round" stroke-width="1.5" d="M20.75 16.25V11a1.5 1.5 0 0 0-1.5-1.5H4.75a1.5 1.5 0 0 0-1.5 1.5v5.25m17.5 0H3.25m17.5 0V18a.75.75 0 0 1-1.5 0v-1.75h1.5Zm-17.5 0V18a.75.75 0 0 0 1.5 0v-1.75h-1.5Zm5.25-3.375H7m10 0h-1.5M2.75 8h2m14.5 0h2m-1.848 1.5-1.696-4.526A1.5 1.5 0 0 0 16.302 4H7.7a1.5 1.5 0 0 0-1.405.974L4.6 9.5h14.802Zm-9.026-6.75h3.248L14.25 4h-4.5l.626-1.25Z"/>
</svg>