<svg
    xmlns="http://www.w3.org/2000/svg"
    viewBox="-189.5 493.5 400 400"
    class="brand_color outlined icon--twitter"
>
  <path
        d="M205.5 572.741c-15.341 6.6-30.688 10.723-46.025 12.377 17.321-10.393 29.036-25.075 35.143-44.047-15.842 9.4-32.752 15.833-50.732 19.298-15.84-16.827-35.304-25.241-58.401-25.241-22.107 0-40.954 7.791-56.547 23.385-15.59 15.59-23.385 34.437-23.385 56.54 0 5.938.659 12.043 1.98 18.314-32.666-1.649-63.31-9.857-91.935-24.622-28.624-14.77-52.916-34.441-72.877-59.021-7.26 12.372-10.891 25.817-10.891 40.337 0 13.692 3.217 26.396 9.654 38.11 6.434 11.709 15.096 21.195 25.985 28.456-12.871-.498-24.913-3.879-36.13-10.149v.99c0 19.304 6.063 36.253 18.188 50.855 12.125 14.603 27.428 23.797 45.904 27.591a82.834 82.834 0 0 1-21.035 2.721c-4.62 0-9.652-.409-15.095-1.231 5.114 16.002 14.518 29.154 28.21 39.467 13.694 10.314 29.202 15.629 46.525 15.965-29.035 22.762-62.112 34.144-99.232 34.144-7.095 0-13.527-.323-19.303-.985 37.12 23.919 78.034 35.879 122.743 35.879 28.376 0 55.02-4.494 79.927-13.484 24.915-8.99 46.195-21.035 63.847-36.134 17.651-15.092 32.87-32.456 45.655-52.088 12.783-19.634 22.308-40.13 28.579-61.492 6.271-21.368 9.405-42.77 9.405-64.218 0-4.621-.08-8.085-.249-10.394 15.675-11.38 29.041-25.16 40.092-41.323z"
    />
</svg>
