<svg
  xmlns="http://www.w3.org/2000/svg"
  xml:space="preserve"
  viewBox="0 0 60 60"
>
  <path
    fill="none"
    stroke="currentColor"
    stroke-linecap="round"
    stroke-linejoin="round"
    stroke-miterlimit="10"
    stroke-width="2"
    d="M3.301 28.659A6.368 6.368 0 0 0 1 33.553m0 0c0 1.96.893 3.714 2.301 4.896m3.293-11.078v12.362m4.002-13.644v13.893m3.797-13.202v13.202m4.126-18.464v18.464m3.627-20.165v20.165m3.452-19.831v19.831m3.239-21.426v21.426h23.106v-.028C56.805 39.642 59 36.625 59 32.942c0-3.889-2.94-7.041-6.899-7.041-1.014 0-1.851.21-2.734.589-.634-6.174-5.872-10.997-12.32-10.997a12.43 12.43 0 0 0-8.21 3.063"
  />
</svg>
