<?xml version="1.0" standalone="no"?>
<!DOCTYPE svg PUBLIC "-//W3C//DTD SVG 20010904//EN"
 "http://www.w3.org/TR/2001/REC-SVG-20010904/DTD/svg10.dtd">
<svg version="1.0" xmlns="http://www.w3.org/2000/svg"
 width="1000.000000pt" height="1000.000000pt" viewBox="0 0 1000.000000 1000.000000"
 preserveAspectRatio="xMidYMid meet">
<metadata>
Created by potrace 1.11, written by Peter Selinger 2001-2013
</metadata>
<g transform="translate(0.000000,1000.000000) scale(0.100000,-0.100000)"
fill="#000000" stroke="none">
<path d="M4905 9649 c-66 -6 -101 -11 -170 -24 -123 -24 -380 -136 -511 -223
-215 -143 -440 -371 -595 -602 -81 -121 -204 -363 -256 -505 -55 -149 -111
-353 -128 -465 -4 -25 -13 -83 -20 -130 -13 -84 -14 -545 -2 -600 3 -14 8 -48
11 -76 20 -178 107 -570 177 -799 27 -88 51 -164 52 -170 1 -5 20 -57 41 -115
39 -107 67 -146 95 -135 80 31 196 44 276 30 45 -8 177 -56 200 -73 17 -12 17
-14 2 -8 -62 21 -163 38 -228 38 -227 1 -374 -140 -365 -349 9 -184 149 -404
340 -531 66 -44 232 -122 259 -122 24 0 56 -39 68 -83 17 -60 19 -204 3 -257
-23 -78 -100 -146 -177 -156 -83 -12 -277 58 -405 144 -174 119 -308 311 -329
476 -15 113 -6 170 57 391 73 257 83 329 84 595 1 194 -7 340 -20 361 -2 3 -6
19 -8 36 -15 83 -77 233 -132 318 -31 49 -36 55 -119 140 -126 128 -282 220
-456 267 -118 32 -301 32 -413 0 -120 -34 -241 -98 -312 -165 -97 -90 -164
-250 -121 -286 17 -14 31 -3 82 66 41 55 105 107 169 136 47 21 63 21 108 2
50 -20 103 -13 175 23 34 18 65 32 69 32 3 0 28 -23 54 -50 61 -64 106 -83
190 -82 77 2 105 -18 116 -82 11 -68 71 -139 135 -160 49 -16 59 -52 30 -114
-36 -76 -21 -188 36 -272 35 -53 30 -90 -20 -148 -51 -61 -77 -128 -77 -201 0
-42 5 -60 21 -77 18 -19 19 -26 10 -62 -12 -42 -25 -52 -70 -52 -33 0 -61 -28
-94 -95 -44 -89 -51 -190 -17 -248 23 -39 23 -61 0 -149 -9 -36 -20 -52 -45
-67 -28 -16 -34 -27 -42 -73 -16 -101 17 -256 66 -306 15 -15 41 -35 59 -44
49 -26 59 -57 38 -125 -17 -55 -17 -61 -1 -108 31 -89 113 -194 178 -228 19
-10 39 -12 62 -7 35 8 54 -4 68 -42 6 -18 -2 -22 -128 -63 -115 -37 -267 -116
-367 -191 -48 -36 -140 -120 -205 -186 -230 -237 -262 -268 -289 -278 -38 -15
-64 -3 -80 36 -30 72 -12 150 67 287 29 51 61 103 70 117 81 117 240 369 270
429 76 148 103 375 65 551 -34 162 -134 302 -254 358 -47 22 -73 27 -148 29
-99 2 -162 -12 -228 -51 -115 -69 -186 -189 -186 -315 0 -182 110 -304 233
-257 45 17 96 80 98 121 0 11 2 28 4 37 9 50 -47 137 -80 124 -13 -5 -15 -13
-9 -38 12 -55 12 -72 -3 -100 -10 -21 -21 -28 -42 -28 -16 0 -33 6 -38 13 -17
21 -5 115 20 171 20 43 33 57 69 75 83 40 179 23 232 -40 55 -66 62 -126 22
-212 -30 -66 -33 -91 -22 -165 7 -44 5 -56 -10 -73 -9 -10 -23 -19 -30 -19 -8
0 -34 -19 -58 -42 -33 -32 -48 -57 -61 -100 -22 -77 -46 -104 -121 -138 -106
-48 -165 -126 -180 -238 -10 -73 -20 -85 -99 -108 -54 -17 -100 -109 -109
-220 -2 -31 5 -58 25 -100 32 -64 31 -91 -1 -161 -24 -52 -25 -84 -3 -143 54
-144 143 -241 207 -224 26 6 116 -50 117 -74 4 -95 62 -125 227 -118 104 4
165 27 197 76 11 17 40 40 65 51 25 11 52 24 60 28 8 5 28 0 47 -12 73 -43
186 20 297 165 27 36 37 92 22 116 -3 6 21 35 54 65 57 53 62 55 91 45 53 -18
178 -3 251 30 73 34 105 61 124 108 12 28 23 35 81 54 103 34 201 83 309 155
87 58 114 69 114 47 0 -4 -24 -32 -53 -63 -28 -31 -77 -85 -107 -120 -30 -35
-70 -80 -88 -99 -19 -19 -70 -80 -115 -135 -204 -253 -317 -480 -373 -750 -27
-134 -21 -319 17 -457 77 -285 209 -447 573 -703 238 -167 356 -295 398 -428
41 -131 20 -225 -91 -412 -61 -104 -50 -150 23 -100 87 59 104 73 157 125 83
83 122 181 125 315 3 126 -20 227 -81 350 -56 115 -142 219 -345 420 -224 221
-269 281 -316 423 -26 77 -33 176 -18 269 17 108 95 273 190 399 70 93 149
173 339 344 174 156 407 387 486 480 30 35 60 71 66 78 7 7 33 39 58 71 85
111 167 138 407 135 150 -2 152 -3 217 -36 53 -27 78 -49 134 -118 169 -208
308 -352 507 -524 256 -220 374 -350 468 -509 112 -191 145 -345 107 -506 -35
-146 -116 -260 -351 -491 -209 -206 -297 -321 -352 -460 -41 -105 -52 -169
-48 -280 6 -192 66 -295 244 -423 66 -47 102 -52 102 -15 0 23 -34 86 -85 157
-56 78 -74 133 -70 221 5 142 64 259 187 375 43 40 105 92 138 116 319 230
395 294 489 414 97 122 166 273 197 432 18 91 20 274 4 353 -6 30 -14 66 -16
80 -3 14 -21 72 -40 129 -79 238 -215 457 -428 692 -27 30 -90 98 -140 152
-111 120 -115 127 -81 127 14 0 25 -4 25 -8 0 -13 185 -126 260 -160 36 -16
90 -37 120 -46 71 -20 80 -27 84 -59 5 -53 72 -103 192 -143 81 -27 145 -30
179 -7 31 21 47 16 96 -30 60 -56 69 -72 55 -108 -14 -40 11 -85 91 -165 100
-99 171 -122 232 -76 25 18 26 18 91 -9 54 -23 67 -33 80 -63 21 -51 73 -74
185 -82 99 -7 161 4 208 38 29 21 30 27 12 84 -5 16 2 26 37 50 59 40 70 43
93 28 30 -21 42 -17 94 31 52 48 92 114 120 197 24 73 20 106 -16 137 -29 24
-31 30 -28 85 2 52 6 62 31 82 26 22 28 27 27 93 -1 52 -7 83 -26 123 -39 82
-60 101 -100 94 -31 -6 -35 -3 -55 33 -12 21 -22 52 -22 69 0 98 -97 222 -192
245 -33 9 -94 86 -108 137 -12 45 -65 120 -84 120 -8 0 -31 15 -51 34 -29 28
-35 39 -30 63 18 92 2 165 -44 207 -14 13 -19 27 -16 45 2 14 7 42 10 61 17
99 74 160 153 162 144 4 220 -78 210 -224 -5 -67 -9 -73 -41 -64 -34 8 -51 53
-42 114 9 67 -8 77 -52 29 -83 -91 -12 -267 107 -267 73 0 148 62 172 142 7
24 13 81 13 128 0 71 -4 94 -26 140 -51 108 -114 160 -252 209 -170 61 -374
-25 -465 -198 -58 -109 -72 -169 -77 -332 -5 -164 21 -283 93 -424 16 -33 93
-156 171 -274 181 -275 224 -361 227 -450 2 -90 -15 -121 -67 -121 -32 0 -100
57 -199 168 -108 120 -246 255 -315 307 -70 54 -284 160 -404 201 -46 15 -86
34 -89 42 -2 7 4 23 15 34 19 18 24 19 56 7 34 -12 38 -11 78 17 52 36 110
112 144 187 29 67 31 96 9 139 -10 20 -14 44 -10 66 5 36 40 82 62 82 28 0 73
74 89 144 9 39 19 80 22 91 15 62 -6 139 -45 167 -23 16 -44 54 -40 71 1 6 -4
38 -11 70 -14 55 -13 59 9 89 12 17 22 40 22 52 0 46 -36 183 -58 218 -25 40
-62 70 -76 62 -18 -12 -46 9 -63 46 -17 37 -17 41 -1 64 21 33 21 144 1 193
-9 20 -32 56 -52 81 -48 58 -50 98 -12 181 49 105 54 158 23 249 -23 71 -20
79 46 119 79 48 120 105 120 166 0 13 12 34 26 48 22 20 36 24 98 25 84 1 141
27 170 76 20 32 56 51 83 42 10 -3 38 -17 63 -29 65 -34 99 -37 160 -16 60 21
96 16 167 -25 49 -28 128 -105 148 -144 15 -29 40 -44 57 -34 18 11 2 100 -28
160 -73 144 -219 246 -429 299 -373 93 -823 -127 -1019 -500 -30 -57 -32 -47
-10 45 8 36 17 76 19 90 2 14 8 50 14 80 17 88 21 113 26 150 3 19 7 44 10 55
11 53 20 193 20 315 0 121 -3 171 -20 355 -12 134 -33 301 -41 327 -3 9 -7 27
-9 40 -13 67 -71 252 -110 349 -238 591 -682 1052 -1190 1233 -151 54 -363 80
-520 65z m1699 -3730 c4 -288 18 -379 95 -624 54 -169 62 -236 48 -362 -24
-205 -239 -455 -482 -561 -201 -87 -271 -85 -331 10 -45 71 -62 202 -40 303
22 102 21 102 111 144 117 55 187 104 274 191 137 138 204 268 215 419 20 269
-245 424 -557 324 -61 -19 -82 -12 -32 11 68 33 206 67 280 69 49 2 135 -16
189 -40 69 -32 84 -26 107 38 9 24 20 55 26 69 5 14 27 78 49 142 21 64 40
115 42 114 2 -2 4 -113 6 -247z m-391 -350 c82 -22 132 -96 129 -189 -2 -47
-63 -185 -99 -225 -10 -11 -28 -33 -40 -48 -77 -99 -277 -196 -396 -191 -67 3
-136 40 -160 87 -24 46 -25 138 -3 204 38 114 174 260 306 328 80 41 188 55
263 34z m-2214 -19 c132 -39 256 -135 336 -260 49 -75 64 -116 69 -187 15
-213 -250 -259 -486 -85 -79 58 -153 144 -190 220 -29 59 -33 77 -33 147 0 69
3 85 23 110 60 76 151 94 281 55z"/>
<path d="M6123 5436 c-21 -10 -69 -47 -107 -82 -63 -58 -130 -94 -174 -94 -34
0 -122 -33 -146 -55 -46 -43 -27 -154 33 -187 49 -27 92 -23 147 16 122 88
174 118 263 152 173 65 201 128 105 233 -40 46 -61 48 -121 17z"/>
<path d="M3779 5400 c-28 -29 -39 -51 -45 -85 -6 -42 -4 -49 21 -75 16 -16 51
-37 79 -46 95 -31 211 -90 267 -136 73 -60 90 -68 138 -68 51 0 94 35 114 94
14 40 14 47 -1 77 -21 40 -58 61 -137 78 -91 20 -174 63 -230 122 -87 90 -147
102 -206 39z"/>
</g>
</svg>
