<?xml version="1.0" encoding="utf-8" ?>
<svg
    version="1.1"
    id="building"
    xmlns="http://www.w3.org/2000/svg"
    xmlns:xlink="http://www.w3.org/1999/xlink"
    x="0px"
    y="0px"
    viewBox="0 0 400 400"
    style="enable-background:new 0 0 400 400;"
    xml:space="preserve"
>
<style type="text/css">
:root {
    --brand: #0069cc;
}
.st0 {
    fill: rgba(0 0 0 / 10%);
    stroke: var(--brand);
    stroke-width: 4;
}
.st1 {
    fill: var(--brand);
}
.st2 {
    fill: white;
    stroke: var(--brand);
    stroke-width: 4;
}
    </style>
<path
        id="phoneOUTER"
        class="st0"
        d="M286.3,27c-2.8-14.6-16.8-24.3-31.5-21.5L103.4,33.8c-14.6,2.8-24.3,16.8-21.6,31.5L139.5,373
	c2.8,14.6,16.8,24.2,31.5,21.5l151.4-28.4c8.4-1.6,23.2-11.8,19.8-30.5C338.9,318.5,286.3,27,286.3,27L286.3,27z"
    />
<path
        id="phone"
        class="st2"
        d="M94.5,66.1l180.3-33.8l57.1,304.7l-180.3,33.8L94.5,66.1z"
    />
<path
        id="madeWITHcc"
        class="st1"
        d="M159.1,120.6c-0.7-4.4-1.3-8.7-1.9-13.1c-0.3-2.1-0.5-4.2-0.8-6.3c-0.2-1.9-0.4-3.9-0.6-5.8
	l2.4-0.4c0.8,1.1,1.6,2.3,2.3,3.4c0.9,1.4,1.7,2.8,2.6,4.2c0.9,1.5,1.7,2.9,2.6,4.4l2.3,4l0.7-4.6c0.5-3.3,1-6.6,1.6-9.8
	c0.3-1.3,0.6-2.7,0.9-4l2.4-0.4c2.2,8.2,4.2,16.4,6.1,24.6l-2.6,0.5c-0.7-3.3-1.4-6.6-2.2-9.9c-0.7-3-1.4-6.1-2.2-9.1
	c-0.1,0.6-0.3,1.3-0.4,1.9c-0.2,0.8-0.3,1.8-0.5,2.8l-0.5,3.3c-0.2,1.1-0.4,2.3-0.5,3.4l-0.4,3.1c-0.1,0.9-0.2,1.7-0.3,2.3l-2.2,0.4
	c-0.4-0.7-0.8-1.4-1.1-2l-1.5-2.7c-0.6-1-1.1-2-1.7-3l-1.7-2.9c-0.5-0.8-1-1.6-1.5-2.4c-0.3-0.5-0.7-1.1-1.1-1.6
	c0.3,3.1,0.8,6.2,1.2,9.3c0.5,3.3,1,6.7,1.6,10L159.1,120.6L159.1,120.6z M196.1,106.1c-1-2-2.1-4-3.1-6c-1-1.8-1.9-3.6-2.9-5.4
	c-1-1.7-1.9-3.4-2.9-5.1l-2.5,0.5c-0.3,1.9-0.6,3.9-0.9,5.8c-0.3,2-0.5,4.1-0.8,6.1c-0.3,2.2-0.5,4.5-0.7,6.7
	c-0.2,2.6-0.5,5.1-0.7,7.7l2.8-0.5l0.6-6.7l8.7-1.6l1.4,3c0.5,1,1,2,1.5,3l2.9-0.6C198.4,110.7,197.3,108.4,196.1,106.1L196.1,106.1
	z M185.2,106.1c0.2-2.1,0.4-4.3,0.6-6.4c0.2-2,0.5-4,0.8-6c1,1.7,1.9,3.5,2.9,5.3c1,1.9,1.9,3.8,2.9,5.7L185.2,106.1z M213.7,91.6
	c-0.7-1.4-1.7-2.6-2.9-3.6c-1.1-0.9-2.4-1.4-3.8-1.7c-1.5-0.3-3-0.3-4.5,0c-0.8,0.2-1.6,0.3-2.5,0.6c-0.8,0.2-1.7,0.6-2.4,1
	l4.5,24.1c0.8,0.1,1.7,0.1,2.6,0c0.9-0.1,1.7-0.2,2.6-0.4c1.6-0.3,3-0.8,4.2-1.6c1.2-0.7,2.2-1.8,2.9-3c0.8-1.3,1.3-2.8,1.4-4.4
	c0.2-1.7,0.1-3.6-0.3-5.8C215.2,95.2,214.6,93.3,213.7,91.6L213.7,91.6z M212.2,105.1c-0.9,1.9-2.7,3.1-5.2,3.6
	c-0.9,0.2-1.8,0.3-2.6,0.4l-3.6-19c0.2-0.1,0.4-0.1,0.9-0.2c0.6-0.1,1.2-0.3,1.8-0.4c2.6-0.5,4.6,0,6.2,1.5c1.6,1.5,2.6,3.7,3.2,6.7
	C213.3,100.7,213.1,103.1,212.2,105.1L212.2,105.1z M221.9,108.8l-4.7-24.9l11.7-2.2l0.6,2.9l-9,1.7l1.4,7.4l8-1.5l0.5,2.9l-8,1.5
	l1.6,8.7l9.7-1.8l0.6,2.9L221.9,108.8z M164,125.6l2.9-0.5l1.9,5.5l1.9,5.4c0.6,1.6,1.2,3.2,1.8,4.8l1.6,4.1
	c0.3-2.9,0.6-5.8,0.8-8.7c0.3-3.2,0.5-6.5,0.6-9.7l2.3-0.4c1.3,3,2.7,6,4.1,8.9c1.3,2.6,2.6,5.2,3.9,7.8l0-4.2c0-1.5,0-3.2-0.1-5.1
	l-0.2-5.8l-0.2-6l2.8-0.5c0.2,4.4,0.3,8.7,0.2,13.1l-0.2,12.6l-2.7,0.5c-1.3-2.5-2.6-5-3.9-7.5c-1.4-2.8-2.7-5.6-4-8.5
	c-0.2,3.1-0.4,6.2-0.7,9.4c-0.3,2.8-0.6,5.6-0.9,8.4l-2.7,0.5l-4.6-11.1C167.1,134.6,165.5,130.3,164,125.6L164,125.6z M194,120
	l4.6,24.9l-2.7,0.5l-4.7-24.9L194,120z M197.4,122.5l-0.6-3.1l14.8-2.8l0.6,3.1l-6,1.1l4.1,21.8l-2.7,0.5l-4.1-21.8L197.4,122.5
	L197.4,122.5z M219.1,141l-4.7-24.9l2.7-0.5L219,126l9.4-1.8l-1.9-10.3l2.7-0.5l4.6,24.9l-2.7,0.5l-2.1-11.5l-9.4,1.8l2.1,11.5
	L219.1,141z M140.9,174.5c-0.4-1.9-0.5-3.8-0.3-5.7c0.2-1.7,0.6-3.2,1.2-4.4c0.6-1.2,1.4-2.2,2.4-3.1c1-0.8,2.2-1.3,3.4-1.5
	c0.7-0.1,1.4-0.2,2.2-0.2c0.7,0,1.2,0.1,1.8,0.2c0.7,0.1,1.3,0.4,1.9,0.7l-0.2,3c-0.3-0.1-0.5-0.2-0.8-0.3c-0.4-0.1-0.8-0.2-1.2-0.3
	c-0.5-0.1-0.9-0.2-1.4-0.2c-0.5,0-1,0-1.5,0.1c-1,0.2-1.9,0.6-2.6,1.2c-0.7,0.6-1.3,1.4-1.7,2.4c-0.4,1.1-0.7,2.2-0.7,3.4
	c-0.1,1.3,0,2.7,0.3,4.2c0.3,1.5,0.7,2.8,1.2,4c0.4,1.1,1,2.1,1.8,2.9c1.3,1.6,3.4,2.3,5.3,1.9c1.1-0.2,2.1-0.5,3-1.1
	c0.8-0.5,1.3-0.9,1.7-1.2l1.2,2.7c-0.1,0.1-0.3,0.3-0.6,0.6c-0.4,0.3-0.8,0.5-1.2,0.8c-1.2,0.6-2.5,1.1-3.8,1.4
	c-2.6,0.5-5.3-0.3-7.2-2.2c-1-1-1.9-2.2-2.6-3.7C141.8,178.2,141.3,176.3,140.9,174.5L140.9,174.5z M174,178.1
	c-0.6-0.9-1.3-1.8-2-2.7c-0.6-0.8-1.2-1.6-1.9-2.3c-0.5-0.6-1-1.1-1.5-1.7c1.2-0.8,2-1.9,2.5-3.2c0.5-1.3,0.6-2.8,0.2-4.4
	c-0.5-2.6-1.6-4.4-3.2-5.5c-1.7-1.1-3.9-1.3-6.6-0.8c-0.9,0.2-1.7,0.4-2.5,0.6c-0.9,0.3-1.7,0.6-2.4,1l4.6,24.5l2.7-0.5l-1.8-9.7
	l3.2-0.6c0.2,0,0.5-0.1,0.7-0.2c0.5,0.6,1,1.1,1.5,1.7c0.6,0.7,1.2,1.4,1.8,2.1c0.6,0.8,1.2,1.6,1.8,2.4c0.6,0.8,1.2,1.7,1.7,2.5
	l2.9-0.6C175.2,179.9,174.6,179,174,178.1L174,178.1z M167.6,168.4c-0.4,0.4-1,0.8-1.8,1c-0.8,0.3-1.6,0.5-2.4,0.6l-1.9,0.4
	l-1.8-9.4c0.6-0.2,1.5-0.4,2.6-0.6c0.7-0.1,1.4-0.2,2.1-0.2c1.3,0,2.5,0.6,3.2,1.7c0.4,0.6,0.7,1.3,0.8,2.3c0.2,1,0.2,1.8,0,2.5
	C168.4,167.4,168.1,168,167.6,168.4z M178.6,180.3l-4.7-24.9l11.7-2.2l0.5,2.9l-9,1.7l1.4,7.4l8-1.5l0.5,2.9l-8,1.5l1.6,8.7l9.7-1.8
	l0.6,2.9L178.6,180.3L178.6,180.3z M206.8,167.5c-1-2-2.1-4-3.1-6c-0.9-1.8-1.9-3.6-2.9-5.4c-0.9-1.7-1.9-3.4-2.9-5.1l-2.5,0.5
	c-0.3,1.9-0.6,3.9-0.9,5.8c-0.3,2-0.5,4.1-0.8,6.1c-0.3,2.2-0.5,4.5-0.7,6.7c-0.2,2.4-0.5,4.9-0.7,7.7l2.8-0.5l0.6-6.7l8.7-1.6
	l1.4,3c0.5,1,1,2,1.5,3l2.9-0.6C209.1,172.1,207.9,169.8,206.8,167.5L206.8,167.5z M195.9,167.5c0.2-2.2,0.4-4.3,0.6-6.4
	c0.2-2.1,0.5-4,0.8-6c1,1.8,1.9,3.5,2.9,5.3c1,1.9,1.9,3.8,2.9,5.7L195.9,167.5z M206.8,152.4l-0.6-3.1l14.8-2.8l0.6,3.1l-6,1.1
	l4.1,21.8l-2.7,0.5l-4.1-21.8L206.8,152.4z M226.5,145.6l4.7,24.9l-2.7,0.5l-4.7-24.9L226.5,145.6z M229.1,145.1l3-0.6
	c1.7,3.6,3.4,7.1,5,10.4c1.5,3.1,3.1,6.2,4.8,9.3c0.4-3.2,0.8-6.7,1.1-10.4c0.3-3.7,0.6-7.5,0.9-11.5l2.9-0.5
	c-0.2,2.6-0.4,5.1-0.6,7.7c-0.2,2.2-0.4,4.5-0.7,6.7c-0.2,2-0.5,4.1-0.7,6.1c-0.3,1.9-0.5,3.9-0.8,5.8l-2.5,0.5
	c-2-3.5-3.9-7-5.8-10.5c-1-2-2.1-4-3.1-6C231.3,149.7,230.2,147.4,229.1,145.1L229.1,145.1z M254,166.2l-4.7-24.9l11.7-2.2l0.5,2.9
	l-9,1.7l1.4,7.4l8-1.5l0.5,2.9l-8,1.5l1.6,8.7l9.7-1.8l0.6,2.9L254,166.2L254,166.2z M141.1,206.1c-0.4-1.9-0.5-3.8-0.3-5.7
	c0.2-1.7,0.6-3.2,1.2-4.4c0.6-1.2,1.4-2.2,2.4-3.1c1-0.8,2.2-1.3,3.4-1.5c1.3-0.2,2.6-0.2,3.9,0c0.7,0.1,1.3,0.4,1.9,0.7l-0.2,3
	c-0.3-0.1-0.5-0.3-0.8-0.3l-1.2-0.3c-0.5-0.1-0.9-0.2-1.4-0.2c-0.5,0-1,0-1.4,0.1c-2,0.3-3.6,1.7-4.3,3.6c-0.4,1-0.6,2.1-0.7,3.4
	c-0.1,1.3,0,2.7,0.3,4.2c0.2,1.4,0.6,2.7,1.2,4c0.5,1.2,1.1,2.1,1.8,2.9c1.3,1.6,3.3,2.3,5.3,1.9c1.1-0.2,2.1-0.5,3-1.1
	c0.8-0.5,1.3-0.9,1.7-1.2l1.2,2.7c-0.1,0.1-0.3,0.3-0.6,0.6c-0.4,0.3-0.7,0.5-1.1,0.8c-0.5,0.3-1.1,0.5-1.7,0.8
	c-0.7,0.3-1.4,0.5-2.1,0.6c-2.6,0.5-5.3-0.3-7.2-2.2c-1-0.9-1.9-2.2-2.6-3.7S141.5,208.2,141.1,206.1L141.1,206.1z M174.8,194
	c-0.7-1.4-1.6-2.6-2.7-3.7c-1-0.9-2.1-1.6-3.4-1.9c-1.2-0.3-2.4-0.4-3.6-0.2c-1.2,0.2-2.4,0.7-3.4,1.5c-1.1,0.8-1.9,1.8-2.5,3
	c-0.7,1.4-1.1,2.9-1.2,4.4c-0.2,1.7-0.1,3.6,0.3,5.8c0.4,2.1,1,4,1.8,5.5c0.8,1.5,1.7,2.8,2.8,3.7c1,0.9,2.1,1.5,3.4,1.9
	c1.2,0.3,2.5,0.4,3.7,0.2c1.2-0.2,2.4-0.7,3.4-1.5c1-0.8,1.8-1.8,2.4-3c0.7-1.4,1.1-2.9,1.2-4.5c0.2-1.7,0.1-3.6-0.3-5.8
	C176.2,197.3,175.6,195.5,174.8,194L174.8,194z M174.1,204.2c0,1.2-0.3,2.3-0.7,3.4c-0.3,0.9-0.9,1.7-1.6,2.4
	c-0.7,0.6-1.5,1-2.5,1.2c-1,0.2-1.9,0.1-2.8-0.2c-0.9-0.3-1.7-0.9-2.4-1.6c-0.8-0.9-1.4-1.8-1.9-2.9c-0.6-1.3-1-2.6-1.2-4
	c-0.3-1.5-0.4-2.9-0.3-4.2c0.1-1.3,0.3-2.4,0.7-3.4c0.4-1,0.9-1.8,1.6-2.4c0.7-0.6,1.6-1,2.5-1.2c0.9-0.2,1.9-0.1,2.8,0.2
	c0.9,0.3,1.6,0.9,2.4,1.6c0.7,0.8,1.3,1.7,1.9,2.9c0.6,1.3,1,2.6,1.2,4C174,201.5,174.1,202.9,174.1,204.2L174.1,204.2z
	 M182.4,211.3c-0.7-4.4-1.3-8.7-1.9-13.1c-0.3-2.1-0.5-4.2-0.8-6.3c-0.2-2-0.4-4-0.6-5.8l2.4-0.4c0.8,1.1,1.6,2.3,2.3,3.4
	c0.9,1.4,1.7,2.8,2.6,4.2c0.9,1.5,1.7,2.9,2.5,4.4c0.8,1.3,1.5,2.7,2.3,4l0.7-4.6c0.5-3.3,1-6.6,1.7-9.8c0.3-1.4,0.6-2.7,0.9-4
	l2.4-0.4c2.2,8.2,4.2,16.4,6.1,24.6l-2.6,0.5c-0.7-3.3-1.4-6.6-2.2-9.9c-0.7-3-1.4-6.1-2.2-9.1c-0.1,0.6-0.3,1.3-0.4,1.9
	c-0.2,0.8-0.3,1.8-0.5,2.8l-0.6,3.3c-0.2,1.1-0.4,2.3-0.5,3.4l-0.4,3c-0.1,0.8-0.2,1.5-0.3,2.3l-2.2,0.4c-0.4-0.7-0.7-1.4-1.1-2
	c-0.5-0.9-1-1.8-1.5-2.7c-0.6-1-1.1-2-1.7-3l-1.7-2.9c-0.5-0.8-1-1.6-1.5-2.4c-0.3-0.6-0.7-1.1-1.1-1.6c0.4,3.1,0.8,6.2,1.2,9.3
	c0.5,3.3,1,6.7,1.5,10L182.4,211.3L182.4,211.3z M206.5,206.8c-0.3-2.2-0.7-4.4-1-6.6c-0.3-2.2-0.6-4.4-0.9-6.5
	c-0.3-2.1-0.5-4.2-0.8-6.3c-0.2-1.9-0.4-3.9-0.6-5.8l2.4-0.4c0.8,1.1,1.6,2.3,2.3,3.4c0.9,1.4,1.7,2.8,2.6,4.2
	c0.9,1.5,1.7,2.9,2.5,4.4l2.3,4l0.7-4.6c0.5-3.3,1-6.6,1.6-9.8c0.3-1.4,0.6-2.7,0.9-4l2.4-0.4c2.2,8.2,4.2,16.4,6.1,24.6l-2.6,0.5
	c-0.7-3.3-1.4-6.6-2.2-9.9c-0.7-3-1.4-6.1-2.2-9.1c-0.1,0.6-0.3,1.3-0.4,1.9c-0.2,0.9-0.3,1.9-0.5,2.8l-0.5,3.3
	c-0.2,1.1-0.4,2.3-0.5,3.4c-0.1,1-0.3,2-0.4,3.1c-0.1,0.8-0.2,1.5-0.3,2.3l-2.2,0.4c-0.4-0.7-0.8-1.4-1.1-2c-0.5-0.9-1-1.8-1.5-2.7
	c-0.6-1-1.1-2-1.7-3l-1.7-2.9c-0.5-0.8-1-1.6-1.5-2.4c-0.3-0.5-0.7-1.1-1.1-1.6c0.4,3.1,0.8,6.2,1.2,9.3c0.5,3.3,1,6.7,1.6,10
	L206.5,206.8L206.5,206.8z M244.6,180.9c-0.8-1.5-1.7-2.8-2.7-3.7c-1-0.9-2.1-1.6-3.4-1.9c-1.2-0.3-2.4-0.4-3.7-0.2
	c-1.2,0.2-2.4,0.7-3.4,1.5c-1.1,0.8-1.9,1.8-2.5,3c-0.7,1.4-1.1,2.9-1.2,4.5c-0.2,1.7-0.1,3.6,0.3,5.8c0.4,2.1,1,4,1.8,5.5
	s1.7,2.8,2.8,3.7c1,0.9,2.1,1.5,3.4,1.9c1.2,0.3,2.5,0.4,3.7,0.2c1.2-0.2,2.4-0.7,3.4-1.5c1-0.8,1.8-1.8,2.4-3
	c0.7-1.4,1.1-2.9,1.2-4.5c0.2-1.7,0.1-3.6-0.3-5.8C246,184.3,245.4,182.4,244.6,180.9L244.6,180.9z M243.9,191.1
	c0,1.2-0.3,2.3-0.7,3.4c-0.3,0.9-0.9,1.7-1.6,2.4c-1.4,1.3-3.5,1.6-5.3,1c-0.9-0.3-1.7-0.9-2.4-1.6c-0.8-0.9-1.4-1.8-1.9-2.9
	c-0.6-1.3-1-2.6-1.2-4c-0.3-1.5-0.4-2.9-0.3-4.2c0.1-1.3,0.3-2.4,0.7-3.4c0.3-0.9,0.9-1.7,1.6-2.4c0.7-0.6,1.6-1,2.5-1.2
	c1-0.2,1.9-0.1,2.8,0.2c0.9,0.3,1.6,0.9,2.4,1.6c0.7,0.8,1.3,1.7,1.9,2.9c0.5,1.2,0.9,2.5,1.2,4S243.9,189.8,243.9,191.1
	L243.9,191.1z M252.7,198.1l-4.7-24.9l2.1-0.4c1.2,1.2,2.4,2.4,3.6,3.7c1.3,1.4,2.6,2.9,3.8,4.4c1.3,1.5,2.5,2.9,3.7,4.5
	c1,1.3,2,2.6,3,3.9l-3.4-18.4l2.6-0.5l4.6,24.9l-2.2,0.4c-1.4-2-2.8-3.9-4.3-5.8c-0.9-1.1-1.7-2.2-2.6-3.3c-1.6-2.1-3.3-4.1-5.1-6
	c-0.7-0.8-1.4-1.6-2.2-2.4l3.6,19.4L252.7,198.1L252.7,198.1z M271.1,193.4l0.3-3c0.5,0.2,1.2,0.5,2.1,0.7c0.9,0.2,2,0.2,3.3,0
	c2.8-0.5,4-2,3.5-4.5c-0.1-0.7-0.3-1.3-0.7-1.9c-0.3-0.5-0.8-0.9-1.3-1.2c-0.5-0.3-1.1-0.6-1.6-0.8c-0.6-0.2-1.3-0.4-1.9-0.5
	c-0.7-0.2-1.5-0.4-2.2-0.7c-0.7-0.3-1.3-0.6-1.9-1.1c-0.5-0.4-1-1-1.4-1.7s-0.7-1.6-0.9-2.6c-0.4-2.2-0.1-4,0.8-5.4
	c0.9-1.4,2.4-2.4,4.4-2.7c1.1-0.2,2.2-0.2,3.3-0.1c1,0.1,1.8,0.4,2.3,0.7l-0.4,3c-1.5-0.7-3.1-0.9-4.7-0.5c-0.5,0.1-1,0.3-1.4,0.5
	c-0.4,0.2-0.8,0.5-1,0.9c-0.3,0.4-0.5,0.8-0.6,1.2c-0.1,0.5-0.1,1.1,0,1.6c0.1,0.7,0.3,1.2,0.6,1.6c0.3,0.4,0.6,0.8,1.1,1
	c0.4,0.3,0.9,0.5,1.5,0.7c0.6,0.2,1.2,0.4,1.8,0.6c0.9,0.3,1.7,0.5,2.5,0.9c0.8,0.3,1.5,0.7,2.1,1.2s1.2,1.1,1.6,1.9
	c0.4,0.8,0.8,1.7,1,2.9c0.4,2.2,0.1,4-0.9,5.4c-1,1.4-2.6,2.3-4.9,2.7c-0.8,0.1-1.5,0.2-2.1,0.2c-0.6,0-1.2-0.1-1.8-0.2
	c-0.5-0.1-0.9-0.2-1.4-0.3C271.8,193.6,271.5,193.5,271.1,193.4L271.1,193.4z"
    />
<path
        id="circle"
        class="st0"
        d="M219.6,235.8c8.3-1.6,16.3,0.2,23.2,4.9c6.7,4.6,11.3,11.7,12.7,19.8c1.6,8.3,0,16.2-4.6,22.8
	c-4.9,7-12,11.6-19.9,13.1c-8,1.5-16.3-0.3-23-4.9c-6.8-4.6-11.5-11.6-13-19.6c-1.5-8.1,0.3-16.4,5-23.2
	C204.5,241.8,211.6,237.2,219.6,235.8L219.6,235.8z"
    />
<path
        id="CC"
        class="st0"
        d="M207.4,268.8c-0.3-1.8-0.4-3.5-0.1-5c0.3-1.5,0.8-2.9,1.6-4c0.8-1.1,1.7-2.1,2.9-2.8c1.2-0.8,2.5-1.3,3.9-1.5
	c0.8-0.2,1.6-0.2,2.5-0.3c0.7,0,1.3,0,2,0.1c0.5,0,0.9,0.1,1.4,0.3c0.4,0.1,0.6,0.2,0.8,0.2l-0.4,2.7c-0.3-0.1-0.6-0.2-0.9-0.3
	c-0.4-0.1-0.9-0.2-1.3-0.2c-0.5-0.1-1-0.1-1.6-0.1c-0.6,0-1.1,0.1-1.6,0.2c-1.1,0.2-2.1,0.6-3,1.2c-0.8,0.6-1.5,1.3-2,2.2
	c-0.5,0.9-0.9,2-1,3c-0.1,1.1-0.1,2.4,0.2,3.7c0.2,1.3,0.6,2.5,1.1,3.5c0.5,1,1.1,1.8,1.9,2.5c0.8,0.7,1.6,1.1,2.6,1.4
	c1,0.2,2.1,0.3,3.3,0c1.9-0.3,3.8-1.1,5.4-2.3l1.3,2.4c-0.1,0.1-0.4,0.3-0.7,0.5c-0.4,0.2-0.8,0.5-1.3,0.7c-1.4,0.6-2.9,1.1-4.4,1.4
	c-1.5,0.3-3,0.3-4.3,0c-1.3-0.3-2.6-0.8-3.7-1.6c-1.1-0.8-2-1.9-2.8-3.2C208.3,272.1,207.7,270.5,207.4,268.8L207.4,268.8z
	 M227,265.2c-0.3-1.7-0.4-3.4-0.1-5c0.3-1.5,0.8-2.9,1.6-4c0.8-1.1,1.7-2.1,2.9-2.8c1.2-0.7,2.5-1.3,3.9-1.5
	c0.8-0.2,1.6-0.3,2.5-0.3c0.8,0,1.4,0,2,0.1c0.5,0,0.9,0.1,1.4,0.3c0.4,0.1,0.6,0.2,0.8,0.2l-0.4,2.7c-0.3-0.1-0.6-0.2-0.9-0.3
	c-0.4-0.1-0.9-0.2-1.3-0.2c-1.1-0.1-2.1-0.1-3.2,0.1c-1.1,0.2-2.1,0.6-3,1.2c-0.8,0.6-1.5,1.3-2,2.2c-0.5,0.9-0.8,1.9-1,3
	c-0.1,1.1-0.1,2.4,0.2,3.8c0.2,1.3,0.6,2.5,1.1,3.5c0.5,0.9,1.1,1.8,1.9,2.5c0.8,0.7,1.7,1.1,2.6,1.4c1,0.3,2.1,0.3,3.3,0
	c1.4-0.3,2.6-0.6,3.4-1.1c0.7-0.3,1.3-0.7,1.9-1.2l1.3,2.4c-0.2,0.2-0.5,0.4-0.7,0.5c-0.4,0.3-0.9,0.5-1.3,0.7
	c-1.4,0.6-2.9,1.1-4.4,1.4c-1.5,0.3-3,0.3-4.3,0c-1.3-0.3-2.6-0.8-3.7-1.6c-1.1-0.8-2-1.9-2.8-3.2
	C227.8,268.4,227.3,266.8,227,265.2L227,265.2z"
    />
</svg>
