<svg xmlns="http://www.w3.org/2000/svg" viewBox="0 0 400 400">
  <path
        fill="none"
        d="M286.27 27.02a27.01 27.01 0 0 0-31.48-21.54L103.43 33.83A27.02 27.02 0 0 0 81.88 65.3l57.64 307.71a27 27 0 0 0 31.46 21.49l151.43-28.36c8.41-1.58 23.25-11.78 19.75-30.5-3.21-17.12-55.9-308.62-55.9-308.62z"
    />
  <path
        fill="none"
        d="m94.48 66.13 180.34-33.77 57.08 304.72-180.34 33.78L94.48 66.13z"
    />
  <path
        fill="#0069cc"
        d="M159.14 120.55a717.4 717.4 0 0 1-1.86-13.09 616.09 616.09 0 0 1-.77-6.27 216.5 216.5 0 0 1-.61-5.78l2.35-.44a69.38 69.38 0 0 1 2.3 3.43 172.55 172.55 0 0 1 2.56 4.18 222 222 0 0 1 2.55 4.4l2.27 4.01.67-4.57a260.89 260.89 0 0 1 1.65-9.84c.26-1.35.56-2.7.9-4.03l2.36-.44a605.85 605.85 0 0 1 6.08 24.61l-2.64.5a832.5 832.5 0 0 0-2.2-9.91 320.44 320.44 0 0 0-2.21-9.08 61.51 61.51 0 0 0-.4 1.9c-.17.82-.33 1.75-.5 2.78l-.54 3.3c-.2 1.13-.37 2.26-.53 3.4l-.45 3.05c-.14.94-.25 1.7-.32 2.32l-2.17.4a82.6 82.6 0 0 0-1.14-2.04l-1.52-2.69a199.27 199.27 0 0 0-1.72-2.97l-1.7-2.88c-.48-.81-.97-1.62-1.47-2.42a39.74 39.74 0 0 0-1.06-1.62 264.9 264.9 0 0 0 1.21 9.27c.5 3.31 1.01 6.65 1.55 10.02l-2.64.5zm36.96-14.48a474.06 474.06 0 0 0-3.1-6.02 281.49 281.49 0 0 0-2.91-5.41 177.16 177.16 0 0 0-2.94-5.09l-2.46.46a154.85 154.85 0 0 0-.9 5.8 299.69 299.69 0 0 0-.75 6.1 476.5 476.5 0 0 0-.71 6.74 996.95 996.95 0 0 0-.72 7.69l2.8-.53.56-6.67 8.7-1.63 1.45 3.01c.47 1 .96 2 1.48 3.01l2.94-.55a673.51 673.51 0 0 0-3.44-6.91zm-10.88.05c.17-2.13.36-4.26.59-6.38.2-2 .47-3.98.8-5.96.98 1.74 1.94 3.5 2.85 5.28a612.87 612.87 0 0 1 2.9 5.72l-7.14 1.34zm28.52-14.5a10.99 10.99 0 0 0-2.93-3.55 8.99 8.99 0 0 0-3.82-1.7 11.8 11.8 0 0 0-4.47.03c-.77.15-1.62.35-2.54.61a12.77 12.77 0 0 0-2.44.96l4.52 24.12c.8.1 1.68.11 2.63.02.86-.08 1.73-.2 2.58-.36 1.57-.3 2.97-.82 4.18-1.58a9.04 9.04 0 0 0 2.95-2.96 10.88 10.88 0 0 0 1.44-4.37c.21-1.69.12-3.6-.28-5.76a18.7 18.7 0 0 0-1.82-5.47zm-1.59 13.44c-.94 1.92-2.68 3.12-5.23 3.6a34.77 34.77 0 0 1-2.65.39l-3.56-19.02c.16-.06.44-.14.85-.25a27.17 27.17 0 0 1 1.75-.37c2.56-.48 4.62.01 6.18 1.46 1.57 1.46 2.65 3.7 3.21 6.74.57 3.04.39 5.52-.55 7.45zm9.73 3.74-4.66-24.88 11.71-2.2.55 2.95-9.01 1.7 1.4 7.44 8.02-1.5.54 2.87-8.03 1.5 1.62 8.67 9.72-1.82.56 2.94zm-57.9 16.8 2.85-.54 1.94 5.53 1.89 5.37a127.71 127.71 0 0 0 1.8 4.83l1.65 4.15c.3-2.9.56-5.8.8-8.72.28-3.24.48-6.49.6-9.74l2.33-.44a179.44 179.44 0 0 0 4.11 8.87 904.9 904.9 0 0 0 3.94 7.83l.04-4.24c0-1.54-.02-3.25-.08-5.13l-.21-5.83-.2-5.97 2.76-.52c.2 4.38.27 8.75.18 13.13l-.24 12.63-2.69.5a301.35 301.35 0 0 1-3.87-7.53 240.23 240.23 0 0 1-4-8.47 209.46 209.46 0 0 1-.68 9.35 534.9 534.9 0 0 1-.9 8.42l-2.68.5-4.6-11.15c-1.6-3.87-3.18-8.14-4.74-12.84zm30.04-5.63 4.65 24.88-2.69.5-4.66-24.88zm3.37 2.52-.57-3.05 14.76-2.77.57 3.06-6.04 1.13 4.1 21.82-2.7.5-4.09-21.82-6.03 1.13zm21.67 18.53-4.66-24.87 2.7-.5 1.93 10.33 9.39-1.75-1.94-10.35 2.7-.5 4.65 24.88-2.69.5-2.15-11.48-9.39 1.75 2.15 11.49zm-78.12 33.43a19.6 19.6 0 0 1-.31-5.67c.19-1.71.6-3.2 1.22-4.45a8.77 8.77 0 0 1 2.44-3.06 7.71 7.71 0 0 1 3.39-1.53 9.82 9.82 0 0 1 2.18-.18c.66.03 1.25.1 1.75.19a7.07 7.07 0 0 1 1.95.67l-.23 3.02a4.05 4.05 0 0 0-.8-.33 13.67 13.67 0 0 0-1.17-.31 7.66 7.66 0 0 0-1.38-.17 6.72 6.72 0 0 0-1.46.11 5.8 5.8 0 0 0-2.62 1.2c-.72.6-1.3 1.4-1.7 2.36a10 10 0 0 0-.73 3.38c-.07 1.3.04 2.7.32 4.24.28 1.48.67 2.8 1.17 3.98a10.26 10.26 0 0 0 1.79 2.92 5.47 5.47 0 0 0 5.34 1.85 8.17 8.17 0 0 0 2.97-1.08c.75-.5 1.3-.9 1.66-1.24l1.24 2.74c-.1.14-.31.34-.61.58a8.38 8.38 0 0 1-1.16.75 13.57 13.57 0 0 1-3.79 1.35 7.96 7.96 0 0 1-7.17-2.16c-1-.96-1.86-2.2-2.6-3.73a21.81 21.81 0 0 1-1.7-5.43zm33.06 3.63c-.64-.92-1.3-1.81-1.98-2.7a47.51 47.51 0 0 0-1.89-2.33 107.73 107.73 0 0 0-1.49-1.67 6.32 6.32 0 0 0 2.5-3.18c.47-1.3.55-2.77.24-4.42-.5-2.6-1.57-4.44-3.23-5.5-1.66-1.05-3.85-1.33-6.55-.82-.86.17-1.7.37-2.54.61-.92.27-1.73.59-2.45.96l4.6 24.53 2.69-.5-1.83-9.74 3.18-.6c.24-.04.49-.1.73-.16a83.08 83.08 0 0 1 1.53 1.71 54.07 54.07 0 0 1 1.77 2.14 64.54 64.54 0 0 1 1.81 2.43c.6.83 1.17 1.68 1.73 2.54l2.94-.55a35.24 35.24 0 0 0-1.76-2.75zm-6.35-9.67c-.45.44-1.03.78-1.75 1.04a16.53 16.53 0 0 1-2.45.64l-1.91.36-1.76-9.36c.6-.2 1.46-.4 2.6-.62a9.45 9.45 0 0 1 2.1-.16 3.73 3.73 0 0 1 3.2 1.7c.38.58.66 1.33.84 2.27.19 1 .2 1.83.04 2.5-.16.65-.47 1.2-.91 1.63zm10.98 11.88-4.66-24.87 11.72-2.2.54 2.95-9.02 1.69 1.4 7.45 8.03-1.5.54 2.87-8.03 1.5 1.62 8.66 9.73-1.82.55 2.95-12.42 2.32zm28.13-12.82a448.46 448.46 0 0 0-3.1-6.02 269.9 269.9 0 0 0-2.91-5.42c-.95-1.71-1.93-3.4-2.93-5.08l-2.46.46a155.54 155.54 0 0 0-.9 5.8 279.98 279.98 0 0 0-.76 6.1 426.12 426.12 0 0 0-.7 6.73c-.24 2.36-.48 4.93-.72 7.7l2.8-.53.55-6.67 8.7-1.63 1.45 3.01c.48 1.01.98 2.02 1.48 3.01l2.94-.55a683.55 683.55 0 0 0-3.44-6.91zm-10.88.05c.18-2.2.37-4.33.59-6.38.22-2.06.48-4.04.8-5.97.99 1.75 1.94 3.51 2.85 5.3a600.88 600.88 0 0 1 2.9 5.71l-7.14 1.34zm10.9-15.09-.58-3.05 14.76-2.77.57 3.05-6.03 1.14 4.09 21.82-2.7.5-4.08-21.82zm19.7-6.85 4.67 24.88-2.7.5-4.66-24.87zm2.63-.5 2.98-.55c1.7 3.6 3.37 7.05 4.98 10.36a189.55 189.55 0 0 0 4.8 9.27c.45-3.23.82-6.68 1.12-10.37.3-3.69.59-7.5.87-11.47l2.88-.54a537.75 537.75 0 0 1-.65 7.68 360.26 360.26 0 0 1-.67 6.72 247.5 247.5 0 0 1-.73 6.1 298.46 298.46 0 0 1-.83 5.8l-2.51.46a296.29 296.29 0 0 1-5.77-10.51 448.4 448.4 0 0 1-3.1-6.02 279.33 279.33 0 0 1-3.37-6.92zm24.94 21.09-4.66-24.88 11.71-2.2.55 2.95-9.02 1.7 1.4 7.44 8.03-1.5.54 2.87-8.03 1.5 1.62 8.67 9.72-1.82.56 2.94-12.42 2.33zm-112.96 39.95a19.68 19.68 0 0 1-.3-5.68c.18-1.7.59-3.19 1.22-4.44a8.77 8.77 0 0 1 2.43-3.07 7.73 7.73 0 0 1 3.4-1.52 10.77 10.77 0 0 1 3.93.01 6.98 6.98 0 0 1 1.94.67l-.23 3.02a4.17 4.17 0 0 0-.8-.34l-1.17-.3a7.48 7.48 0 0 0-1.38-.17 6.65 6.65 0 0 0-1.45.11 5.61 5.61 0 0 0-4.33 3.56c-.41.97-.65 2.1-.72 3.38-.07 1.3.03 2.7.32 4.23a19.8 19.8 0 0 0 1.16 3.99c.5 1.17 1.09 2.14 1.8 2.92a5.47 5.47 0 0 0 5.33 1.85 8.14 8.14 0 0 0 2.97-1.09c.75-.49 1.3-.9 1.66-1.23l1.25 2.74c-.1.14-.31.34-.62.58a8.08 8.08 0 0 1-1.15.75c-.54.29-1.1.54-1.67.76a12.28 12.28 0 0 1-2.13.59 7.98 7.98 0 0 1-7.16-2.17c-1-.95-1.87-2.18-2.6-3.72s-1.3-3.34-1.7-5.43zm33.73-12.14a13.04 13.04 0 0 0-2.74-3.7 8.4 8.4 0 0 0-3.36-1.93 7.83 7.83 0 0 0-3.65-.16 8.1 8.1 0 0 0-3.4 1.48 8.54 8.54 0 0 0-2.5 3.02 12.65 12.65 0 0 0-1.23 4.45c-.18 1.71-.08 3.64.32 5.76.4 2.13 1 3.96 1.79 5.5.8 1.54 1.72 2.78 2.76 3.71a8.54 8.54 0 0 0 3.41 1.91 8.12 8.12 0 0 0 3.72.16 7.86 7.86 0 0 0 3.35-1.48c1-.76 1.8-1.76 2.43-3a12.96 12.96 0 0 0 1.21-4.46c.2-1.72.08-3.65-.31-5.78-.4-2.12-1-3.95-1.8-5.48zm-.74 10.21a10.57 10.57 0 0 1-.67 3.39 6.16 6.16 0 0 1-1.6 2.37c-.68.6-1.51 1-2.5 1.19-.98.18-1.9.12-2.77-.2a6.12 6.12 0 0 1-2.37-1.63 10.7 10.7 0 0 1-1.85-2.91 18.18 18.18 0 0 1-1.2-4.03c-.29-1.5-.4-2.9-.34-4.2.06-1.28.29-2.4.67-3.37.39-.96.93-1.75 1.62-2.36a5.19 5.19 0 0 1 2.52-1.2 5.05 5.05 0 0 1 2.75.21c.86.33 1.65.87 2.36 1.62.7.76 1.32 1.73 1.85 2.9a18.2 18.2 0 0 1 1.21 4.03c.28 1.51.39 2.9.32 4.2zm8.3 7.1a604.31 604.31 0 0 1-1.85-13.1 629.86 629.86 0 0 1-.78-6.26c-.24-2.04-.44-3.96-.6-5.79l2.35-.44a75 75 0 0 1 2.3 3.44 183.9 183.9 0 0 1 2.56 4.18 227.97 227.97 0 0 1 2.54 4.39 342 342 0 0 1 2.28 4.02l.66-4.57a229.59 229.59 0 0 1 1.66-9.84c.26-1.35.56-2.7.9-4.03l2.35-.44a603.7 603.7 0 0 1 6.08 24.6l-2.63.5a906.08 906.08 0 0 0-2.2-9.9 309.01 309.01 0 0 0-2.21-9.09 63.92 63.92 0 0 0-.4 1.9c-.17.82-.33 1.75-.5 2.79l-.55 3.3a203.98 203.98 0 0 0-.53 3.4l-.44 3.04a78.27 78.27 0 0 0-.33 2.32l-2.16.4a73.28 73.28 0 0 0-1.14-2.04 710.18 710.18 0 0 1-1.52-2.68 175.88 175.88 0 0 0-1.72-2.97l-1.7-2.88c-.48-.81-.97-1.62-1.47-2.42a35.71 35.71 0 0 0-1.07-1.63c.35 3.1.76 6.2 1.22 9.28a838.48 838.48 0 0 0 1.54 10.02l-2.64.5zm24.12-4.52a561.97 561.97 0 0 1-.97-6.56 463.1 463.1 0 0 1-.89-6.53 625.68 625.68 0 0 1-.77-6.27 207.44 207.44 0 0 1-.61-5.78l2.36-.45a69.94 69.94 0 0 1 2.3 3.44 174.24 174.24 0 0 1 2.56 4.18 223 223 0 0 1 2.54 4.4l2.28 4.01.66-4.57a246.1 246.1 0 0 1 1.65-9.84c.26-1.35.57-2.7.9-4.03l2.36-.44a617.23 617.23 0 0 1 6.08 24.61l-2.64.5a760.22 760.22 0 0 0-2.2-9.9 312.22 312.22 0 0 0-2.2-9.1c-.15.64-.29 1.27-.41 1.9a89.47 89.47 0 0 0-.5 2.8l-.54 3.3a184.95 184.95 0 0 0-.53 3.39c-.14 1.02-.3 2.03-.45 3.05-.12.77-.23 1.54-.32 2.32l-2.16.4a90.7 90.7 0 0 0-1.15-2.04 543.96 543.96 0 0 1-1.52-2.68 158.92 158.92 0 0 0-1.72-2.97l-1.7-2.89c-.48-.81-.97-1.62-1.47-2.42a37.46 37.46 0 0 0-1.06-1.62 272.64 272.64 0 0 0 1.21 9.27 936.64 936.64 0 0 0 1.55 10.03l-2.64.49zm38.1-25.86c-.8-1.54-1.7-2.77-2.74-3.7a8.47 8.47 0 0 0-3.35-1.93 7.88 7.88 0 0 0-3.66-.17 8.16 8.16 0 0 0-3.41 1.5 8.53 8.53 0 0 0-2.49 3 12.7 12.7 0 0 0-1.23 4.46c-.19 1.71-.08 3.64.32 5.76.4 2.13 1 3.96 1.79 5.5s1.71 2.78 2.76 3.71a8.56 8.56 0 0 0 3.41 1.91 8.13 8.13 0 0 0 3.72.16 7.9 7.9 0 0 0 3.35-1.48c1-.76 1.8-1.76 2.43-3a13.09 13.09 0 0 0 1.21-4.46c.19-1.72.08-3.65-.32-5.78-.4-2.12-1-3.95-1.79-5.48zm-.74 10.21a10.47 10.47 0 0 1-.67 3.39 6.2 6.2 0 0 1-1.6 2.37 5.27 5.27 0 0 1-5.27.98 6.05 6.05 0 0 1-2.37-1.62 10.5 10.5 0 0 1-1.85-2.91 18 18 0 0 1-1.2-4.03c-.3-1.5-.4-2.9-.34-4.2.06-1.28.28-2.4.67-3.37a6.1 6.1 0 0 1 1.62-2.36 5.17 5.17 0 0 1 2.51-1.2c.98-.18 1.9-.1 2.76.21.86.33 1.64.87 2.35 1.62.7.76 1.33 1.73 1.85 2.9.53 1.18.94 2.52 1.22 4.03.28 1.51.39 2.9.32 4.2zm8.83 7-4.66-24.88 2.14-.4a67.8 67.8 0 0 1 3.56 3.66 173.28 173.28 0 0 1 3.85 4.37 150.95 150.95 0 0 1 3.68 4.46 98.77 98.77 0 0 1 2.98 3.93l-3.44-18.4 2.64-.5 4.65 24.87-2.24.42a163 163 0 0 0-4.3-5.82 241.78 241.78 0 0 0-2.58-3.26 149.97 149.97 0 0 0-5.1-6.02 72.34 72.34 0 0 0-2.18-2.35l3.64 19.42-2.64.5zm18.46-4.75.26-3.02c.48.24 1.2.47 2.14.68.94.22 2.03.2 3.29-.03 2.8-.52 3.97-2.03 3.5-4.5a4.65 4.65 0 0 0-.73-1.9 4.5 4.5 0 0 0-1.27-1.2 6.84 6.84 0 0 0-1.65-.75 39.83 39.83 0 0 0-1.9-.53 16.16 16.16 0 0 1-2.19-.69 7.34 7.34 0 0 1-1.9-1.09c-.55-.45-1.04-1.01-1.44-1.7s-.71-1.56-.91-2.61c-.41-2.18-.15-4 .76-5.43.91-1.44 2.38-2.35 4.4-2.73a9.88 9.88 0 0 1 3.28-.1c1.01.14 1.78.37 2.3.67l-.35 3.02a7.52 7.52 0 0 0-4.66-.54 4.73 4.73 0 0 0-1.4.5 3.5 3.5 0 0 0-1.04.86 3.04 3.04 0 0 0-.59 1.24 3.92 3.92 0 0 0 0 1.6c.12.67.33 1.21.62 1.63.29.41.65.76 1.08 1.03.43.28.93.51 1.47.7a28 28 0 0 0 1.78.57 38.6 38.6 0 0 1 2.53.86c.76.29 1.47.7 2.1 1.2.63.5 1.16 1.13 1.59 1.9.43.77.75 1.74.97 2.92.41 2.18.11 3.97-.9 5.38-1.01 1.41-2.64 2.32-4.88 2.74-.76.15-1.47.2-2.13.2a13.16 13.16 0 0 1-1.8-.17 8.85 8.85 0 0 1-1.4-.33 7.17 7.17 0 0 1-.93-.38z"
    />
  <path
        fill="none"
        d="M219.65 235.8c8.32-1.56 16.32.2 23.19 4.9a30.35 30.35 0 0 1 12.73 19.78c1.56 8.32-.01 16.18-4.65 22.82-4.89 7-12 11.6-19.92 13.08a30.41 30.41 0 0 1-22.99-4.93A30.69 30.69 0 0 1 195 271.82a31.16 31.16 0 0 1 5-23.2 29.6 29.6 0 0 1 19.66-12.82z"
    />
  <path
        fill="currentColor"
        d="M207.44 268.84c-.34-1.83-.37-3.5-.08-5.03.3-1.52.82-2.85 1.59-4a9.68 9.68 0 0 1 2.9-2.83 11.05 11.05 0 0 1 3.9-1.52 14.38 14.38 0 0 1 2.48-.26 16.37 16.37 0 0 1 1.97.08 8.82 8.82 0 0 1 1.4.26c.37.1.63.19.77.25l-.4 2.69a5.2 5.2 0 0 0-.9-.26c-.43-.08-.87-.16-1.3-.21a10.25 10.25 0 0 0-1.56-.09 9.53 9.53 0 0 0-1.65.17 8.01 8.01 0 0 0-3.02 1.18 6.67 6.67 0 0 0-2.04 2.18 7.9 7.9 0 0 0-.97 3.04c-.15 1.15-.09 2.4.16 3.74.25 1.3.62 2.46 1.13 3.48a7.93 7.93 0 0 0 1.89 2.51 6.2 6.2 0 0 0 2.62 1.36c1 .25 2.1.26 3.32.03a11.98 11.98 0 0 0 5.35-2.28l1.27 2.38c-.12.13-.36.3-.72.54-.35.23-.8.47-1.34.72a19.39 19.39 0 0 1-4.35 1.37c-1.54.3-2.99.3-4.34.03a9.15 9.15 0 0 1-3.66-1.6c-1.08-.8-2-1.86-2.76-3.2a15.1 15.1 0 0 1-1.66-4.73zm19.56-3.66a13.5 13.5 0 0 1-.08-5.03c.28-1.52.81-2.85 1.58-4a9.73 9.73 0 0 1 2.9-2.84 11.03 11.03 0 0 1 3.9-1.5 14.34 14.34 0 0 1 2.48-.27c.75-.01 1.4.02 1.97.08a8.9 8.9 0 0 1 1.4.26c.38.1.63.19.77.25l-.4 2.69a5.26 5.26 0 0 0-.9-.26c-.43-.09-.86-.16-1.3-.22a10.4 10.4 0 0 0-3.2.08 7.98 7.98 0 0 0-3.02 1.19 6.65 6.65 0 0 0-2.04 2.17c-.51.88-.84 1.9-.98 3.04-.14 1.15-.09 2.4.17 3.75.24 1.3.61 2.46 1.12 3.48a8 8 0 0 0 1.89 2.5 6.26 6.26 0 0 0 2.62 1.36c1 .26 2.1.26 3.32.03 1.41-.26 2.55-.63 3.42-1.1a16.8 16.8 0 0 0 1.93-1.17l1.28 2.37a5.7 5.7 0 0 1-.72.55 10.77 10.77 0 0 1-1.34.72 20.14 20.14 0 0 1-4.36 1.37c-1.54.29-2.98.3-4.34.02a9.2 9.2 0 0 1-3.66-1.6c-1.08-.8-2-1.86-2.76-3.19a14.96 14.96 0 0 1-1.65-4.73z"
    />
</svg>
