<?xml version="1.0" encoding="utf-8" ?>
<!-- Generator: Adobe Illustrator 26.4.1, SVG Export Plug-In . SVG Version: 6.00 Build 0)  -->
<svg
    version="1.1"
    id="Layer_1"
    xmlns="http://www.w3.org/2000/svg"
    xmlns:xlink="http://www.w3.org/1999/xlink"
    x="0px"
    y="0px"
    viewBox="0 0 400 400"
    style="enable-background:new 0 0 400 400;"
    xml:space="preserve"
>
<style type="text/css">
:root {
    --brand: #0069cc;
}
.st0 {
    fill: white;
    stroke: var(--brand);
    stroke-width: 4;
}
.st1 {
    fill: none;
    stroke: var(--brand);
    stroke-width: 4;
}
    </style>
<path
        id="light"
        class="st0"
        d="M257.9,303.3c0-2,1-6.6,2.6-7.8c38.2-27.5,55.6-77.7,43.1-124.9c-12.9-49.1-55.6-83.4-103.7-83.4
	c-48.1,0-90.7,34.3-103.6,83.4c-12.4,47.2,4.9,97.4,43.1,124.9c1.6,1.2,2.6,5.7,2.6,7.8L257.9,303.3L257.9,303.3z"
    />
<path
        id="outline"
        class="st1"
        d="M142.5,315.3l0,24.5c2.1,30.8,27,54.9,56.8,55.2h0.5c29.9,0,55.2-24.2,57.4-55v-25.3 M200.4,5
	v43.8 M293.1,25.8L272.7,64 M126.4,64.8l-21.4-37.7"
    />
</svg>
