<svg xmlns="http://www.w3.org/2000/svg" viewBox="0.45 595.14 400 400">
<style type="text/css">
:root {
    --brand: #0069cc;
}
.st0 {
    fill: rgba(0 0 0 / 10%);
    stroke: var(--brand);
    stroke-width: 4;
}
.st1 {
    fill: var(--brand);
}
.st2 {
    fill: white;
    stroke: var(--brand);
    stroke-width: 4;
}
    </style>
  <path
        class="st0"
        d="M200.44 629.39c10.73 0 19.5 8.77 19.5 19.5s-8.77 19.5-19.5 19.5-19.5-8.77-19.5-19.5c0-10.72 8.78-19.5 19.5-19.5zm29.77 32.44 91.07 91.06m-241.67 0 91.06-91.06M18.45 765.89h364v195h-364z"
    />
  <path
        class="st1"
        d="M83.44 791.89a32.51 32.51 0 0 0-32.5 32.5v78a32.51 32.51 0 0 0 65 0v-78a32.51 32.51 0 0 0-32.5-32.5zm19.5 110.5c0 10.73-8.77 19.5-19.5 19.5a19.56 19.56 0 0 1-19.5-19.5v-78c0-10.73 8.78-19.5 19.5-19.5s19.5 8.77 19.5 19.5v78zm58.5-110.5a32.51 32.51 0 0 0-32.5 32.5v104c0 3.58 2.93 6.5 6.5 6.5s6.5-2.92 6.5-6.5v-45.7a32.43 32.43 0 0 0 19.5 6.7 32.51 32.51 0 0 0 32.5-32.5v-32.5a32.51 32.51 0 0 0-32.5-32.5zm19.5 65c0 10.73-8.77 19.5-19.5 19.5s-19.5-8.77-19.5-19.5v-32.5c0-10.73 8.78-19.5 19.5-19.5 10.73 0 19.5 8.77 19.5 19.5v32.5zm156 37.77-39.45-98.67-.07-.07c-.26-.58-.65-1.04-1.04-1.56l-.39-.58c-.2-.2-.39-.27-.58-.4a4.9 4.9 0 0 0-1.43-.97c-.13-.06-.26-.06-.4-.06a5.61 5.61 0 0 0-2.07-.4h-.07c-.39 0-.78.13-1.17.26-.45.07-.84.07-1.3.26l-.06.07c-.59.26-1.04.65-1.56 1.04-.2.13-.4.2-.59.39-.26.26-.32.52-.52.78-.32.39-.65.78-.84 1.23-.07.13-.07.33-.13.52-.2.65-.4 1.3-.4 2.02v130.06c0 3.58 2.93 6.5 6.5 6.5 3.58 0 6.5-2.92 6.5-6.5v-96.46l39.46 98.67s0 .07.07.07c.06.13.13.2.2.32.25.59.64 1.1 1.03 1.56.13.2.33.33.52.46.4.39.85.65 1.37.9.2.14.39.2.65.33a6.33 6.33 0 0 0 4.68 0s.06 0 .06-.06c.59-.26 1.04-.65 1.56-.98.2-.13.46-.26.59-.39.2-.2.32-.52.52-.71.32-.46.65-.85.9-1.3.07-.13.07-.33.14-.52.2-.65.39-1.3.39-2.02V798.4c0-3.57-2.93-6.5-6.5-6.5s-6.5 2.93-6.5 6.5v96.27h-.07zm-71.5-89.77c3.58 0 6.5-2.92 6.5-6.5 0-3.57-2.92-6.5-6.5-6.5h-52a6.52 6.52 0 0 0-6.5 6.5v130c0 3.58 2.93 6.5 6.5 6.5h52c3.58 0 6.5-2.92 6.5-6.5 0-3.57-2.92-6.5-6.5-6.5h-45.5v-52h45.5c3.58 0 6.5-2.92 6.5-6.5s-2.92-6.5-6.5-6.5h-45.5v-52h45.5z"
    />
</svg>
