<svg xmlns="http://www.w3.org/2000/svg" viewBox="0 0 400 400">

    <title>junglestar</title>

    <path
        fill="none"
        d="M328.812 60.47l-.032 163.83c-.006 43.783-11.565 75.953-34.648 96.507-23.096 20.562-53.638 31.029-91.638 31.43-38.827.399-69.976-9.041-93.463-28.317-23.496-19.284-35.235-44.104-35.228-74.485.003-13.4 6.537-20.181 19.618-20.315 13.89-.144 20.838 4.912 20.835 15.163 0 22.482 7.86 40.15 23.593 53.008 15.72 12.85 36.863 19.146 63.433 18.87 27.782-.29 49.229-8.007 64.354-23.153 15.116-15.146 22.688-37.906 22.693-68.279l.036-192.884C261.95 17.906 231.884 10 200 10 95.233 10 10 95.234 10 200.002 10 304.77 95.233 390 200 390c104.766 0 190-85.23 190-189.998 0-55.104-23.588-104.795-61.188-139.532z"
    />

    <path
        fill="#FFF"
        d="M56.593 184.72l52.3-49.918-12.416-70.414 64.732 33.195L225.88 64.28l-12.297 70.435 52.39 49.832-72.33 10.334-32.296 64.099-32.408-64.043-72.35-10.215z"
    />

  </svg>
