<?xml version="1.0" standalone="no"?>
<!DOCTYPE svg PUBLIC "-//W3C//DTD SVG 20010904//EN"
 "http://www.w3.org/TR/2001/REC-SVG-20010904/DTD/svg10.dtd">
<svg version="1.0" xmlns="http://www.w3.org/2000/svg"
 width="400.000000pt" height="400.000000pt" viewBox="0 0 400.000000 400.000000"
 preserveAspectRatio="xMidYMid meet">
<metadata>
Created by potrace 1.11, written by Peter Selinger 2001-2013
</metadata>
<g transform="translate(0.000000,400.000000) scale(0.100000,-0.100000)"
fill="#000000" stroke="none">
<path d="M1790 3889 c-601 -68 -1136 -420 -1442 -950 -106 -184 -188 -415
-224 -634 -26 -153 -26 -457 0 -610 66 -402 243 -742 536 -1035 293 -293 633
-470 1035 -536 153 -26 457 -26 610 0 402 66 742 243 1035 536 239 239 396
501 485 810 54 187 70 308 70 530 0 142 -5 225 -19 305 -62 373 -234 721 -490
992 l-91 96 -6 -924 c-5 -811 -7 -936 -22 -1019 -52 -288 -142 -474 -304 -631
-165 -160 -362 -258 -625 -311 -98 -20 -143 -23 -338 -23 -233 1 -321 11 -470
54 -240 69 -438 193 -580 364 -73 87 -153 242 -181 352 -29 117 -37 282 -15
339 32 84 110 124 219 112 32 -3 75 -13 94 -23 54 -25 69 -59 76 -168 8 -117
28 -198 72 -284 103 -205 295 -331 575 -377 71 -12 136 -15 255 -11 194 7 290
28 425 94 79 39 109 61 180 132 92 92 134 160 176 284 53 157 54 168 54 1293
l0 1041 -92 43 c-300 138 -667 196 -998 159z m-483 -699 c167 -88 308 -160
314 -160 5 0 147 72 315 161 168 89 307 159 310 156 3 -2 -22 -160 -54 -351
l-59 -346 46 -42 c79 -71 463 -450 459 -453 -2 -1 -149 -24 -328 -50 -179 -25
-336 -49 -349 -52 -20 -5 -50 -60 -182 -326 l-158 -320 -155 318 c-86 175
-158 320 -159 322 -4 3 -675 103 -700 103 -6 1 104 114 245 253 l258 252 -60
340 c-65 374 -62 355 -54 355 4 0 143 -72 311 -160z"/>
</g>
</svg>
