<?xml version="1.0" standalone="no"?>
<!DOCTYPE svg PUBLIC "-//W3C//DTD SVG 20010904//EN"
 "http://www.w3.org/TR/2001/REC-SVG-20010904/DTD/svg10.dtd">
<svg version="1.0" xmlns="http://www.w3.org/2000/svg"
 width="500.000000pt" height="500.000000pt" viewBox="0 0 500.000000 500.000000"
 preserveAspectRatio="xMidYMid meet">
<metadata>
Created by potrace 1.11, written by Peter Selinger 2001-2013
</metadata>
<g transform="translate(0.000000,500.000000) scale(0.100000,-0.100000)"
fill="#000000" stroke="none">
<path d="M2548 4395 c-2 -1 -48 -5 -103 -9 -55 -3 -111 -8 -123 -11 -32 -6
-157 -15 -264 -20 -176 -8 -422 -84 -693 -215 -124 -60 -163 -77 -295 -130
-163 -67 -199 -94 -308 -229 -22 -27 -55 -51 -95 -70 -81 -37 -158 -99 -198
-159 -17 -27 -44 -57 -60 -68 -41 -27 -81 -86 -142 -210 -91 -185 -110 -239
-111 -329 -1 -76 -2 -80 -27 -92 -15 -7 -31 -19 -37 -26 -38 -45 -54 -280 -27
-405 7 -34 11 -87 8 -118 -3 -47 4 -78 42 -190 57 -167 116 -299 144 -316 13
-8 21 -23 21 -39 0 -18 19 -48 60 -94 33 -38 63 -79 66 -92 4 -13 10 -24 15
-24 5 -1 12 -2 17 -3 4 -1 27 -6 52 -10 89 -16 130 -59 80 -86 -47 -25 -12
-80 160 -246 218 -211 405 -348 488 -358 16 -3 41 -11 54 -19 35 -23 224 -83
447 -144 l54 -14 37 36 c32 31 45 37 84 38 37 0 53 -5 83 -30 21 -17 39 -35
39 -42 1 -6 2 -15 3 -20 3 -25 113 -38 370 -45 92 -2 211 8 281 24 25 6 56 13
70 15 14 3 36 7 50 10 14 2 40 7 58 10 17 3 44 7 60 10 42 7 104 14 257 30 77
8 163 21 190 28 28 8 105 31 172 50 67 20 144 39 170 42 103 12 112 15 139 51
30 38 94 214 94 256 0 18 -8 33 -23 43 -29 19 -62 10 -160 -44 -39 -21 -101
-50 -137 -64 -36 -13 -100 -40 -142 -60 -43 -20 -119 -48 -170 -63 -51 -15
-138 -42 -193 -60 -110 -36 -139 -39 -540 -50 l-220 -6 -180 41 c-99 23 -193
44 -210 47 -68 12 -230 56 -259 71 -17 9 -45 28 -62 43 -17 14 -80 46 -140 70
-201 79 -216 88 -296 162 -28 27 -57 48 -64 48 -18 0 -123 108 -199 205 -115
148 -248 371 -291 490 -17 48 -54 108 -126 203 l-32 43 31 25 c36 28 36 39 -1
118 -38 80 -44 121 -40 283 3 153 6 187 26 311 9 57 9 77 0 92 -17 28 -15 43
9 58 25 16 77 126 83 176 2 19 13 46 23 60 38 53 275 277 330 313 84 54 113
83 113 112 0 43 39 80 100 95 30 8 96 33 145 56 163 76 189 88 245 113 31 13
73 27 95 31 22 4 78 23 125 41 47 19 110 38 140 43 51 7 560 8 794 1 93 -3
101 -4 128 -31 34 -33 78 -56 213 -114 l100 -43 45 26 c85 49 160 104 176 128
8 13 18 38 20 55 9 56 -79 120 -168 120 -15 0 -62 11 -105 24 -43 14 -123 30
-178 36 -89 9 -380 21 -387 15z"/>
<path d="M3463 3972 c-13 -2 -44 -28 -70 -58 -27 -30 -78 -77 -115 -104 -72
-53 -86 -78 -69 -124 18 -46 14 -73 -12 -80 -64 -16 -113 -89 -121 -177 -5
-61 -12 -83 -36 -119 -9 -14 -41 -81 -69 -150 -29 -69 -56 -134 -61 -145 -26
-62 -70 -187 -70 -200 0 -8 -9 -24 -21 -36 -22 -22 -57 -93 -65 -132 -2 -12
-7 -38 -10 -57 -3 -19 -14 -48 -24 -65 -11 -16 -26 -45 -35 -64 -8 -18 -39
-65 -68 -105 -57 -75 -87 -128 -241 -428 -53 -103 -109 -209 -126 -235 -51
-83 -59 -100 -65 -134 -4 -21 -19 -46 -39 -64 -53 -47 -206 -257 -250 -343
-16 -32 -16 -33 8 -57 22 -21 34 -25 89 -25 51 0 67 4 82 20 10 11 24 20 31
20 21 0 48 47 119 204 60 136 97 208 279 545 31 57 63 112 72 122 23 25 102
37 305 43 90 4 115 8 143 26 30 18 41 20 73 11 34 -10 255 -7 353 3 50 6 273
17 339 17 56 1 171 -10 182 -17 14 -8 103 -15 124 -10 13 3 27 18 33 35 12 34
46 46 69 23 9 -9 25 -37 35 -62 33 -77 41 -93 79 -151 21 -30 42 -75 49 -100
6 -24 32 -82 57 -129 24 -47 58 -120 74 -164 31 -86 84 -187 105 -199 15 -8
50 -112 59 -177 11 -71 19 -80 71 -80 50 0 52 1 154 119 75 86 79 101 50 153
-32 59 -133 207 -164 242 -14 16 -26 37 -26 47 0 10 -15 33 -32 51 -18 18 -46
54 -61 79 -16 25 -46 56 -68 70 -35 21 -45 36 -40 63 9 47 1 100 -17 119 -11
12 -40 60 -64 107 -24 47 -81 149 -125 226 -44 78 -84 151 -87 162 -4 12 -24
42 -45 67 -21 26 -44 65 -51 88 -19 65 -99 209 -135 242 -32 30 -55 86 -55
134 0 27 -61 144 -92 178 -11 12 -22 33 -23 46 -4 33 -18 57 -54 91 -30 28
-30 30 -14 57 16 27 16 30 -14 91 -17 35 -45 92 -60 128 -16 36 -55 105 -86
154 -31 50 -57 97 -57 106 0 10 -9 27 -20 40 -11 12 -22 30 -25 40 -7 21 -21
27 -52 22z m-54 -480 c20 -21 70 -103 111 -182 52 -100 84 -149 105 -163 44
-29 65 -62 74 -115 14 -84 105 -272 132 -272 5 0 27 -34 50 -76 41 -74 81
-124 99 -124 16 0 39 -43 46 -84 16 -101 21 -115 50 -126 13 -5 24 -16 24 -25
0 -40 -59 -63 -210 -80 -30 -4 -75 -11 -100 -17 -25 -5 -85 -11 -135 -13 -49
-2 -101 -6 -115 -10 -48 -12 -650 0 -744 15 -80 13 -85 20 -51 71 19 26 28 52
27 71 -2 20 7 42 28 69 34 42 70 133 70 174 0 31 14 59 46 94 33 35 115 194
169 326 65 158 93 215 125 255 28 36 75 122 104 195 28 67 45 70 95 17z"/>
</g>
</svg>
