<svg xmlns="http://www.w3.org/2000/svg" width="1333.333" height="1333.333" version="1.0" viewBox="0 0 1000 1000">
  <path d="M477.5 25.6c-119.7 6.6-229.3 55.3-313 138.9C86.3 242.7 39 342.7 27.4 454.5c-2.3 21.9-2.3 69.1 0 91 11.6 111.8 58.9 211.8 137.1 290C235 906 324.6 952.1 423 968.4c36.7 6.1 80.8 7.8 110 4.3 23.7-2.9 67.9-10.1 75.3-12.3 1.6-.5 1.7-3 1.7-33.7-.1-216.5-36.5-382.1-119.5-542.2-5.7-11-11.7-22.4-13.3-25.3l-2.9-5.4-9 7.5c-28.9 24.1-46.6 57-51.8 96.5-1.7 12.3-1.9 35.5-.5 48.7.5 4.9.8 9 .7 9.1-.5.5-57.8 7.7-58.2 7.3-1.1-1.1-2.5-22.9-2.5-38.8 0-61.2 19.4-112.6 57.3-151.9 5-5 8.4-9.2 7.6-9.2-.8 0-6.8 1.3-13.4 2.9-56.6 13.9-96.1 44.4-120.3 92.7-10.1 20.2-16.7 40.5-21.8 67.4-1.5 7.4-2.7 13.6-2.9 13.8-.2.3-55.4-7.7-57.1-8.3-.8-.2-.5-4.2 1.2-13.7 8.2-47.3 25.7-90.2 49.9-122.7 27.5-36.9 66.9-64.4 114.5-79.7 9.6-3.1 18.2-5.9 19-6.1 3.7-1.3-5.6-2.6-19-2.7-15.9-.1-23.6 1.2-39 6.6-21.3 7.5-47.7 24.3-70.4 44.7-4.4 4-8.3 6.8-8.6 6.4-.4-.4-9.3-9.9-19.9-21.1-10.5-11.1-19.1-20.7-19.1-21.2s3.3-3.8 7.4-7.5c37.9-34 78.3-56.2 117.6-64.6 14.2-3.1 45.7-3.4 59.5-.6 18.3 3.7 37.8 11.3 52.8 20.5 3.7 2.3 7.1 4.2 7.5 4.2.4 0 1.7-3.3 3-7.2 12.1-37.7 37.8-68.6 70.9-85.2 19-9.5 36.2-13.6 57.4-13.6 31 0 54.5 8.9 81.9 30.9l2.5 2-3.1 3.3c-1.6 1.8-10.6 11.4-19.9 21.3-9.3 9.9-17 18.1-17.1 18.3-.1.2-3-1.7-6.3-4.2-12-8.8-23.4-12.6-38.2-12.6-32 0-57.9 20.9-71.7 58.1l-2.1 5.7 10.9-4.9c37.6-16.8 77.8-20.2 116.8-9.9 24.4 6.5 44.7 16.8 62.2 31.6 6.7 5.6 17 16.4 17 17.7 0 .3-9.8 8.1-21.7 17.3-12 9.2-22.4 17.1-23.1 17.7-.9.7-2.7-.5-6.6-4.1-27.6-26.1-74.8-34.2-113.3-19.3-4.6 1.8-8.5 3.6-8.7 4-.3.4 3 1.6 7.2 2.5 32.2 7.5 63.6 21.2 84.3 36.8 10.8 8.1 28.3 26.7 35.7 37.8 7.4 11.1 18.8 33.8 17.6 35-1.2 1-53.5 22.3-53.9 21.9-.1-.2-1.7-3.4-3.3-7.2-4.7-10.3-13.7-23.5-21.6-31.3-7.9-8-20.8-16.8-32.1-22-8.2-3.8-30-11.4-32.7-11.4-1.4 0 .4 4.3 8 19.7 48.8 99 81.5 205.1 98.1 318.3 9.7 66.1 15.1 142 15.1 213.7 0 17 .4 28.3.9 28.3 2.4 0 31.1-12.9 46.5-20.8 134.4-69.3 227.3-196.6 252-345.2 4.6-27.6 5.9-45 5.9-77 0-39.7-3.2-69.1-11.4-105.5C931.8 257.1 838.7 138.7 712 75.4c-52.7-26.3-107.4-42.1-166-47.9-15.4-1.5-55.1-2.6-68.5-1.9z"/>
</svg>
