<?xml version="1.0" standalone="no"?>
<!DOCTYPE svg PUBLIC "-//W3C//DTD SVG 20010904//EN"
 "http://www.w3.org/TR/2001/REC-SVG-20010904/DTD/svg10.dtd">
<svg version="1.0" xmlns="http://www.w3.org/2000/svg"
 width="1000.000000pt" height="1000.000000pt" viewBox="0 0 1000.000000 1000.000000"
 preserveAspectRatio="xMidYMid meet">
<metadata>
Created by potrace 1.11, written by Peter Selinger 2001-2013
</metadata>
<g transform="translate(0.000000,1000.000000) scale(0.100000,-0.100000)"
fill="#000000" stroke="none">
<path d="M5300 8399 c-112 -30 -218 -98 -317 -203 -89 -93 -158 -191 -298
-421 -153 -251 -233 -363 -325 -456 -126 -127 -249 -192 -388 -205 -31 -3
-563 -41 -1182 -85 -619 -44 -1155 -86 -1191 -94 -494 -107 -981 -563 -1074
-1006 -13 -61 -15 -332 -15 -2004 0 -1869 1 -1935 19 -1994 51 -163 211 -303
389 -340 38 -8 1178 -11 4012 -11 4405 0 4043 -6 4196 70 140 69 257 221 289
377 31 149 58 553 76 1118 13 413 7 1691 -10 2040 -29 594 -62 1044 -85 1166
-47 246 -168 396 -362 448 l-41 11 33 127 c48 184 45 227 -18 259 -79 41 -616
185 -903 243 -243 49 -315 57 -349 40 -37 -18 -40 -24 -67 -142 -12 -54 -26
-100 -31 -103 -14 -9 -112 98 -171 188 -31 46 -111 189 -180 318 -138 262
-170 314 -255 422 -96 121 -231 210 -360 237 -66 14 -1340 14 -1392 0z m890
-1834 c409 -59 816 -239 1125 -496 554 -462 860 -1140 832 -1844 -25 -603
-266 -1143 -697 -1559 -355 -343 -796 -555 -1290 -622 -140 -18 -439 -18 -587
1 -893 116 -1636 751 -1893 1617 -58 196 -82 351 -87 583 -4 163 -2 240 11
343 33 258 102 487 221 727 349 710 1034 1183 1830 1265 119 12 404 4 535 -15z
m-2972 -1042 c53 -39 74 -82 70 -143 -6 -87 -56 -140 -139 -148 -60 -6 -100
10 -139 54 -69 79 -41 207 55 250 40 19 119 12 153 -13z m29 -459 c75 -43 103
-144 64 -231 -44 -95 -171 -129 -261 -70 -69 47 -99 143 -66 220 16 40 77 95
114 103 15 3 32 7 37 9 21 6 71 -8 112 -31z"/>
<path d="M5605 5965 c-698 -113 -1246 -646 -1387 -1347 -32 -163 -32 -463 0
-626 136 -677 640 -1186 1322 -1334 92 -20 133 -22 330 -22 194 0 239 3 327
22 155 34 275 76 418 147 478 239 813 686 906 1211 25 140 29 389 10 524 -31
209 -110 435 -214 612 -242 412 -640 697 -1112 798 -132 29 -464 37 -600 15z"/>
</g>
</svg>
