<?xml version="1.0" standalone="no"?>
<!DOCTYPE svg PUBLIC "-//W3C//DTD SVG 20010904//EN"
 "http://www.w3.org/TR/2001/REC-SVG-20010904/DTD/svg10.dtd">
<svg version="1.0" xmlns="http://www.w3.org/2000/svg"
 width="400.000000pt" height="400.000000pt" viewBox="0 0 400.000000 400.000000"
 preserveAspectRatio="xMidYMid meet">
<metadata>
Created by potrace 1.14, written by Peter Selinger 2001-2017
</metadata>
<g transform="translate(0.000000,400.000000) scale(0.100000,-0.100000)"
fill="#000000" stroke="none">
<path d="M1787 3784 c-367 -66 -681 -313 -865 -680 -61 -123 -112 -263 -137
-379 -1 -5 -5 -21 -8 -35 -7 -28 -14 -69 -25 -150 -9 -70 -9 -368 0 -440 67
-524 356 -966 752 -1150 81 -38 155 -66 198 -74 13 -2 43 -9 68 -14 25 -6 85
-13 134 -17 l88 -6 207 -181 c113 -99 213 -188 221 -197 8 -9 29 -27 45 -39
17 -13 48 -40 70 -60 22 -20 73 -66 113 -100 77 -68 76 -68 122 -22 8 8 65 58
125 110 61 52 118 102 128 111 17 15 14 19 -50 75 -37 32 -70 61 -73 64 -3 3
-45 41 -95 84 -49 44 -99 89 -111 100 -12 12 -58 52 -102 90 -45 38 -82 72
-82 76 0 4 12 12 28 19 44 20 183 116 235 162 40 35 168 175 195 214 140 199
235 447 276 720 14 95 16 392 3 485 -34 248 -128 510 -249 696 -91 139 -231
284 -352 363 -122 79 -211 119 -351 157 -86 22 -124 27 -265 29 -109 2 -192
-2 -243 -11z m371 -390 c242 -56 413 -223 545 -534 38 -87 82 -280 93 -405 13
-158 6 -263 -32 -480 -20 -111 -112 -326 -186 -432 -90 -133 -264 -262 -388
-288 -8 -2 -35 -8 -60 -14 -45 -10 -234 -9 -279 3 -215 53 -379 187 -492 406
-53 101 -108 249 -123 330 -3 14 -9 48 -15 75 -38 194 -28 436 25 643 57 219
143 381 269 507 109 109 218 170 350 194 67 13 227 10 293 -5z"/>
</g>
</svg>
