<?xml version="1.0" standalone="no"?>
<!DOCTYPE svg PUBLIC "-//W3C//DTD SVG 20010904//EN"
 "http://www.w3.org/TR/2001/REC-SVG-20010904/DTD/svg10.dtd">
<svg version="1.0" xmlns="http://www.w3.org/2000/svg"
 width="600.000000pt" height="600.000000pt" viewBox="0 0 600.000000 600.000000"
 preserveAspectRatio="xMidYMid meet">
<metadata>
Created by potrace 1.11, written by Peter Selinger 2001-2013
</metadata>
<g transform="translate(0.000000,600.000000) scale(0.100000,-0.100000)"
fill="#000000" stroke="none">
<path d="M3447 5544 c-11 -22 -15 -23 -26 -11 -8 10 -20 13 -39 8 -25 -7 -26
-10 -27 -79 -1 -73 2 -81 22 -61 16 16 21 -2 11 -38 -11 -42 -24 -41 -69 3
l-36 35 -37 -49 c-20 -27 -36 -54 -36 -59 0 -19 42 -63 60 -63 17 0 18 -11 19
-144 2 -136 1 -145 -19 -159 -20 -14 -21 -24 -22 -161 0 -146 0 -146 28 -182
16 -20 38 -50 49 -67 39 -63 82 -35 63 41 -7 25 -14 32 -33 32 -23 0 -25 4
-26 53 0 28 -2 61 -3 72 -12 89 -18 121 -27 137 -12 22 2 72 29 103 27 32 74
65 83 60 19 -12 -28 -86 -62 -97 -14 -5 0 -38 15 -38 7 0 18 6 25 13 7 6 29
12 49 12 l36 0 25 95 c25 97 34 112 58 103 18 -7 17 47 -2 73 -19 25 -18 34 3
62 12 15 24 21 35 16 14 -5 16 -16 11 -70 -9 -97 13 -85 93 49 11 19 11 19 22
-2 12 -22 45 -28 57 -10 3 6 9 28 11 48 3 20 11 54 19 76 12 37 12 42 -10 75
-45 67 -76 91 -115 88 -36 -3 -36 -4 -36 -48 0 -41 -8 -59 -27 -60 -5 0 -8 9
-8 19 0 38 -53 28 -95 -19 -11 -12 -28 -26 -38 -32 -17 -9 -18 -6 -12 39 4 26
14 62 22 79 10 23 11 38 4 57 -13 34 -27 34 -44 1z m99 -248 c-48 -113 -81
-183 -94 -198 -21 -25 -50 -18 -83 20 -26 29 -29 40 -29 97 0 42 4 65 11 65 7
0 9 -11 6 -29 -7 -32 21 -95 55 -124 20 -16 22 -16 39 -1 11 10 19 30 19 45 0
43 27 136 47 163 16 22 19 23 30 9 10 -12 9 -22 -1 -47z m-121 -55 c3 -5 1
-12 -5 -16 -5 -3 -10 1 -10 9 0 18 6 21 15 7z"/>
<path d="M2987 5513 c-3 -5 -10 -33 -16 -63 -14 -66 -24 -85 -44 -77 -11 4
-12 15 -6 54 13 80 12 86 -13 78 -13 -3 -36 -8 -51 -11 -73 -10 -126 -90 -135
-201 -5 -64 -4 -65 16 -54 26 14 34 26 47 71 10 33 13 35 58 37 44 2 47 1 43
-20 -3 -12 -7 -48 -10 -80 -9 -90 -14 -102 -43 -105 -15 -1 -30 -7 -34 -13 -9
-16 1 -49 15 -49 19 0 56 30 56 46 0 8 5 14 11 14 28 0 92 106 104 173 4 20
13 37 20 37 10 0 10 -10 0 -52 -7 -29 -18 -66 -25 -83 -17 -42 -20 -87 -6 -82
6 2 12 13 14 25 5 30 24 27 40 -5 16 -36 16 -39 -9 -61 -19 -19 -19 -20 -3
-37 13 -13 28 -16 61 -12 24 2 47 8 50 11 4 4 -11 42 -32 86 -43 88 -44 100
-19 166 17 44 16 44 -10 91 -14 27 -34 65 -44 85 -17 37 -26 45 -35 31z"/>
<path d="M3510 5483 c0 -25 0 -26 20 -8 11 10 20 19 20 20 0 2 -9 5 -20 8 -16
4 -20 0 -20 -20z"/>
<path d="M3126 5472 c-24 -39 -14 -122 15 -122 20 0 26 -15 10 -24 -15 -10 -1
-44 17 -42 9 2 21 11 26 22 6 10 24 39 39 63 31 49 39 72 29 88 -11 18 -63 2
-72 -21 -9 -21 -10 -18 -14 24 -1 17 -41 26 -50 12z"/>
<path d="M2528 5463 c-25 -6 -33 -48 -18 -92 15 -47 7 -74 -25 -89 -25 -12
-34 -45 -15 -57 15 -10 12 -35 -5 -35 -8 0 -15 7 -15 15 0 8 -9 15 -19 15 -17
0 -20 -7 -20 -53 0 -66 7 -76 51 -83 34 -6 36 -5 44 27 4 19 7 37 6 42 -4 16
22 6 58 -23 29 -23 39 -27 43 -16 3 7 -1 24 -10 35 -8 12 -13 24 -11 27 11 10
39 -27 66 -88 26 -57 28 -69 17 -85 -15 -20 -25 -15 -29 14 -4 27 -33 27 -61
-1 l-25 -25 -12 27 c-10 21 -22 28 -56 33 -43 6 -47 2 -43 -41 1 -9 -7 -5 -21
11 -13 14 -31 29 -40 32 -15 5 -18 0 -18 -27 0 -18 -3 -47 -6 -64 -5 -24 -2
-31 12 -34 13 -2 19 -13 19 -38 2 -51 13 -87 29 -93 14 -6 86 88 86 111 0 23
38 13 42 -11 7 -35 0 -45 -39 -58 -30 -10 -34 -15 -30 -37 7 -38 -8 -69 -38
-76 -23 -6 -26 -11 -20 -34 9 -38 59 -117 73 -116 7 1 28 2 47 3 30 1 35 5 35
24 0 25 -22 49 -52 60 -28 10 -21 30 17 55 34 21 35 24 29 71 -4 41 -1 58 20
98 14 26 26 56 26 67 0 14 6 17 25 13 18 -3 30 2 39 15 16 22 48 21 51 -2 1
-8 5 -52 9 -98 3 -46 14 -98 23 -115 15 -31 100 -117 114 -117 4 0 14 16 23
35 20 41 15 62 -25 118 -33 45 -35 69 -15 119 9 21 11 40 6 48 -5 8 -6 18 -3
24 4 5 -3 6 -15 3 -12 -4 -32 -10 -43 -14 -20 -5 -21 -3 -15 21 11 43 -1 66
-34 66 -26 0 -28 2 -26 38 3 51 -9 82 -33 82 -16 0 -19 6 -17 33 1 17 -7 57
-19 88 -31 78 -41 94 -49 80 -11 -16 -43 -13 -50 5 -3 9 -6 26 -6 39 0 27 -7
33 -32 28z m27 -235 c4 -17 3 -28 -3 -28 -10 0 -22 32 -22 60 0 22 18 -1 25
-32z m-63 -245 c2 -5 -5 -27 -17 -50 -19 -40 -21 -41 -41 -24 -23 18 -21 41 3
41 10 0 14 6 10 20 -4 16 0 20 18 20 13 0 25 -3 27 -7z"/>
<path d="M2236 5374 c-20 -26 -31 -33 -39 -25 -19 19 -25 12 -37 -54 -7 -36
-16 -63 -20 -60 -13 8 -40 -25 -40 -49 0 -12 -11 -33 -25 -46 -27 -25 -34 -77
-13 -98 9 -9 5 -23 -15 -61 -44 -80 -30 -167 19 -120 l21 20 12 -28 c14 -36
19 -67 20 -121 1 -40 3 -43 24 -37 12 4 32 18 44 30 22 23 22 25 7 80 -16 65
-41 105 -77 124 l-25 13 33 77 c66 153 85 180 85 123 0 -15 -9 -46 -21 -67
-14 -29 -18 -50 -14 -75 3 -19 8 -48 11 -65 10 -58 36 -140 50 -159 14 -19 14
-19 34 2 12 12 25 22 31 22 15 0 2 53 -33 135 -27 60 -29 73 -19 100 6 17 11
43 11 58 0 35 7 34 52 -10 30 -29 38 -33 43 -20 4 8 2 24 -4 36 -16 29 -14 32
13 25 20 -5 24 -2 22 13 -2 12 -11 18 -30 18 -17 -1 -28 6 -32 18 -3 10 -19
34 -36 52 l-30 35 17 43 c17 46 17 98 0 104 -5 2 -23 -13 -39 -33z m-91 -254
c3 -6 -4 -10 -17 -10 -18 0 -20 2 -8 10 19 12 18 12 25 0z"/>
<path d="M2675 5371 c-8 -27 -2 -36 19 -24 14 8 14 11 2 28 -13 18 -14 18 -21
-4z"/>
<path d="M3963 5379 c-5 -5 -26 -12 -46 -15 -85 -10 -101 -28 -71 -85 14 -28
14 -33 -4 -67 -10 -20 -18 -47 -16 -59 5 -29 -42 -75 -95 -93 l-40 -13 6 -72
c4 -50 2 -79 -7 -96 -18 -32 -21 -69 -7 -69 27 1 38 20 41 73 4 66 18 91 79
138 54 41 77 76 74 114 -3 46 18 39 43 -15 27 -58 23 -75 -34 -138 -20 -22
-34 -46 -32 -58 4 -27 15 -21 40 21 22 38 43 53 110 80 32 13 37 17 26 30 -7
8 -21 15 -31 15 -15 0 -17 6 -12 38 7 54 23 102 34 102 5 0 12 -12 15 -27 4
-16 14 -41 24 -58 18 -30 17 -73 -1 -107 -6 -12 -21 -18 -42 -18 -29 0 -33 -3
-34 -27 -1 -51 -3 -55 -18 -49 -9 3 -15 0 -15 -8 0 -32 62 -25 78 7 10 20 11
18 10 -13 -1 -63 -7 -73 -38 -66 -24 4 -34 0 -56 -27 -14 -17 -31 -41 -36 -53
-8 -17 -17 -20 -45 -17 l-34 4 6 -45 c9 -55 -1 -86 -25 -86 -22 0 -35 16 -21
25 16 9 8 45 -10 45 -12 0 -16 -7 -15 -25 2 -14 -5 -32 -15 -41 -23 -21 -24
-52 -4 -74 14 -16 14 -20 -2 -48 -34 -59 12 -54 74 7 21 21 56 70 78 109 37
66 43 72 73 72 17 0 31 -3 31 -7 -7 -46 36 -63 47 -19 3 14 15 27 29 30 28 7
97 74 89 87 -3 5 -12 9 -20 9 -30 0 -12 20 28 30 22 7 51 18 63 26 29 19 42 4
14 -17 -43 -32 -15 -38 51 -11 36 15 71 27 78 26 6 -1 19 -2 27 -3 9 0 20 -12
25 -26 8 -22 12 -24 34 -14 14 7 31 25 39 41 11 23 16 26 25 15 9 -10 6 -22
-13 -50 -17 -24 -25 -50 -25 -77 0 -54 -11 -73 -77 -142 -51 -52 -55 -59 -49
-91 6 -30 3 -38 -22 -58 -16 -13 -44 -32 -61 -41 -19 -10 -31 -25 -31 -37 0
-18 5 -20 31 -14 l30 6 -25 -37 c-14 -22 -34 -77 -47 -134 -25 -109 -43 -152
-64 -152 -8 0 -19 8 -24 18 -9 14 -12 15 -20 3 -12 -19 -6 -50 24 -116 20 -45
28 -55 49 -55 14 0 28 5 31 10 13 21 25 9 19 -17 -11 -45 -10 -47 11 -47 11 0
19 5 18 12 -5 22 14 13 41 -20 14 -17 26 -44 26 -59 0 -43 31 -30 62 27 24 44
30 49 57 46 42 -5 111 36 111 65 0 13 -8 28 -19 35 -15 9 -17 17 -10 41 15 52
34 87 46 87 18 0 16 -6 -9 -51 -29 -52 -15 -69 40 -50 80 29 101 63 61 99 -18
17 -18 20 -4 26 11 4 14 12 10 27 -11 33 -13 69 -5 69 4 0 10 -6 13 -14 5 -12
50 -27 126 -41 13 -2 26 -6 28 -9 14 -13 -58 -103 -119 -148 -12 -9 -19 -35
-24 -86 l-7 -73 26 6 c22 6 28 2 42 -24 9 -18 19 -30 23 -27 17 10 163 315
174 361 l12 51 37 -19 c36 -17 37 -20 27 -48 -6 -19 -24 -37 -49 -50 -33 -16
-39 -25 -40 -52 0 -17 -2 -40 -4 -49 -4 -21 -4 -21 29 -8 22 8 26 7 26 -8 0
-9 -9 -27 -18 -40 -16 -21 -20 -22 -31 -8 -21 25 -37 19 -55 -18 -9 -19 -25
-37 -35 -41 -15 -4 -19 -19 -24 -83 -3 -42 -13 -97 -22 -122 -28 -74 -29 -89
-10 -96 10 -4 26 -2 36 4 27 17 39 15 61 -13 17 -22 27 -25 90 -25 60 0 69 -2
58 -15 -9 -11 -36 -14 -126 -12 l-114 2 -6 -28 c-3 -15 -17 -35 -30 -43 -18
-12 -24 -25 -24 -50 0 -35 0 -35 27 -20 26 13 29 12 50 -10 12 -13 33 -24 46
-24 17 0 27 -7 31 -22 l6 -23 25 28 c13 15 27 43 31 62 3 20 12 35 20 35 7 0
12 -6 9 -12 -2 -7 -6 -41 -9 -75 l-5 -63 33 0 c31 0 34 -3 43 -42 l9 -43 35
36 c28 29 39 34 57 28 28 -11 28 -23 -2 -43 -17 -11 -23 -22 -19 -36 7 -25 48
-27 81 -4 21 15 22 14 22 -15 0 -44 10 -61 35 -61 39 0 39 -29 -1 -47 -24 -12
-33 -22 -29 -32 4 -9 9 -28 12 -43 10 -49 53 -46 55 3 1 35 18 77 33 83 8 3
21 18 29 34 15 29 15 30 -14 36 -17 3 -30 12 -30 19 0 19 46 60 59 53 21 -13
28 -70 14 -116 -16 -54 -12 -68 27 -81 26 -10 30 -16 30 -50 0 -36 2 -39 29
-39 22 0 29 4 27 17 -4 25 77 83 117 83 18 0 42 6 53 14 17 13 17 16 4 29 -13
13 -22 13 -70 1 -30 -8 -72 -24 -92 -34 -30 -16 -38 -17 -38 -6 0 8 10 18 23
22 12 4 48 34 79 67 47 48 61 57 72 48 23 -20 66 -3 66 25 0 28 -19 38 -72 38
-22 1 -45 -7 -59 -19 l-22 -20 6 39 c7 44 59 106 89 106 22 0 23 -13 3 -30 -8
-7 -15 -24 -15 -37 0 -24 1 -25 22 -11 20 13 27 13 56 1 50 -21 65 -11 57 34
-9 56 -16 105 -18 128 -2 23 -52 49 -79 41 -19 -4 -48 27 -48 54 0 8 -16 23
-34 32 -33 16 -35 16 -64 -5 -33 -25 -31 -47 7 -81 33 -30 26 -39 -24 -33 -36
5 -46 3 -54 -11 -7 -12 -5 -22 7 -35 16 -18 15 -20 -7 -38 -48 -39 -54 -15
-15 67 19 39 23 59 16 66 -22 22 -59 -18 -82 -87 -23 -69 -45 -90 -29 -27 19
72 41 122 54 122 22 0 27 18 15 55 -13 39 -35 45 -80 22 -22 -11 -27 -10 -44
11 -24 30 -14 39 27 24 44 -16 47 -15 47 6 0 9 18 39 39 65 33 39 38 53 34 80
-3 17 -6 33 -8 35 -2 2 1 17 5 34 8 26 7 29 -8 23 -9 -4 -33 -12 -52 -17 -19
-5 -50 -19 -67 -30 -34 -20 -53 -17 -53 9 0 11 -7 14 -26 10 -20 -4 -33 2 -50
22 -31 34 -30 70 2 132 15 27 24 52 21 55 -3 3 -24 0 -46 -7 -29 -8 -48 -23
-62 -46 -11 -18 -24 -33 -28 -33 -5 0 -8 21 -7 48 0 26 -3 59 -8 75 -7 24 -6
27 17 27 13 0 30 -7 38 -16 11 -13 18 -2 50 78 35 89 36 114 4 102 -7 -3 -15
1 -18 8 -5 14 -4 25 9 110 l7 48 -32 -11 c-41 -15 -87 3 -107 42 -8 16 -14 32
-14 36 0 22 -13 43 -31 48 -29 10 -23 28 28 85 39 44 47 59 51 103 3 29 13 64
24 80 17 24 18 28 4 33 -9 3 -29 1 -45 -4 -16 -6 -39 -8 -51 -5 -13 4 -26 0
-31 -8 -14 -23 -10 -39 11 -39 10 0 24 -9 30 -20 8 -15 6 -21 -9 -30 -26 -13
-41 -13 -41 1 0 7 -7 17 -16 24 -14 10 -15 15 -4 36 7 13 23 36 37 50 37 41
12 80 -28 43 -24 -22 -48 -14 -25 8 33 33 20 40 -64 32 -77 -6 -80 -6 -80 15
0 24 -13 26 -59 10 -28 -10 -32 -15 -27 -35 3 -13 9 -35 12 -49 8 -32 -15 -33
-38 -1 -15 20 -15 26 -2 51 25 49 19 71 -25 83 -31 7 -44 6 -61 -5 -20 -14
-22 -12 -58 66 -29 63 -42 81 -58 81 -32 0 -52 -22 -45 -49 6 -22 8 -23 23 -8
16 17 38 23 38 11 0 -3 -10 -28 -22 -55 -25 -54 -48 -63 -72 -26 -23 34 -25
96 -5 150 9 26 14 49 10 51 -3 2 -24 -4 -46 -14 -22 -11 -44 -19 -49 -20 -4 0
-5 21 -1 46 l7 46 -44 -7 c-24 -4 -60 -16 -80 -26 -35 -18 -38 -18 -46 -2 -5
10 -10 36 -11 58 -3 74 -24 101 -37 50 -5 -21 -30 -45 -47 -45 -2 0 0 20 6 45
11 48 -3 81 -30 71 -7 -3 -19 3 -25 14 -14 22 -29 25 -45 9z m240 -274 c3 -24
-4 -40 -39 -82 -24 -28 -44 -56 -44 -62 0 -5 -4 -13 -10 -16 -14 -9 16 70 52
136 18 32 33 57 34 56 2 -1 5 -16 7 -32z m47 -174 c0 -20 -15 -28 -67 -37 -16
-3 -38 -12 -50 -20 -32 -21 -28 -3 6 30 24 23 61 39 104 45 4 1 7 -8 7 -18z
m590 -241 c29 -37 30 -40 15 -63 -9 -15 -25 -24 -40 -24 -23 0 -24 2 -19 38 6
37 5 39 -20 39 -34 0 -34 23 2 37 15 6 28 11 29 12 1 1 15 -17 33 -39z m-247
14 c7 -7 -14 -44 -25 -44 -5 0 -8 11 -8 25 0 23 18 34 33 19z m348 -87 c-13
-13 -26 -3 -16 12 3 6 11 8 17 5 6 -4 6 -10 -1 -17z m-431 -46 c-8 -30 -16
-41 -30 -41 -28 0 -25 25 7 67 31 41 39 32 23 -26z m175 33 l23 -6 -26 -46
c-14 -26 -31 -54 -38 -62 -14 -16 -14 -37 0 -58 5 -8 3 -18 -4 -25 -10 -9 -14
-9 -17 1 -3 7 -12 19 -21 28 -14 15 -17 14 -33 -8 -22 -28 -23 -33 -5 -51 25
-25 3 -43 -38 -30 -34 10 -36 10 -63 -30 l-28 -41 -3 47 c-2 31 3 57 15 78 10
17 22 40 28 50 10 19 25 26 25 11 0 -4 -6 -16 -14 -27 -14 -21 -5 -65 13 -65
20 0 38 30 34 53 -6 29 26 67 56 67 22 0 41 45 41 98 0 27 3 33 16 28 9 -3 26
-9 39 -12z m55 -52 c0 -5 -7 -17 -15 -28 -15 -19 -20 -8 -9 20 6 17 24 22 24
8z m54 -56 c-9 -15 -19 -25 -21 -22 -5 5 30 56 35 51 2 -2 -4 -15 -14 -29z
m-370 0 c-6 -16 -24 -23 -24 -8 0 10 22 33 27 28 2 -2 1 -11 -3 -20z m356
-137 c-24 -48 -125 -157 -135 -147 -10 10 12 44 61 94 25 26 52 63 60 82 11
26 17 33 26 24 8 -8 5 -22 -12 -53z m-86 30 c-3 -5 -10 -7 -15 -3 -5 3 -7 10
-3 15 3 5 10 7 15 3 5 -3 7 -10 3 -15z m278 -67 c-3 -24 0 -32 12 -32 19 0 20
-5 6 -30 -13 -24 -99 -82 -111 -75 -18 12 -8 30 24 45 39 18 46 45 18 72 l-22
19 23 19 c34 29 54 21 50 -18z m-332 1 c0 -14 -19 -38 -25 -32 -8 8 5 39 16
39 5 0 9 -3 9 -7z m-85 -53 c4 -6 0 -21 -8 -34 -14 -21 -27 -24 -70 -17 -4 0
3 19 15 40 18 32 26 38 40 30 9 -5 20 -14 23 -19z m320 -10 c-26 -50 -105 -76
-105 -34 0 10 8 12 29 8 24 -5 31 -1 47 25 25 42 51 43 29 1z m-515 -11 c0 -5
-7 -9 -15 -9 -15 0 -20 12 -9 23 8 8 24 -1 24 -14z m10 -147 c0 -25 -113 -141
-138 -142 -8 0 -12 9 -10 23 2 12 9 21 16 19 7 -1 21 12 31 28 27 44 101 97
101 72z m61 -5 c-1 -4 -1 -19 -1 -34 0 -25 -1 -26 -16 -11 -17 17 -11 62 8 56
5 -2 9 -7 9 -11z m408 -174 c1 -7 -5 -13 -13 -13 -13 0 -15 27 -6 60 2 7 18
-33 19 -47z m180 -90 c-6 -15 -14 -32 -18 -38 -20 -25 -30 -76 -20 -102 8 -22
6 -30 -13 -50 -20 -22 -68 -53 -82 -53 -2 0 -8 13 -14 28 -15 44 21 149 59
170 16 9 29 25 29 34 0 12 6 16 20 13 12 -2 23 2 27 10 3 8 9 15 14 15 5 0 4
-12 -2 -27z m92 -21 c-10 -19 -41 -38 -41 -25 0 10 43 54 48 49 2 -2 -1 -13
-7 -24z m297 -149 c-10 -39 -45 -90 -55 -80 -2 3 3 17 12 30 9 14 17 37 19 52
2 22 24 50 33 42 1 -2 -3 -21 -9 -44z m-244 2 c-4 -8 -10 -12 -15 -9 -14 8
-10 24 6 24 9 0 12 -6 9 -15z m-100 -33 c7 -11 -31 -72 -44 -72 -13 0 -13 23
2 55 11 25 32 33 42 17z m38 -73 c-5 -41 -12 -55 -21 -40 -11 17 0 82 13 78 6
-2 10 -18 8 -38z m109 -40 c14 -27 -6 -69 -32 -69 -30 0 -13 88 18 90 1 0 7
-10 14 -21z m-87 -68 c15 -6 12 -11 -24 -35 -32 -21 -41 -24 -37 -11 4 9 7 25
7 36 0 20 20 24 54 10z m166 -1 c0 -5 -7 -7 -15 -4 -8 4 -15 8 -15 10 0 2 7 4
15 4 8 0 15 -4 15 -10z m57 -47 c-8 -10 -17 -31 -19 -48 -3 -29 -5 -30 -47
-29 -33 1 -49 7 -63 24 -21 26 -24 70 -4 70 8 0 13 -10 12 -22 -1 -20 3 -23
29 -20 17 2 39 12 50 21 36 33 71 36 42 4z m192 -187 c18 -22 -11 -38 -53 -30
-45 8 -47 31 -3 37 17 2 35 5 38 5 4 1 12 -4 18 -12z m-261 -21 c-13 -28 -19
-30 -36 -13 -11 11 3 22 45 37 2 1 -3 -10 -9 -24z m62 -22 c0 -20 -3 -24 -11
-16 -7 7 -9 19 -6 27 10 24 17 19 17 -11z m154 -52 c3 -5 -3 -11 -14 -14 -13
-3 -20 0 -20 9 0 15 26 19 34 5z m61 -31 c-3 -5 -13 -10 -21 -10 -8 0 -14 5
-14 10 0 6 9 10 21 10 11 0 17 -4 14 -10z"/>
<path d="M2330 5331 c0 -12 6 -21 16 -21 9 0 14 7 12 17 -5 25 -28 28 -28 4z"/>
<path d="M2410 5312 c0 -36 3 -43 17 -40 25 5 27 31 4 59 l-20 24 -1 -43z"/>
<path d="M2003 5322 c-6 -4 -13 -17 -17 -29 -4 -13 -15 -23 -25 -23 -23 0 -37
-18 -39 -49 0 -13 -4 -26 -7 -30 -10 -10 -45 39 -45 63 0 20 -5 23 -44 23 -37
1 -46 -3 -55 -23 -12 -28 -26 -31 -39 -8 -10 19 -44 15 -76 -9 -15 -11 -18
-26 -17 -88 1 -79 6 -65 -96 -261 -8 -15 -17 -46 -21 -70 -7 -37 -11 -43 -32
-43 -33 0 -35 39 -2 43 25 4 26 6 12 31 -6 12 -17 17 -32 14 -17 -3 -29 4 -45
25 -21 29 -23 29 -67 19 -34 -8 -46 -15 -46 -29 0 -10 -5 -18 -10 -18 -6 0 -9
17 -6 43 3 23 8 69 11 102 4 32 8 62 10 66 3 3 -6 15 -18 27 l-22 21 -39 -85
c-27 -58 -44 -84 -55 -83 -34 3 -39 -2 -36 -36 2 -38 -5 -44 -25 -20 -15 18
-29 19 -53 0 -18 -13 -18 -15 2 -61 23 -51 20 -71 -5 -36 -21 30 -41 28 -49
-7 -4 -18 -20 -37 -45 -54 -43 -28 -46 -27 -29 4 6 12 8 27 5 35 -6 17 -36 7
-36 -12 0 -10 -9 -9 -40 5 -57 26 -90 17 -91 -23 0 -17 -2 -40 -4 -51 -1 -11
-6 -47 -10 -80 -9 -85 -14 -105 -25 -105 -6 0 -10 15 -10 34 0 18 -6 46 -14
61 l-15 28 -20 -34 c-12 -19 -21 -40 -21 -48 0 -10 -9 -12 -38 -8 -44 7 -95
59 -138 142 -37 70 -59 74 -34 7 10 -26 33 -79 50 -118 42 -89 70 -171 70
-200 0 -20 3 -22 22 -15 13 4 25 18 28 29 5 21 5 21 37 -4 36 -28 47 -72 16
-59 -10 4 -27 8 -37 9 -18 1 -19 -5 -17 -51 3 -57 -8 -66 -41 -36 -17 15 -18
15 -15 -13 2 -16 12 -48 22 -72 21 -46 29 -47 93 -11 17 10 38 16 46 13 7 -3
26 -29 41 -57 16 -29 33 -55 39 -59 8 -5 7 -11 0 -18 -9 -9 -19 -1 -41 32 -16
23 -32 51 -36 60 -5 15 -10 16 -44 4 -37 -13 -38 -14 -41 -70 -3 -50 -5 -55
-18 -42 -8 8 -21 13 -29 10 -7 -3 -29 2 -48 11 -41 19 -78 9 -103 -29 -24 -37
-13 -51 52 -65 120 -27 127 -47 30 -94 -65 -32 -91 -35 -81 -9 19 45 17 49
-27 71 -25 11 -47 21 -51 21 -13 0 -7 -38 8 -50 19 -16 19 -40 0 -40 -27 0
-16 -28 45 -108 33 -44 60 -85 60 -90 0 -11 53 -32 81 -32 12 0 19 7 19 19 0
11 5 23 11 26 12 8 49 -22 49 -40 0 -20 26 -38 34 -23 43 86 49 91 121 110
125 32 122 31 129 12 8 -20 -9 -34 -40 -34 -24 0 -113 -26 -132 -38 -7 -5 -14
-19 -17 -31 -8 -42 -25 -53 -72 -46 -58 9 -76 1 -107 -45 -20 -30 -36 -42 -73
-52 -45 -13 -48 -15 -48 -48 0 -28 4 -35 20 -35 17 0 19 -6 17 -35 -4 -40 -18
-64 -62 -108 -30 -30 -36 -32 -105 -32 -40 0 -96 -5 -125 -12 -43 -10 -53 -17
-66 -45 -9 -18 -14 -40 -10 -48 10 -26 85 -17 224 27 77 25 95 15 51 -30 -28
-29 -102 -63 -166 -78 -84 -18 -153 -47 -153 -62 1 -39 12 -43 94 -27 43 8 93
15 112 15 27 0 34 4 34 19 0 29 31 58 75 69 22 6 51 14 65 18 24 7 24 6 8 -12
-9 -10 -16 -23 -16 -29 0 -13 33 -74 52 -98 18 -23 39 -13 83 35 43 48 58 59
95 64 88 13 62 37 -41 39 -38 1 -66 6 -68 12 -4 11 54 33 85 33 7 0 35 9 62
21 45 19 50 20 79 5 34 -18 38 -28 17 -46 -19 -15 -9 -40 15 -40 26 0 39 30
39 88 0 49 2 51 47 81 25 17 56 32 67 32 12 1 27 2 35 3 8 0 16 12 18 25 2 14
9 32 17 40 26 31 30 52 40 197 6 76 5 82 -19 104 -20 19 -27 21 -40 10 -8 -7
-15 -8 -15 -3 0 5 -9 19 -21 32 -31 33 -19 51 28 40 21 -5 41 -9 44 -9 4 0 10
-12 13 -26 8 -32 32 -58 46 -49 6 4 8 10 6 14 -3 4 -1 13 4 21 17 26 45 -2 46
-46 3 -73 3 -72 25 -67 17 5 20 11 15 47 -3 22 -8 68 -12 101 -7 70 -9 75 -34
75 -19 0 -30 19 -30 50 0 16 4 17 36 7 42 -13 54 -2 54 51 0 28 -3 32 -26 32
-14 0 -23 4 -19 10 3 6 22 10 41 10 31 0 34 -2 34 -31 0 -30 2 -31 31 -25 17
3 40 6 51 6 11 0 18 5 15 13 -2 6 -11 11 -19 9 -18 -3 -42 23 -34 36 3 5 15 8
28 6 13 -1 33 -3 46 -3 16 -1 22 -7 22 -25 0 -42 24 -41 136 3 29 11 54 17 58
14 3 -4 6 -1 6 5 0 11 -42 27 -102 38 -21 3 -39 9 -39 13 -7 41 -7 71 1 71 5
0 25 -11 45 -25 l37 -24 34 22 c34 22 54 60 54 103 0 24 14 32 25 14 10 -16
22 -12 28 9 3 11 -1 28 -9 39 -11 17 -10 25 9 63 15 29 30 45 45 47 28 4 35
19 57 110 l18 73 39 -6 c36 -6 38 -5 38 19 0 18 -8 30 -29 41 -77 39 -129 167
-107 260 7 26 12 30 43 31 34 1 35 0 27 -30 -9 -40 -12 -91 -6 -122 3 -19 11
-24 33 -24 27 0 29 3 29 36 0 21 -4 33 -10 29 -20 -12 -28 5 -18 39 10 32 12
33 39 22 30 -11 39 -42 18 -63 -14 -14 13 -68 40 -83 11 -5 27 -18 37 -27 9
-10 23 -18 30 -19 17 -3 19 39 3 68 -15 27 -4 64 21 71 17 4 20 0 20 -24 0
-19 9 -39 26 -54 31 -28 38 -26 52 15 10 29 9 30 -33 49 -54 24 -81 65 -90
135 -3 28 -8 69 -11 91 -5 38 -28 75 -39 63 -3 -3 -6 -31 -6 -62 -1 -31 -3
-56 -5 -56 -3 0 -16 7 -29 16 -29 19 -45 11 -45 -23 0 -19 -4 -24 -16 -19 -9
3 -20 6 -25 6 -5 0 -9 9 -9 20 0 16 13 29 58 56 1 1 -2 13 -9 27 -12 27 -29
28 -84 7 -15 -6 -28 -10 -31 -10 -2 0 -4 20 -4 45 0 44 1 44 29 39 28 -6 43 6
76 60 9 16 13 16 56 0 58 -22 94 -14 106 23 5 16 7 39 5 52 l-4 24 -23 -29
c-13 -16 -26 -26 -30 -22 -12 12 20 48 58 63 48 19 54 37 31 81 -22 41 -26 45
-41 36z m-305 -290 c4 -25 -13 -30 -22 -6 -9 25 -7 36 7 32 6 -3 13 -14 15
-26z m-1 -109 c-8 -48 -58 -152 -74 -152 -7 -1 -10 10 -8 30 3 17 5 49 7 70 2
32 6 41 25 45 13 4 28 15 34 25 16 30 22 22 16 -18z m-462 -11 c2 -12 0 -24
-4 -27 -10 -6 -22 35 -15 47 8 12 14 5 19 -20z m-87 -170 c-5 -27 -28 -26 -28
2 0 19 4 24 15 19 9 -3 15 -12 13 -21z m237 -39 c-8 -90 -25 -138 -40 -114 -8
15 -50 -4 -82 -35 -26 -26 -55 -29 -104 -9 -12 4 -20 -3 -29 -24 -14 -34 -30
-41 -30 -13 0 10 15 32 33 50 30 29 34 31 58 18 23 -12 30 -11 65 10 21 13 47
24 56 24 17 0 38 52 38 98 0 15 6 22 19 22 14 0 18 -6 16 -27z m307 -48 c-3
-38 0 -70 7 -84 10 -19 8 -25 -20 -50 -32 -30 -32 -51 1 -51 18 0 18 -3 -5
-52 -14 -29 -25 -66 -25 -81 0 -29 -1 -30 -67 -47 -35 -9 -43 -15 -43 -34 0
-34 -25 -53 -38 -29 -16 28 -113 23 -154 -7 -25 -18 -32 -20 -39 -9 -5 8 -9
17 -9 21 0 7 122 48 142 48 31 0 125 54 146 83 27 40 27 45 2 75 -24 29 -35
23 -51 -25 -11 -35 -12 -35 -26 -17 -15 21 -10 58 11 80 29 28 -4 131 -45 141
-15 4 -19 14 -19 45 l0 39 39 -41 c32 -34 43 -40 65 -34 16 4 26 2 26 -5 0 -6
14 -11 30 -11 34 0 36 6 14 38 -8 12 -11 22 -6 22 5 0 14 11 22 24 7 14 20 24
30 23 15 -1 17 -9 12 -62z m-491 13 c-6 -29 -11 -33 -44 -36 -34 -3 -37 -1
-37 22 0 21 5 26 24 26 14 0 28 5 31 10 3 6 12 10 19 10 10 0 12 -9 7 -32z
m-337 -19 c5 -4 5 -20 1 -36 l-7 -28 -29 33 c-39 43 -39 66 -1 50 15 -7 31
-15 36 -19z m186 -1 c0 -7 -4 -19 -9 -27 -11 -17 -25 3 -17 24 7 18 26 20 26
3z m-140 -107 c0 -30 -29 -67 -31 -40 -3 37 7 69 21 69 5 0 10 -13 10 -29z
m524 -40 c-9 -16 -23 -27 -31 -25 -47 14 -47 14 -12 33 52 28 63 26 43 -8z
m-401 -8 c-14 -21 -18 -48 -18 -123 0 -97 0 -97 -23 -87 -12 6 -24 8 -27 5
-14 -13 -6 -136 11 -170 19 -41 43 -50 45 -18 1 11 3 25 4 30 1 6 3 28 4 51 1
47 23 50 28 3 1 -16 5 -43 7 -61 3 -22 -2 -41 -20 -64 -30 -41 -30 -57 0 -102
38 -56 46 -74 40 -91 -5 -13 -10 -13 -47 0 -31 11 -49 12 -71 4 -16 -5 -30
-10 -32 -10 -1 0 -17 19 -34 43 -30 42 -31 43 -78 37 -50 -5 -49 -2 -40 -75 2
-25 -1 -31 -22 -33 -40 -6 -58 -52 -21 -52 32 0 32 -15 0 -39 -29 -22 -31 -22
-44 -4 -11 15 -11 23 1 53 20 47 42 80 54 80 6 0 10 5 10 12 0 19 -32 48 -52
48 -21 0 -36 27 -22 40 5 4 33 10 63 13 48 5 120 41 137 69 3 4 9 8 15 8 10 0
-6 -32 -31 -63 -13 -16 -10 -22 30 -57 25 -22 53 -39 63 -40 16 0 16 3 -3 39
-11 22 -24 42 -30 46 -16 10 -12 21 14 33 18 8 26 8 28 0 3 -7 12 -9 21 -5 25
10 3 62 -33 77 -43 18 -55 36 -42 64 13 30 2 48 -40 62 -32 11 -33 13 -31 60
3 86 15 146 26 135 7 -7 6 -23 -3 -50 -12 -36 -9 -105 4 -119 3 -3 21 6 41 19
36 25 44 53 25 89 -9 16 -6 21 14 26 21 5 24 11 24 56 1 54 21 88 54 88 18 0
18 -1 1 -27z m294 -30 c-3 -5 -1 -19 4 -32 8 -20 14 -23 44 -18 32 5 35 4 35
-19 0 -20 -12 -56 -25 -71 -1 -2 -23 18 -49 43 -46 43 -47 47 -36 75 7 16 17
29 22 29 5 0 7 -3 5 -7z m-137 -85 c0 -5 -9 -8 -19 -8 -20 0 -31 19 -31 53 1
20 3 20 25 -8 14 -16 25 -33 25 -37z m44 -44 c7 -19 -10 -44 -30 -44 -7 0 -15
-4 -18 -9 -10 -16 12 -61 30 -61 8 0 14 -6 12 -12 -8 -22 -43 -15 -43 7 0 11
-7 20 -15 20 -12 0 -15 -16 -15 -88 0 -58 -4 -87 -11 -87 -16 0 -22 27 -19 91
2 29 3 72 4 94 1 37 4 42 34 50 18 6 36 20 42 33 12 26 21 28 29 6z m-479 -73
c1 -28 -3 -37 -12 -34 -7 3 -13 13 -13 23 0 10 -3 25 -6 34 -4 11 0 16 12 16
15 0 19 -8 19 -39z m811 -113 c-3 -13 -5 -29 -5 -37 -1 -10 -10 -12 -38 -8
-54 9 -60 29 -15 49 50 24 63 23 58 -4z m-326 -18 c0 -5 -2 -10 -4 -10 -3 0
-8 5 -11 10 -3 6 -1 10 4 10 6 0 11 -4 11 -10z m132 -34 c-2 -18 1 -37 7 -40
18 -11 -15 -67 -35 -59 -13 5 -15 16 -11 59 6 59 12 74 31 74 8 0 11 -11 8
-34z m-142 -36 c0 -5 -7 -7 -15 -4 -8 4 -15 8 -15 10 0 2 7 4 15 4 8 0 15 -4
15 -10z m18 -62 c2 -12 -8 -20 -40 -29 -24 -7 -47 -16 -52 -20 -5 -4 -14 -5
-22 -2 -10 4 -11 9 -1 24 6 10 17 19 23 19 6 0 17 7 24 16 17 19 64 14 68 -8z
m-563 -108 c18 -20 17 -20 -13 -20 -34 0 -52 18 -31 31 20 12 24 11 44 -11z
m361 -108 c-4 -3 -14 2 -24 12 -16 18 -16 18 6 6 13 -6 21 -14 18 -18z m-413
-45 c-8 -5 -42 -10 -75 -11 -69 -3 -87 14 -48 44 22 17 26 17 81 -4 44 -16 54
-23 42 -29z m203 -184 c-33 -32 -53 -45 -77 -46 -25 -1 -34 3 -37 15 -3 17 23
29 68 32 10 1 28 13 39 28 13 16 28 25 37 21 11 -4 3 -16 -30 -50z m107 18
c46 -24 31 -70 -56 -174 -34 -41 -39 -53 -34 -82 6 -36 -2 -47 -38 -52 -23 -4
-35 -20 -35 -50 0 -15 -5 -20 -17 -18 -10 2 -21 4 -25 4 -5 1 -8 10 -8 21 0
29 -22 34 -81 20 -48 -12 -51 -14 -47 -41 3 -16 3 -29 1 -29 -1 0 -28 13 -59
29 l-57 29 35 34 c19 18 38 41 41 51 4 9 13 17 21 17 12 0 14 -9 10 -40 -7
-45 3 -50 34 -17 18 19 52 86 52 102 -1 35 1 45 9 41 10 -6 157 29 206 50 35
14 36 23 10 103 -4 13 -3 22 1 19 5 -2 21 -10 37 -17z m-274 -126 c14 -13 11
-15 -26 -15 -38 0 -53 11 -53 40 0 12 61 -7 79 -25z m327 -99 c-22 -34 -60
-25 -51 12 3 14 16 39 28 56 l21 30 9 -37 c7 -29 5 -43 -7 -61z"/>
<path d="M1576 4518 c-3 -17 -5 -32 -4 -33 2 -1 18 2 36 7 36 10 42 32 13 48
-31 16 -38 12 -45 -22z"/>
<path d="M734 3393 c-20 -16 -28 -30 -26 -45 6 -35 17 -42 53 -29 43 15 79 49
79 75 0 31 -68 30 -106 -1z"/>
<path d="M2796 5273 c-7 -16 -17 -43 -21 -61 -7 -33 -6 -33 17 -21 12 6 35 20
50 30 24 17 25 22 15 49 -14 38 -42 39 -61 3z"/>
<path d="M2325 5280 c4 -6 11 -8 16 -5 14 9 11 15 -7 15 -8 0 -12 -5 -9 -10z"/>
<path d="M3126 5235 c-23 -24 -20 -44 7 -41 45 5 68 18 65 34 -4 23 -51 27
-72 7z"/>
<path d="M1465 5167 c-111 -64 -124 -76 -140 -129 -8 -28 -15 -63 -15 -76 0
-22 3 -24 31 -18 17 3 39 6 49 6 17 0 35 32 42 73 3 16 8 15 50 -12 52 -33 62
-30 73 29 4 19 9 46 12 60 3 17 -3 35 -17 53 -23 29 -52 34 -85 14z"/>
<path d="M3740 5126 c0 -2 7 -9 15 -16 12 -10 15 -10 15 4 0 9 -7 16 -15 16
-8 0 -15 -2 -15 -4z"/>
<path d="M3577 5070 c3 -11 9 -20 14 -20 11 0 11 3 3 24 -9 23 -23 20 -17 -4z"/>
<path d="M2840 5072 c0 -4 4 -13 9 -20 6 -10 10 -10 20 1 9 12 7 16 -9 20 -11
3 -20 2 -20 -1z"/>
<path d="M1107 5053 c-11 -10 -8 -51 3 -58 18 -11 27 3 22 35 -4 29 -12 37
-25 23z"/>
<path d="M3540 5020 c0 -5 -7 -10 -15 -10 -12 0 -14 -7 -11 -27 2 -16 5 -38 5
-51 1 -19 5 -22 24 -17 26 8 57 41 57 61 0 16 -35 54 -50 54 -5 0 -10 -4 -10
-10z"/>
<path d="M2317 5009 c7 -7 15 -10 18 -7 3 3 -2 9 -12 12 -14 6 -15 5 -6 -5z"/>
<path d="M1479 4948 c-12 -28 -11 -33 10 -49 13 -11 27 -19 31 -19 13 0 19 41
10 65 -14 36 -36 38 -51 3z"/>
<path d="M3098 4975 c-11 -12 5 -55 24 -61 26 -8 29 -3 19 32 -7 27 -29 42
-43 29z"/>
<path d="M1041 4944 c0 -11 3 -14 6 -6 3 7 2 16 -1 19 -3 4 -6 -2 -5 -13z"/>
<path d="M3790 4916 c0 -9 7 -16 16 -16 9 0 14 5 12 12 -6 18 -28 21 -28 4z"/>
<path d="M2630 4896 c0 -7 6 -19 14 -25 11 -9 15 -8 20 5 10 26 7 34 -14 34
-11 0 -20 -6 -20 -14z"/>
<path d="M920 4851 c0 -19 6 -34 15 -38 23 -8 30 4 19 34 -13 39 -34 41 -34 4z"/>
<path d="M3546 4845 c4 -8 12 -15 20 -15 8 0 14 7 14 15 0 8 -9 15 -20 15 -13
0 -18 -5 -14 -15z"/>
<path d="M3816 4805 c-3 -8 -1 -17 3 -20 5 -3 11 2 15 10 3 8 1 17 -3 20 -5 3
-11 -2 -15 -10z"/>
<path d="M3404 4747 c-59 -60 -62 -68 -38 -91 21 -22 31 -20 40 6 3 12 26 43
51 69 43 46 44 48 23 59 -19 10 -27 5 -76 -43z"/>
<path d="M2287 4756 c-8 -21 3 -54 20 -60 22 -9 31 1 25 29 -5 31 -37 52 -45
31z"/>
<path d="M3764 4759 c-3 -6 -2 -15 2 -19 12 -12 38 5 30 19 -9 14 -23 14 -32
0z"/>
<path d="M4323 4718 c-74 -39 -93 -54 -93 -71 0 -37 14 -49 46 -41 16 5 35 7
41 6 7 -2 21 13 30 33 13 27 23 35 43 35 19 0 30 8 39 26 11 25 7 65 -7 63 -4
0 -49 -23 -99 -51z"/>
<path d="M740 4745 c0 -8 4 -15 10 -15 5 0 7 7 4 15 -4 8 -8 15 -10 15 -2 0
-4 -7 -4 -15z"/>
<path d="M3644 4726 c-7 -40 2 -75 15 -60 5 5 11 27 13 48 4 51 -18 61 -28 12z"/>
<path d="M2230 4686 c0 -29 20 -66 36 -66 2 0 4 23 4 50 0 43 -3 50 -20 50
-16 0 -20 -7 -20 -34z"/>
<path d="M4105 4661 c-7 -24 -118 -135 -166 -167 -20 -14 -58 -27 -88 -31 -44
-5 -56 -11 -87 -47 -20 -23 -44 -51 -55 -62 -10 -12 -19 -29 -19 -39 0 -14 4
-14 30 5 l29 21 25 -38 c14 -21 28 -51 32 -66 7 -31 45 -51 79 -43 23 6 149
129 174 170 16 27 46 35 54 14 8 -21 43 21 71 85 16 37 21 57 13 57 -16 0 -67
-32 -102 -64 -21 -20 -31 -23 -41 -15 -18 15 4 54 63 112 42 42 47 63 22 109
-13 23 -26 23 -34 -1z m-145 -272 c0 -6 -5 -19 -11 -30 -8 -16 -13 -18 -24 -9
-11 9 -12 17 -4 31 10 20 39 26 39 8z"/>
<path d="M2184 4605 c-7 -28 7 -52 25 -41 16 10 14 41 -4 56 -12 10 -15 7 -21
-15z"/>
<path d="M2249 4575 c-1 -14 -2 -28 -3 -32 -10 -36 -17 -128 -12 -147 7 -30
33 -25 38 7 l3 22 12 -21 c7 -11 14 -34 16 -50 3 -26 9 -30 36 -25 23 3 29 58
11 107 -46 127 -56 149 -65 156 -20 15 -35 8 -36 -17z"/>
<path d="M3655 4590 c-3 -5 1 -13 10 -16 22 -9 29 1 11 15 -10 8 -16 9 -21 1z"/>
<path d="M2129 4588 c-7 -28 -5 -38 7 -38 16 0 19 26 4 35 -5 3 -10 5 -11 3z"/>
<path d="M2379 4528 c0 -13 -2 -33 -5 -46 -3 -20 0 -23 18 -20 13 2 23 8 22
13 0 6 3 25 7 43 6 29 5 32 -17 32 -18 0 -24 -6 -25 -22z"/>
<path d="M3866 4524 c-4 -9 -4 -19 -2 -21 8 -8 26 8 26 23 0 19 -16 18 -24 -2z"/>
<path d="M4230 4508 c0 -15 6 -25 15 -25 8 0 15 6 15 12 0 7 -7 18 -15 25 -13
10 -15 9 -15 -12z"/>
<path d="M432 4483 c5 -21 21 -52 34 -69 13 -17 20 -34 17 -38 -4 -3 -1 -6 5
-6 23 0 12 60 -20 105 -17 25 -35 45 -39 45 -4 0 -3 -17 3 -37z"/>
<path d="M1914 4497 c-28 -16 -21 -33 32 -84 37 -35 44 -46 38 -67 -5 -23 -3
-26 18 -26 25 0 58 27 58 47 0 5 -13 22 -30 36 -16 15 -41 45 -55 67 -28 44
-30 45 -61 27z"/>
<path d="M5098 4439 c-39 -20 -47 -36 -26 -57 31 -31 95 9 86 54 -4 25 -18 26
-60 3z"/>
<path d="M5179 4423 c-15 -41 4 -51 37 -18 27 27 27 29 9 36 -31 12 -35 11
-46 -18z"/>
<path d="M2102 4428 c-17 -17 -15 -35 4 -42 36 -14 46 4 21 37 -10 14 -15 15
-25 5z"/>
<path d="M1845 4410 c-3 -5 1 -13 10 -16 22 -9 29 1 11 15 -10 8 -16 9 -21 1z"/>
<path d="M500 4336 c0 -20 22 -56 35 -56 18 0 19 14 5 41 -9 16 -40 28 -40 15z"/>
<path d="M1791 4314 c0 -11 3 -14 6 -6 3 7 2 16 -1 19 -3 4 -6 -2 -5 -13z"/>
<path d="M4076 4295 c-3 -8 3 -19 14 -25 17 -9 20 -7 20 9 0 23 -26 35 -34 16z"/>
<path d="M1709 4230 c-1 -22 -3 -44 -4 -50 -1 -5 -3 -26 -4 -45 -1 -27 -7 -38
-25 -47 -30 -13 -82 -108 -73 -132 5 -14 17 -16 64 -12 32 2 66 7 76 11 25 10
32 51 19 115 -11 52 -10 100 3 141 6 18 -25 59 -45 59 -5 0 -11 -18 -11 -40z"/>
<path d="M470 4180 c-9 -17 -8 -19 12 -11 26 9 36 31 14 31 -8 0 -20 -9 -26
-20z"/>
<path d="M3823 4092 c-11 -26 -23 -59 -27 -74 -5 -24 -3 -28 14 -28 15 0 20
-7 20 -25 0 -26 -14 -33 -26 -14 -13 22 -34 -43 -49 -151 -8 -62 -24 -110 -47
-142 -21 -31 -17 -71 8 -61 7 3 14 2 14 -1 0 -4 -13 -12 -30 -17 -17 -6 -30
-18 -30 -27 0 -10 -9 -30 -21 -47 l-20 -30 6 33 c5 25 3 32 -8 32 -19 0 -65
-54 -73 -86 -4 -14 -13 -24 -24 -24 -19 0 -30 -17 -23 -37 2 -7 10 -10 17 -7
12 5 52 10 89 13 9 0 26 10 37 21 24 24 40 18 40 -15 0 -17 5 -23 20 -22 15 1
22 13 31 57 6 30 17 70 25 89 16 39 11 68 -14 74 -12 2 -7 9 19 22 40 19 41
29 19 113 -5 20 -5 32 1 32 20 0 69 -31 79 -50 15 -28 40 -26 37 3 -2 18 2 22
24 19 21 -2 28 3 31 22 7 37 -7 54 -32 39 -30 -19 -74 -17 -66 3 3 9 6 21 6
28 0 7 19 16 43 22 49 10 60 39 15 39 -24 -1 -28 3 -29 30 -1 70 -11 152 -20
177 -17 43 -34 40 -56 -10z"/>
<path d="M1819 4112 c0 -4 -2 -19 -4 -34 -2 -17 2 -29 12 -32 22 -9 33 2 33
33 0 20 -6 30 -20 34 -11 3 -20 2 -21 -1z"/>
<path d="M2010 4075 c0 -8 8 -11 20 -8 11 3 20 7 20 8 0 1 -9 5 -20 8 -12 3
-20 0 -20 -8z"/>
<path d="M324 4065 c-9 -23 3 -45 26 -45 20 0 25 15 14 44 -8 20 -33 21 -40 1z"/>
<path d="M3241 4046 c3 -34 1 -37 -50 -63 -32 -17 -60 -40 -70 -58 -9 -16 -17
-32 -19 -35 -2 -2 -7 2 -12 9 -4 8 -4 27 2 43 6 16 8 31 5 34 -3 3 -27 -1 -54
-9 -26 -8 -58 -13 -70 -11 -17 3 -21 -1 -18 -16 7 -37 84 -190 95 -190 7 0 28
8 47 17 33 15 36 15 48 0 13 -18 55 -24 55 -8 0 5 -6 14 -14 20 -14 12 -16 35
-3 48 4 3 13 -8 19 -25 9 -24 18 -32 38 -32 14 0 30 -4 37 -8 18 -12 32 -55
26 -85 -6 -29 10 -37 24 -13 4 8 17 15 28 18 15 2 20 12 21 36 1 26 -6 39 -33
61 -30 25 -33 32 -24 50 7 12 19 21 29 21 17 0 22 -13 69 -190 8 -30 19 -59
23 -64 14 -14 59 21 66 50 4 17 9 22 14 14 13 -22 49 0 91 55 43 58 47 88 12
93 -24 4 -27 9 -44 102 -14 76 -32 115 -58 130 -28 14 -32 1 -14 -45 17 -43
21 -97 9 -131 -6 -17 -3 -22 14 -27 19 -5 21 -11 16 -49 -3 -24 -8 -52 -10
-63 -3 -11 -5 -26 -5 -32 -1 -7 -5 -13 -9 -13 -5 0 -5 23 -2 51 l7 50 -40 20
c-34 18 -39 24 -35 50 4 28 3 29 -39 29 l-44 0 5 35 c4 23 0 47 -10 67 -19 37
-20 36 -60 -77 -41 -116 -65 -127 -53 -23 6 52 12 67 37 89 l30 27 -22 38
c-12 21 -30 40 -40 42 -15 3 -17 -2 -15 -32z m-65 -135 c-3 -4 -10 -21 -16
-36 -6 -15 -13 -25 -16 -22 -6 6 23 67 32 67 3 0 3 -4 0 -9z m294 -196 c0 -14
-4 -25 -10 -25 -5 0 -10 11 -10 25 0 14 5 25 10 25 6 0 10 -11 10 -25z"/>
<path d="M5193 4054 c-7 -19 2 -28 22 -21 19 8 19 23 0 31 -9 3 -18 -1 -22
-10z"/>
<path d="M2854 4028 c-17 -13 -54 -46 -82 -75 -48 -48 -51 -54 -40 -78 12 -27
13 -27 45 -19 16 5 24 16 29 43 10 59 13 68 29 68 19 0 20 3 -10 -68 -31 -71
-28 -103 12 -155 23 -31 28 -46 26 -88 -4 -81 4 -110 36 -129 23 -14 28 -22
26 -53 -2 -37 7 -40 58 -19 27 11 21 -20 -8 -42 -23 -16 -24 -21 -15 -55 12
-42 55 -98 75 -98 10 0 11 9 5 36 -8 34 -7 35 20 32 16 -2 29 0 30 5 1 28 -2
35 -21 40 -19 5 -21 11 -16 49 7 53 -15 93 -72 128 -45 28 -48 37 -26 80 21
40 35 38 35 -5 0 -29 4 -35 20 -35 16 0 28 -16 50 -62 17 -35 30 -74 30 -88 0
-21 7 -29 35 -39 19 -7 39 -10 44 -7 13 9 1 78 -17 99 -14 16 -14 19 -2 27 8
6 18 10 21 10 4 0 7 12 6 28 0 15 3 35 8 45 9 22 -12 23 -42 2 -20 -14 -23
-14 -31 2 -5 10 -7 35 -5 56 l3 37 -50 0 c-39 0 -52 4 -57 18 -3 9 -25 67 -49
127 -23 61 -49 132 -56 158 l-13 48 -31 -23z m66 -272 c0 -8 -4 -18 -10 -21
-5 -3 -10 3 -10 14 0 12 5 21 10 21 6 0 10 -6 10 -14z"/>
<path d="M3420 3996 c-5 -14 -10 -37 -12 -53 -2 -22 1 -28 17 -28 25 0 53 84
32 97 -20 13 -27 9 -37 -16z"/>
<path d="M3600 4011 c0 -5 7 -11 15 -15 9 -3 15 0 15 9 0 8 -7 15 -15 15 -8 0
-15 -4 -15 -9z"/>
<path d="M2540 3972 c0 -34 10 -41 29 -19 8 11 6 18 -9 32 -20 18 -20 17 -20
-13z"/>
<path d="M2393 3972 c-28 -4 -29 -13 -5 -41 16 -20 18 -21 40 -6 41 29 21 56
-35 47z"/>
<path d="M2486 3953 c-13 -13 -6 -61 10 -67 23 -9 34 2 32 30 -2 25 -29 49
-42 37z"/>
<path d="M3635 3923 c4 -10 9 -25 12 -34 7 -25 43 -12 43 16 0 22 -17 35 -47
35 -10 0 -13 -5 -8 -17z"/>
<path d="M4630 3920 c-12 -12 -18 -25 -15 -30 8 -13 8 -160 0 -202 -6 -33 -5
-35 43 -57 40 -19 53 -21 71 -12 19 11 21 18 15 59 -7 57 -8 57 -47 57 -32 0
-32 1 -31 46 1 25 9 60 18 77 33 63 -8 108 -54 62z"/>
<path d="M2143 3923 c-18 -7 -16 -33 4 -55 13 -14 14 -21 5 -30 -18 -18 -14
-38 8 -38 12 0 20 7 20 18 1 12 10 7 34 -21 l34 -38 16 23 c23 32 21 42 -21
98 -37 48 -62 59 -100 43z"/>
<path d="M330 3890 c0 -5 5 -10 11 -10 5 0 7 5 4 10 -3 6 -8 10 -11 10 -2 0
-4 -4 -4 -10z"/>
<path d="M2608 3894 c-16 -16 43 -134 67 -134 9 0 10 11 4 45 -13 68 -48 112
-71 89z"/>
<path d="M5264 3835 c-21 -33 -13 -41 26 -25 33 14 36 20 18 38 -17 17 -26 15
-44 -13z"/>
<path d="M1605 3827 c-21 -12 -22 -40 -4 -63 21 -25 21 -127 0 -184 l-19 -54
30 -29 c43 -41 55 -27 62 76 3 51 16 78 16 33 0 -21 4 -26 18 -22 21 6 55 -36
57 -71 1 -25 23 -46 37 -36 5 2 15 -1 23 -7 12 -10 17 -8 24 11 7 19 5 27 -11
40 -21 16 -21 16 6 23 14 3 33 18 42 31 21 32 7 52 -42 61 -37 7 -68 40 -99
107 -12 26 -23 36 -34 33 -15 -5 -77 -9 -95 -7 -4 1 2 10 15 20 21 18 22 21 9
35 -12 12 -19 12 -35 3z"/>
<path d="M3677 3833 c-12 -11 -8 -23 8 -23 8 0 15 7 15 15 0 16 -12 20 -23 8z"/>
<path d="M3997 3823 c-2 -4 -1 -16 2 -26 6 -16 9 -17 19 -4 10 11 9 17 -2 26
-8 7 -16 8 -19 4z"/>
<path d="M2330 3789 c0 -27 3 -30 27 -27 37 4 39 34 2 47 -28 10 -29 9 -29
-20z"/>
<path d="M2729 3780 c-12 -22 -31 -42 -41 -46 -33 -10 -20 -72 25 -121 16 -19
18 -25 7 -38 -7 -8 -19 -15 -27 -15 -10 0 -12 -6 -7 -22 12 -40 57 -93 129
-154 39 -32 73 -62 76 -67 4 -5 14 -7 23 -5 15 3 15 6 -1 38 -15 29 -30 41
-81 67 -2 1 1 10 7 22 15 26 -3 65 -36 80 -15 7 -23 17 -20 25 9 23 -13 88
-40 125 l-26 33 24 -7 c40 -12 43 -11 43 15 0 44 -14 110 -23 110 -6 0 -20
-18 -32 -40z"/>
<path d="M4023 3768 c-21 -18 -40 -37 -42 -42 -2 -4 -22 -32 -46 -60 -34 -42
-40 -56 -34 -74 15 -41 51 -20 98 58 30 50 26 30 -10 -51 -24 -56 -29 -78 -24
-112 4 -23 2 -55 -4 -70 -11 -29 -74 -97 -90 -97 -20 0 -86 -79 -108 -129 -14
-31 -34 -74 -44 -95 -23 -47 -24 -66 -5 -66 21 0 61 52 98 127 35 70 42 75
133 108 57 21 60 24 61 55 0 28 11 43 69 96 69 62 70 63 58 95 -7 17 -10 36
-7 40 11 18 32 8 42 -20 9 -25 15 -29 38 -25 15 3 40 12 55 20 27 14 28 16 16
45 -7 19 -29 40 -53 54 l-41 23 -44 -35 c-24 -19 -52 -48 -62 -64 -25 -39 -51
-40 -36 -2 19 51 51 93 80 108 16 9 29 19 30 23 0 4 2 15 4 25 6 30 -42 22
-59 -10 -21 -38 -20 -27 3 39 l19 56 -21 6 c-33 9 -33 8 -74 -26z"/>
<path d="M2467 3764 c-13 -13 -7 -42 10 -48 23 -9 40 10 27 31 -12 20 -27 26
-37 17z"/>
<path d="M2195 3728 c4 -13 13 -28 21 -34 11 -9 8 -16 -14 -37 -34 -33 -39
-33 -68 -6 -17 16 -30 20 -50 15 l-27 -7 34 -33 c49 -48 96 -53 140 -15 19 16
38 29 43 29 4 0 5 12 1 28 -4 15 -8 32 -10 37 -8 34 -19 45 -47 45 -26 0 -29
-3 -23 -22z"/>
<path d="M3227 3724 c-13 -13 -7 -42 9 -48 24 -9 26 -8 22 21 -3 26 -18 39
-31 27z"/>
<path d="M2130 3705 c0 -2 9 -9 20 -15 16 -9 18 -8 14 5 -5 13 -34 22 -34 10z"/>
<path d="M2572 3683 c2 -10 14 -19 26 -21 19 -3 23 1 20 15 -2 10 -14 19 -26
21 -19 3 -23 -1 -20 -15z"/>
<path d="M400 3682 c-8 -4 -24 -13 -36 -21 -20 -13 -20 -14 -2 -65 9 -28 17
-70 18 -94 l0 -43 29 15 c16 9 32 27 35 41 4 16 13 25 26 25 19 0 19 1 3 43
-15 37 -53 108 -56 106 -1 0 -9 -3 -17 -7z"/>
<path d="M1905 3628 c4 -35 9 -66 12 -70 2 -4 21 -12 43 -18 l38 -10 -3 -58
c-2 -31 -6 -67 -10 -79 -10 -31 17 -40 58 -21 40 19 64 11 96 -32 19 -27 22
-40 17 -76 -5 -43 -5 -44 22 -44 15 0 33 5 40 12 8 8 14 5 23 -15 11 -24 44
-45 55 -34 6 6 -58 126 -112 208 -38 57 -52 71 -85 80 -27 9 -39 18 -39 31 0
10 -4 18 -10 18 -5 0 -10 7 -10 15 0 18 5 19 30 3 10 -7 22 -9 25 -6 14 13
-17 48 -73 82 -32 19 -66 44 -77 56 -36 39 -48 27 -40 -42z"/>
<path d="M2518 3683 c-9 -3 -20 -13 -23 -24 -4 -10 -11 -20 -16 -20 -5 -1 -14
-2 -21 -3 -23 -2 -19 -27 10 -56 28 -28 70 -39 86 -23 3 4 16 8 27 10 18 3 20
-1 16 -19 -15 -60 -18 -107 -9 -124 9 -17 13 -13 32 31 11 28 28 65 37 83 15
30 15 37 2 60 -8 15 -33 36 -55 47 -23 11 -48 25 -55 31 -8 6 -22 9 -31 7z"/>
<path d="M1220 3658 c0 -25 26 -52 43 -45 13 5 15 12 8 29 -9 25 -51 38 -51
16z"/>
<path d="M2790 3656 c0 -24 18 -28 30 -6 9 17 8 20 -10 20 -11 0 -20 -6 -20
-14z"/>
<path d="M5600 3656 c0 -17 27 -29 35 -16 4 6 3 15 0 20 -9 15 -35 12 -35 -4z"/>
<path d="M2344 3598 c7 -41 89 -118 116 -111 28 7 7 54 -46 102 -55 52 -79 54
-70 9z"/>
<path d="M3507 3587 c-20 -15 -26 -27 -22 -40 12 -31 71 -13 75 23 6 46 -10
52 -53 17z"/>
<path d="M4731 3581 c-19 -12 -9 -46 15 -49 18 -3 21 1 17 23 -6 30 -14 37
-32 26z"/>
<path d="M3293 3550 c-6 -16 -7 -32 -3 -35 5 -3 10 5 12 17 2 13 9 22 16 21 6
-2 12 4 12 12 0 26 -25 16 -37 -15z"/>
<path d="M1473 3521 c3 -23 24 -71 51 -113 25 -41 47 -84 48 -96 3 -22 -1 -23
-62 -26 -90 -4 -124 -14 -109 -32 13 -16 5 -18 -21 -4 -33 17 -33 -7 -1 -54
17 -25 31 -47 31 -50 0 -2 5 -17 10 -32 10 -26 11 -26 26 -8 14 18 15 17 11
-13 -3 -31 -2 -31 61 -48 l64 -18 28 32 c16 17 39 31 52 31 l23 1 -24 19 c-29
25 -42 25 -71 0 -12 -11 -27 -17 -31 -14 -12 7 -11 34 1 34 23 0 7 36 -32 72
-33 30 -37 38 -22 38 11 0 25 -5 31 -11 9 -9 18 -8 38 5 26 17 62 15 51 -3
-10 -15 23 -36 36 -23 8 8 18 6 37 -9 22 -18 34 -19 98 -13 69 6 73 5 73 -14
0 -18 18 -32 41 -32 5 0 8 30 6 66 -3 56 -7 69 -28 85 -38 29 -49 24 -49 -22
0 -33 -3 -40 -17 -37 -11 2 -17 11 -15 22 5 30 -18 64 -51 75 -16 6 -33 8 -38
5 -11 -6 17 -64 31 -64 6 0 10 -5 10 -11 0 -6 -14 -9 -32 -7 -28 3 -38 12 -65
58 -44 72 -43 83 7 59 56 -27 74 -25 66 7 -12 47 -38 73 -73 74 -29 0 -33 -3
-33 -25 0 -18 -5 -25 -19 -25 -15 0 -18 6 -16 33 5 58 -44 120 -99 126 -28 3
-29 2 -23 -38z"/>
<path d="M3830 3540 c0 -13 5 -17 20 -13 11 3 20 9 20 13 0 4 -9 10 -20 13
-15 4 -20 0 -20 -13z"/>
<path d="M3889 3558 c0 -2 -2 -10 -4 -18 -2 -8 -7 -25 -10 -37 -9 -27 31 -55
41 -28 8 20 -4 85 -16 85 -6 0 -10 -1 -11 -2z"/>
<path d="M1122 3523 c2 -9 11 -17 21 -19 13 -2 17 2 13 13 -3 8 -6 17 -6 19 0
2 -7 4 -16 4 -9 0 -14 -7 -12 -17z"/>
<path d="M3369 3513 c-20 -50 -39 -116 -39 -135 0 -33 50 -19 77 21 27 39 30
87 7 119 -20 29 -32 28 -45 -5z"/>
<path d="M1230 3506 c0 -7 -11 -34 -25 -58 l-25 -45 21 -27 c38 -48 81 -27 51
26 -15 25 -14 28 12 63 31 41 31 40 -6 49 -20 5 -28 3 -28 -8z"/>
<path d="M1385 3499 c-10 -30 60 -102 75 -79 14 21 12 31 -10 68 -23 37 -55
43 -65 11z"/>
<path d="M2266 3504 c-6 -16 3 -44 13 -44 4 0 13 11 19 24 9 20 8 25 -8 29
-11 3 -21 -1 -24 -9z"/>
<path d="M2650 3456 c0 -19 -3 -41 -6 -49 -4 -11 9 -24 40 -42 26 -15 51 -36
57 -46 13 -25 36 -24 49 1 10 19 6 23 -33 40 -33 15 -48 29 -57 52 -25 69 -30
78 -40 78 -5 0 -10 -15 -10 -34z"/>
<path d="M3840 3450 c-65 -71 -97 -108 -111 -129 -13 -21 -18 -22 -38 -12 -29
16 -68 7 -76 -18 -3 -10 -8 -36 -11 -57 -5 -40 -28 -84 -44 -84 -6 0 -10 -11
-10 -25 0 -19 4 -23 18 -18 9 4 22 13 27 20 17 22 55 4 55 -26 0 -19 5 -27 19
-28 32 -3 55 97 37 155 -6 19 -4 23 11 22 32 -4 44 0 38 10 -3 6 8 18 26 28
57 31 133 92 141 112 6 16 2 23 -17 30 -14 5 -24 15 -23 21 4 18 -25 17 -42
-1z"/>
<path d="M4232 3408 c-87 -52 -102 -65 -102 -87 l0 -26 -19 24 c-17 23 -21 23
-50 11 -38 -15 -54 -41 -45 -74 9 -38 80 -49 134 -21 17 9 30 12 30 7 0 -8
-148 -103 -253 -162 -48 -27 -62 -31 -81 -22 -18 8 -28 6 -52 -12 -16 -12 -50
-34 -75 -49 -52 -30 -60 -42 -48 -74 7 -19 12 -21 37 -14 51 15 91 40 118 77
26 34 31 36 69 30 41 -5 66 5 103 41 16 16 66 17 93 3 10 -6 19 -21 19 -33 -1
-31 -32 -96 -65 -135 -24 -29 -26 -38 -21 -77 4 -25 14 -49 24 -54 14 -8 13
-13 -12 -45 -26 -35 -47 -43 -80 -30 -26 10 -18 32 19 56 43 28 44 48 5 70
-23 13 -30 24 -30 48 0 23 -4 30 -19 30 -23 0 -35 -28 -21 -45 13 -15 -7 -65
-25 -65 -7 0 -16 17 -20 38 -3 20 -9 46 -11 58 -4 17 3 23 50 39 54 18 66 32
58 68 -3 15 -9 17 -30 12 -42 -10 -109 -41 -202 -92 -19 -11 -56 -28 -82 -38
-27 -10 -48 -21 -48 -26 0 -11 29 -39 41 -39 25 0 4 -32 -36 -56 -25 -14 -45
-28 -45 -30 0 -9 55 -114 60 -114 3 0 12 13 21 28 10 19 25 28 45 30 16 1 42
11 57 23 15 11 38 19 50 17 27 -4 59 -64 60 -113 1 -40 10 -42 65 -19 49 21
92 26 92 11 1 -23 11 -92 16 -106 3 -11 12 -7 35 15 24 23 29 25 23 9 -4 -11
-13 -29 -21 -40 -7 -11 -13 -30 -13 -43 0 -21 4 -20 54 23 37 32 52 52 49 64
-3 12 -12 17 -27 14 -19 -4 -24 2 -35 36 -6 23 -16 42 -21 42 -6 1 -14 3 -20
4 -5 1 -14 3 -19 4 -5 0 -11 9 -14 20 -4 16 -1 17 29 11 19 -4 57 -20 84 -34
l50 -26 11 27 c21 56 47 68 114 53 24 -6 44 2 71 27 23 21 37 26 70 24 25 -1
45 3 52 11 9 12 19 57 21 106 1 6 10 12 20 12 11 0 22 4 26 10 7 11 -27 149
-50 203 -13 33 -17 35 -38 26 -12 -5 -32 -26 -45 -44 -12 -19 -29 -35 -37 -35
-19 0 -19 4 5 48 33 60 90 135 90 118 0 -21 14 -20 35 1 16 16 16 17 0 29 -17
12 -17 15 -1 38 9 14 16 27 16 30 0 6 -68 28 -95 31 -11 1 -24 3 -29 4 -4 0
-6 8 -2 16 8 22 -33 19 -64 -5 -34 -27 -43 -25 -35 8 12 47 13 57 3 75 -7 14
-4 18 22 23 34 7 38 23 12 47 -16 15 -25 11 -120 -45z m86 -233 c6 -5 -11 -65
-19 -65 -5 0 -9 3 -10 8 -2 19 -8 44 -12 48 -2 2 -16 -8 -31 -22 -34 -35 -45
-24 -16 16 19 27 26 30 54 24 17 -3 32 -7 34 -9z m-48 -117 c0 -13 45 -9 58 4
19 19 45 19 37 0 -4 -9 -11 -29 -17 -44 -14 -38 -39 -43 -109 -19 -33 12 -66
18 -72 14 -7 -4 -6 0 2 10 7 9 20 17 27 17 8 0 17 13 20 30 6 29 7 29 30 12
13 -9 24 -20 24 -24z m-25 -145 c30 -36 23 -46 -20 -29 -34 14 -35 14 -54 -17
-24 -39 -101 -115 -101 -101 0 13 59 98 72 102 18 8 6 22 -19 22 -37 0 -18 17
27 25 19 3 39 10 45 16 14 14 24 11 50 -18z m225 -2 c0 -12 -20 -25 -27 -18
-7 7 6 27 18 27 5 0 9 -4 9 -9z m-712 -82 c-46 -31 -58 -35 -58 -20 0 12 82
59 93 53 5 -2 -11 -17 -35 -33z m510 -57 c2 -18 0 -33 -5 -33 -4 -1 -23 -3
-41 -5 -17 -1 -46 -14 -64 -29 -36 -31 -49 -19 -24 20 11 17 26 25 46 25 25 0
30 4 30 23 0 30 5 34 32 32 18 -1 24 -9 26 -33z m56 3 c-6 -16 -24 -21 -24 -7
0 11 11 22 21 22 5 0 6 -7 3 -15z"/>
<path d="M1753 3410 c1 -11 11 -32 23 -47 19 -24 27 -27 73 -24 35 2 60 -3 77
-14 27 -18 59 -13 68 10 4 10 -7 20 -32 31 -63 27 -139 52 -176 58 -30 5 -35
3 -33 -14z"/>
<path d="M1466 3395 c-17 -18 -10 -52 14 -65 23 -12 30 -4 30 36 0 36 -22 51
-44 29z"/>
<path d="M3435 3383 c-3 -15 -15 -39 -26 -55 -16 -22 -18 -31 -9 -49 11 -19
13 -19 29 -5 33 30 59 89 50 114 -11 30 -35 28 -44 -5z"/>
<path d="M4440 3380 c0 -23 4 -24 31 -9 23 12 16 29 -12 29 -12 0 -19 -7 -19
-20z"/>
<path d="M2310 3375 c0 -8 7 -15 15 -15 9 0 12 6 9 15 -4 8 -10 15 -15 15 -5
0 -9 -7 -9 -15z"/>
<path d="M2563 3363 c-20 -3 -33 -10 -33 -18 0 -16 55 -60 88 -70 17 -5 22 -2
22 12 0 16 -36 85 -42 81 -2 0 -18 -3 -35 -5z"/>
<path d="M3550 3327 c-29 -14 -59 -92 -67 -175 -5 -52 -5 -54 18 -50 18 2 23
10 25 37 4 57 13 79 45 115 23 27 28 40 23 60 -7 30 -10 30 -44 13z"/>
<path d="M2336 3323 c-13 -13 -6 -63 9 -63 10 0 15 10 15 29 0 30 -12 46 -24
34z"/>
<path d="M1999 3308 c-5 -58 -4 -110 3 -114 5 -3 25 11 45 31 l37 37 -32 29
c-35 31 -51 36 -53 17z"/>
<path d="M2454 3299 c-10 -17 55 -77 103 -93 48 -17 53 -10 31 39 -16 36 -119
78 -134 54z"/>
<path d="M2080 3240 c-9 -17 -8 -20 8 -20 24 0 32 8 25 26 -7 20 -20 17 -33
-6z"/>
<path d="M3362 3205 c-15 -33 -15 -45 0 -45 19 0 57 41 51 56 -9 23 -39 16
-51 -11z"/>
<path d="M1285 3201 c-7 -12 12 -24 25 -16 11 7 4 25 -10 25 -5 0 -11 -4 -15
-9z"/>
<path d="M2007 3169 c-25 -21 -34 -35 -30 -49 7 -25 4 -25 64 1 54 24 53 23
39 48 -16 31 -36 31 -73 0z"/>
<path d="M3980 3180 c0 -5 5 -10 11 -10 5 0 7 5 4 10 -3 6 -8 10 -11 10 -2 0
-4 -4 -4 -10z"/>
<path d="M2297 3162 c-10 -10 -17 -28 -17 -39 0 -27 29 -21 61 13 20 21 21 26
9 34 -22 14 -35 12 -53 -8z"/>
<path d="M1274 3116 c-15 -31 -33 -61 -40 -67 -11 -9 -6 -22 22 -67 20 -32 43
-63 52 -70 20 -15 10 -26 -40 -41 -39 -13 -38 -11 -22 -84 3 -15 12 -34 21
-42 23 -23 9 -59 -38 -97 -103 -83 -105 -86 -89 -102 13 -13 25 -14 79 -5 35
5 79 16 98 24 37 16 40 38 5 43 -34 5 -23 40 16 53 23 7 38 21 47 41 14 36 28
22 20 -19 -20 -92 -28 -109 -69 -142 -42 -33 -58 -63 -70 -131 -4 -25 -16 -42
-40 -58 -19 -13 -33 -30 -32 -39 2 -9 -1 -35 -5 -57 -4 -23 -6 -42 -4 -44 11
-11 58 28 72 60 21 47 43 49 76 7 24 -31 25 -31 63 -19 21 7 52 28 70 46 l31
34 47 -14 c26 -8 50 -13 54 -13 4 1 8 -10 10 -25 3 -22 9 -28 28 -28 16 0 24
-6 24 -17 0 -28 -14 -42 -46 -49 -29 -6 -32 -4 -57 55 -15 34 -31 61 -35 61
-32 0 -35 -62 -5 -87 11 -9 12 -16 4 -32 -17 -32 -14 -53 8 -46 14 4 21 -2 31
-24 l12 -29 41 14 c28 10 58 13 90 9 45 -5 47 -5 47 20 0 25 -34 49 -52 38 -5
-2 -8 2 -8 10 0 8 23 28 50 45 28 17 50 38 50 46 0 22 -57 64 -103 76 -72 18
-125 40 -130 54 -7 18 38 102 53 98 6 -1 27 -5 47 -8 20 -3 47 -10 61 -15 30
-12 42 -4 42 27 0 19 5 24 25 24 14 0 34 -5 44 -12 14 -9 26 -8 50 2 32 13 39
24 21 35 -17 11 -11 25 15 37 32 14 32 25 0 40 -17 8 -24 17 -20 27 4 9 7 20
8 25 1 4 -23 17 -53 27 -80 28 -88 42 -18 34 48 -6 65 -3 112 18 50 23 56 29
56 55 0 29 -1 30 -38 25 -27 -4 -42 -1 -51 11 -19 23 -47 20 -69 -9 -19 -24
-22 -25 -73 -14 -39 9 -54 9 -57 0 -2 -6 -10 -11 -17 -11 -24 0 -26 18 -4 39
16 15 30 18 51 14 28 -6 30 -4 23 18 -10 34 -15 38 -58 41 -55 3 -49 28 7 28
36 0 45 -4 49 -21 5 -18 10 -20 34 -14 98 27 149 20 159 -21 3 -13 10 -24 15
-24 12 0 28 41 22 58 -3 6 1 12 8 13 8 0 24 2 37 5 12 2 22 1 23 -4 0 -4 2
-17 5 -28 3 -17 -4 -25 -26 -34 -17 -7 -30 -19 -30 -27 0 -16 51 -10 108 13
26 11 32 18 32 44 0 23 -6 33 -22 39 -13 5 -29 6 -35 4 -7 -3 -13 2 -13 11 0
9 2 16 4 16 2 0 38 7 80 16 75 15 78 15 131 -7 l54 -22 45 37 c32 26 46 45 46
62 0 31 -28 32 -103 3 l-55 -21 -97 25 -97 25 4 -23 c3 -14 -2 -26 -14 -34
-20 -12 -88 -15 -88 -3 -1 26 -17 32 -52 18 -42 -18 -55 -42 -27 -51 32 -11
22 -28 -12 -21 -17 3 -39 6 -48 6 -12 0 -16 11 -18 50 l-2 49 32 -5 32 -5 -37
34 c-29 26 -45 33 -73 32 -49 -3 -69 -23 -56 -58 6 -15 22 -32 35 -38 14 -7
22 -17 19 -25 -7 -19 -21 -18 -73 10 -57 30 -90 22 -90 -24 0 -17 -5 -30 -12
-31 -31 -2 -73 -11 -87 -19 -21 -11 -67 -5 -93 12 -13 8 -30 41 -42 78 -15 45
-30 70 -53 87 l-32 25 -27 -56z m249 -269 c-21 -56 -7 -82 39 -73 20 4 28 2
28 -9 0 -7 -4 -17 -10 -20 -5 -3 -10 -14 -10 -24 0 -21 35 -31 103 -31 38 0
39 -1 24 -18 -10 -10 -17 -30 -17 -44 0 -40 -30 -61 -170 -118 -41 -17 -81
-34 -87 -37 -20 -8 -16 42 5 61 11 9 46 25 79 37 64 21 109 59 100 82 -5 14
-28 15 -84 3 -42 -10 -84 8 -76 31 13 37 24 44 45 29 22 -16 58 -10 58 10 0 7
-12 19 -27 26 -17 8 -27 21 -26 32 0 10 -10 22 -23 28 -13 6 -24 15 -24 20 0
9 81 70 87 65 2 -2 -4 -24 -14 -50z m-188 -7 c3 -5 1 -10 -4 -10 -6 0 -11 5
-11 10 0 6 2 10 4 10 3 0 8 -4 11 -10z m51 -58 c-18 -18 -31 -10 -23 12 4 10
13 13 22 9 15 -5 15 -7 1 -21z m352 -29 c-17 -21 -52 -12 -56 14 -3 20 -1 21
32 11 29 -9 34 -14 24 -25z m126 -124 c-3 -6 -98 -23 -114 -21 -3 1 -6 7 -8
14 -2 11 13 14 62 14 36 0 63 -3 60 -7z m-504 -216 c0 -10 -21 -43 -28 -43 -4
0 -14 4 -22 10 -12 7 -12 12 4 29 15 16 46 20 46 4z"/>
<path d="M2112 3154 c2 -11 11 -20 22 -22 13 -3 17 1 14 14 -2 11 -11 20 -22
22 -13 3 -17 -1 -14 -14z"/>
<path d="M5784 3160 c-30 -12 -34 -22 -20 -42 11 -16 15 -16 34 -2 12 8 22 24
22 35 0 21 -4 22 -36 9z"/>
<path d="M2436 3151 c-4 -5 -2 -12 3 -15 5 -4 12 -2 15 3 4 5 2 12 -3 15 -5 4
-12 2 -15 -3z"/>
<path d="M2220 3136 c0 -2 7 -9 15 -16 12 -10 15 -10 15 4 0 9 -7 16 -15 16
-8 0 -15 -2 -15 -4z"/>
<path d="M5823 3121 c-17 -11 -46 -41 -63 -68 -18 -26 -44 -60 -58 -75 -24
-26 -25 -38 -7 -80 10 -24 -28 -33 -58 -13 -21 14 -25 14 -30 1 -3 -8 4 -27
15 -43 12 -15 23 -29 24 -31 1 -2 14 -5 30 -7 16 -3 44 -7 61 -10 40 -7 113
31 113 58 0 14 -7 17 -35 15 -42 -3 -48 3 -47 43 1 42 10 50 95 79 85 29 94
48 53 111 -29 44 -47 48 -93 20z"/>
<path d="M2530 3111 c-36 -15 -68 -43 -63 -57 13 -34 101 0 101 39 0 24 -11
29 -38 18z"/>
<path d="M5095 3100 c3 -5 8 -10 11 -10 2 0 4 5 4 10 0 6 -5 10 -11 10 -5 0
-7 -4 -4 -10z"/>
<path d="M3506 3040 c-8 -22 -13 -46 -10 -55 5 -13 10 -12 35 6 34 24 39 63
10 78 -16 9 -21 5 -35 -29z"/>
<path d="M5200 3024 c-14 -35 -13 -42 8 -46 18 -4 47 46 36 63 -11 18 -35 9
-44 -17z"/>
<path d="M4037 3024 c-9 -10 4 -34 18 -34 23 0 27 18 7 29 -11 6 -22 8 -25 5z"/>
<path d="M360 2976 c-5 -13 -18 -27 -29 -31 -12 -3 -21 -11 -21 -16 0 -13 29
-69 35 -69 3 0 21 10 40 23 28 17 35 29 35 54 0 17 -3 38 -6 47 -9 25 -43 19
-54 -8z"/>
<path d="M3978 2934 c-23 -54 -15 -71 25 -53 22 10 27 19 27 50 0 58 -26 60
-52 3z"/>
<path d="M2203 2963 c-7 -3 -13 -14 -13 -24 0 -16 6 -20 27 -17 15 2 27 10 29
20 2 17 -21 28 -43 21z"/>
<path d="M1212 2921 c-15 -11 -19 -20 -13 -30 8 -12 13 -12 35 3 14 9 26 20
26 25 0 17 -27 19 -48 2z"/>
<path d="M5058 2917 c-27 -6 -48 -14 -48 -18 0 -4 -7 -15 -16 -24 -13 -13 -14
-19 -5 -28 7 -7 16 -13 22 -13 5 -1 11 -2 14 -3 3 0 1 -10 -5 -21 -12 -23 -59
-37 -105 -32 l-33 4 14 33 c13 32 13 34 -5 30 -37 -7 -59 -25 -70 -56 -16 -46
-15 -49 22 -49 27 0 35 -6 50 -39 18 -39 21 -68 11 -95 -9 -23 -34 -1 -27 23
3 12 -5 25 -25 40 -28 19 -35 20 -79 10 -59 -14 -76 -22 -81 -38 -3 -10 5 -12
32 -9 35 4 37 3 47 -36 18 -65 19 -76 9 -102 -6 -14 -18 -24 -29 -24 -42 0
-34 -66 13 -113 43 -43 28 -62 -24 -32 -14 8 -35 14 -47 15 -21 0 -22 -3 -17
-46 l5 -45 -30 15 c-36 19 -51 55 -27 68 30 17 57 51 47 61 -16 16 -79 -2
-101 -30 -16 -21 -20 -22 -20 -8 0 28 73 91 140 122 39 18 60 33 60 44 0 15
-5 16 -31 9 -18 -5 -48 -18 -68 -28 -20 -10 -53 -18 -74 -18 -28 1 -39 -4 -43
-18 -8 -26 -6 -115 4 -151 17 -61 -4 -82 -44 -44 -29 27 -94 20 -94 -11 0 -39
11 -50 52 -50 29 0 45 -6 62 -25 27 -29 38 -31 71 -9 21 14 27 14 62 -4 21
-10 47 -17 58 -15 17 3 15 0 -8 -20 -43 -36 -19 -77 26 -43 9 7 17 19 17 26 0
9 11 11 40 6 33 -5 42 -3 47 11 7 18 22 33 36 33 4 0 4 -24 1 -53 -11 -94 34
-136 55 -52 l11 45 38 -16 c20 -9 43 -18 51 -22 11 -4 13 0 7 19 -19 69 -19
79 1 79 14 0 24 -11 33 -40 16 -47 34 -48 38 -1 3 27 7 32 25 29 16 -2 22 -10
22 -27 0 -20 -9 -27 -54 -44 -29 -11 -69 -36 -89 -54 -37 -36 -51 -40 -70 -21
-15 15 -17 13 -44 -59 l-23 -61 -55 24 c-72 31 -90 31 -90 -1 0 -16 9 -29 28
-39 23 -13 24 -15 7 -16 -11 0 -36 5 -57 10 -28 8 -39 18 -47 43 -10 27 -9 34
6 44 9 7 26 13 37 13 12 0 33 6 48 14 24 13 27 12 31 -4 5 -19 30 -21 47 -4 5
5 12 30 15 55 l6 46 -121 -23 c-101 -19 -126 -21 -155 -11 -45 16 -99 67 -122
117 -14 31 -23 40 -44 40 -20 0 -28 -6 -33 -25 -11 -45 4 -69 80 -124 41 -30
74 -59 74 -63 0 -12 -96 -56 -138 -64 -40 -8 -56 -33 -42 -68 10 -27 40 -27
40 -1 0 25 19 26 45 3 41 -35 65 -42 65 -17 0 28 19 61 30 54 15 -10 -13 -66
-53 -107 -21 -20 -37 -45 -37 -56 0 -11 -8 -22 -17 -24 -15 -4 -18 2 -18 31 0
29 -4 36 -20 36 -26 0 -31 -31 -9 -56 16 -18 16 -19 -3 -19 -10 0 -28 7 -39
15 -30 23 -42 18 -53 -22 -6 -21 -18 -48 -26 -61 -15 -21 -15 -25 5 -56 12
-20 40 -44 66 -56 46 -23 58 -55 20 -55 -33 0 -29 -23 13 -86 46 -69 45 -64
29 -126 l-11 -46 -60 7 c-72 7 -152 42 -196 85 -37 36 -51 33 -51 -10 0 -46
17 -69 50 -69 25 0 30 -6 43 -42 l14 -43 66 0 c37 0 67 -3 67 -7 0 -9 -76 -21
-97 -14 -44 12 -123 17 -124 7 -1 -6 -2 -15 -3 -20 -1 -5 30 -30 68 -55 51
-36 74 -46 92 -42 26 7 33 36 9 36 -8 0 -15 7 -15 15 0 20 19 19 57 -5 35 -21
51 -48 77 -127 19 -57 15 -55 140 -72 37 -6 70 -12 72 -14 3 -2 -19 -13 -47
-24 -54 -20 -69 -43 -43 -64 17 -14 72 0 145 36 50 26 68 43 73 71 2 11 7 32
11 47 11 40 -16 64 -86 78 -32 6 -73 22 -90 35 l-32 23 27 12 c21 10 40 10 91
0 78 -16 93 -11 135 40 32 41 33 41 84 35 28 -3 88 -9 134 -12 77 -6 84 -5
120 19 89 62 93 69 90 127 l-3 54 -80 48 c-44 26 -84 49 -90 51 -5 2 3 15 19
28 35 31 55 102 46 170 -5 40 -4 50 10 54 10 3 25 14 34 24 13 15 24 17 58 11
43 -8 65 -7 111 5 22 6 27 13 28 39 0 36 5 74 17 137 l9 45 -72 39 -72 38 20
51 c11 28 22 53 24 55 2 3 41 -15 87 -38 88 -45 93 -52 59 -93 -21 -23 -2 -54
37 -60 28 -4 30 -2 31 26 5 141 31 219 91 265 26 21 26 21 12 79 -7 31 -13 60
-14 65 0 16 54 5 116 -24 97 -46 101 -40 91 158 -1 23 -7 47 -14 54 -18 18
-54 -1 -69 -37 -8 -19 -21 -34 -29 -34 -20 0 -19 6 5 40 l19 27 -69 27 c-39
15 -70 32 -70 37 0 30 84 35 205 11 22 -4 46 -7 53 -6 6 1 19 2 27 3 28 2 15
18 -36 41 -28 13 -69 43 -92 67 -53 55 -74 56 -68 6 3 -20 -13 -15 -38 11 -27
29 -49 25 -109 -18 -48 -34 -71 -29 -84 15 -19 71 -24 83 -35 86 -7 3 -15 -8
-19 -22 -6 -25 -10 -27 -44 -22 -68 9 -108 35 -147 98 -20 33 -36 58 -37 58
-1 -1 -22 -6 -48 -12z m152 -174 c0 -21 -14 -45 -25 -45 -13 0 -23 23 -18 43
7 24 43 25 43 2z m100 -83 c0 -11 -7 -20 -15 -20 -17 0 -18 2 -9 24 9 23 24
20 24 -4z m-260 -8 c0 -5 -6 -16 -13 -27 -18 -24 -41 -11 -27 16 10 19 40 27
40 11z m208 -53 c-2 -6 -8 -10 -13 -10 -5 0 -11 4 -13 10 -2 6 4 11 13 11 9 0
15 -5 13 -11z m132 1 c0 -5 -7 -10 -15 -10 -8 0 -15 5 -15 10 0 6 7 10 15 10
8 0 15 -4 15 -10z m-242 -16 c12 -8 22 -22 22 -30 0 -30 -51 -7 -63 29 -8 21
11 22 41 1z m-262 -55 c20 -7 34 -7 50 1 28 16 117 -22 108 -45 -4 -8 -7 -15
-8 -15 0 0 -25 7 -55 15 -52 13 -54 13 -72 -8 -27 -32 -23 -47 11 -47 17 0 30
-4 30 -8 0 -15 -83 -102 -96 -102 -14 0 -17 15 -15 85 2 50 12 135 16 135 2 0
16 -5 31 -11z m502 -46 c2 -1 1 -10 -2 -20 -4 -13 -17 -19 -50 -20 -41 -2 -46
0 -65 33 -28 48 -26 53 8 20 33 -32 51 -28 51 11 l0 26 28 -24 c15 -13 29 -25
30 -26z m-268 -29 c0 -23 3 -25 30 -19 51 11 66 0 69 -49 1 -37 -2 -47 -25
-65 -16 -12 -24 -27 -21 -35 5 -13 12 -14 53 -1 45 13 48 13 65 -8 27 -32 25
-38 -29 -75 -36 -25 -66 -23 -55 4 7 20 -15 36 -40 28 -11 -4 -24 1 -32 12
-11 16 -10 20 3 30 14 10 14 16 4 38 -6 14 -18 26 -27 26 -26 0 -18 39 10 46
40 10 29 24 -18 24 -77 0 -111 -55 -51 -82 l23 -11 -31 -44 c-21 -29 -37 -42
-47 -38 -8 3 -37 13 -63 22 -26 8 -48 18 -48 22 1 3 30 28 67 56 36 27 84 71
107 97 22 26 44 48 49 48 4 0 7 -12 7 -26z m350 6 c-11 -20 -30 -28 -30 -12 0
11 22 32 32 32 5 0 4 -9 -2 -20z m76 -25 c4 -8 3 -23 0 -32 -6 -15 -8 -15 -23
-1 -16 17 -12 48 7 48 6 0 13 -7 16 -15z m131 -37 c-16 -10 -21 -2 -13 19 6
15 9 15 16 3 6 -9 5 -17 -3 -22z m-484 -304 c12 -13 -24 -65 -65 -92 -22 -15
-47 -31 -54 -37 -9 -6 -18 -5 -26 4 -11 11 -10 14 2 19 8 3 39 29 68 58 53 54
63 60 75 48z m-140 -166 c25 3 85 -62 67 -73 -15 -9 -12 -36 7 -57 15 -17 15
-20 -6 -41 -22 -24 -109 -72 -116 -65 -3 2 -5 18 -7 36 -2 26 -6 32 -26 32
-13 0 -33 -5 -45 -11 -18 -10 -24 -8 -43 15 -16 18 -30 25 -46 22 -13 -3 -27
-5 -31 -5 -24 -3 67 -92 166 -164 15 -10 17 -20 12 -50 -7 -35 -9 -37 -45 -37
l-38 0 5 40 c5 33 3 40 -11 40 -10 0 -23 6 -30 13 -27 28 -77 109 -77 125 0 9
1 31 2 49 1 39 22 61 43 44 20 -17 59 5 121 68 46 47 51 50 63 34 7 -10 23
-17 35 -15z m174 -8 c38 -9 41 -13 38 -38 -2 -15 -4 -30 -4 -34 -1 -10 -37
-10 -78 -2 -27 5 -30 10 -32 51 -1 38 1 44 16 39 10 -3 37 -10 60 -16z m-613
-180 c-1 -8 -3 -18 -3 -23 -1 -8 -39 -24 -74 -31 -12 -2 -34 -10 -50 -17 -20
-9 -30 -10 -39 -1 -8 8 -4 22 17 52 23 33 33 40 60 40 26 0 33 4 30 18 -1 9
-1 20 1 24 7 11 60 -46 58 -62z m178 -123 c-5 -7 -13 -26 -16 -43 -6 -28 -11
-31 -48 -32 -62 -3 -119 -23 -116 -41 2 -8 14 -18 28 -21 23 -5 23 -6 -14 -24
-31 -14 -37 -22 -32 -39 3 -12 6 -28 6 -34 0 -9 16 -13 45 -13 34 0 47 -5 55
-20 8 -15 21 -20 49 -20 34 0 40 4 50 30 10 29 12 30 73 30 80 0 129 -14 157
-44 21 -22 21 -24 4 -41 -16 -17 -18 -16 -44 15 -24 29 -30 31 -56 23 -23 -8
-28 -16 -29 -42 -1 -22 6 -37 20 -46 33 -23 8 -38 -45 -26 -24 5 -72 9 -106 8
-62 0 -72 4 -133 53 -24 20 -28 20 -63 5 -77 -32 -137 -5 -151 69 -4 20 -16
46 -26 56 -24 24 -17 86 10 93 14 4 17 -2 17 -33 0 -52 8 -60 59 -60 38 0 44
-3 44 -20 0 -14 6 -20 18 -18 19 3 30 28 31 75 1 33 -21 55 -46 46 -9 -3 -13
5 -13 24 0 21 14 44 48 81 46 51 48 52 82 42 26 -7 39 -7 55 4 17 12 25 11 58
-6 27 -14 36 -23 29 -31z m-402 14 c0 -6 -4 -13 -10 -16 -5 -3 -10 1 -10 9 0
9 5 16 10 16 6 0 10 -4 10 -9z m394 -195 l14 -47 -36 3 c-33 3 -37 6 -34 27 4
25 32 75 38 68 2 -2 10 -25 18 -51z m-361 -331 c7 -18 -6 -27 -27 -19 -17 7
-20 16 -9 27 11 12 31 8 36 -8z m44 -118 c-6 -19 -37 -16 -37 3 0 13 5 17 20
13 12 -3 19 -10 17 -16z"/>
<path d="M4984 2287 c3 -12 5 -25 5 -29 1 -5 8 -8 16 -8 10 0 15 10 15 28 0
21 -5 28 -20 29 -15 1 -19 -3 -16 -20z"/>
<path d="M4956 1865 c4 -8 7 -15 9 -15 2 0 5 7 9 15 3 9 0 15 -9 15 -9 0 -12
-6 -9 -15z"/>
<path d="M4887 1800 c6 -23 31 -46 40 -36 3 3 1 17 -5 31 -14 30 -43 35 -35 5z"/>
<path d="M4733 1627 c19 -28 37 -33 37 -9 0 13 -8 21 -25 25 -24 4 -25 3 -12
-16z"/>
<path d="M4452 1393 c2 -11 14 -19 31 -21 29 -4 35 6 15 26 -19 19 -50 15 -46
-5z"/>
<path d="M659 2906 c-2 -3 -16 -7 -29 -9 -42 -9 -54 -17 -82 -57 -22 -32 -26
-44 -18 -64 8 -22 12 -24 37 -15 45 15 127 95 129 124 0 17 -4 25 -16 25 -9 0
-19 -2 -21 -4z"/>
<path d="M5172 2876 c2 -19 9 -30 21 -32 23 -3 22 19 -4 42 -21 19 -21 19 -17
-10z"/>
<path d="M4731 2872 c-16 -30 -14 -42 8 -42 25 0 33 23 17 46 -13 17 -14 16
-25 -4z"/>
<path d="M468 2863 c-15 -4 -48 -59 -48 -81 0 -5 -7 -15 -15 -22 -13 -11 -17
-8 -26 19 -6 17 -13 31 -15 31 -21 0 -73 -33 -88 -54 -16 -25 -19 -26 -35 -12
-15 14 -20 14 -51 -2 -48 -24 -45 -46 6 -52 25 -3 55 -16 74 -32 32 -26 34
-27 68 -12 36 15 51 8 52 -23 1 -61 102 105 118 195 10 55 8 58 -40 45z"/>
<path d="M5249 2839 c-7 -13 -7 -25 -2 -30 13 -13 58 24 49 39 -11 19 -34 14
-47 -9z"/>
<path d="M1107 2804 c-8 -8 1 -24 14 -24 5 0 9 7 9 15 0 15 -12 20 -23 9z"/>
<path d="M1980 2750 c0 -11 -4 -20 -10 -20 -16 0 -11 -40 6 -47 8 -3 26 -1 39
5 20 9 22 16 16 38 -9 34 -51 54 -51 24z"/>
<path d="M5440 2755 c7 -8 16 -12 21 -9 13 8 1 24 -18 24 -13 0 -13 -3 -3 -15z"/>
<path d="M2161 2733 c-26 -32 -22 -37 24 -29 39 8 46 29 16 46 -16 8 -23 5
-40 -17z"/>
<path d="M535 2718 c-44 -24 -65 -53 -76 -104 -10 -46 -16 -54 -35 -54 -42 0
-94 -31 -94 -57 0 -18 5 -23 26 -23 17 0 28 -6 31 -19 3 -12 25 -26 58 -39
l54 -19 31 26 c17 14 46 55 63 91 21 43 44 73 67 88 19 13 36 27 38 33 6 15
-40 10 -102 -12 -73 -25 -90 -15 -54 33 45 61 43 84 -7 56z"/>
<path d="M2055 2696 c-29 -21 -30 -22 -18 -66 6 -25 12 -61 12 -80 1 -35 -1
-37 -85 -80 -87 -46 -106 -61 -110 -86 -3 -19 16 -17 51 6 27 18 32 18 52 4
26 -16 45 -10 80 28 27 28 62 105 63 135 0 27 9 33 61 38 48 5 62 15 57 41 -2
13 -13 20 -35 22 -20 2 -37 12 -47 26 -21 32 -46 36 -81 12z"/>
<path d="M3390 2699 c0 -19 4 -21 32 -15 37 7 42 11 33 25 -3 6 -19 11 -36 11
-23 0 -29 -4 -29 -21z"/>
<path d="M3750 2640 c0 -5 5 -10 11 -10 5 0 7 5 4 10 -3 6 -8 10 -11 10 -2 0
-4 -4 -4 -10z"/>
<path d="M900 2607 c0 -22 16 -47 30 -47 4 0 17 9 30 20 l23 20 -36 15 c-47
19 -47 19 -47 -8z"/>
<path d="M2387 2610 c-21 -12 -101 -63 -178 -115 l-140 -94 21 -21 c22 -22 20
-53 -2 -48 -7 1 -25 -1 -40 -5 -28 -7 -62 -65 -74 -125 -6 -29 -8 -31 -20 -15
-18 24 -17 43 3 66 17 18 17 20 -5 37 -27 22 -28 30 -2 25 16 -3 20 2 20 21 0
28 -27 33 -37 7 -16 -44 -79 -132 -125 -174 -45 -41 -49 -48 -39 -68 12 -22
39 -22 67 0 16 13 24 0 24 -36 0 -34 -29 -86 -30 -52 0 10 -8 17 -20 17 -16 0
-20 -7 -20 -36 0 -19 5 -44 11 -55 10 -19 68 -79 76 -79 2 0 19 16 38 35 30
32 33 39 23 60 -6 14 -19 27 -30 30 -27 9 -22 35 7 35 55 0 75 13 75 50 0 34
10 38 34 11 14 -16 23 -17 64 -9 l48 10 0 79 c0 88 -9 97 -52 54 -24 -24 -44
-32 -44 -17 1 14 36 49 95 92 33 24 65 50 71 58 6 8 19 12 30 10 16 -3 19 -11
17 -56 -1 -42 2 -52 15 -52 13 0 17 -11 19 -48 l1 -47 -15 43 c-8 23 -20 42
-26 42 -7 0 -23 -17 -37 -37 -14 -20 -33 -44 -43 -53 -15 -15 -16 -19 -3 -29
11 -9 12 -20 5 -43 -18 -65 -59 -109 -146 -159 l-54 -31 23 -23 c13 -13 30
-24 38 -25 37 -6 68 2 88 20 25 23 42 26 42 6 0 -7 14 -16 31 -20 51 -10 69
-7 69 11 0 20 60 123 72 123 21 0 -8 -72 -46 -115 -36 -40 -66 -99 -66 -129 0
-31 -17 -34 -137 -22 -94 10 -97 11 -96 54 1 18 -21 15 -51 -9 -23 -18 -27
-18 -31 -5 -3 9 -7 23 -10 32 -10 30 -22 3 -29 -62 -12 -117 -45 -154 -137
-154 -50 0 -57 -3 -63 -22 -9 -35 -9 -35 32 -44 61 -13 72 -12 97 8 38 29 38
4 0 -34 -54 -54 -27 -104 33 -62 25 17 29 13 41 -49 13 -62 76 -34 87 39 8 53
10 53 18 0 9 -53 -1 -79 -26 -73 -29 8 -34 -20 -9 -47 20 -22 21 -25 6 -66
-19 -53 -19 -60 0 -60 8 0 15 -4 15 -9 0 -15 31 -42 41 -36 5 4 9 15 9 26 0
19 1 19 26 3 22 -15 27 -15 35 -3 14 22 11 37 -11 59 -35 35 -17 78 19 46 15
-14 20 -14 30 -3 22 28 71 240 71 312 l0 70 51 46 c46 41 51 50 53 91 1 31 9
54 26 75 14 17 30 38 35 47 9 15 25 22 58 25 15 2 6 51 -12 63 -18 11 -18 13
6 67 34 75 63 160 63 183 0 11 -7 18 -17 18 -12 0 -30 -24 -53 -73 -25 -51
-57 -95 -112 -151 -80 -81 -106 -91 -99 -40 6 55 38 102 83 123 62 29 87 54
91 92 5 46 23 78 103 184 60 78 68 93 59 113 -16 37 -40 26 -65 -30 -37 -81
-98 -174 -125 -192 -22 -14 -25 -14 -25 -1 0 8 11 22 25 31 22 14 25 23 25 79
0 57 4 69 50 145 45 76 56 110 33 110 -5 0 -25 -9 -46 -20z m-73 -102 c-19
-34 -26 -38 -41 -27 -11 10 -10 14 9 24 30 17 41 18 32 3z m-121 -108 c-16
-28 -33 -39 -33 -23 0 7 41 53 47 53 2 0 -4 -13 -14 -30z m-281 -312 c-10 -22
-11 -21 -11 12 -1 26 2 31 11 22 8 -8 8 -17 0 -34z m61 -398 c6 -22 -7 -35
-23 -25 -15 9 -12 45 4 45 7 0 16 -9 19 -20z m112 -20 c3 -11 9 -19 13 -19 35
5 41 -1 30 -33 -17 -50 -54 -95 -104 -124 -25 -15 -47 -24 -50 -22 -2 3 0 27
5 54 6 27 12 69 15 93 3 25 13 49 23 57 27 20 61 17 68 -6z"/>
<path d="M2569 2628 c-4 -9 -9 -133 -10 -255 -1 -79 -5 -140 -9 -138 -5 3 -20
0 -33 -6 -39 -18 -90 -159 -58 -159 20 0 100 110 96 132 -3 11 -1 18 3 14 4
-4 12 -32 18 -62 8 -42 8 -57 -2 -65 -8 -7 -14 -7 -19 1 -3 5 -14 10 -23 10
-15 0 -17 -15 -17 -130 0 -122 3 -135 28 -131 4 0 7 -2 8 -6 0 -5 2 -23 4 -42
5 -43 17 -56 42 -42 17 9 22 5 36 -25 10 -19 17 -41 17 -48 0 -18 -23 -27 -41
-15 -23 14 -39 10 -39 -9 0 -12 17 -27 47 -43 25 -13 50 -31 54 -39 29 -57 35
-78 28 -104 -13 -47 -25 -144 -27 -225 -2 -47 -9 -51 -16 -10 -4 27 -15 27
-63 2 -18 -10 -34 -15 -37 -13 -3 4 -11 57 -15 100 -1 8 -45 5 -58 -3 -13 -8
16 -130 35 -149 7 -7 7 -20 -1 -42 l-11 -31 -6 30 c-7 39 -47 45 -56 9 -3 -13
-11 -24 -16 -24 -5 0 -8 -8 -6 -17 2 -12 13 -18 33 -18 25 -1 30 -5 37 -37 4
-19 17 -52 29 -72 17 -30 24 -34 36 -25 16 14 16 102 -1 156 -8 30 -6 36 20
63 16 16 32 30 35 30 3 0 9 -29 13 -64 4 -46 2 -76 -8 -103 -27 -72 -13 -92
36 -49 46 39 74 115 82 224 4 58 11 60 26 8 10 -37 15 -43 33 -38 12 3 25 9
28 14 6 9 1 171 -6 213 -2 11 -4 46 -4 78 -1 54 -2 57 -26 57 -18 0 -26 7 -31
25 -3 14 -16 32 -28 40 -20 15 -20 17 -6 43 22 38 3 129 -19 93 -6 -9 -13 -6
-27 16 -36 52 -56 105 -45 116 6 6 11 19 11 29 0 19 35 42 54 35 20 -8 76 84
65 106 -11 20 -35 23 -42 5 -3 -7 -6 -3 -6 8 -1 22 -23 38 -35 27 -3 -4 -6
-17 -6 -30 0 -12 -4 -23 -10 -23 -15 0 -12 20 10 85 24 70 25 106 4 151 -12
26 -21 33 -35 29 -15 -5 -17 -2 -13 17 10 47 12 159 3 192 -5 18 -18 44 -28
58 -17 21 -17 26 -5 43 19 26 18 35 -6 35 -11 0 -21 -1 -21 -2z m31 -685 c0
-21 -5 -45 -10 -53 -7 -11 -10 0 -10 38 0 28 5 52 10 52 6 0 10 -17 10 -37z
m77 -805 c-3 -7 -5 -2 -5 12 0 14 2 19 5 13 2 -7 2 -19 0 -25z"/>
<path d="M4666 2574 c-8 -22 -8 -24 8 -24 7 0 19 6 25 14 9 11 8 15 -5 20 -21
8 -21 8 -28 -10z"/>
<path d="M2137 2530 c-4 -15 0 -20 14 -20 17 0 18 3 9 20 -6 11 -12 20 -14 20
-2 0 -6 -9 -9 -20z"/>
<path d="M4360 2543 c-8 -2 -37 -13 -65 -24 -27 -10 -66 -21 -85 -23 -32 -3
-36 -8 -63 -72 -63 -150 -67 -158 -78 -147 -8 8 -7 17 1 33 15 29 8 34 -36 26
-29 -6 -35 -11 -31 -27 7 -26 -3 -24 -57 9 -32 19 -45 34 -46 50 0 12 -6 22
-12 23 -7 0 -22 2 -33 4 -54 11 -100 13 -120 5 -18 -7 -21 -15 -20 -55 1 -58
-18 -70 -49 -30 -16 20 -28 26 -40 22 -16 -6 -17 -10 -4 -30 8 -12 32 -50 52
-84 43 -70 59 -79 113 -64 56 16 88 13 114 -8 29 -23 49 -15 95 38 30 34 34
35 115 41 l84 5 3 38 c3 38 9 44 49 50 30 4 36 12 48 55 8 28 17 38 35 40 13
2 40 20 61 40 31 30 37 42 32 65 -5 27 -24 33 -63 20z m-125 -123 c3 -5 -1
-10 -9 -10 -9 0 -16 5 -16 10 0 6 4 10 9 10 6 0 13 -4 16 -10z"/>
<path d="M3727 2502 c-29 -18 -31 -35 -3 -40 22 -5 66 24 66 43 0 20 -28 19
-63 -3z"/>
<path d="M866 2449 c-32 -25 -34 -43 -3 -35 19 4 25 0 34 -25 17 -43 33 -27
33 32 0 41 -3 49 -19 49 -10 0 -30 -9 -45 -21z"/>
<path d="M3620 2446 c0 -17 5 -26 16 -26 10 0 14 7 12 22 -5 32 -28 35 -28 4z"/>
<path d="M2926 2371 c0 -48 -6 -113 -13 -142 -8 -30 -11 -70 -8 -89 15 -82
118 -247 136 -218 5 7 9 9 9 3 1 -5 3 -39 5 -75 2 -36 7 -89 10 -117 7 -55 6
-57 -18 -47 -13 4 -13 11 -5 36 10 29 9 33 -21 57 -27 22 -31 31 -26 54 11 42
-3 97 -23 97 -13 0 -20 -15 -30 -65 -17 -90 -16 -95 13 -95 18 0 25 -5 25 -20
0 -37 30 -94 71 -136 l41 -41 -21 -69 c-11 -38 -22 -84 -25 -102 -4 -32 -3
-34 22 -27 35 9 34 8 38 56 4 48 11 60 20 33 4 -10 19 -37 34 -59 38 -56 42
-72 29 -114 -15 -50 1 -91 36 -91 19 0 25 5 25 20 0 15 12 26 43 39 l42 19 30
-33 c17 -18 71 -53 120 -78 50 -25 100 -55 112 -66 23 -22 48 -27 57 -12 4 5
-28 40 -69 77 -41 37 -72 71 -68 75 5 5 25 9 46 11 21 1 37 7 37 14 0 45 -54
111 -76 93 -7 -6 -15 -6 -18 -1 -3 5 -36 30 -73 55 -38 26 -74 55 -81 67 -9
16 -31 123 -32 163 0 9 -32 9 -54 1 -22 -9 -20 -31 10 -104 29 -71 33 -112 14
-135 -20 -24 -31 -3 -18 33 12 30 11 34 -14 55 -18 15 -32 41 -42 80 -13 53
-13 58 3 70 34 24 33 37 -3 79 -20 23 -36 47 -36 54 0 9 -11 11 -35 7 -37 -6
-65 9 -65 33 0 8 7 14 15 14 8 0 15 -4 15 -10 0 -5 9 -10 20 -10 11 0 20 1 20
3 0 13 -66 236 -86 292 -14 39 -28 78 -31 88 -11 37 -43 2 -43 -47 0 -14 -4
-26 -9 -26 -22 0 -22 24 0 65 22 41 22 44 6 69 -15 22 -16 35 -7 88 5 35 10
70 10 79 0 14 -37 39 -58 39 -4 0 -7 -40 -6 -89z m546 -1081 c30 -30 26 -36
-19 -24 -12 3 -23 16 -26 30 -6 32 7 30 45 -6z"/>
<path d="M1730 2439 c-26 -10 -66 -56 -56 -66 3 -3 19 -7 35 -8 26 -2 31 2 36
26 4 16 11 31 16 34 11 7 12 25 2 24 -5 0 -19 -5 -33 -10z"/>
<path d="M1793 2433 c-15 -5 -18 -53 -4 -53 23 0 62 21 59 32 -5 14 -39 27
-55 21z"/>
<path d="M256 2385 c-21 -27 -26 -42 -20 -55 8 -17 12 -17 47 -3 42 17 47 38
19 73 l-18 22 -28 -37z"/>
<path d="M720 2365 c0 -30 20 -95 29 -95 15 0 37 35 36 55 -4 45 -15 63 -40
61 -18 -1 -25 -7 -25 -21z"/>
<path d="M2494 2382 c-16 -11 -49 -71 -42 -78 7 -6 45 11 71 34 35 30 9 70
-29 44z"/>
<path d="M5588 2323 c-5 -9 -4 -16 6 -66 6 -30 14 -41 39 -52 56 -23 69 -2 45
76 -6 22 -16 39 -22 40 -6 0 -23 3 -38 5 -14 2 -28 1 -30 -3z"/>
<path d="M2800 2306 c0 -9 7 -16 16 -16 17 0 14 22 -4 28 -7 2 -12 -3 -12 -12z"/>
<path d="M424 2289 c-10 -12 -30 -25 -43 -31 l-25 -9 35 -35 c22 -22 41 -33
51 -29 15 6 64 102 55 111 -16 16 -56 12 -73 -7z"/>
<path d="M3142 2248 c4 -46 36 -52 34 -6 -1 23 -7 34 -19 36 -15 3 -18 -2 -15
-30z"/>
<path d="M554 2240 c-12 -4 -24 -15 -27 -24 -4 -9 -14 -16 -24 -16 -33 -1 -64
-26 -92 -75 -23 -40 -27 -54 -18 -72 17 -38 44 -29 51 17 4 25 12 40 21 40 8
0 26 5 40 12 19 9 25 19 25 44 0 28 3 31 21 27 15 -4 27 0 35 12 28 38 14 54
-32 35z"/>
<path d="M646 2227 c-51 -29 -57 -47 -17 -47 34 0 36 -2 21 -31 -10 -18 -13
-18 -33 -4 -12 8 -31 15 -44 15 -19 0 -22 -6 -25 -47 -3 -43 -5 -47 -34 -55
-20 -5 -31 -14 -31 -25 0 -36 -4 -42 -33 -48 -35 -8 -44 -45 -10 -45 16 0 19
-5 14 -30 -6 -26 -4 -30 16 -30 19 0 21 -4 15 -22 -8 -28 -9 -38 -4 -58 3 -10
-3 -14 -16 -13 -11 1 -37 -3 -58 -9 -34 -10 -38 -14 -32 -37 17 -66 55 -67
115 -5 35 35 50 44 70 41 15 -3 41 5 69 21 39 23 44 24 53 9 5 -10 16 -17 25
-17 16 0 114 75 121 92 11 25 21 -1 27 -67 9 -97 4 -116 -51 -167 -53 -50 -83
-106 -63 -119 7 -4 16 -6 20 -4 3 3 4 -7 1 -20 -11 -57 17 -88 87 -97 38 -5
43 -38 27 -208 -6 -76 18 -97 70 -63 25 16 27 16 46 -8 56 -70 77 -103 83
-130 10 -44 39 -35 43 13 3 29 7 36 23 35 10 -1 18 -6 18 -12 -1 -5 -1 -37 0
-70 1 -58 2 -61 32 -72 29 -11 34 -10 76 25 40 34 43 40 39 74 -2 20 -16 52
-30 71 -28 36 -27 63 2 71 62 16 124 27 129 22 8 -8 -17 -36 -33 -36 -29 0
-45 -71 -24 -111 12 -22 60 -49 87 -49 23 0 65 144 71 244 4 62 2 68 -13 62
-9 -3 -20 -6 -24 -6 -4 0 -13 -15 -19 -34 -7 -19 -19 -37 -27 -40 -19 -7 -19
4 1 32 34 49 -6 110 -42 65 -14 -16 -15 -14 -10 24 6 40 5 42 -24 48 -16 4
-34 4 -40 0 -13 -8 -13 -44 1 -85 9 -26 9 -34 -2 -41 -14 -8 -132 -49 -144
-49 -12 0 12 89 41 155 17 39 27 165 13 165 -14 0 -39 -31 -45 -56 -5 -19 -13
-24 -39 -24 -18 0 -40 -3 -49 -6 -27 -10 -18 13 24 61 22 26 38 51 34 56 -4 6
12 9 41 7 55 -3 65 8 36 43 l-19 24 -31 -23 c-17 -12 -31 -18 -31 -13 0 5 5
13 10 16 15 9 12 58 -4 81 -14 18 -15 18 -21 -11 -13 -58 -36 -122 -50 -141
-14 -18 -14 -17 -15 11 0 45 10 72 30 81 17 8 17 12 4 49 -16 47 -18 84 -5
119 9 21 6 28 -25 51 -19 14 -46 30 -62 36 l-27 9 3 185 c2 172 1 184 -15 178
-44 -15 -72 -62 -98 -164 -20 -77 -22 -80 -40 -72 -11 4 -15 22 -15 68 0 60
-15 95 -40 95 -4 0 -11 12 -15 28 -8 34 -33 62 -54 62 -9 0 -34 -10 -55 -23z
m107 -99 c-18 -80 -25 -98 -38 -98 -8 0 -16 3 -16 8 -11 69 5 112 40 112 15 0
18 -5 14 -22z m-123 -92 c-4 -19 -5 -37 -2 -41 6 -6 -37 -55 -49 -55 -16 0 4
96 23 113 30 25 37 21 28 -17z m149 -67 c18 -40 18 -79 -1 -79 -5 0 -21 12
-35 26 -24 24 -35 26 -74 10 -11 -5 -19 1 -27 19 -14 30 -10 41 17 48 14 3 22
-1 26 -13 8 -26 34 -33 42 -12 7 19 23 42 30 42 2 0 12 -18 22 -41z m146 21
c14 -15 15 -20 4 -20 -8 0 -24 -3 -37 -6 -21 -6 -22 -5 -11 20 15 31 20 32 44
6z m11 -98 c-4 -54 -14 -68 -32 -45 -19 26 -17 42 9 64 12 10 23 18 24 19 1 0
1 -17 -1 -38z m90 -169 c-4 -21 -13 -85 -22 -168 -4 -33 -7 -95 -6 -138 l0
-78 -36 -15 c-25 -10 -38 -11 -42 -3 -9 13 15 84 40 119 19 26 18 69 -1 71 -5
1 -13 2 -19 3 -22 2 -11 22 20 38 l33 17 -26 12 c-15 7 -27 16 -27 21 0 30 63
136 82 137 4 1 5 -7 4 -16z m-147 -126 c-1 -18 1 -41 4 -53 5 -14 1 -28 -11
-42 -19 -22 -19 -22 -41 -3 -18 16 -20 23 -12 40 6 11 19 24 28 29 10 6 16 21
15 41 0 18 4 29 9 25 5 -3 9 -20 8 -37z m253 -325 c8 -9 6 -18 -7 -32 -19 -20
-19 -20 -36 7 -9 15 -20 39 -24 52 l-7 23 32 -18 c17 -11 36 -25 42 -32z"/>
<path d="M1800 2225 c0 -8 7 -15 15 -15 8 0 15 7 15 15 0 8 -7 15 -15 15 -8 0
-15 -7 -15 -15z"/>
<path d="M802 2193 c2 -23 8 -29 36 -31 38 -4 41 6 9 36 -32 30 -49 28 -45 -5z"/>
<path d="M2737 2194 c-9 -10 4 -34 19 -34 8 0 14 9 14 20 0 19 -19 27 -33 14z"/>
<path d="M3269 2159 c-18 -25 -20 -39 -15 -77 8 -60 18 -69 58 -54 20 7 36 8
41 3 14 -14 1 -39 -21 -43 -16 -2 -17 -8 -10 -34 10 -38 41 -50 60 -23 13 18
15 18 61 -12 52 -35 57 -47 27 -74 -16 -14 -23 -16 -32 -7 -7 7 -29 12 -50 12
-36 0 -38 -2 -38 -30 0 -27 8 -35 26 -27 4 1 13 -23 21 -53 8 -34 37 -90 74
-145 34 -52 62 -106 66 -127 6 -41 18 -48 39 -20 17 22 17 55 2 137 -9 46 -18
67 -30 71 -10 3 -26 16 -37 30 -10 13 -26 24 -35 24 -19 0 -20 19 -5 54 13 28
26 25 39 -9 6 -15 19 -25 36 -27 18 -2 28 -10 30 -22 5 -36 40 -59 86 -58 29
1 38 -1 29 -7 -8 -5 -16 -19 -18 -31 -3 -20 0 -21 38 -15 40 7 41 6 33 -16
-11 -29 -10 -86 0 -96 4 -5 16 3 27 16 17 20 21 22 37 10 9 -8 21 -20 25 -27
5 -8 17 -10 28 -7 27 9 54 -17 75 -71 17 -44 25 -50 84 -56 31 -4 30 4 -15 80
-40 68 -45 86 -15 54 23 -25 48 -28 73 -9 25 18 11 54 -27 66 -75 22 -82 21
-77 -14 1 -5 -6 -1 -14 9 -8 11 -15 23 -15 26 0 4 -34 31 -75 61 -47 34 -75
60 -75 72 0 18 2 17 35 -3 38 -24 65 -21 65 6 0 34 -44 154 -56 154 -26 0 -44
-13 -44 -32 0 -27 -19 -12 -36 29 -12 28 -18 33 -37 28 -12 -4 -27 -13 -33
-21 -17 -22 -22 -17 -26 27 -3 34 -1 40 13 36 11 -3 19 3 23 16 7 28 -9 44
-27 29 -17 -14 -37 3 -37 30 0 10 -3 18 -7 18 -5 0 -18 3 -30 6 -19 5 -23 2
-23 -17 0 -12 7 -31 16 -41 16 -16 15 -19 -5 -35 -15 -12 -20 -24 -16 -36 4
-9 10 -15 14 -13 11 7 25 -7 38 -36 9 -19 20 -28 36 -28 20 0 23 -4 19 -30 -4
-29 -4 -29 -30 -12 -28 18 -162 195 -162 214 0 6 7 19 16 29 14 15 13 20 -16
53 -18 20 -36 36 -41 36 -13 0 -11 -54 2 -67 6 -6 9 -17 6 -25 -7 -21 -78 59
-110 125 -15 31 -29 57 -32 57 -2 0 -14 -14 -26 -31z"/>
<path d="M276 2124 c-16 -16 -10 -54 9 -54 14 0 45 32 45 47 0 17 -39 22 -54
7z"/>
<path d="M1060 2094 c0 -50 41 -64 81 -28 27 24 7 44 -42 44 -29 0 -39 -4 -39
-16z"/>
<path d="M3197 2086 c-19 -29 -13 -56 11 -51 9 2 21 4 26 4 9 1 -1 51 -13 64
-5 4 -15 -3 -24 -17z"/>
<path d="M3622 2060 c-2 -34 0 -40 17 -40 17 0 26 17 37 68 1 7 -9 12 -25 12
-25 0 -27 -4 -29 -40z"/>
<path d="M1540 2076 c-9 -12 -7 -17 9 -26 18 -9 21 -8 21 9 0 26 -15 34 -30
17z"/>
<path d="M4584 2076 c-8 -22 -2 -27 16 -16 12 7 12 12 3 21 -10 10 -14 9 -19
-5z"/>
<path d="M1599 2050 c-5 -30 -2 -33 39 -32 82 1 80 1 75 22 -5 17 -14 20 -59
20 -30 0 -55 -4 -55 -10z"/>
<path d="M4940 2039 c0 -21 1 -22 24 -13 22 8 20 21 -4 27 -15 4 -20 0 -20
-14z"/>
<path d="M5277 2053 c-12 -12 -7 -53 6 -50 17 3 39 35 32 47 -7 11 -28 13 -38
3z"/>
<path d="M277 2034 c-11 -11 -8 -62 3 -69 11 -7 40 12 40 25 0 15 -35 51 -43
44z"/>
<path d="M2000 2026 c0 -25 12 -46 26 -46 14 0 15 25 1 48 -11 16 -27 15 -27
-2z"/>
<path d="M3165 2018 c-12 -31 -1 -72 23 -84 19 -9 20 -13 8 -23 -16 -13 -7
-72 20 -123 24 -46 39 -29 42 48 2 41 9 75 18 85 21 23 17 57 -7 64 -22 7 -39
-7 -39 -32 0 -7 -4 -13 -10 -13 -5 0 -10 8 -10 18 0 9 -9 30 -20 47 -15 24
-20 26 -25 13z"/>
<path d="M2451 1958 c-10 -27 0 -34 29 -18 24 13 22 33 -3 38 -11 2 -21 -6
-26 -20z"/>
<path d="M3960 1961 c-26 -50 8 -94 56 -72 31 14 30 36 -1 66 -29 30 -41 31
-55 6z"/>
<path d="M1550 1950 c-30 -30 -25 -37 30 -51 49 -12 50 -14 50 -50 0 -46 11
-54 49 -35 28 15 81 70 81 86 0 4 -30 15 -66 24 -37 9 -80 24 -95 32 -26 13
-30 13 -49 -6z"/>
<path d="M1991 1951 c-8 -5 -9 -11 -3 -15 5 -3 12 1 16 9 6 17 6 18 -13 6z"/>
<path d="M1030 1919 c0 -31 23 -41 34 -13 10 25 7 31 -14 37 -17 4 -20 0 -20
-24z"/>
<path d="M1480 1936 c0 -2 7 -9 15 -16 12 -10 15 -10 15 4 0 9 -7 16 -15 16
-8 0 -15 -2 -15 -4z"/>
<path d="M4071 1921 c-20 -13 17 -44 46 -38 23 4 27 -2 23 -36 -3 -32 28 -64
76 -81 60 -20 80 -20 88 1 7 19 -68 138 -94 149 -23 10 -125 13 -139 5z"/>
<path d="M2765 1890 c-10 -17 6 -80 21 -80 10 0 14 13 14 45 0 33 -4 45 -14
45 -8 0 -18 -4 -21 -10z"/>
<path d="M421 1834 c0 -11 3 -14 6 -6 3 7 2 16 -1 19 -3 4 -6 -2 -5 -13z"/>
<path d="M1774 1826 c-6 -17 2 -36 17 -36 12 0 12 37 -1 45 -6 3 -13 -1 -16
-9z"/>
<path d="M1320 1812 c0 -6 -3 -17 -6 -25 -4 -12 0 -14 16 -10 12 3 20 12 18
21 -3 17 -28 29 -28 14z"/>
<path d="M2463 1777 c-9 -20 -8 -29 5 -48 15 -22 15 -24 -18 -48 -19 -14 -51
-42 -72 -62 -23 -23 -41 -32 -47 -26 -14 14 -29 0 -46 -40 -25 -60 -18 -82 31
-97 17 -5 24 1 41 41 12 27 23 55 26 63 3 9 18 16 33 18 50 4 95 31 110 68 19
46 18 64 -6 64 -16 0 -19 6 -17 42 2 50 -22 65 -40 25z"/>
<path d="M772 1768 c-7 -7 -32 -13 -55 -13 -35 0 -42 -3 -45 -22 -4 -26 52
-93 78 -93 11 0 20 10 25 28 3 15 16 37 27 49 34 36 5 85 -30 51z"/>
<path d="M3976 1732 c-8 -13 3 -81 17 -107 6 -11 9 -22 8 -25 -1 -3 4 -6 12
-8 9 -2 19 10 26 29 14 42 14 79 -1 79 -6 0 -22 9 -34 21 -13 12 -24 16 -28
11z"/>
<path d="M587 1618 c30 -111 28 -107 53 -101 26 7 36 26 45 84 l7 46 -46 26
c-89 50 -88 51 -59 -55z"/>
<path d="M2780 1708 c0 -2 -3 -26 -6 -53 -5 -46 -4 -51 15 -52 41 -3 49 76 10
98 -11 5 -19 8 -19 7z"/>
<path d="M2255 1672 c-8 -21 4 -30 47 -37 33 -5 37 -4 35 14 -2 32 -71 52 -82
23z"/>
<path d="M4085 1640 c-7 -12 7 -40 32 -62 16 -15 22 -15 52 -2 27 11 31 17 22
28 -16 20 -99 47 -106 36z"/>
<path d="M3360 1630 c0 -5 5 -10 11 -10 5 0 7 5 4 10 -3 6 -8 10 -11 10 -2 0
-4 -4 -4 -10z"/>
<path d="M5162 1619 c2 -7 12 -13 22 -15 23 -3 15 20 -8 24 -11 3 -17 -1 -14
-9z"/>
<path d="M5273 1590 c-29 -23 -29 -29 2 -25 32 3 39 10 28 28 -7 13 -11 13
-30 -3z"/>
<path d="M474 1576 c-14 -11 -16 -18 -8 -26 16 -16 51 -4 57 20 6 24 -20 27
-49 6z"/>
<path d="M3392 1553 c-20 -55 -21 -63 -9 -63 25 0 55 30 59 60 4 26 1 30 -18
30 -14 0 -25 -9 -32 -27z"/>
<path d="M2867 1564 c-26 -26 70 -220 148 -298 l24 -24 -19 -54 c-22 -63 -14
-72 52 -66 43 4 44 4 131 -93 26 -29 31 -42 26 -62 -9 -33 -4 -38 32 -25 17 6
31 9 33 7 18 -22 76 -113 76 -120 0 -15 47 -10 60 6 16 19 44 19 60 0 7 -8 19
-15 27 -15 7 0 16 7 19 15 4 8 10 15 14 15 13 0 5 -28 -14 -49 -16 -18 -16
-22 -2 -49 20 -39 22 -40 87 -47 69 -8 94 -25 120 -81 17 -34 29 -46 50 -51
16 -3 31 -14 35 -25 3 -12 11 -17 21 -14 8 3 23 6 33 6 35 0 6 69 -29 71 -11
0 -10 3 5 9 35 14 39 31 13 53 l-24 19 -11 -28 c-11 -27 -12 -27 -47 47 -19
41 -41 100 -49 132 l-13 58 -80 40 c-44 22 -108 45 -142 51 -56 10 -61 13 -57
35 6 29 -18 31 -62 4 -32 -19 -32 -19 -73 1 -50 25 -107 87 -133 144 -14 33
-25 44 -41 44 -17 0 -28 13 -49 58 -26 54 -189 284 -206 290 -5 1 -11 0 -15
-4z m783 -693 c0 -5 -7 -14 -15 -21 -12 -10 -15 -10 -15 2 0 8 3 18 7 21 9 10
23 9 23 -2z"/>
<path d="M4220 1518 c0 -17 2 -18 15 -8 8 7 15 14 15 15 0 2 -7 5 -15 9 -10 4
-15 -1 -15 -16z"/>
<path d="M3454 1504 c-20 -30 -9 -46 24 -33 15 6 22 17 22 34 0 33 -24 33 -46
-1z"/>
<path d="M3632 1502 c-7 -2 -12 -17 -12 -32 0 -16 -4 -32 -10 -35 -5 -3 -10
-13 -10 -20 0 -11 8 -13 30 -8 27 5 31 3 36 -25 6 -30 31 -50 44 -35 4 4 10
31 13 58 4 38 1 55 -12 71 -17 21 -56 34 -79 26z"/>
<path d="M5181 1480 c-9 -26 -8 -30 8 -30 24 0 29 7 23 35 -6 33 -18 31 -31
-5z"/>
<path d="M4101 1467 c-10 -30 -9 -41 10 -78 12 -24 29 -52 38 -63 16 -19 102
-66 121 -66 25 0 6 31 -40 65 -58 43 -76 68 -57 82 21 17 44 22 54 12 6 -6 21
-7 35 -4 19 5 24 11 21 26 -7 27 -50 47 -116 55 l-55 6 -11 -35z"/>
<path d="M2518 1455 c7 -37 22 -41 22 -6 0 20 -5 31 -14 31 -9 0 -12 -8 -8
-25z"/>
<path d="M2367 1432 c-21 -30 -26 -46 -22 -77 3 -22 9 -43 13 -47 5 -5 30 14
56 42 l48 50 -29 34 c-15 19 -31 35 -34 35 -4 1 -18 -16 -32 -37z"/>
<path d="M3763 1433 c-13 -8 -23 -25 -23 -37 0 -36 11 -65 23 -60 22 7 40 -14
42 -50 2 -31 0 -36 -19 -36 -34 0 -116 56 -116 79 0 19 -34 51 -53 51 -5 0 -6
-12 -2 -27 4 -16 9 -44 11 -63 8 -60 14 -69 85 -125 76 -61 92 -83 78 -106
-14 -23 -11 -33 21 -69 17 -18 30 -43 31 -54 1 -26 8 -67 14 -84 6 -17 41 -7
77 24 16 12 37 25 48 29 11 3 20 14 20 24 0 28 -60 22 -84 -7 -10 -13 -20 -22
-22 -20 -1 2 -12 49 -24 103 -11 55 -27 115 -35 133 -19 41 -19 52 0 52 8 0
15 -5 15 -10 0 -18 65 -110 75 -106 16 5 6 85 -19 158 -22 62 -105 218 -116
217 -3 0 -15 -7 -27 -16z"/>
<path d="M2300 1382 c0 -9 -10 -53 -21 -97 -29 -114 -29 -113 -14 -119 8 -3
26 11 44 35 23 32 28 46 21 67 -4 15 -6 48 -4 74 3 34 0 47 -11 52 -10 3 -15
-1 -15 -12z"/>
<path d="M2614 1386 c-8 -21 3 -49 16 -41 5 3 10 15 10 25 0 25 -18 36 -26 16z"/>
<path d="M1831 1344 c0 -11 3 -14 6 -6 3 7 2 16 -1 19 -3 4 -6 -2 -5 -13z"/>
<path d="M2865 1328 c-7 -25 0 -71 13 -76 8 -2 12 10 12 42 0 42 -15 63 -25
34z"/>
<path d="M5235 1324 c-9 -4 -12 -101 -4 -108 2 -2 21 4 41 13 36 16 37 16 23
48 -14 32 -41 53 -60 47z"/>
<path d="M3920 1302 c0 -9 67 -122 80 -136 4 -4 13 -5 19 -2 23 14 -49 146
-80 146 -10 0 -19 -4 -19 -8z"/>
<path d="M2400 1253 c1 -22 23 -53 39 -53 7 0 9 9 5 28 -10 39 -44 59 -44 25z"/>
<path d="M3327 1223 c-12 -11 -7 -87 7 -105 28 -37 53 -5 41 51 -7 31 -37 65
-48 54z"/>
<path d="M2962 1179 c1 -13 8 -23 13 -21 15 3 12 35 -3 40 -9 3 -13 -3 -10
-19z"/>
<path d="M3260 1180 c0 -5 5 -10 11 -10 5 0 7 5 4 10 -3 6 -8 10 -11 10 -2 0
-4 -4 -4 -10z"/>
<path d="M2866 1131 c-9 -13 2 -52 20 -72 16 -18 15 -21 -20 -54 -21 -19 -41
-35 -46 -35 -21 0 -19 21 5 56 14 20 25 40 25 45 0 15 -21 20 -51 14 l-31 -7
6 -87 c7 -112 7 -111 25 -112 9 -1 29 -2 45 -4 18 -1 35 5 45 16 26 31 31 22
24 -46 -7 -72 -5 -73 65 -59 28 6 32 11 38 51 7 47 31 56 26 10 -4 -30 14 -35
50 -16 15 8 18 17 14 35 -6 24 7 33 19 14 10 -16 45 -12 45 6 0 9 -31 48 -70
85 -38 38 -70 75 -70 83 0 11 -8 12 -37 5 -21 -4 -38 -7 -39 -6 0 1 -11 21
-24 45 -22 39 -51 55 -64 33z"/>
<path d="M3440 1120 c0 -11 7 -20 15 -20 8 0 15 6 15 14 0 8 -7 16 -15 20 -10
4 -15 -1 -15 -14z"/>
<path d="M4015 1098 c8 -33 20 -48 42 -48 17 0 6 52 -14 68 -27 20 -35 14 -28
-20z"/>
<path d="M2135 990 c3 -5 8 -10 11 -10 2 0 4 5 4 10 0 6 -5 10 -11 10 -5 0 -7
-4 -4 -10z"/>
<path d="M1464 912 c-13 -8 -1 -52 14 -52 12 0 42 34 42 48 0 13 -38 16 -56 4z"/>
<path d="M3120 781 c0 -24 8 -48 22 -66 18 -24 26 -26 60 -21 26 4 38 3 38 -6
0 -6 7 -19 16 -29 15 -16 18 -17 40 -3 23 16 74 93 74 113 0 13 -77 4 -132
-14 -34 -11 -38 -11 -51 9 -7 11 -16 29 -20 39 -3 9 -16 17 -27 17 -17 0 -20
-6 -20 -39z"/>
<path d="M4024 628 c-4 -13 -18 -40 -31 -62 -20 -31 -29 -37 -50 -33 -22 4
-24 2 -18 -22 8 -33 53 -81 76 -81 33 0 49 12 49 36 0 26 10 30 28 12 8 -8 15
-8 26 1 13 11 12 19 -5 68 -10 31 -19 67 -19 80 0 32 -46 33 -56 1z"/>
<path d="M3055 620 c3 -5 8 -10 11 -10 2 0 4 5 4 10 0 6 -5 10 -11 10 -5 0 -7
-4 -4 -10z"/>
<path d="M3481 601 c-8 -14 -6 -22 8 -35 34 -30 61 3 36 44 -10 16 -34 11 -44
-9z"/>
<path d="M3690 551 c0 -18 49 -121 57 -121 5 0 18 6 29 14 15 11 19 23 16 50
-2 19 -10 40 -16 45 -18 15 -86 24 -86 12z"/>
</g>
</svg>
