<?xml version="1.0" standalone="no"?>
<!DOCTYPE svg PUBLIC "-//W3C//DTD SVG 20010904//EN"
 "http://www.w3.org/TR/2001/REC-SVG-20010904/DTD/svg10.dtd">
<svg version="1.0" xmlns="http://www.w3.org/2000/svg"
 width="800.000000pt" height="800.000000pt" viewBox="0 0 800.000000 800.000000"
 preserveAspectRatio="xMidYMid meet">
<metadata>
Created by potrace 1.11, written by Peter Selinger 2001-2013
</metadata>
<g transform="translate(0.000000,800.000000) scale(0.100000,-0.100000)"
fill="#000000" stroke="none">
<path d="M3837 7974 c-1 -1 -55 -5 -119 -8 -65 -4 -128 -9 -140 -11 -13 -2
-45 -6 -73 -10 -58 -7 -110 -15 -145 -21 -14 -2 -54 -9 -90 -14 -200 -32 -572
-144 -805 -242 -271 -113 -575 -285 -801 -452 -23 -17 -55 -40 -70 -51 -15
-11 -41 -31 -58 -45 -17 -14 -42 -34 -55 -45 -140 -114 -349 -316 -457 -440
-38 -44 -71 -82 -74 -85 -3 -3 -37 -45 -76 -95 -354 -455 -592 -940 -729
-1485 -24 -96 -46 -191 -49 -210 -3 -19 -12 -72 -20 -118 -8 -45 -18 -115 -22
-155 -3 -39 -8 -75 -10 -78 -16 -27 -23 -494 -10 -679 7 -109 9 -132 26 -265
10 -76 13 -99 25 -162 3 -16 8 -44 11 -63 3 -19 13 -64 21 -100 8 -36 16 -72
18 -80 31 -131 101 -354 162 -510 38 -95 139 -321 172 -380 165 -304 322 -535
517 -760 473 -549 1076 -954 1754 -1180 96 -33 186 -61 200 -64 14 -3 79 -19
145 -34 162 -39 306 -65 430 -77 33 -4 65 -8 72 -10 27 -9 277 -19 443 -19
198 1 332 9 470 29 14 2 48 7 75 11 28 3 59 8 70 10 11 2 61 11 110 20 50 8
158 33 240 54 1200 310 2200 1179 2678 2325 63 151 171 478 191 581 3 10 11
51 20 89 9 39 18 84 21 100 3 17 12 68 20 115 8 47 17 114 20 150 4 36 8 71
11 78 7 24 18 263 18 412 0 133 -9 332 -19 405 -2 17 -6 53 -9 80 -11 122 -55
345 -101 520 -183 692 -541 1312 -1052 1822 -86 86 -120 113 -146 118 -44 9
-94 -16 -109 -53 -8 -20 -12 -520 -13 -1812 -1 -1551 -4 -1869 -20 -2000 -1
-14 -6 -54 -10 -90 -4 -36 -9 -74 -11 -85 -2 -10 -6 -35 -9 -55 -7 -45 -9 -54
-35 -170 -12 -52 -23 -102 -25 -110 -22 -97 -100 -302 -167 -435 -210 -421
-580 -742 -1083 -940 -91 -36 -233 -83 -305 -100 -49 -12 -220 -48 -245 -51
-16 -3 -59 -9 -95 -14 -299 -43 -675 -45 -1010 -5 -36 4 -74 9 -85 12 -11 2
-47 8 -80 14 -439 74 -854 262 -1170 529 -38 32 -204 198 -230 230 -208 255
-320 493 -384 815 -18 90 -26 198 -26 335 0 149 15 210 64 263 67 73 196 99
357 71 104 -17 162 -53 186 -114 5 -14 11 -72 13 -130 11 -324 89 -586 245
-816 63 -94 80 -114 177 -209 97 -96 209 -178 341 -252 100 -55 268 -125 356
-148 28 -8 77 -21 109 -29 32 -8 77 -18 100 -21 23 -4 60 -10 82 -15 22 -5 76
-12 120 -16 44 -4 94 -8 110 -10 50 -6 376 -6 430 1 28 3 88 10 135 16 318 37
605 140 845 303 134 91 330 291 402 411 105 173 194 389 228 549 2 12 11 53
19 91 16 75 21 109 31 195 4 30 10 66 13 80 10 44 12 4258 1 4288 -11 32 -19
38 -148 102 -162 81 -492 210 -621 244 -14 4 -84 22 -156 41 -169 44 -350 78
-479 90 -33 3 -69 8 -81 10 -53 11 -566 28 -577 19z m-1599 -1500 c114 -59
281 -145 372 -192 519 -267 571 -292 601 -292 18 0 69 20 122 49 51 26 191 99
312 161 274 140 522 268 643 331 51 27 95 49 98 49 5 0 4 -13 -15 -115 -6 -33
-13 -76 -16 -95 -8 -53 -26 -152 -31 -180 -3 -14 -6 -34 -8 -45 -5 -30 -38
-217 -42 -240 -2 -10 -6 -37 -9 -60 -3 -22 -8 -47 -10 -55 -2 -8 -7 -31 -10
-50 -3 -19 -12 -71 -20 -115 -8 -44 -17 -96 -20 -115 -3 -19 -7 -46 -10 -60
-5 -24 -15 -85 -16 -98 -7 -50 4 -69 85 -146 155 -149 421 -403 456 -436 32
-30 354 -337 387 -369 18 -17 17 -18 -42 -25 -79 -11 -337 -47 -365 -51 -14
-2 -47 -7 -75 -11 -27 -3 -57 -7 -65 -9 -24 -4 -92 -14 -140 -20 -25 -4 -56
-8 -70 -10 -14 -2 -61 -9 -105 -15 -44 -6 -91 -13 -105 -15 -14 -2 -77 -11
-140 -20 -175 -24 -175 -24 -197 -48 -11 -12 -148 -275 -304 -584 -156 -310
-286 -563 -289 -563 -3 0 -21 33 -41 73 -226 459 -533 1058 -552 1075 -25 24
-51 29 -267 57 -25 3 -56 8 -70 10 -38 6 -182 26 -210 30 -34 4 -110 15 -140
20 -14 2 -49 7 -79 10 -30 4 -61 8 -70 10 -9 1 -41 6 -71 10 -30 4 -63 9 -74
11 -10 2 -91 13 -178 25 l-160 22 79 76 c166 159 427 408 477 454 359 340 392
376 389 427 -1 12 -28 166 -58 335 -10 56 -25 140 -30 170 -3 17 -10 53 -15
80 -5 28 -12 64 -14 80 -5 32 -35 200 -67 380 -11 61 -22 126 -25 145 -3 19
-8 38 -11 43 -9 14 10 6 215 -99z"/>
</g>
</svg>
