<svg version="1.1" xmlns="http://www.w3.org/2000/svg" viewBox="0 0 40 40">
<style type="text/css">circle, ellipse, line, path, polygon, polyline, rect, text { fill: oklch(0.5286 0.1735 255) !important; }</style><path fill="#e6e6e6" d="M24.1 39.9l1.5-34.4c.1 0 .2.1.3.1l1.6 1.6 3.2.2s.1 0 .2.1c.1.2.1.3.1.3l4.3 29.6-11.2 2.5zM.7 35.8l3-23.5s0-.7.3-1c.2-.2 1-.5 1-.5l3.5-1.1c.6-2.7 2.3-8 6.4-9.5 1.4-.5 2.5-.4 3.4.3.2.2.4.4.5.6.8-.1 1.5.1 2.2.6.9.6 1.6 1.8 2.1 3.3l.9-.1c.1 0 .3-.1.6 0L22.8 40 .7 35.8zM15.3 1.6c-3.1 1.1-4.6 5.2-5.3 7.7l3.1-1c.5-2.5 1.6-5.5 4.1-6.7-.4-.3-1-.3-1.9 0zm2.8 1.3c-1.9.8-2.9 2.9-3.4 5l3.9-1.2c0-1.4-.1-2.8-.5-3.8zm.1 11.1c-.3-.1-.7-.2-1-.2-.4 0-.8-.1-1.2-.1-.4 0-.9 0-1.4.1-1 .1-1.9.4-2.8.8-.8.4-1.5.9-2 1.5s-1 1.3-1.3 2.1c-.3.8-.5 1.7-.5 2.6 0 .6 0 1.1.1 1.5.1.5.3.9.5 1.3s.5.8.9 1.1c.3.4.7.7 1.1 1 .3.2.6.5.8.7.2.2.4.4.5.6l.3.6c.1.2.1.4.1.7 0 .2-.1.5-.1.7-.1.2-.2.4-.4.5l-.6.3c-.2.1-.5.1-.8 0-.3-.1-.7-.2-1-.3-.3-.1-.6-.3-.9-.5-.3-.2-.6-.3-.8-.5-.2-.2-.5-.3-.6-.5l-1 3.5c.2.2.4.4.6.7l.9.6c.3.2.7.4 1.1.5.4.2.8.3 1.3.4.9.2 1.8.3 2.7.1.9-.1 1.7-.4 2.3-.9.7-.5 1.3-1.1 1.7-2 .4-.9.7-1.9.7-3.1 0-.7-.1-1.4-.3-2-.2-.6-.5-1.1-.8-1.6-.3-.5-.7-.9-1.2-1.3-.4-.4-.9-.7-1.3-1-.3-.2-.6-.4-.8-.6-.2-.2-.4-.4-.6-.5-.1-.2-.3-.4-.3-.5-.1-.2-.1-.4-.1-.6 0-.3.1-.5.2-.7.1-.2.2-.4.4-.6.2-.2.4-.3.6-.4.3-.1.5-.1.9-.2h1c.3 0 .6.1.9.2.3.1.5.2.8.2l.6.3 1.5-4.5c-.1.2-.4.1-.7 0zm2.1-11.1c-.3-.2-.5-.3-.8-.3.3.8.4 1.9.5 3.1v.5l1.9-.6c-.4-1.2-.9-2.2-1.6-2.7z"/></svg>
