<?xml version="1.0" standalone="no"?>
<!DOCTYPE svg PUBLIC "-//W3C//DTD SVG 20010904//EN"
 "http://www.w3.org/TR/2001/REC-SVG-20010904/DTD/svg10.dtd">
<svg version="1.0" xmlns="http://www.w3.org/2000/svg"
 width="595.000000pt" height="595.000000pt" viewBox="0 0 595.000000 595.000000"
 preserveAspectRatio="xMidYMid meet">
<metadata>
Created by potrace 1.11, written by Peter Selinger 2001-2013
</metadata>
<g transform="translate(0.000000,595.000000) scale(0.100000,-0.100000)"
fill="#000000" stroke="none">
<path d="M2768 5804 c-2 -1 -28 -5 -58 -8 -492 -47 -971 -226 -1375 -515 -145
-103 -232 -177 -365 -311 -365 -365 -609 -794 -743 -1305 -9 -33 -19 -76 -22
-95 -3 -19 -10 -53 -15 -75 -5 -22 -12 -62 -16 -90 -3 -27 -8 -59 -10 -70 -18
-87 -26 -491 -12 -630 12 -123 34 -269 50 -330 5 -22 12 -48 14 -59 29 -152
116 -399 204 -581 210 -434 522 -806 915 -1087 323 -230 712 -400 1090 -473
22 -5 47 -10 55 -11 8 -2 38 -6 65 -9 28 -3 57 -8 65 -10 49 -12 180 -19 360
-20 237 0 368 10 520 40 51 10 76 15 101 20 107 20 345 94 479 149 60 25 278
132 325 159 512 301 905 723 1153 1238 82 171 186 460 205 574 3 17 12 62 21
101 8 38 18 92 22 120 3 27 8 58 10 69 19 99 26 487 11 645 -9 96 -25 202 -51
325 -93 449 -337 937 -635 1270 -399 446 -899 751 -1456 891 -58 14 -201 43
-240 48 -77 11 -123 17 -155 22 -38 6 -507 14 -512 8z m374 -679 c323 -82 536
-396 493 -725 -17 -135 -84 -267 -186 -370 -235 -239 -596 -263 -866 -59 -94
71 -198 223 -228 334 -5 17 -10 37 -13 45 -12 42 -10 239 4 290 95 357 451
573 796 485z m-1847 -849 c227 -9 501 -64 710 -141 137 -50 396 -179 535 -266
118 -75 339 -230 398 -281 18 -15 37 -28 43 -28 9 0 94 60 237 168 32 23 291
189 322 206 175 93 271 140 346 171 49 19 96 39 104 44 8 4 49 18 90 30 41 13
82 26 90 29 48 18 219 53 320 66 127 16 376 14 407 -2 12 -7 35 -29 50 -49
l28 -36 1 -1261 c0 -1028 -2 -1267 -13 -1295 -21 -54 -58 -78 -137 -91 -129
-21 -351 -62 -357 -65 -3 -2 -17 -6 -31 -9 -14 -2 -61 -14 -104 -26 -426 -116
-802 -301 -1245 -612 -69 -48 -130 -55 -177 -21 -232 171 -585 375 -826 478
-162 69 -412 152 -544 180 -115 25 -274 55 -342 65 -47 7 -98 17 -115 23 -35
13 -71 51 -83 87 -13 41 -8 2541 5 2565 21 38 60 66 104 73 24 5 49 7 54 6 6
-2 64 -5 130 -8z"/>
<path d="M2870 4861 c-70 -22 -125 -57 -172 -109 -178 -197 -118 -503 121
-616 57 -26 79 -31 156 -33 75 -2 100 2 148 22 80 32 126 66 171 125 58 76 79
140 79 242 0 75 -4 94 -31 151 -87 187 -283 277 -472 218z"/>
<path d="M1267 4013 c-4 -3 -7 -507 -7 -1119 l0 -1112 48 -7 c155 -22 418 -87
608 -151 317 -106 632 -262 951 -471 61 -40 114 -73 117 -73 3 0 49 29 103 63
389 252 736 417 1096 522 65 19 128 37 140 39 12 3 49 11 82 20 33 9 69 17 80
19 11 2 66 12 123 22 l102 18 0 1120 0 1120 -97 -7 c-54 -4 -107 -9 -118 -11
-11 -3 -36 -7 -55 -10 -59 -8 -93 -15 -150 -31 -30 -8 -59 -16 -65 -18 -51
-13 -129 -39 -161 -53 -21 -9 -44 -18 -50 -19 -27 -5 -274 -130 -376 -190
-135 -80 -315 -202 -484 -330 -120 -90 -125 -93 -173 -90 -44 2 -59 10 -162
87 -377 281 -740 483 -1044 581 -72 23 -196 54 -245 62 -19 3 -46 8 -60 11
-43 9 -196 15 -203 8z"/>
</g>
</svg>
